<svg xmlns="http://www.w3.org/2000/svg" width="3071" height="580" viewBox="0 0 3071 580" version="1.1"><path d="M -0 290 L -0 580.001 1535.750 579.750 L 3071.500 579.500 3071.752 289.750 L 3072.003 0 1536.002 0 L 0 0 -0 290 M 0.493 290.500 L 0.493 580.500 0.750 435.169 L 1.007 289.838 0.750 145.169 L 0.493 0.500 0.493 290.500 M 2017.235 104.999 L 2008.970 105.870 1998.737 107.957 L 1988.504 110.044 1976.502 114.106 L 1964.500 118.167 1953.689 123.549 L 1942.877 128.931 1933.189 135.294 L 1923.500 141.658 1915.822 147.852 L 1908.145 154.046 1899.417 163.273 L 1890.689 172.500 1884.925 180.229 L 1879.160 187.958 1873.956 196.572 L 1868.753 205.187 1863.993 215.843 L 1859.234 226.500 1856.215 236 L 1853.197 245.500 1851.035 256 L 1848.872 266.500 1847.735 280.251 L 1846.597 294.001 1847.801 308.251 L 1849.006 322.500 1851.058 332.500 L 1853.110 342.500 1857.094 354.469 L 1861.078 366.438 1866.473 377.575 L 1871.868 388.712 1880.113 401.106 L 1888.358 413.500 1902.429 427.500 L 1916.500 441.500 1925.750 448 L 1934.999 454.500 1943.250 459.246 L 1951.500 463.991 1961.962 468.580 L 1972.423 473.168 1984.179 476.552 L 1995.935 479.935 2005.218 481.527 L 2014.500 483.119 2031 483.689 L 2047.500 484.259 2060.600 482.590 L 2073.700 480.921 2084.600 478.047 L 2095.500 475.173 2104.415 471.932 L 2113.330 468.691 2123.915 463.267 L 2134.500 457.843 2142.528 452.449 L 2150.556 447.055 2160.528 438.697 L 2170.500 430.339 2175.809 424.524 L 2181.119 418.709 2187.478 410.565 L 2193.837 402.422 2199.096 393.961 L 2204.355 385.500 2209.079 375.500 L 2213.803 365.500 2217.394 354.756 L 2220.986 344.012 2223.723 331.256 L 2226.459 318.500 2226.440 294 L 2226.420 269.500 2223.754 257 L 2221.087 244.500 2217.853 234.500 L 2214.619 224.500 2206.817 209 L 2199.014 193.500 2192.284 184 L 2185.553 174.500 2171.027 159.920 L 2156.500 145.340 2144 137.010 L 2131.500 128.680 2120.500 123.378 L 2109.500 118.076 2095.956 113.556 L 2082.412 109.036 2070.456 106.962 L 2058.500 104.888 2042 104.508 L 2025.500 104.128 2017.235 104.999 M 181.548 109.250 L 180.198 112.500 159.200 168 L 138.203 223.500 89.503 352 L 40.803 480.500 40.342 481.250 L 39.882 482 80.191 481.978 L 120.500 481.955 167.500 352.495 L 214.500 223.035 215.022 223.017 L 215.544 223 263.022 352.485 L 310.500 481.970 350.809 481.985 L 391.118 482 390.592 481.149 L 390.067 480.299 328.666 318.899 L 267.266 157.500 257.478 131.750 L 247.691 106 215.295 106 L 182.898 106 181.548 109.250 M 404 293.922 L 404 482 442 482 L 480 482 480 330 L 480 178 509.750 178.008 L 539.500 178.016 548.410 179.037 L 557.320 180.058 564.748 182.551 L 572.176 185.045 577.838 188.907 L 583.500 192.768 585.618 195.665 L 587.736 198.561 589.872 202.749 L 592.009 206.937 593.489 213.219 L 594.970 219.500 594.970 228 L 594.970 236.500 593.492 242.769 L 592.014 249.038 589.424 254.150 L 586.834 259.261 582.081 264.014 L 577.328 268.767 569.914 272.286 L 562.500 275.806 555 277.508 L 547.500 279.210 531.750 279.747 L 516 280.284 516 316.576 L 516 352.868 560.750 417.423 L 605.500 481.977 651.335 481.988 L 697.170 482 693.730 477.250 L 690.289 472.500 644.144 406.812 L 598 341.124 598 340.562 L 598 340 599.103 340 L 600.205 340 608.436 336.143 L 616.666 332.286 624.434 327.045 L 632.201 321.804 639.493 314.877 L 646.784 307.951 651.763 300.725 L 656.741 293.500 659.496 288.035 L 662.251 282.571 664.718 276.035 L 667.184 269.500 669.160 261 L 671.136 252.500 671.661 234.500 L 672.186 216.500 670.645 206.500 L 669.104 196.500 666.486 187.505 L 663.867 178.511 660.009 170.278 L 656.151 162.045 650.978 154.562 L 645.805 147.079 638.075 139.694 L 630.346 132.309 624.423 128.291 L 618.500 124.274 612.434 121.215 L 606.368 118.157 595.934 114.521 L 585.500 110.885 574.500 108.805 L 563.500 106.725 483.750 106.285 L 404 105.844 404 293.922 M 674.667 106.667 L 674 107.333 674 142.658 L 674 177.982 725.250 178.241 L 776.500 178.500 776.753 330.250 L 777.006 482 814.503 482 L 852 482 852 330 L 852 178 904 178 L 956 178 956 142 L 956 106 815.667 106 L 675.333 106 674.667 106.667 M 978 294 L 978 482 1056.039 482 L 1134.079 482 1143.789 480.933 L 1153.500 479.866 1162.763 477.876 L 1172.027 475.885 1182.583 471.969 L 1193.140 468.053 1201.197 463.277 L 1209.254 458.500 1215.851 452.974 L 1222.448 447.448 1228.321 440.474 L 1234.193 433.500 1239.584 422.500 L 1244.974 411.500 1246.965 403.675 L 1248.956 395.851 1249.978 387.702 L 1251 379.552 1250.994 372.026 L 1250.988 364.500 1249.548 355 L 1248.107 345.500 1245.943 338.500 L 1243.779 331.500 1240.957 325.262 L 1238.136 319.024 1232.970 311.551 L 1227.805 304.079 1219.896 296.523 L 1211.988 288.967 1206.441 285.419 L 1200.894 281.871 1203.385 279.912 L 1205.876 277.952 1211.886 270.481 L 1217.897 263.010 1221.488 256.588 L 1225.079 250.167 1227.937 242.333 L 1230.795 234.500 1232.540 224.058 L 1234.285 213.616 1233.679 201.058 L 1233.072 188.500 1231.098 180.500 L 1229.125 172.500 1226.853 167 L 1224.581 161.500 1221.363 156 L 1218.145 150.500 1213.306 144.534 L 1208.467 138.568 1201.984 133.277 L 1195.500 127.985 1183.500 122.017 L 1171.500 116.048 1163 113.634 L 1154.500 111.220 1144.981 109.603 L 1135.461 107.986 1122.981 107.016 L 1110.500 106.045 1044.250 106.023 L 978 106 978 294 M 1228 106.575 L 1228 107.172 1292.500 212.458 L 1357 317.743 1357 399.872 L 1357 482 1395 482 L 1433 482 1433 399.373 L 1433 316.745 1496.680 213.623 L 1560.361 110.500 1561.795 108.250 L 1563.230 106 1518.761 106 L 1474.292 106 1435.513 170.750 L 1396.734 235.500 1395.617 236.687 L 1394.500 237.874 1354.960 172.187 L 1315.421 106.500 1271.710 106.239 L 1228 105.979 1228 106.575 M 1566 294 L 1566 482 1603.500 482 L 1641 482 1641 330 L 1641 178 1671.250 178.008 L 1701.500 178.016 1710.138 179.006 L 1718.777 179.996 1725.332 182.021 L 1731.887 184.045 1738.176 188.273 L 1744.466 192.500 1748.139 197.393 L 1751.813 202.286 1753.942 208.771 L 1756.070 215.257 1756.636 224.378 L 1757.201 233.500 1755.628 240.878 L 1754.054 248.257 1751.823 252.878 L 1749.593 257.500 1745.046 262.386 L 1740.500 267.271 1736.623 269.728 L 1732.747 272.185 1726.227 274.639 L 1719.708 277.093 1710.104 278.540 L 1700.500 279.988 1689.250 279.994 L 1678 280 1678.013 316.750 L 1678.027 353.500 1722.618 417.750 L 1767.208 482 1812.604 482 L 1858 482 1858 481.539 L 1858 481.077 1809.468 412.036 L 1760.935 342.995 1760.488 341.747 L 1760.041 340.500 1771.410 335.145 L 1782.779 329.791 1791.264 323.423 L 1799.749 317.055 1805.047 311.277 L 1810.344 305.500 1815.681 297.333 L 1821.018 289.165 1824.951 279.333 L 1828.883 269.500 1831.134 259 L 1833.384 248.500 1833.402 229.500 L 1833.420 210.500 1831.655 201.626 L 1829.889 192.752 1827.350 184.626 L 1824.811 176.500 1821.021 168.866 L 1817.232 161.232 1812.938 154.866 L 1808.645 148.500 1801.572 141.439 L 1794.500 134.379 1788 129.792 L 1781.500 125.206 1773.500 121.212 L 1765.500 117.219 1758 114.532 L 1750.500 111.845 1741.193 109.894 L 1731.887 107.942 1719.693 106.994 L 1707.500 106.045 1636.750 106.023 L 1566 106 1566 294 M 2261 293.937 L 2261 482 2339.039 482 L 2417.079 482 2426.789 480.932 L 2436.500 479.863 2445.490 477.876 L 2454.480 475.888 2461.990 473.368 L 2469.500 470.847 2478.461 466.321 L 2487.422 461.794 2494.461 456.470 L 2501.500 451.146 2506.133 446.323 L 2510.766 441.500 2514.466 436.564 L 2518.166 431.629 2522.580 422.841 L 2526.993 414.053 2529.394 405.770 L 2531.794 397.487 2533.039 387.600 L 2534.283 377.713 2533.709 366.606 L 2533.135 355.500 2531.630 348.484 L 2530.126 341.469 2527.438 333.984 L 2524.750 326.500 2521.983 321 L 2519.216 315.500 2514.629 309.276 L 2510.043 303.053 2503.914 297.074 L 2497.785 291.096 2492.143 287.332 L 2486.500 283.568 2485.611 282.845 L 2484.722 282.122 2490.495 275.811 L 2496.269 269.500 2501.024 262.290 L 2505.780 255.081 2508.950 247.466 L 2512.120 239.851 2514.231 232.175 L 2516.342 224.500 2516.385 207 L 2516.429 189.500 2514.790 182.356 L 2513.152 175.213 2510.077 167.532 L 2507.001 159.852 2502.644 153.176 L 2498.288 146.500 2494.040 141.728 L 2489.792 136.957 2483.889 132.415 L 2477.986 127.873 2469.731 123.481 L 2461.475 119.089 2454.565 116.488 L 2447.655 113.887 2439.578 111.909 L 2431.500 109.930 2421 108.300 L 2410.500 106.669 2335.750 106.272 L 2261 105.874 2261 293.937 M 2607.250 118.304 L 2570 130.387 2570 306.194 L 2570 482 2607.500 482 L 2645 482 2645 294 L 2645 106 2644.750 106.111 L 2644.500 106.222 2607.250 118.304 M 2699 294 L 2699 482 2736.996 482 L 2774.992 482 2775.246 365.361 L 2775.500 248.722 2858.348 365.361 L 2941.196 482 2975.598 482 L 3010 482 3010 294 L 3010 106 2972.004 106 L 2934.008 106 2933.754 224.098 L 2933.500 342.195 2926.084 331.848 L 2918.669 321.500 2842.256 213.750 L 2765.843 106 2732.422 106 L 2699 106 2699 294 M 1054 216.089 L 1054 254.179 1088.250 253.751 L 1122.500 253.323 1128.267 251.670 L 1134.034 250.017 1139.051 247.474 L 1144.068 244.932 1148.135 240.865 L 1152.202 236.798 1154.351 232.149 L 1156.500 227.500 1156.500 215.429 L 1156.500 203.359 1153.479 197.452 L 1150.458 191.545 1145.126 187.820 L 1139.793 184.094 1133.647 182.064 L 1127.500 180.034 1120.500 179.037 L 1113.500 178.040 1083.750 178.020 L 1054 178 1054 216.089 M 2337 215.920 L 2337 254 2367.750 253.965 L 2398.500 253.930 2406.464 252.511 L 2414.429 251.092 2421.747 247.475 L 2429.065 243.858 2433.030 238.843 L 2436.994 233.828 2438.584 228.360 L 2440.173 222.892 2440.150 214.654 L 2440.127 206.415 2437.949 200.593 L 2435.770 194.770 2432.029 191.029 L 2428.288 187.288 2422.894 184.674 L 2417.500 182.061 2411.500 180.357 L 2405.500 178.653 2371.250 178.246 L 2337 177.840 2337 215.920 M 2015.500 181.951 L 2006.500 183.860 1999.134 186.410 L 1991.768 188.960 1983.450 193.385 L 1975.132 197.810 1967.290 203.779 L 1959.448 209.749 1953.767 215.885 L 1948.086 222.021 1943.555 228.371 L 1939.024 234.720 1935.082 242.610 L 1931.141 250.500 1928.608 258.065 L 1926.075 265.630 1924.537 274.446 L 1923 283.262 1923 294.596 L 1923 305.929 1924.908 315.715 L 1926.815 325.500 1929.881 333.869 L 1932.947 342.237 1936.579 348.869 L 1940.212 355.500 1945.022 362 L 1949.833 368.500 1958.166 376.616 L 1966.500 384.732 1975.212 390.404 L 1983.924 396.076 1989.481 398.534 L 1995.038 400.991 2001.061 403.021 L 2007.085 405.050 2014.793 406.531 L 2022.500 408.011 2032 408.630 L 2041.500 409.249 2053 407.564 L 2064.500 405.878 2073.237 402.963 L 2081.974 400.047 2087.237 397.400 L 2092.500 394.754 2100.550 389.530 L 2108.600 384.305 2115.365 377.977 L 2122.130 371.649 2128.586 363.075 L 2135.043 354.500 2140 344.500 L 2144.956 334.500 2147.474 325 L 2149.992 315.500 2151.159 304.750 L 2152.326 294 2151.134 283.013 L 2149.943 272.026 2147.442 263.263 L 2144.942 254.500 2140.475 245.169 L 2136.008 235.839 2130.925 228.486 L 2125.842 221.133 2116.956 212.567 L 2108.071 204.001 2099.407 198.354 L 2090.743 192.706 2082.621 189.255 L 2074.500 185.804 2065 183.296 L 2055.500 180.787 2040 180.414 L 2024.500 180.042 2015.500 181.951 M 1054 366.951 L 1054 410.122 1094.750 409.757 L 1135.500 409.393 1141.500 407.649 L 1147.500 405.906 1152.675 403.542 L 1157.850 401.179 1162.405 396.981 L 1166.959 392.783 1169.730 387.142 L 1172.500 381.500 1172.500 369 L 1172.500 356.500 1169.620 350.266 L 1166.741 344.031 1161.844 339.451 L 1156.947 334.870 1150.677 331.936 L 1144.406 329.002 1135.453 326.895 L 1126.500 324.788 1090.250 324.284 L 1054 323.780 1054 366.951 M 2337 367.069 L 2337 410.138 2378.250 409.737 L 2419.500 409.335 2425.446 407.585 L 2431.391 405.836 2436.286 403.355 L 2441.180 400.875 2445.570 396.829 L 2449.959 392.783 2452.730 387.142 L 2455.500 381.500 2455.500 369 L 2455.500 356.500 2452.620 350.266 L 2449.741 344.031 2445.003 339.600 L 2440.266 335.168 2435.192 332.597 L 2430.119 330.026 2422.809 328.037 L 2415.500 326.048 2406.500 325.032 L 2397.500 324.016 2367.250 324.008 L 2337 324 2337 367.069 M 163.308 401.250 L 170.604 412.500 193.052 447.213 L 215.500 481.926 216.595 480.713 L 217.690 479.500 232.043 457 L 246.395 434.500 260.668 412.250 L 274.941 390 215.477 390 L 156.012 390 163.308 401.250" stroke="none" fill="#ffffff" fill-rule="evenodd"/><path d="M 2017.235 104.999 L 2008.970 105.870 1998.737 107.957 L 1988.504 110.044 1976.502 114.106 L 1964.500 118.167 1953.689 123.549 L 1942.877 128.931 1933.189 135.294 L 1923.500 141.658 1915.822 147.852 L 1908.145 154.046 1899.417 163.273 L 1890.689 172.500 1884.925 180.229 L 1879.160 187.958 1873.956 196.572 L 1868.753 205.187 1863.993 215.843 L 1859.234 226.500 1856.215 236 L 1853.197 245.500 1851.035 256 L 1848.872 266.500 1847.735 280.251 L 1846.597 294.001 1847.801 308.251 L 1849.006 322.500 1851.058 332.500 L 1853.110 342.500 1857.094 354.469 L 1861.078 366.438 1866.473 377.575 L 1871.868 388.712 1880.113 401.106 L 1888.358 413.500 1902.429 427.500 L 1916.500 441.500 1925.750 448 L 1934.999 454.500 1943.250 459.246 L 1951.500 463.991 1961.962 468.580 L 1972.423 473.168 1984.179 476.552 L 1995.935 479.935 2005.218 481.527 L 2014.500 483.119 2031 483.689 L 2047.500 484.259 2060.600 482.590 L 2073.700 480.921 2084.600 478.047 L 2095.500 475.173 2104.415 471.932 L 2113.330 468.691 2123.915 463.267 L 2134.500 457.843 2142.528 452.449 L 2150.556 447.055 2160.528 438.697 L 2170.500 430.339 2175.809 424.524 L 2181.119 418.709 2187.478 410.565 L 2193.837 402.422 2199.096 393.961 L 2204.355 385.500 2209.079 375.500 L 2213.803 365.500 2217.394 354.756 L 2220.986 344.012 2223.723 331.256 L 2226.459 318.500 2226.440 294 L 2226.420 269.500 2223.754 257 L 2221.087 244.500 2217.853 234.500 L 2214.619 224.500 2206.817 209 L 2199.014 193.500 2192.284 184 L 2185.553 174.500 2171.027 159.920 L 2156.500 145.340 2144 137.010 L 2131.500 128.680 2120.500 123.378 L 2109.500 118.076 2095.956 113.556 L 2082.412 109.036 2070.456 106.962 L 2058.500 104.888 2042 104.508 L 2025.500 104.128 2017.235 104.999 M 181.548 109.250 L 180.198 112.500 159.200 168 L 138.203 223.500 89.503 352 L 40.803 480.500 40.342 481.250 L 39.882 482 80.191 481.978 L 120.500 481.955 167.500 352.495 L 214.500 223.035 215.022 223.017 L 215.544 223 263.022 352.485 L 310.500 481.970 350.809 481.985 L 391.118 482 390.592 481.149 L 390.067 480.299 328.666 318.899 L 267.266 157.500 257.478 131.750 L 247.691 106 215.295 106 L 182.898 106 181.548 109.250 M 404 293.922 L 404 482 442 482 L 480 482 480 330 L 480 178 509.750 178.008 L 539.500 178.016 548.410 179.037 L 557.320 180.058 564.748 182.551 L 572.176 185.045 577.838 188.907 L 583.500 192.768 585.618 195.665 L 587.736 198.561 589.872 202.749 L 592.009 206.937 593.489 213.219 L 594.970 219.500 594.970 228 L 594.970 236.500 593.492 242.769 L 592.014 249.038 589.424 254.150 L 586.834 259.261 582.081 264.014 L 577.328 268.767 569.914 272.286 L 562.500 275.806 555 277.508 L 547.500 279.210 531.750 279.747 L 516 280.284 516 316.576 L 516 352.868 560.750 417.423 L 605.500 481.977 651.335 481.988 L 697.170 482 693.730 477.250 L 690.289 472.500 644.144 406.812 L 598 341.124 598 340.562 L 598 340 599.103 340 L 600.205 340 608.436 336.143 L 616.666 332.286 624.434 327.045 L 632.201 321.804 639.493 314.877 L 646.784 307.951 651.763 300.725 L 656.741 293.500 659.496 288.035 L 662.251 282.571 664.718 276.035 L 667.184 269.500 669.160 261 L 671.136 252.500 671.661 234.500 L 672.186 216.500 670.645 206.500 L 669.104 196.500 666.486 187.505 L 663.867 178.511 660.009 170.278 L 656.151 162.045 650.978 154.562 L 645.805 147.079 638.075 139.694 L 630.346 132.309 624.423 128.291 L 618.500 124.274 612.434 121.215 L 606.368 118.157 595.934 114.521 L 585.500 110.885 574.500 108.805 L 563.500 106.725 483.750 106.285 L 404 105.844 404 293.922 M 674.667 106.667 L 674 107.333 674 142.658 L 674 177.982 725.250 178.241 L 776.500 178.500 776.753 330.250 L 777.006 482 814.503 482 L 852 482 852 330 L 852 178 904 178 L 956 178 956 142 L 956 106 815.667 106 L 675.333 106 674.667 106.667 M 978 294 L 978 482 1056.039 482 L 1134.079 482 1143.789 480.933 L 1153.500 479.866 1162.763 477.876 L 1172.027 475.885 1182.583 471.969 L 1193.140 468.053 1201.197 463.277 L 1209.254 458.500 1215.851 452.974 L 1222.448 447.448 1228.321 440.474 L 1234.193 433.500 1239.584 422.500 L 1244.974 411.500 1246.965 403.675 L 1248.956 395.851 1249.978 387.702 L 1251 379.552 1250.994 372.026 L 1250.988 364.500 1249.548 355 L 1248.107 345.500 1245.943 338.500 L 1243.779 331.500 1240.957 325.262 L 1238.136 319.024 1232.970 311.551 L 1227.805 304.079 1219.896 296.523 L 1211.988 288.967 1206.441 285.419 L 1200.894 281.871 1203.385 279.912 L 1205.876 277.952 1211.886 270.481 L 1217.897 263.010 1221.488 256.588 L 1225.079 250.167 1227.937 242.333 L 1230.795 234.500 1232.540 224.058 L 1234.285 213.616 1233.679 201.058 L 1233.072 188.500 1231.098 180.500 L 1229.125 172.500 1226.853 167 L 1224.581 161.500 1221.363 156 L 1218.145 150.500 1213.306 144.534 L 1208.467 138.568 1201.984 133.277 L 1195.500 127.985 1183.500 122.017 L 1171.500 116.048 1163 113.634 L 1154.500 111.220 1144.981 109.603 L 1135.461 107.986 1122.981 107.016 L 1110.500 106.045 1044.250 106.023 L 978 106 978 294 M 1228 106.575 L 1228 107.172 1292.500 212.458 L 1357 317.743 1357 399.872 L 1357 482 1395 482 L 1433 482 1433 399.373 L 1433 316.745 1496.680 213.623 L 1560.361 110.500 1561.795 108.250 L 1563.230 106 1518.761 106 L 1474.292 106 1435.513 170.750 L 1396.734 235.500 1395.617 236.687 L 1394.500 237.874 1354.960 172.187 L 1315.421 106.500 1271.710 106.239 L 1228 105.979 1228 106.575 M 1566 294 L 1566 482 1603.500 482 L 1641 482 1641 330 L 1641 178 1671.250 178.008 L 1701.500 178.016 1710.138 179.006 L 1718.777 179.996 1725.332 182.021 L 1731.887 184.045 1738.176 188.273 L 1744.466 192.500 1748.139 197.393 L 1751.813 202.286 1753.942 208.771 L 1756.070 215.257 1756.636 224.378 L 1757.201 233.500 1755.628 240.878 L 1754.054 248.257 1751.823 252.878 L 1749.593 257.500 1745.046 262.386 L 1740.500 267.271 1736.623 269.728 L 1732.747 272.185 1726.227 274.639 L 1719.708 277.093 1710.104 278.540 L 1700.500 279.988 1689.250 279.994 L 1678 280 1678.013 316.750 L 1678.027 353.500 1722.618 417.750 L 1767.208 482 1812.604 482 L 1858 482 1858 481.539 L 1858 481.077 1809.468 412.036 L 1760.935 342.995 1760.488 341.747 L 1760.041 340.500 1771.410 335.145 L 1782.779 329.791 1791.264 323.423 L 1799.749 317.055 1805.047 311.277 L 1810.344 305.500 1815.681 297.333 L 1821.018 289.165 1824.951 279.333 L 1828.883 269.500 1831.134 259 L 1833.384 248.500 1833.402 229.500 L 1833.420 210.500 1831.655 201.626 L 1829.889 192.752 1827.350 184.626 L 1824.811 176.500 1821.021 168.866 L 1817.232 161.232 1812.938 154.866 L 1808.645 148.500 1801.572 141.439 L 1794.500 134.379 1788 129.792 L 1781.500 125.206 1773.500 121.212 L 1765.500 117.219 1758 114.532 L 1750.500 111.845 1741.193 109.894 L 1731.887 107.942 1719.693 106.994 L 1707.500 106.045 1636.750 106.023 L 1566 106 1566 294 M 2261 293.937 L 2261 482 2339.039 482 L 2417.079 482 2426.789 480.932 L 2436.500 479.863 2445.490 477.876 L 2454.480 475.888 2461.990 473.368 L 2469.500 470.847 2478.461 466.321 L 2487.422 461.794 2494.461 456.470 L 2501.500 451.146 2506.133 446.323 L 2510.766 441.500 2514.466 436.564 L 2518.166 431.629 2522.580 422.841 L 2526.993 414.053 2529.394 405.770 L 2531.794 397.487 2533.039 387.600 L 2534.283 377.713 2533.709 366.606 L 2533.135 355.500 2531.630 348.484 L 2530.126 341.469 2527.438 333.984 L 2524.750 326.500 2521.983 321 L 2519.216 315.500 2514.629 309.276 L 2510.043 303.053 2503.914 297.074 L 2497.785 291.096 2492.143 287.332 L 2486.500 283.568 2485.611 282.845 L 2484.722 282.122 2490.495 275.811 L 2496.269 269.500 2501.024 262.290 L 2505.780 255.081 2508.950 247.466 L 2512.120 239.851 2514.231 232.175 L 2516.342 224.500 2516.385 207 L 2516.429 189.500 2514.790 182.356 L 2513.152 175.213 2510.077 167.532 L 2507.001 159.852 2502.644 153.176 L 2498.288 146.500 2494.040 141.728 L 2489.792 136.957 2483.889 132.415 L 2477.986 127.873 2469.731 123.481 L 2461.475 119.089 2454.565 116.488 L 2447.655 113.887 2439.578 111.909 L 2431.500 109.930 2421 108.300 L 2410.500 106.669 2335.750 106.272 L 2261 105.874 2261 293.937 M 2607.250 118.304 L 2570 130.387 2570 306.194 L 2570 482 2607.500 482 L 2645 482 2645 294 L 2645 106 2644.750 106.111 L 2644.500 106.222 2607.250 118.304 M 2699 294 L 2699 482 2736.996 482 L 2774.992 482 2775.246 365.361 L 2775.500 248.722 2858.348 365.361 L 2941.196 482 2975.598 482 L 3010 482 3010 294 L 3010 106 2972.004 106 L 2934.008 106 2933.754 224.098 L 2933.500 342.195 2926.084 331.848 L 2918.669 321.500 2842.256 213.750 L 2765.843 106 2732.422 106 L 2699 106 2699 294 M 1054 216.089 L 1054 254.179 1088.250 253.751 L 1122.500 253.323 1128.267 251.670 L 1134.034 250.017 1139.051 247.474 L 1144.068 244.932 1148.135 240.865 L 1152.202 236.798 1154.351 232.149 L 1156.500 227.500 1156.500 215.429 L 1156.500 203.359 1153.479 197.452 L 1150.458 191.545 1145.126 187.820 L 1139.793 184.094 1133.647 182.064 L 1127.500 180.034 1120.500 179.037 L 1113.500 178.040 1083.750 178.020 L 1054 178 1054 216.089 M 2337 215.920 L 2337 254 2367.750 253.965 L 2398.500 253.930 2406.464 252.511 L 2414.429 251.092 2421.747 247.475 L 2429.065 243.858 2433.030 238.843 L 2436.994 233.828 2438.584 228.360 L 2440.173 222.892 2440.150 214.654 L 2440.127 206.415 2437.949 200.593 L 2435.770 194.770 2432.029 191.029 L 2428.288 187.288 2422.894 184.674 L 2417.500 182.061 2411.500 180.357 L 2405.500 178.653 2371.250 178.246 L 2337 177.840 2337 215.920 M 2015.500 181.951 L 2006.500 183.860 1999.134 186.410 L 1991.768 188.960 1983.450 193.385 L 1975.132 197.810 1967.290 203.779 L 1959.448 209.749 1953.767 215.885 L 1948.086 222.021 1943.555 228.371 L 1939.024 234.720 1935.082 242.610 L 1931.141 250.500 1928.608 258.065 L 1926.075 265.630 1924.537 274.446 L 1923 283.262 1923 294.596 L 1923 305.929 1924.908 315.715 L 1926.815 325.500 1929.881 333.869 L 1932.947 342.237 1936.579 348.869 L 1940.212 355.500 1945.022 362 L 1949.833 368.500 1958.166 376.616 L 1966.500 384.732 1975.212 390.404 L 1983.924 396.076 1989.481 398.534 L 1995.038 400.991 2001.061 403.021 L 2007.085 405.050 2014.793 406.531 L 2022.500 408.011 2032 408.630 L 2041.500 409.249 2053 407.564 L 2064.500 405.878 2073.237 402.963 L 2081.974 400.047 2087.237 397.400 L 2092.500 394.754 2100.550 389.530 L 2108.600 384.305 2115.365 377.977 L 2122.130 371.649 2128.586 363.075 L 2135.043 354.500 2140 344.500 L 2144.956 334.500 2147.474 325 L 2149.992 315.500 2151.159 304.750 L 2152.326 294 2151.134 283.013 L 2149.943 272.026 2147.442 263.263 L 2144.942 254.500 2140.475 245.169 L 2136.008 235.839 2130.925 228.486 L 2125.842 221.133 2116.956 212.567 L 2108.071 204.001 2099.407 198.354 L 2090.743 192.706 2082.621 189.255 L 2074.500 185.804 2065 183.296 L 2055.500 180.787 2040 180.414 L 2024.500 180.042 2015.500 181.951 M 1054 366.951 L 1054 410.122 1094.750 409.757 L 1135.500 409.393 1141.500 407.649 L 1147.500 405.906 1152.675 403.542 L 1157.850 401.179 1162.405 396.981 L 1166.959 392.783 1169.730 387.142 L 1172.500 381.500 1172.500 369 L 1172.500 356.500 1169.620 350.266 L 1166.741 344.031 1161.844 339.451 L 1156.947 334.870 1150.677 331.936 L 1144.406 329.002 1135.453 326.895 L 1126.500 324.788 1090.250 324.284 L 1054 323.780 1054 366.951 M 2337 367.069 L 2337 410.138 2378.250 409.737 L 2419.500 409.335 2425.446 407.585 L 2431.391 405.836 2436.286 403.355 L 2441.180 400.875 2445.570 396.829 L 2449.959 392.783 2452.730 387.142 L 2455.500 381.500 2455.500 369 L 2455.500 356.500 2452.620 350.266 L 2449.741 344.031 2445.003 339.600 L 2440.266 335.168 2435.192 332.597 L 2430.119 330.026 2422.809 328.037 L 2415.500 326.048 2406.500 325.032 L 2397.500 324.016 2367.250 324.008 L 2337 324 2337 367.069 M 163.308 401.250 L 170.604 412.500 193.052 447.213 L 215.500 481.926 216.595 480.713 L 217.690 479.500 232.043 457 L 246.395 434.500 260.668 412.250 L 274.941 390 215.477 390 L 156.012 390 163.308 401.250" stroke="none" fill="#000000" fill-rule="evenodd"/></svg>