<svg xmlns="http://www.w3.org/2000/svg" width="2198" height="462" viewBox="0 0 2198 462" version="1.1"><path d="M 936 18.538 L 927.500 19.882 918.546 22.496 L 909.592 25.109 901.262 28.688 L 892.931 32.267 886.216 36.294 L 879.500 40.322 873.500 44.892 L 867.500 49.463 860.895 56.202 L 854.291 62.940 849.203 70.300 L 844.116 77.660 840.648 84.580 L 837.180 91.500 835.071 97.775 L 832.962 104.049 831.578 110.775 L 830.194 117.500 829.517 125.500 L 828.840 133.500 829.977 143.814 L 831.114 154.127 833.043 161.668 L 834.971 169.208 839.470 178.706 L 843.969 188.203 848.382 194.352 L 852.794 200.500 860.746 208.344 L 868.699 216.188 877.599 222.594 L 886.500 229 902 236.844 L 917.500 244.688 935 251.492 L 952.500 258.296 971.500 265.730 L 990.500 273.164 998.933 277.832 L 1007.367 282.500 1012.519 287.503 L 1017.671 292.506 1019.836 298.291 L 1022 304.075 1022 311.500 L 1022 318.925 1019.857 324.653 L 1017.713 330.382 1012.987 335.108 L 1008.261 339.834 1003.381 342.303 L 998.500 344.772 991.798 346.839 L 985.096 348.905 974.723 350.022 L 964.350 351.139 954.076 350.008 L 943.802 348.878 935.151 346.410 L 926.500 343.942 917.169 339.475 L 907.839 335.008 900.472 329.916 L 893.106 324.823 885.803 317.588 L 878.500 310.354 871 300.723 L 863.500 291.093 862.500 291.365 L 861.500 291.638 835.750 322.388 L 810 353.138 810 354.146 L 810 355.155 821.250 366.679 L 832.500 378.203 841 384.968 L 849.500 391.732 857 396.686 L 864.500 401.641 870 404.688 L 875.500 407.734 886 412.274 L 896.500 416.814 905 419.475 L 913.500 422.135 919.500 423.522 L 925.500 424.908 936.500 426.612 L 947.500 428.316 963 428.346 L 978.500 428.376 990 426.593 L 1001.500 424.809 1013.500 421.364 L 1025.500 417.919 1036.753 412.517 L 1048.007 407.115 1055.753 401.814 L 1063.500 396.514 1072.064 388.007 L 1080.627 379.500 1085.672 372 L 1090.718 364.500 1093.246 359.500 L 1095.773 354.500 1098.759 346 L 1101.745 337.500 1103.501 327.693 L 1105.257 317.886 1104.739 301.693 L 1104.221 285.500 1101.701 275.881 L 1099.182 266.262 1095.715 258.759 L 1092.249 251.256 1087.964 244.878 L 1083.680 238.500 1075.399 230.266 L 1067.119 222.033 1057.239 215.559 L 1047.359 209.085 1035.429 203.143 L 1023.500 197.200 1010 191.679 L 996.500 186.157 976.814 178.607 L 957.127 171.056 947.814 166.866 L 938.500 162.676 931.644 158.588 L 924.789 154.500 919.986 149.785 L 915.184 145.071 913.467 139.902 L 911.750 134.732 912.237 128.116 L 912.723 121.500 915.088 116.500 L 917.452 111.500 921.551 107.399 L 925.649 103.298 932.075 100.142 L 938.500 96.987 946.338 95.493 L 954.176 94 960 94 L 965.824 94 973.648 95.497 L 981.472 96.994 987.986 99.120 L 994.500 101.247 1003.500 105.531 L 1012.500 109.816 1020.499 115.051 L 1028.499 120.285 1040.305 129.786 L 1052.111 139.287 1053.460 137.394 L 1054.809 135.500 1077.887 105.500 L 1100.965 75.500 1100.983 74.920 L 1101 74.339 1089.798 65.420 L 1078.596 56.500 1069.048 50.208 L 1059.500 43.915 1046.500 37.526 L 1033.500 31.137 1024.500 28.004 L 1015.500 24.871 1006.140 22.435 L 996.779 20 985.338 18.500 L 973.898 17 959.199 17.097 L 944.500 17.194 936 18.538 M 139 20.593 L 139 21.186 164.925 89.843 L 190.850 158.500 211.979 214.500 L 233.109 270.500 262.291 347.763 L 291.473 425.026 324.380 424.763 L 357.288 424.500 363.713 407.500 L 370.138 390.500 392.008 332.500 L 413.877 274.500 429.350 233.500 L 444.822 192.500 455.416 164.500 L 466.009 136.500 482.255 93.272 L 498.500 50.043 499.425 50.330 L 500.350 50.617 517.783 79.058 L 535.215 107.500 561.288 150 L 587.362 192.500 604.181 219.862 L 621 247.225 621 336.112 L 621 425 661.500 425 L 702 425 702 336.544 L 702 248.089 724.801 211.294 L 747.603 174.500 767.986 141.500 L 788.369 108.500 815.184 65.212 L 842 21.924 842 20.952 L 842 19.980 794.773 20.240 L 747.546 20.500 705.023 91.249 L 662.500 161.997 661.935 161.999 L 661.371 162 618.535 91 L 575.700 20 499.448 20 L 423.196 20 422.207 22.750 L 421.218 25.500 404.046 72.500 L 386.874 119.500 374.467 153.500 L 362.061 187.500 343.645 238 L 325.229 288.500 324.453 288.309 L 323.676 288.118 312.806 258.309 L 301.936 228.500 285.536 183.500 L 269.136 138.500 248.145 81 L 227.155 23.500 226.470 21.750 L 225.786 20 182.393 20 L 139 20 139 20.593 M 1141 222.500 L 1141 425 1181.500 425 L 1222 425 1222 299 L 1222 173 1222.750 173.045 L 1223.500 173.090 1241.979 199.295 L 1260.458 225.500 1281.055 254.500 L 1301.651 283.500 1351.909 354.250 L 1402.167 425 1439.086 425 L 1476.005 425 1475.752 222.750 L 1475.500 20.500 1435.250 20.239 L 1395 19.977 1395 147.489 L 1395 275 1394.250 274.967 L 1393.500 274.935 1376.373 250.717 L 1359.246 226.500 1329.453 184.500 L 1299.659 142.500 1264.138 92.500 L 1228.617 42.500 1220.654 31.250 L 1212.690 20 1176.845 20 L 1141 20 1141 222.500 M 1644.632 20.787 L 1644.145 21.574 1618.188 90.037 L 1592.231 158.500 1564.020 233 L 1535.809 307.500 1521.972 344 L 1508.135 380.500 1499.700 402.761 L 1491.265 425.021 1534.275 424.761 L 1577.284 424.500 1587.998 395 L 1598.712 365.500 1638 257.500 L 1677.288 149.500 1678.214 147 L 1679.141 144.500 1680.053 146.130 L 1680.965 147.760 1700.550 201.130 L 1720.136 254.500 1734.998 295 L 1749.860 335.500 1759.028 360.500 L 1768.195 385.500 1775.098 404.243 L 1782 422.987 1782 423.993 L 1782 425 1825 425 L 1868 425 1868 424.227 L 1868 423.454 1859.616 401.477 L 1851.232 379.500 1840.204 350.500 L 1829.176 321.500 1772.491 172.503 L 1715.806 23.506 1714.868 21.753 L 1713.930 20 1679.524 20 L 1645.118 20 1644.632 20.787 M 1884 222.500 L 1884 425 1924.500 425 L 1965 425 1965 260.894 L 1965 96.788 2003.250 97.249 L 2041.500 97.709 2049.144 99.786 L 2056.787 101.864 2063.019 105.009 L 2069.250 108.155 2074.048 112.952 L 2078.845 117.750 2081.991 123.983 L 2085.138 130.216 2086.569 137.696 L 2088 145.176 2088 152.023 L 2088 158.869 2086.487 166.064 L 2084.973 173.259 2081.344 180.165 L 2077.715 187.071 2072.715 191.566 L 2067.715 196.062 2060.607 199.458 L 2053.500 202.854 2047 204.606 L 2040.500 206.358 2023 206.929 L 2005.500 207.500 2005.238 245.876 L 2004.976 284.252 2028.238 283.734 L 2051.500 283.216 2057.500 282.082 L 2063.500 280.948 2070.500 279.387 L 2077.500 277.826 2086.628 274.871 L 2095.755 271.917 2104.128 267.703 L 2112.500 263.489 2119.929 258.495 L 2127.359 253.500 2135.562 245.464 L 2143.765 237.429 2149.453 228.703 L 2155.140 219.978 2158.531 212.640 L 2161.922 205.301 2164.497 196.412 L 2167.073 187.524 2168.671 178.012 L 2170.270 168.500 2170.210 152 L 2170.150 135.500 2168.074 123.644 L 2165.998 111.789 2162.963 102.729 L 2159.927 93.669 2155.861 85.585 L 2151.794 77.500 2147.222 71 L 2142.650 64.500 2135.075 56.973 L 2127.500 49.447 2118.918 43.743 L 2110.337 38.040 2102.799 34.605 L 2095.261 31.170 2087.154 28.608 L 2079.047 26.047 2069.168 24.034 L 2059.290 22.021 2045.395 21.019 L 2031.500 20.018 1957.750 20.009 L 1884 20 1884 222.500 M 76.250 33.825 L 37 46.442 37 235.721 L 37 425 78 425 L 119 425 119 223 L 119 21 117.250 21.104 L 115.500 21.209 76.250 33.825" stroke="none" fill="#fef8ec" fill-rule="evenodd"/></svg>