<svg xmlns="http://www.w3.org/2000/svg" width="4042" height="614" viewBox="0 0 4042 614" version="1.1"><path d="M 803.500 65.085 L 793.500 65.891 781 68.063 L 768.500 70.236 756.232 73.595 L 743.965 76.955 733.556 81.025 L 723.146 85.095 713.323 90.123 L 703.500 95.152 692.090 102.730 L 680.680 110.307 670.553 119.001 L 660.426 127.694 651.630 137.684 L 642.834 147.673 636.811 156.087 L 630.787 164.500 625.185 174 L 619.583 183.500 614.402 195 L 609.222 206.500 605.193 218.606 L 601.165 230.713 598.615 242.106 L 596.066 253.500 594.493 264 L 592.921 274.500 591.912 290.443 L 590.904 306.385 591.957 323.231 L 593.010 340.078 594.535 350.230 L 596.059 360.382 598.448 370.941 L 600.837 381.500 604.023 391.500 L 607.209 401.500 610.698 410 L 614.188 418.500 619.196 428.500 L 624.205 438.500 630.740 448.500 L 637.275 458.500 641.852 464.500 L 646.428 470.500 657.464 481.852 L 668.500 493.203 677 499.983 L 685.500 506.763 695 512.925 L 704.500 519.088 716.500 524.928 L 728.500 530.769 738.207 534.360 L 747.914 537.950 759.207 540.951 L 770.500 543.951 783 545.939 L 795.500 547.927 810.388 549.056 L 825.276 550.185 842.388 549.052 L 859.500 547.920 871.197 545.945 L 882.894 543.971 892.197 541.550 L 901.500 539.129 910.500 535.949 L 919.500 532.770 928.500 528.745 L 937.500 524.719 947.153 519.238 L 956.806 513.757 967.153 506.064 L 977.500 498.372 986.268 490.060 L 995.035 481.749 1002.373 472.624 L 1009.711 463.500 1015.960 454 L 1022.209 444.500 1029.044 430.500 L 1035.878 416.500 1039.403 406.891 L 1042.927 397.283 1045.358 388.891 L 1047.789 380.500 1050.477 368.513 L 1053.165 356.525 1055.038 343.513 L 1056.912 330.500 1057.908 318.500 L 1058.903 306.500 1059.564 292.250 L 1060.225 278 943.112 278 L 826 278 826 322.500 L 826 367 876 367 L 926 367 926 370.840 L 926 374.680 924.081 382.183 L 922.162 389.687 919.100 396.440 L 916.038 403.193 911.607 409.346 L 907.176 415.500 901.838 420.649 L 896.500 425.799 889.567 430.397 L 882.634 434.996 874.626 438.084 L 866.619 441.172 857.559 443.289 L 848.500 445.406 827.500 445.411 L 806.500 445.415 798.758 443.250 L 791.016 441.086 784.903 438.617 L 778.791 436.148 770.812 431.325 L 762.834 426.502 755.455 419.703 L 748.076 412.903 742.173 405.069 L 736.270 397.235 732.204 389.867 L 728.138 382.500 725.136 375 L 722.135 367.500 719.531 358.513 L 716.928 349.527 715.424 341.013 L 713.921 332.500 712.999 316.663 L 712.077 300.825 713.095 289.663 L 714.113 278.500 716.113 268.500 L 718.113 258.500 721.496 248.349 L 724.878 238.197 729.054 229.849 L 733.230 221.500 737.852 214.500 L 742.473 207.500 749.882 199.737 L 757.290 191.975 764.028 186.979 L 770.767 181.984 780.133 177.583 L 789.500 173.181 797.018 171.104 L 804.535 169.026 815.018 167.935 L 825.500 166.843 833 167.500 L 840.500 168.156 849.244 170.032 L 857.989 171.909 865.997 175.379 L 874.004 178.849 881.252 183.661 L 888.500 188.473 896.341 195.956 L 904.182 203.439 909.841 210.984 L 915.500 218.530 920 226.775 L 924.500 235.020 926 234.660 L 927.500 234.300 981.500 211.505 L 1035.500 188.711 1036.414 187.891 L 1037.329 187.071 1030.914 176.435 L 1024.500 165.798 1016.544 155.149 L 1008.589 144.500 996.044 131.919 L 983.500 119.339 972 110.825 L 960.500 102.311 951.976 97.205 L 943.452 92.099 931.976 86.587 L 920.500 81.076 907 76.600 L 893.500 72.125 881 69.509 L 868.500 66.894 855 65.458 L 841.500 64.021 827.500 64.151 L 813.500 64.280 803.500 65.085 M 3263 65.023 L 3254.500 65.906 3244.500 67.531 L 3234.500 69.155 3223 72.016 L 3211.500 74.878 3202.500 78.050 L 3193.500 81.223 3182.831 85.994 L 3172.161 90.764 3161.831 97.003 L 3151.500 103.241 3142 110.362 L 3132.500 117.482 3121.404 128.491 L 3110.308 139.500 3104.643 146.710 L 3098.979 153.920 3091.905 164.710 L 3084.831 175.500 3077.999 189.500 L 3071.167 203.500 3066.714 216.500 L 3062.261 229.500 3059.580 240.783 L 3056.898 252.066 3054.933 265.283 L 3052.967 278.500 3052.340 296 L 3051.712 313.500 3052.922 328.500 L 3054.131 343.500 3056.085 355 L 3058.039 366.500 3061.494 379.659 L 3064.950 392.819 3068.586 402.659 L 3072.222 412.500 3078.537 425.502 L 3084.853 438.503 3092.818 450.502 L 3100.783 462.500 3109.745 473 L 3118.708 483.500 3127.104 490.933 L 3135.500 498.366 3144.500 505.016 L 3153.500 511.666 3161.056 516.225 L 3168.611 520.785 3177.556 525.277 L 3186.500 529.769 3199 534.288 L 3211.500 538.807 3224 541.894 L 3236.500 544.982 3246.500 546.449 L 3256.500 547.916 3272 549.028 L 3287.500 550.140 3298.500 549.516 L 3309.500 548.892 3321.500 547.411 L 3333.500 545.930 3344.848 543.393 L 3356.197 540.856 3367.396 536.994 L 3378.595 533.132 3388.029 529.040 L 3397.464 524.949 3406.982 519.548 L 3416.500 514.147 3426.500 507.213 L 3436.500 500.279 3446.100 491.730 L 3455.700 483.181 3463.514 474.643 L 3471.328 466.105 3478.426 456.632 L 3485.524 447.159 3491.723 436.830 L 3497.923 426.500 3498.489 424.956 L 3499.056 423.413 3443.850 401.066 L 3388.644 378.720 3387.072 378.321 L 3385.500 377.922 3382.500 383.711 L 3379.500 389.500 3374.869 396.599 L 3370.237 403.698 3364.061 410.514 L 3357.885 417.329 3350.268 423.661 L 3342.651 429.994 3333.002 434.950 L 3323.353 439.906 3314.427 442.660 L 3305.500 445.413 3286 445.413 L 3266.500 445.413 3257.500 442.667 L 3248.500 439.921 3241.201 436.486 L 3233.902 433.052 3226.491 427.928 L 3219.079 422.805 3211.668 415.048 L 3204.258 407.292 3199.262 399.888 L 3194.266 392.484 3190.249 384.492 L 3186.232 376.500 3182.668 366 L 3179.103 355.500 3177.062 345.500 L 3175.020 335.500 3173.822 319.264 L 3172.624 303.028 3173.812 290.420 L 3175 277.813 3177.060 267.656 L 3179.120 257.500 3182.105 248.500 L 3185.089 239.500 3189.470 230.500 L 3193.850 221.500 3199.232 213.711 L 3204.614 205.922 3212.557 197.867 L 3220.500 189.812 3228.500 184.493 L 3236.500 179.174 3242.500 176.520 L 3248.500 173.867 3256.871 171.431 L 3265.242 168.995 3277.123 167.867 L 3289.003 166.739 3297.946 167.886 L 3306.888 169.032 3315.476 171.521 L 3324.064 174.010 3331.891 177.945 L 3339.719 181.881 3347.707 187.900 L 3355.696 193.920 3361.745 200.386 L 3367.794 206.853 3372.305 213.177 L 3376.816 219.500 3381.039 227.332 L 3385.263 235.165 3386.881 234.681 L 3388.500 234.198 3442.833 211.183 L 3497.165 188.168 3497.647 187.686 L 3498.129 187.204 3492.523 177.852 L 3486.916 168.500 3480.708 159.827 L 3474.500 151.154 3467 142.421 L 3459.500 133.687 3450 125.075 L 3440.500 116.462 3434.500 111.871 L 3428.500 107.280 3419 101.030 L 3409.500 94.780 3396.500 88.467 L 3383.500 82.154 3371 77.673 L 3358.500 73.192 3347 70.629 L 3335.500 68.066 3325.500 66.469 L 3315.500 64.873 3293.500 64.507 L 3271.500 64.140 3263 65.023 M 127 305 L 127 534 254.500 534 L 382 534 382 483 L 382 432 311.500 432 L 241 432 241 254 L 241 76 184 76 L 127 76 127 305 M 423 305 L 423 534 480 534 L 537 534 537 305 L 537 76 480 76 L 423 76 423 305 M 1112 305 L 1112 534 1169.500 534 L 1227 534 1227 439 L 1227 344 1311.500 344 L 1396 344 1396 439 L 1396 534 1453.500 534 L 1511 534 1511 305 L 1511 76 1453.500 76 L 1396 76 1396 165.500 L 1396 255 1311.500 255 L 1227 255 1227 165.500 L 1227 76 1169.500 76 L 1112 76 1112 305 M 1600.241 76.750 L 1551.982 77.019 1552.241 127.760 L 1552.500 178.500 1600.250 178.760 L 1648 179.019 1648 356.510 L 1648 534 1705.500 534 L 1763 534 1763 356.500 L 1763 179 1810.500 179 L 1858 179 1858 128.164 L 1858 77.329 1786.750 76.665 L 1715.500 76.002 1682 76.241 L 1648.500 76.480 1600.241 76.750 M 1915.241 76.750 L 1866.982 77.019 1867.241 127.760 L 1867.500 178.500 1915.250 178.760 L 1963 179.019 1963 356.510 L 1963 534 2020.500 534 L 2078 534 2078 356.500 L 2078 179 2125.500 179 L 2173 179 2173 128.164 L 2173 77.329 2101.750 76.665 L 2030.500 76.002 1997 76.241 L 1963.500 76.480 1915.241 76.750 M 2215 305 L 2215 534 2272 534 L 2329 534 2329 451.452 L 2329 368.905 2335.103 369.202 L 2341.206 369.500 2355.698 393 L 2370.191 416.500 2406.245 475.250 L 2442.298 534 2512.272 534 L 2582.245 534 2581.284 532.750 L 2580.322 531.500 2517.661 446.353 L 2455 361.206 2455 360.239 L 2455 359.272 2459.750 357.521 L 2464.500 355.769 2473 351.267 L 2481.500 346.765 2488 342.185 L 2494.500 337.605 2500.899 331.553 L 2507.299 325.500 2513.130 317.690 L 2518.961 309.879 2523.425 301.690 L 2527.889 293.500 2531.560 282.527 L 2535.232 271.554 2537.075 262.527 L 2538.919 253.500 2540.133 238.418 L 2541.348 223.335 2540.184 208.272 L 2539.021 193.210 2536.971 182.589 L 2534.922 171.969 2531.384 161.735 L 2527.847 151.500 2523.913 144.153 L 2519.978 136.806 2516.386 131.393 L 2512.793 125.981 2505.798 118.491 L 2498.803 111.001 2490.930 105.068 L 2483.058 99.136 2474.398 94.416 L 2465.738 89.695 2455.066 85.936 L 2444.394 82.177 2434.447 80.100 L 2424.500 78.023 2414.144 77.012 L 2403.788 76 2309.394 76 L 2215 76 2215 305 M 2670.240 303.243 L 2588.169 530.500 2587.475 532.257 L 2586.780 534.015 2650.557 533.757 L 2714.334 533.500 2766.984 375.549 L 2819.634 217.599 2820.173 218.549 L 2820.711 219.500 2872.896 376.750 L 2925.080 534 2988.648 534 L 3052.217 534 3051.624 531.750 L 3051.031 529.500 2969.215 303 L 2887.399 76.500 2819.855 76.243 L 2752.311 75.986 2670.240 303.243 M 3547 305 L 3547 534 3604.495 534 L 3661.990 534 3662.245 438.108 L 3662.500 342.217 3736.954 438.108 L 3811.408 534 3887.824 534 L 3964.241 534 3960.765 529.750 L 3957.289 525.500 3917.395 475.873 L 3877.500 426.245 3824.701 360.616 L 3771.903 294.987 3849.146 197.743 L 3926.389 100.500 3936.234 88.250 L 3946.080 76 3872.790 76.008 L 3799.500 76.016 3741.300 156.258 L 3683.100 236.500 3672.800 250.833 L 3662.500 265.167 3662.245 170.583 L 3661.990 76 3604.495 76 L 3547 76 3547 305 M 2329 222.493 L 2329 277.232 2355.750 276.701 L 2382.500 276.171 2387.500 274.965 L 2392.500 273.760 2398.500 271.037 L 2404.500 268.313 2409.500 263.766 L 2414.500 259.220 2417.732 253.841 L 2420.963 248.463 2422.982 240.572 L 2425 232.680 2424.983 223.090 L 2424.965 213.500 2423.486 206.517 L 2422.007 199.535 2419.318 194.017 L 2416.628 188.500 2411.064 182.936 L 2405.500 177.372 2399.869 174.627 L 2394.238 171.882 2388.869 170.344 L 2383.500 168.807 2356.250 168.280 L 2329 167.754 2329 222.493 M 2809.813 392.683 L 2811.125 393.208 2811.729 392.604 L 2812.333 392 2810.417 392.079 L 2808.500 392.158 2809.813 392.683 M 2827.813 392.683 L 2829.125 393.208 2829.729 392.604 L 2830.333 392 2828.417 392.079 L 2826.500 392.158 2827.813 392.683 M 2805 393.500 L 2805 394 2805.500 394 L 2806 394 2806 393.500 L 2806 393 2805.500 393 L 2805 393 2805 393.500 M 2832.333 393.667 L 2833 394.333 2833.667 393.667 L 2834.333 393 2833 393 L 2831.667 393 2832.333 393.667 M 2801.333 394.667 L 2802 395.333 2802.667 394.667 L 2803.333 394 2802 394 L 2800.667 394 2801.333 394.667 M 2836.333 394.667 L 2837 395.333 2837.667 394.667 L 2838.333 394 2837 394 L 2835.667 394 2836.333 394.667 M 2798.333 395.667 L 2799 396.333 2799.667 395.667 L 2800.333 395 2799 395 L 2797.667 395 2798.333 395.667 M 2839.333 395.667 L 2840 396.333 2840.667 395.667 L 2841.333 395 2840 395 L 2838.667 395 2839.333 395.667 M 2794.507 396.989 L 2793.896 397.977 2795.448 397.382 L 2797 396.786 2797 396.393 L 2797 396 2796.059 396 L 2795.118 396 2794.507 396.989 M 2842 396.500 L 2842 397 2842.500 397 L 2843 397 2843 396.500 L 2843 396 2842.500 396 L 2842 396 2842 396.500 M 2844 397.500 L 2844 398 2844.500 398 L 2845 398 2845 397.500 L 2845 397 2844.500 397 L 2844 397 2844 397.500 M 2792 398.500 L 2792 399 2792.500 399 L 2793 399 2793 398.500 L 2793 398 2792.500 398 L 2792 398 2792 398.500 M 2846 398.500 L 2846 399 2846.500 399 L 2847 399 2847 398.500 L 2847 398 2846.500 398 L 2846 398 2846 398.500 M 2790 399.500 L 2790 400 2790.500 400 L 2791 400 2791 399.500 L 2791 399 2790.500 399 L 2790 399 2790 399.500 M 2848 399.500 L 2848 400 2848.500 400 L 2849 400 2849 399.500 L 2849 399 2848.500 399 L 2848 399 2848 399.500 M 2787.405 401.155 L 2786.691 402.309 2787.845 401.595 L 2789 400.882 2789 400.441 L 2789 400 2788.559 400 L 2788.118 400 2787.405 401.155 M 2851 401.500 L 2851 402 2851.500 402 L 2852 402 2852 401.500 L 2852 401 2851.500 401 L 2851 401 2851 401.500 M 2784.405 403.155 L 2783.691 404.309 2784.845 403.595 L 2786 402.882 2786 402.441 L 2786 402 2785.559 402 L 2785.118 402 2784.405 403.155 M 2853 402.378 L 2853 402.755 2854.750 404.128 L 2856.500 405.500 2855.128 403.750 L 2853.755 402 2853.378 402 L 2853 402 2853 402.378 M 2776.946 409.750 L 2773.500 413.500 2777.250 410.054 L 2781 406.608 2781 406.304 L 2781 406 2780.696 406 L 2780.392 406 2776.946 409.750 M 2861.500 410 L 2863.310 412 2863.810 412 L 2864.310 412 2862.500 410 L 2860.690 408 2860.190 408 L 2859.690 408 2861.500 410 M 2771.405 416.155 L 2770.691 417.309 2771.845 416.595 L 2773 415.882 2773 415.441 L 2773 415 2772.559 415 L 2772.118 415 2771.405 416.155 M 2866.500 416 L 2867.118 417 2867.618 417 L 2868.118 417 2867.500 416 L 2866.882 415 2866.382 415 L 2865.882 415 2866.500 416 M 2868.500 419 L 2869.118 420 2869.618 420 L 2870.118 420 2869.500 419 L 2868.882 418 2868.382 418 L 2867.882 418 2868.500 419 M 2769 419.500 L 2769 420 2769.500 420 L 2770 420 2770 419.500 L 2770 419 2769.500 419 L 2769 419 2769 419.500 M 2768 421.500 L 2768 422 2768.500 422 L 2769 422 2769 421.500 L 2769 421 2768.500 421 L 2768 421 2768 421.500 M 2870 421.500 L 2870 422 2870.500 422 L 2871 422 2871 421.500 L 2871 421 2870.500 421 L 2870 421 2870 421.500 M 2871 423.500 L 2871 424 2871.500 424 L 2872 424 2872 423.500 L 2872 423 2871.500 423 L 2871 423 2871 423.500 M 2766 424.500 L 2766 425 2766.500 425 L 2767 425 2767 424.500 L 2767 424 2766.500 424 L 2766 424 2766 424.500 M 2872 425.500 L 2872 426 2872.500 426 L 2873 426 2873 425.500 L 2873 425 2872.500 425 L 2872 425 2872 425.500 M 2765 426.500 L 2765 427 2765.500 427 L 2766 427 2766 426.500 L 2766 426 2765.500 426 L 2765 426 2765 426.500 M 2873 427.500 L 2873 428 2873.500 428 L 2874 428 2874 427.500 L 2874 427 2873.500 427 L 2873 427 2873 427.500 M 2764 428.500 L 2764 429 2764.500 429 L 2765 429 2765 428.500 L 2765 428 2764.500 428 L 2764 428 2764 428.500 M 2874 429.500 L 2874 430 2874.500 430 L 2875 430 2875 429.500 L 2875 429 2874.500 429 L 2874 429 2874 429.500 M 2763 431.500 L 2763 432 2763.500 432 L 2764 432 2764 431.500 L 2764 431 2763.500 431 L 2763 431 2763 431.500 M 2875 432 L 2875 433.333 2875.667 432.667 L 2876.333 432 2875.667 431.333 L 2875 430.667 2875 432 M 2762 434.500 L 2762 435 2762.500 435 L 2763 435 2763 434.500 L 2763 434 2762.500 434 L 2762 434 2762 434.500 M 2876 435 L 2876 436.333 2876.667 435.667 L 2877.333 435 2876.667 434.333 L 2876 433.667 2876 435 M 2761 438 L 2761 439.333 2761.667 438.667 L 2762.333 438 2761.667 437.333 L 2761 436.667 2761 438 M 2877 439 L 2877 440.333 2877.667 439.667 L 2878.333 439 2877.667 438.333 L 2877 437.667 2877 439 M 2760.079 442.583 L 2760.158 444.500 2760.683 443.188 L 2761.208 441.875 2760.604 441.271 L 2760 440.667 2760.079 442.583 M 2878.158 444 L 2878.158 446.500 2878.662 445.250 L 2879.167 444 2878.662 442.750 L 2878.158 441.500 2878.158 444 M 2759.286 453.500 L 2759.300 458.500 2759.718 455.736 L 2760.135 452.973 2759.704 450.736 L 2759.272 448.500 2759.286 453.500 M 2879.079 453.583 L 2879.158 455.500 2879.683 454.188 L 2880.208 452.875 2879.604 452.271 L 2879 451.667 2879.079 453.583 M 2878.079 463.583 L 2878.158 465.500 2878.683 464.188 L 2879.208 462.875 2878.604 462.271 L 2878 461.667 2878.079 463.583 M 2760.079 464.583 L 2760.158 466.500 2760.683 465.188 L 2761.208 463.875 2760.604 463.271 L 2760 462.667 2760.079 464.583 M 2877.079 468.583 L 2877.158 470.500 2877.683 469.188 L 2878.208 467.875 2877.604 467.271 L 2877 466.667 2877.079 468.583 M 2761 469 L 2761 470.333 2761.667 469.667 L 2762.333 469 2761.667 468.333 L 2761 467.667 2761 469 M 2762 472.500 L 2762 473 2762.500 473 L 2763 473 2763 472.500 L 2763 472 2762.500 472 L 2762 472 2762 472.500 M 2876 472.500 L 2876 473 2876.500 473 L 2877 473 2877 472.500 L 2877 472 2876.500 472 L 2876 472 2876 472.500 M 2875 475 L 2875 476.333 2875.667 475.667 L 2876.333 475 2875.667 474.333 L 2875 473.667 2875 475 M 2763 475.500 L 2763 476 2763.500 476 L 2764 476 2764 475.500 L 2764 475 2763.500 475 L 2763 475 2763 475.500 M 2874 477.500 L 2874 478 2874.500 478 L 2875 478 2875 477.500 L 2875 477 2874.500 477 L 2874 477 2874 477.500 M 2764 478.500 L 2764 479 2764.500 479 L 2765 479 2765 478.500 L 2765 478 2764.500 478 L 2764 478 2764 478.500 M 2873 479.500 L 2873 480 2873.500 480 L 2874 480 2874 479.500 L 2874 479 2873.500 479 L 2873 479 2873 479.500 M 2765 480.500 L 2765 481 2765.500 481 L 2766 481 2766 480.500 L 2766 480 2765.500 480 L 2765 480 2765 480.500 M 2766 482.500 L 2766 483 2766.500 483 L 2767 483 2767 482.500 L 2767 482 2766.500 482 L 2766 482 2766 482.500 M 2872 482.500 L 2872 483 2872.500 483 L 2873 483 2873 482.500 L 2873 482 2872.500 482 L 2872 482 2872 482.500 M 2767 484.500 L 2767 485 2767.500 485 L 2768 485 2768 484.500 L 2768 484 2767.500 484 L 2767 484 2767 484.500 M 2870 485.500 L 2870 486 2870.500 486 L 2871 486 2871 485.500 L 2871 485 2870.500 485 L 2870 485 2870 485.500 M 2769 487.500 L 2769 488 2769.500 488 L 2770 488 2770 487.500 L 2770 487 2769.500 487 L 2769 487 2769 487.500 M 2868.405 488.155 L 2867.691 489.309 2868.845 488.595 L 2870 487.882 2870 487.441 L 2870 487 2869.559 487 L 2869.118 487 2868.405 488.155 M 2771.500 491 L 2772.118 492 2772.618 492 L 2773.118 492 2772.500 491 L 2771.882 490 2771.382 490 L 2770.882 490 2771.500 491 M 2866.405 491.155 L 2865.691 492.309 2866.845 491.595 L 2868 490.882 2868 490.441 L 2868 490 2867.559 490 L 2867.118 490 2866.405 491.155 M 2777.500 498 L 2781.406 502 2781.906 502 L 2782.406 502 2778.500 498 L 2774.594 494 2774.094 494 L 2773.594 494 2777.500 498 M 2860.437 498.250 L 2857.500 501.500 2860.750 498.563 L 2864 495.626 2864 495.313 L 2864 495 2863.687 495 L 2863.374 495 2860.437 498.250 M 2784.500 504 L 2785.118 505 2785.618 505 L 2786.118 505 2785.500 504 L 2784.882 503 2784.382 503 L 2783.882 503 2784.500 504 M 2853.405 504.155 L 2852.691 505.309 2853.845 504.595 L 2855 503.882 2855 503.441 L 2855 503 2854.559 503 L 2854.118 503 2853.405 504.155 M 2787.500 506 L 2788.118 507 2788.618 507 L 2789.118 507 2788.500 506 L 2787.882 505 2787.382 505 L 2786.882 505 2787.500 506 M 2850.405 506.155 L 2849.691 507.309 2850.845 506.595 L 2852 505.882 2852 505.441 L 2852 505 2851.559 505 L 2851.118 505 2850.405 506.155 M 2790.500 508 L 2791.118 509 2791.618 509 L 2792.118 509 2791.500 508 L 2790.882 507 2790.382 507 L 2789.882 507 2790.500 508 M 2848 507.500 L 2848 508 2848.500 508 L 2849 508 2849 507.500 L 2849 507 2848.500 507 L 2848 507 2848 507.500 M 2846 508.500 L 2846 509 2846.500 509 L 2847 509 2847 508.500 L 2847 508 2846.500 508 L 2846 508 2846 508.500 M 2794 509.500 L 2794 510 2794.500 510 L 2795 510 2795 509.500 L 2795 509 2794.500 509 L 2794 509 2794 509.500 M 2844 509.500 L 2844 510 2844.500 510 L 2845 510 2845 509.500 L 2845 509 2844.500 509 L 2844 509 2844 509.500 M 2796 510.500 L 2796 511 2796.500 511 L 2797 511 2797 510.500 L 2797 510 2796.500 510 L 2796 510 2796 510.500 M 2842 510.500 L 2842 511 2842.500 511 L 2843 511 2843 510.500 L 2843 510 2842.500 510 L 2842 510 2842 510.500 M 2798.333 511.667 L 2799 512.333 2799.667 511.667 L 2800.333 511 2799 511 L 2797.667 511 2798.333 511.667 M 2839.333 511.667 L 2840 512.333 2840.667 511.667 L 2841.333 511 2840 511 L 2838.667 511 2839.333 511.667 M 2801.333 512.667 L 2802 513.333 2802.667 512.667 L 2803.333 512 2802 512 L 2800.667 512 2801.333 512.667 M 2836.333 512.667 L 2837 513.333 2837.667 512.667 L 2838.333 512 2837 512 L 2835.667 512 2836.333 512.667 M 2805 513.500 L 2805 514 2805.500 514 L 2806 514 2806 513.500 L 2806 513 2805.500 513 L 2805 513 2805 513.500 M 2832.333 513.667 L 2833 514.333 2833.667 513.667 L 2834.333 513 2833 513 L 2831.667 513 2832.333 513.667 M 2809.813 514.683 L 2811.125 515.208 2811.729 514.604 L 2812.333 514 2810.417 514.079 L 2808.500 514.158 2809.813 514.683 M 2827.813 514.683 L 2829.125 515.208 2829.729 514.604 L 2830.333 514 2828.417 514.079 L 2826.500 514.158 2827.813 514.683 M 2818.269 515.693 L 2820.038 516.154 2821.269 515.656 L 2822.500 515.158 2819.500 515.195 L 2816.500 515.232 2818.269 515.693" stroke="none" fill="#626455" fill-rule="evenodd"/><path d="M 2808.500 393.022 L 2804.500 393.825 2798.854 395.945 L 2793.208 398.066 2787.354 401.857 L 2781.500 405.649 2776.260 411.394 L 2771.020 417.139 2767.507 423.421 L 2763.994 429.702 2761.997 437.511 L 2760 445.320 2760 453.500 L 2760 461.680 2761.975 469.404 L 2763.951 477.128 2767.093 483.024 L 2770.236 488.920 2775.748 495.011 L 2781.260 501.102 2786.880 504.916 L 2792.500 508.730 2799.992 511.431 L 2807.484 514.131 2815.578 514.703 L 2823.671 515.274 2831.339 513.568 L 2839.007 511.862 2845.993 508.367 L 2852.978 504.872 2858.571 499.762 L 2864.163 494.651 2868.065 488.905 L 2871.966 483.159 2874.116 477.830 L 2876.265 472.500 2877.597 466.500 L 2878.930 460.500 2878.948 454 L 2878.965 447.500 2877.501 440.500 L 2876.036 433.500 2871.869 425 L 2867.702 416.500 2860.601 409.500 L 2853.500 402.500 2847.314 399.225 L 2841.128 395.951 2833.404 393.975 L 2825.680 392 2819.090 392.110 L 2812.500 392.219 2808.500 393.022" stroke="none" fill="#464137" fill-rule="evenodd"/><path d="M 803.500 65.085 L 793.500 65.891 781 68.063 L 768.500 70.236 756.232 73.595 L 743.965 76.955 733.556 81.025 L 723.146 85.095 713.323 90.123 L 703.500 95.152 692.090 102.730 L 680.680 110.307 670.553 119.001 L 660.426 127.694 651.630 137.684 L 642.834 147.673 636.811 156.087 L 630.787 164.500 625.185 174 L 619.583 183.500 614.402 195 L 609.222 206.500 605.193 218.606 L 601.165 230.713 598.615 242.106 L 596.066 253.500 594.493 264 L 592.921 274.500 591.912 290.443 L 590.904 306.385 591.957 323.231 L 593.010 340.078 594.535 350.230 L 596.059 360.382 598.448 370.941 L 600.837 381.500 604.023 391.500 L 607.209 401.500 610.698 410 L 614.188 418.500 619.196 428.500 L 624.205 438.500 630.740 448.500 L 637.275 458.500 641.852 464.500 L 646.428 470.500 657.464 481.852 L 668.500 493.203 677 499.983 L 685.500 506.763 695 512.925 L 704.500 519.088 716.500 524.928 L 728.500 530.769 738.207 534.360 L 747.914 537.950 759.207 540.951 L 770.500 543.951 783 545.939 L 795.500 547.927 810.388 549.056 L 825.276 550.185 842.388 549.052 L 859.500 547.920 871.197 545.945 L 882.894 543.971 892.197 541.550 L 901.500 539.129 910.500 535.949 L 919.500 532.770 928.500 528.745 L 937.500 524.719 947.153 519.238 L 956.806 513.757 967.153 506.064 L 977.500 498.372 986.268 490.060 L 995.035 481.749 1002.373 472.624 L 1009.711 463.500 1015.960 454 L 1022.209 444.500 1029.044 430.500 L 1035.878 416.500 1039.403 406.891 L 1042.927 397.283 1045.358 388.891 L 1047.789 380.500 1050.477 368.513 L 1053.165 356.525 1055.038 343.513 L 1056.912 330.500 1057.908 318.500 L 1058.903 306.500 1059.564 292.250 L 1060.225 278 943.112 278 L 826 278 826 322.500 L 826 367 876 367 L 926 367 926 370.840 L 926 374.680 924.081 382.183 L 922.162 389.687 919.100 396.440 L 916.038 403.193 911.607 409.346 L 907.176 415.500 901.838 420.649 L 896.500 425.799 889.567 430.397 L 882.634 434.996 874.626 438.084 L 866.619 441.172 857.559 443.289 L 848.500 445.406 827.500 445.411 L 806.500 445.415 798.758 443.250 L 791.016 441.086 784.903 438.617 L 778.791 436.148 770.812 431.325 L 762.834 426.502 755.455 419.703 L 748.076 412.903 742.173 405.069 L 736.270 397.235 732.204 389.867 L 728.138 382.500 725.136 375 L 722.135 367.500 719.531 358.513 L 716.928 349.527 715.424 341.013 L 713.921 332.500 712.999 316.663 L 712.077 300.825 713.095 289.663 L 714.113 278.500 716.113 268.500 L 718.113 258.500 721.496 248.349 L 724.878 238.197 729.054 229.849 L 733.230 221.500 737.852 214.500 L 742.473 207.500 749.882 199.737 L 757.290 191.975 764.028 186.979 L 770.767 181.984 780.133 177.583 L 789.500 173.181 797.018 171.104 L 804.535 169.026 815.018 167.935 L 825.500 166.843 833 167.500 L 840.500 168.156 849.244 170.032 L 857.989 171.909 865.997 175.379 L 874.004 178.849 881.252 183.661 L 888.500 188.473 896.341 195.956 L 904.182 203.439 909.841 210.984 L 915.500 218.530 920 226.775 L 924.500 235.020 926 234.660 L 927.500 234.300 981.500 211.505 L 1035.500 188.711 1036.414 187.891 L 1037.329 187.071 1030.914 176.435 L 1024.500 165.798 1016.544 155.149 L 1008.589 144.500 996.044 131.919 L 983.500 119.339 972 110.825 L 960.500 102.311 951.976 97.205 L 943.452 92.099 931.976 86.587 L 920.500 81.076 907 76.600 L 893.500 72.125 881 69.509 L 868.500 66.894 855 65.458 L 841.500 64.021 827.500 64.151 L 813.500 64.280 803.500 65.085 M 3263 65.023 L 3254.500 65.906 3244.500 67.531 L 3234.500 69.155 3223 72.016 L 3211.500 74.878 3202.500 78.050 L 3193.500 81.223 3182.831 85.994 L 3172.161 90.764 3161.831 97.003 L 3151.500 103.241 3142 110.362 L 3132.500 117.482 3121.404 128.491 L 3110.308 139.500 3104.643 146.710 L 3098.979 153.920 3091.905 164.710 L 3084.831 175.500 3077.999 189.500 L 3071.167 203.500 3066.714 216.500 L 3062.261 229.500 3059.580 240.783 L 3056.898 252.066 3054.933 265.283 L 3052.967 278.500 3052.340 296 L 3051.712 313.500 3052.922 328.500 L 3054.131 343.500 3056.085 355 L 3058.039 366.500 3061.494 379.659 L 3064.950 392.819 3068.586 402.659 L 3072.222 412.500 3078.537 425.502 L 3084.853 438.503 3092.818 450.502 L 3100.783 462.500 3109.745 473 L 3118.708 483.500 3127.104 490.933 L 3135.500 498.366 3144.500 505.016 L 3153.500 511.666 3161.056 516.225 L 3168.611 520.785 3177.556 525.277 L 3186.500 529.769 3199 534.288 L 3211.500 538.807 3224 541.894 L 3236.500 544.982 3246.500 546.449 L 3256.500 547.916 3272 549.028 L 3287.500 550.140 3298.500 549.516 L 3309.500 548.892 3321.500 547.411 L 3333.500 545.930 3344.848 543.393 L 3356.197 540.856 3367.396 536.994 L 3378.595 533.132 3388.029 529.040 L 3397.464 524.949 3406.982 519.548 L 3416.500 514.147 3426.500 507.213 L 3436.500 500.279 3446.100 491.730 L 3455.700 483.181 3463.514 474.643 L 3471.328 466.105 3478.426 456.632 L 3485.524 447.159 3491.723 436.830 L 3497.923 426.500 3498.489 424.956 L 3499.056 423.413 3443.850 401.066 L 3388.644 378.720 3387.072 378.321 L 3385.500 377.922 3382.500 383.711 L 3379.500 389.500 3374.869 396.599 L 3370.237 403.698 3364.061 410.514 L 3357.885 417.329 3350.268 423.661 L 3342.651 429.994 3333.002 434.950 L 3323.353 439.906 3314.427 442.660 L 3305.500 445.413 3286 445.413 L 3266.500 445.413 3257.500 442.667 L 3248.500 439.921 3241.201 436.486 L 3233.902 433.052 3226.491 427.928 L 3219.079 422.805 3211.668 415.048 L 3204.258 407.292 3199.262 399.888 L 3194.266 392.484 3190.249 384.492 L 3186.232 376.500 3182.668 366 L 3179.103 355.500 3177.062 345.500 L 3175.020 335.500 3173.822 319.264 L 3172.624 303.028 3173.812 290.420 L 3175 277.813 3177.060 267.656 L 3179.120 257.500 3182.105 248.500 L 3185.089 239.500 3189.470 230.500 L 3193.850 221.500 3199.232 213.711 L 3204.614 205.922 3212.557 197.867 L 3220.500 189.812 3228.500 184.493 L 3236.500 179.174 3242.500 176.520 L 3248.500 173.867 3256.871 171.431 L 3265.242 168.995 3277.123 167.867 L 3289.003 166.739 3297.946 167.886 L 3306.888 169.032 3315.476 171.521 L 3324.064 174.010 3331.891 177.945 L 3339.719 181.881 3347.707 187.900 L 3355.696 193.920 3361.745 200.386 L 3367.794 206.853 3372.305 213.177 L 3376.816 219.500 3381.039 227.332 L 3385.263 235.165 3386.881 234.681 L 3388.500 234.198 3442.833 211.183 L 3497.165 188.168 3497.647 187.686 L 3498.129 187.204 3492.523 177.852 L 3486.916 168.500 3480.708 159.827 L 3474.500 151.154 3467 142.421 L 3459.500 133.687 3450 125.075 L 3440.500 116.462 3434.500 111.871 L 3428.500 107.280 3419 101.030 L 3409.500 94.780 3396.500 88.467 L 3383.500 82.154 3371 77.673 L 3358.500 73.192 3347 70.629 L 3335.500 68.066 3325.500 66.469 L 3315.500 64.873 3293.500 64.507 L 3271.500 64.140 3263 65.023 M 127 305 L 127 534 254.500 534 L 382 534 382 483 L 382 432 311.500 432 L 241 432 241 254 L 241 76 184 76 L 127 76 127 305 M 423 305 L 423 534 480 534 L 537 534 537 305 L 537 76 480 76 L 423 76 423 305 M 1112 305 L 1112 534 1169.500 534 L 1227 534 1227 439 L 1227 344 1311.500 344 L 1396 344 1396 439 L 1396 534 1453.500 534 L 1511 534 1511 305 L 1511 76 1453.500 76 L 1396 76 1396 165.500 L 1396 255 1311.500 255 L 1227 255 1227 165.500 L 1227 76 1169.500 76 L 1112 76 1112 305 M 1600.241 76.750 L 1551.982 77.019 1552.241 127.760 L 1552.500 178.500 1600.250 178.760 L 1648 179.019 1648 356.510 L 1648 534 1705.500 534 L 1763 534 1763 356.500 L 1763 179 1810.500 179 L 1858 179 1858 128.164 L 1858 77.329 1786.750 76.665 L 1715.500 76.002 1682 76.241 L 1648.500 76.480 1600.241 76.750 M 1915.241 76.750 L 1866.982 77.019 1867.241 127.760 L 1867.500 178.500 1915.250 178.760 L 1963 179.019 1963 356.510 L 1963 534 2020.500 534 L 2078 534 2078 356.500 L 2078 179 2125.500 179 L 2173 179 2173 128.164 L 2173 77.329 2101.750 76.665 L 2030.500 76.002 1997 76.241 L 1963.500 76.480 1915.241 76.750 M 2215 305 L 2215 534 2272 534 L 2329 534 2329 451.452 L 2329 368.905 2335.103 369.202 L 2341.206 369.500 2355.698 393 L 2370.191 416.500 2406.245 475.250 L 2442.298 534 2512.272 534 L 2582.245 534 2581.284 532.750 L 2580.322 531.500 2517.661 446.353 L 2455 361.206 2455 360.239 L 2455 359.272 2459.750 357.521 L 2464.500 355.769 2473 351.267 L 2481.500 346.765 2488 342.185 L 2494.500 337.605 2500.899 331.553 L 2507.299 325.500 2513.130 317.690 L 2518.961 309.879 2523.425 301.690 L 2527.889 293.500 2531.560 282.527 L 2535.232 271.554 2537.075 262.527 L 2538.919 253.500 2540.133 238.418 L 2541.348 223.335 2540.184 208.272 L 2539.021 193.210 2536.971 182.589 L 2534.922 171.969 2531.384 161.735 L 2527.847 151.500 2523.913 144.153 L 2519.978 136.806 2516.386 131.393 L 2512.793 125.981 2505.798 118.491 L 2498.803 111.001 2490.930 105.068 L 2483.058 99.136 2474.398 94.416 L 2465.738 89.695 2455.066 85.936 L 2444.394 82.177 2434.447 80.100 L 2424.500 78.023 2414.144 77.012 L 2403.788 76 2309.394 76 L 2215 76 2215 305 M 2670.240 303.243 L 2588.169 530.500 2587.475 532.257 L 2586.780 534.015 2650.557 533.757 L 2714.334 533.500 2766.984 375.549 L 2819.634 217.599 2820.173 218.549 L 2820.711 219.500 2872.896 376.750 L 2925.080 534 2988.648 534 L 3052.217 534 3051.624 531.750 L 3051.031 529.500 2969.215 303 L 2887.399 76.500 2819.855 76.243 L 2752.311 75.986 2670.240 303.243 M 3547 305 L 3547 534 3604.495 534 L 3661.990 534 3662.245 438.108 L 3662.500 342.217 3736.954 438.108 L 3811.408 534 3887.824 534 L 3964.241 534 3960.765 529.750 L 3957.289 525.500 3917.395 475.873 L 3877.500 426.245 3824.701 360.616 L 3771.903 294.987 3849.146 197.743 L 3926.389 100.500 3936.234 88.250 L 3946.080 76 3872.790 76.008 L 3799.500 76.016 3741.300 156.258 L 3683.100 236.500 3672.800 250.833 L 3662.500 265.167 3662.245 170.583 L 3661.990 76 3604.495 76 L 3547 76 3547 305 M 2329 222.493 L 2329 277.232 2355.750 276.701 L 2382.500 276.171 2387.500 274.965 L 2392.500 273.760 2398.500 271.037 L 2404.500 268.313 2409.500 263.766 L 2414.500 259.220 2417.732 253.841 L 2420.963 248.463 2422.982 240.572 L 2425 232.680 2424.983 223.090 L 2424.965 213.500 2423.486 206.517 L 2422.007 199.535 2419.318 194.017 L 2416.628 188.500 2411.064 182.936 L 2405.500 177.372 2399.869 174.627 L 2394.238 171.882 2388.869 170.344 L 2383.500 168.807 2356.250 168.280 L 2329 167.754 2329 222.493 M 2809.813 392.683 L 2811.125 393.208 2811.729 392.604 L 2812.333 392 2810.417 392.079 L 2808.500 392.158 2809.813 392.683 M 2827.813 392.683 L 2829.125 393.208 2829.729 392.604 L 2830.333 392 2828.417 392.079 L 2826.500 392.158 2827.813 392.683 M 2805 393.500 L 2805 394 2805.500 394 L 2806 394 2806 393.500 L 2806 393 2805.500 393 L 2805 393 2805 393.500 M 2832.333 393.667 L 2833 394.333 2833.667 393.667 L 2834.333 393 2833 393 L 2831.667 393 2832.333 393.667 M 2801.333 394.667 L 2802 395.333 2802.667 394.667 L 2803.333 394 2802 394 L 2800.667 394 2801.333 394.667 M 2836.333 394.667 L 2837 395.333 2837.667 394.667 L 2838.333 394 2837 394 L 2835.667 394 2836.333 394.667 M 2798.333 395.667 L 2799 396.333 2799.667 395.667 L 2800.333 395 2799 395 L 2797.667 395 2798.333 395.667 M 2839.333 395.667 L 2840 396.333 2840.667 395.667 L 2841.333 395 2840 395 L 2838.667 395 2839.333 395.667 M 2794.507 396.989 L 2793.896 397.977 2795.448 397.382 L 2797 396.786 2797 396.393 L 2797 396 2796.059 396 L 2795.118 396 2794.507 396.989 M 2842 396.500 L 2842 397 2842.500 397 L 2843 397 2843 396.500 L 2843 396 2842.500 396 L 2842 396 2842 396.500 M 2844 397.500 L 2844 398 2844.500 398 L 2845 398 2845 397.500 L 2845 397 2844.500 397 L 2844 397 2844 397.500 M 2792 398.500 L 2792 399 2792.500 399 L 2793 399 2793 398.500 L 2793 398 2792.500 398 L 2792 398 2792 398.500 M 2846 398.500 L 2846 399 2846.500 399 L 2847 399 2847 398.500 L 2847 398 2846.500 398 L 2846 398 2846 398.500 M 2790 399.500 L 2790 400 2790.500 400 L 2791 400 2791 399.500 L 2791 399 2790.500 399 L 2790 399 2790 399.500 M 2848 399.500 L 2848 400 2848.500 400 L 2849 400 2849 399.500 L 2849 399 2848.500 399 L 2848 399 2848 399.500 M 2787.405 401.155 L 2786.691 402.309 2787.845 401.595 L 2789 400.882 2789 400.441 L 2789 400 2788.559 400 L 2788.118 400 2787.405 401.155 M 2851 401.500 L 2851 402 2851.500 402 L 2852 402 2852 401.500 L 2852 401 2851.500 401 L 2851 401 2851 401.500 M 2784.405 403.155 L 2783.691 404.309 2784.845 403.595 L 2786 402.882 2786 402.441 L 2786 402 2785.559 402 L 2785.118 402 2784.405 403.155 M 2853 402.378 L 2853 402.755 2854.750 404.128 L 2856.500 405.500 2855.128 403.750 L 2853.755 402 2853.378 402 L 2853 402 2853 402.378 M 2776.946 409.750 L 2773.500 413.500 2777.250 410.054 L 2781 406.608 2781 406.304 L 2781 406 2780.696 406 L 2780.392 406 2776.946 409.750 M 2861.500 410 L 2863.310 412 2863.810 412 L 2864.310 412 2862.500 410 L 2860.690 408 2860.190 408 L 2859.690 408 2861.500 410 M 2771.405 416.155 L 2770.691 417.309 2771.845 416.595 L 2773 415.882 2773 415.441 L 2773 415 2772.559 415 L 2772.118 415 2771.405 416.155 M 2866.500 416 L 2867.118 417 2867.618 417 L 2868.118 417 2867.500 416 L 2866.882 415 2866.382 415 L 2865.882 415 2866.500 416 M 2868.500 419 L 2869.118 420 2869.618 420 L 2870.118 420 2869.500 419 L 2868.882 418 2868.382 418 L 2867.882 418 2868.500 419 M 2769 419.500 L 2769 420 2769.500 420 L 2770 420 2770 419.500 L 2770 419 2769.500 419 L 2769 419 2769 419.500 M 2768 421.500 L 2768 422 2768.500 422 L 2769 422 2769 421.500 L 2769 421 2768.500 421 L 2768 421 2768 421.500 M 2870 421.500 L 2870 422 2870.500 422 L 2871 422 2871 421.500 L 2871 421 2870.500 421 L 2870 421 2870 421.500 M 2871 423.500 L 2871 424 2871.500 424 L 2872 424 2872 423.500 L 2872 423 2871.500 423 L 2871 423 2871 423.500 M 2766 424.500 L 2766 425 2766.500 425 L 2767 425 2767 424.500 L 2767 424 2766.500 424 L 2766 424 2766 424.500 M 2872 425.500 L 2872 426 2872.500 426 L 2873 426 2873 425.500 L 2873 425 2872.500 425 L 2872 425 2872 425.500 M 2765 426.500 L 2765 427 2765.500 427 L 2766 427 2766 426.500 L 2766 426 2765.500 426 L 2765 426 2765 426.500 M 2873 427.500 L 2873 428 2873.500 428 L 2874 428 2874 427.500 L 2874 427 2873.500 427 L 2873 427 2873 427.500 M 2764 428.500 L 2764 429 2764.500 429 L 2765 429 2765 428.500 L 2765 428 2764.500 428 L 2764 428 2764 428.500 M 2874 429.500 L 2874 430 2874.500 430 L 2875 430 2875 429.500 L 2875 429 2874.500 429 L 2874 429 2874 429.500 M 2763 431.500 L 2763 432 2763.500 432 L 2764 432 2764 431.500 L 2764 431 2763.500 431 L 2763 431 2763 431.500 M 2875 432 L 2875 433.333 2875.667 432.667 L 2876.333 432 2875.667 431.333 L 2875 430.667 2875 432 M 2762 434.500 L 2762 435 2762.500 435 L 2763 435 2763 434.500 L 2763 434 2762.500 434 L 2762 434 2762 434.500 M 2876 435 L 2876 436.333 2876.667 435.667 L 2877.333 435 2876.667 434.333 L 2876 433.667 2876 435 M 2761 438 L 2761 439.333 2761.667 438.667 L 2762.333 438 2761.667 437.333 L 2761 436.667 2761 438 M 2877 439 L 2877 440.333 2877.667 439.667 L 2878.333 439 2877.667 438.333 L 2877 437.667 2877 439 M 2760.079 442.583 L 2760.158 444.500 2760.683 443.188 L 2761.208 441.875 2760.604 441.271 L 2760 440.667 2760.079 442.583 M 2878.158 444 L 2878.158 446.500 2878.662 445.250 L 2879.167 444 2878.662 442.750 L 2878.158 441.500 2878.158 444 M 2759.286 453.500 L 2759.300 458.500 2759.718 455.736 L 2760.135 452.973 2759.704 450.736 L 2759.272 448.500 2759.286 453.500 M 2879.079 453.583 L 2879.158 455.500 2879.683 454.188 L 2880.208 452.875 2879.604 452.271 L 2879 451.667 2879.079 453.583 M 2878.079 463.583 L 2878.158 465.500 2878.683 464.188 L 2879.208 462.875 2878.604 462.271 L 2878 461.667 2878.079 463.583 M 2760.079 464.583 L 2760.158 466.500 2760.683 465.188 L 2761.208 463.875 2760.604 463.271 L 2760 462.667 2760.079 464.583 M 2877.079 468.583 L 2877.158 470.500 2877.683 469.188 L 2878.208 467.875 2877.604 467.271 L 2877 466.667 2877.079 468.583 M 2761 469 L 2761 470.333 2761.667 469.667 L 2762.333 469 2761.667 468.333 L 2761 467.667 2761 469 M 2762 472.500 L 2762 473 2762.500 473 L 2763 473 2763 472.500 L 2763 472 2762.500 472 L 2762 472 2762 472.500 M 2876 472.500 L 2876 473 2876.500 473 L 2877 473 2877 472.500 L 2877 472 2876.500 472 L 2876 472 2876 472.500 M 2875 475 L 2875 476.333 2875.667 475.667 L 2876.333 475 2875.667 474.333 L 2875 473.667 2875 475 M 2763 475.500 L 2763 476 2763.500 476 L 2764 476 2764 475.500 L 2764 475 2763.500 475 L 2763 475 2763 475.500 M 2874 477.500 L 2874 478 2874.500 478 L 2875 478 2875 477.500 L 2875 477 2874.500 477 L 2874 477 2874 477.500 M 2764 478.500 L 2764 479 2764.500 479 L 2765 479 2765 478.500 L 2765 478 2764.500 478 L 2764 478 2764 478.500 M 2873 479.500 L 2873 480 2873.500 480 L 2874 480 2874 479.500 L 2874 479 2873.500 479 L 2873 479 2873 479.500 M 2765 480.500 L 2765 481 2765.500 481 L 2766 481 2766 480.500 L 2766 480 2765.500 480 L 2765 480 2765 480.500 M 2766 482.500 L 2766 483 2766.500 483 L 2767 483 2767 482.500 L 2767 482 2766.500 482 L 2766 482 2766 482.500 M 2872 482.500 L 2872 483 2872.500 483 L 2873 483 2873 482.500 L 2873 482 2872.500 482 L 2872 482 2872 482.500 M 2767 484.500 L 2767 485 2767.500 485 L 2768 485 2768 484.500 L 2768 484 2767.500 484 L 2767 484 2767 484.500 M 2870 485.500 L 2870 486 2870.500 486 L 2871 486 2871 485.500 L 2871 485 2870.500 485 L 2870 485 2870 485.500 M 2769 487.500 L 2769 488 2769.500 488 L 2770 488 2770 487.500 L 2770 487 2769.500 487 L 2769 487 2769 487.500 M 2868.405 488.155 L 2867.691 489.309 2868.845 488.595 L 2870 487.882 2870 487.441 L 2870 487 2869.559 487 L 2869.118 487 2868.405 488.155 M 2771.500 491 L 2772.118 492 2772.618 492 L 2773.118 492 2772.500 491 L 2771.882 490 2771.382 490 L 2770.882 490 2771.500 491 M 2866.405 491.155 L 2865.691 492.309 2866.845 491.595 L 2868 490.882 2868 490.441 L 2868 490 2867.559 490 L 2867.118 490 2866.405 491.155 M 2777.500 498 L 2781.406 502 2781.906 502 L 2782.406 502 2778.500 498 L 2774.594 494 2774.094 494 L 2773.594 494 2777.500 498 M 2860.437 498.250 L 2857.500 501.500 2860.750 498.563 L 2864 495.626 2864 495.313 L 2864 495 2863.687 495 L 2863.374 495 2860.437 498.250 M 2784.500 504 L 2785.118 505 2785.618 505 L 2786.118 505 2785.500 504 L 2784.882 503 2784.382 503 L 2783.882 503 2784.500 504 M 2853.405 504.155 L 2852.691 505.309 2853.845 504.595 L 2855 503.882 2855 503.441 L 2855 503 2854.559 503 L 2854.118 503 2853.405 504.155 M 2787.500 506 L 2788.118 507 2788.618 507 L 2789.118 507 2788.500 506 L 2787.882 505 2787.382 505 L 2786.882 505 2787.500 506 M 2850.405 506.155 L 2849.691 507.309 2850.845 506.595 L 2852 505.882 2852 505.441 L 2852 505 2851.559 505 L 2851.118 505 2850.405 506.155 M 2790.500 508 L 2791.118 509 2791.618 509 L 2792.118 509 2791.500 508 L 2790.882 507 2790.382 507 L 2789.882 507 2790.500 508 M 2848 507.500 L 2848 508 2848.500 508 L 2849 508 2849 507.500 L 2849 507 2848.500 507 L 2848 507 2848 507.500 M 2846 508.500 L 2846 509 2846.500 509 L 2847 509 2847 508.500 L 2847 508 2846.500 508 L 2846 508 2846 508.500 M 2794 509.500 L 2794 510 2794.500 510 L 2795 510 2795 509.500 L 2795 509 2794.500 509 L 2794 509 2794 509.500 M 2844 509.500 L 2844 510 2844.500 510 L 2845 510 2845 509.500 L 2845 509 2844.500 509 L 2844 509 2844 509.500 M 2796 510.500 L 2796 511 2796.500 511 L 2797 511 2797 510.500 L 2797 510 2796.500 510 L 2796 510 2796 510.500 M 2842 510.500 L 2842 511 2842.500 511 L 2843 511 2843 510.500 L 2843 510 2842.500 510 L 2842 510 2842 510.500 M 2798.333 511.667 L 2799 512.333 2799.667 511.667 L 2800.333 511 2799 511 L 2797.667 511 2798.333 511.667 M 2839.333 511.667 L 2840 512.333 2840.667 511.667 L 2841.333 511 2840 511 L 2838.667 511 2839.333 511.667 M 2801.333 512.667 L 2802 513.333 2802.667 512.667 L 2803.333 512 2802 512 L 2800.667 512 2801.333 512.667 M 2836.333 512.667 L 2837 513.333 2837.667 512.667 L 2838.333 512 2837 512 L 2835.667 512 2836.333 512.667 M 2805 513.500 L 2805 514 2805.500 514 L 2806 514 2806 513.500 L 2806 513 2805.500 513 L 2805 513 2805 513.500 M 2832.333 513.667 L 2833 514.333 2833.667 513.667 L 2834.333 513 2833 513 L 2831.667 513 2832.333 513.667 M 2809.813 514.683 L 2811.125 515.208 2811.729 514.604 L 2812.333 514 2810.417 514.079 L 2808.500 514.158 2809.813 514.683 M 2827.813 514.683 L 2829.125 515.208 2829.729 514.604 L 2830.333 514 2828.417 514.079 L 2826.500 514.158 2827.813 514.683 M 2818.269 515.693 L 2820.038 516.154 2821.269 515.656 L 2822.500 515.158 2819.500 515.195 L 2816.500 515.232 2818.269 515.693" stroke="none" fill="#626455" fill-rule="evenodd"/></svg>