<svg xmlns="http://www.w3.org/2000/svg" width="3092" height="519" viewBox="0 0 3092 519" version="1.1"><path d="M 0 259.500 L 0 519.001 1546.250 518.750 L 3092.500 518.500 3092.752 259.250 L 3093.004 -0 1546.502 -0 L 0 0 0 259.500 M 0.492 260 L 0.492 519.500 0.750 389.750 L 1.007 260 0.750 130.250 L 0.492 0.500 0.492 260 M 2038.235 84.999 L 2029.970 85.870 2019.737 87.957 L 2009.504 90.044 1997.502 94.106 L 1985.500 98.167 1974.689 103.549 L 1963.877 108.931 1954.189 115.294 L 1944.500 121.658 1936.822 127.852 L 1929.145 134.046 1920.417 143.273 L 1911.689 152.500 1905.925 160.229 L 1900.160 167.958 1894.956 176.572 L 1889.753 185.187 1884.993 195.843 L 1880.234 206.500 1877.215 216 L 1874.197 225.500 1872.035 236 L 1869.872 246.500 1868.735 260.251 L 1867.597 274.001 1868.801 288.251 L 1870.006 302.500 1872.058 312.500 L 1874.110 322.500 1878.094 334.469 L 1882.078 346.438 1887.473 357.575 L 1892.868 368.712 1901.113 381.106 L 1909.358 393.500 1923.429 407.500 L 1937.500 421.500 1946.750 428 L 1955.999 434.500 1964.250 439.246 L 1972.500 443.991 1982.962 448.580 L 1993.423 453.168 2005.179 456.552 L 2016.935 459.935 2026.218 461.527 L 2035.500 463.119 2052 463.689 L 2068.500 464.259 2081.600 462.590 L 2094.700 460.921 2105.600 458.047 L 2116.500 455.173 2125.415 451.932 L 2134.330 448.691 2144.915 443.267 L 2155.500 437.843 2163.528 432.449 L 2171.556 427.055 2181.528 418.697 L 2191.500 410.339 2196.809 404.524 L 2202.119 398.709 2208.478 390.565 L 2214.837 382.422 2220.096 373.961 L 2225.355 365.500 2230.079 355.500 L 2234.803 345.500 2238.394 334.756 L 2241.986 324.012 2244.723 311.256 L 2247.459 298.500 2247.440 274 L 2247.420 249.500 2244.754 237 L 2242.087 224.500 2238.853 214.500 L 2235.619 204.500 2227.817 189 L 2220.014 173.500 2213.284 164 L 2206.553 154.500 2192.027 139.920 L 2177.500 125.340 2165 117.010 L 2152.500 108.680 2141.500 103.378 L 2130.500 98.076 2116.956 93.556 L 2103.412 89.036 2091.456 86.962 L 2079.500 84.888 2063 84.508 L 2046.500 84.128 2038.235 84.999 M 202.548 89.250 L 201.198 92.500 180.200 148 L 159.203 203.500 110.503 332 L 61.803 460.500 61.342 461.250 L 60.882 462 101.191 461.978 L 141.500 461.955 188.500 332.495 L 235.500 203.035 236.022 203.017 L 236.544 203 284.022 332.485 L 331.500 461.970 371.809 461.985 L 412.118 462 411.592 461.149 L 411.067 460.299 349.666 298.899 L 288.266 137.500 278.478 111.750 L 268.691 86 236.295 86 L 203.898 86 202.548 89.250 M 425 273.922 L 425 462 463 462 L 501 462 501 310 L 501 158 530.750 158.008 L 560.500 158.016 569.410 159.037 L 578.320 160.058 585.748 162.551 L 593.176 165.045 598.838 168.907 L 604.500 172.768 606.618 175.665 L 608.736 178.561 610.872 182.749 L 613.009 186.937 614.489 193.219 L 615.970 199.500 615.970 208 L 615.970 216.500 614.492 222.769 L 613.014 229.038 610.424 234.150 L 607.834 239.261 603.081 244.014 L 598.328 248.767 590.914 252.286 L 583.500 255.806 576 257.508 L 568.500 259.210 552.750 259.747 L 537 260.284 537 296.576 L 537 332.868 581.750 397.423 L 626.500 461.977 672.335 461.988 L 718.170 462 714.730 457.250 L 711.289 452.500 665.144 386.812 L 619 321.124 619 320.562 L 619 320 620.103 320 L 621.205 320 629.436 316.143 L 637.666 312.286 645.434 307.045 L 653.201 301.804 660.493 294.877 L 667.784 287.951 672.763 280.725 L 677.741 273.500 680.496 268.035 L 683.251 262.571 685.718 256.035 L 688.184 249.500 690.160 241 L 692.136 232.500 692.661 214.500 L 693.186 196.500 691.645 186.500 L 690.104 176.500 687.486 167.505 L 684.867 158.511 681.009 150.278 L 677.151 142.045 671.978 134.562 L 666.805 127.079 659.075 119.694 L 651.346 112.309 645.423 108.291 L 639.500 104.274 633.434 101.215 L 627.368 98.157 616.934 94.521 L 606.500 90.885 595.500 88.805 L 584.500 86.725 504.750 86.285 L 425 85.844 425 273.922 M 695.667 86.667 L 695 87.333 695 122.658 L 695 157.982 746.250 158.241 L 797.500 158.500 797.753 310.250 L 798.006 462 835.503 462 L 873 462 873 310 L 873 158 925 158 L 977 158 977 122 L 977 86 836.667 86 L 696.333 86 695.667 86.667 M 999 274 L 999 462 1077.039 462 L 1155.079 462 1164.789 460.933 L 1174.500 459.866 1183.763 457.876 L 1193.027 455.885 1203.583 451.969 L 1214.140 448.053 1222.197 443.277 L 1230.254 438.500 1236.851 432.974 L 1243.448 427.448 1249.321 420.474 L 1255.193 413.500 1260.584 402.500 L 1265.974 391.500 1267.965 383.675 L 1269.956 375.851 1270.978 367.702 L 1272 359.552 1271.994 352.026 L 1271.988 344.500 1270.548 335 L 1269.107 325.500 1266.943 318.500 L 1264.779 311.500 1261.957 305.262 L 1259.136 299.024 1253.970 291.551 L 1248.805 284.079 1240.896 276.523 L 1232.988 268.967 1227.441 265.419 L 1221.894 261.871 1224.385 259.912 L 1226.876 257.952 1232.886 250.481 L 1238.897 243.010 1242.488 236.588 L 1246.079 230.167 1248.937 222.333 L 1251.795 214.500 1253.540 204.058 L 1255.285 193.616 1254.679 181.058 L 1254.072 168.500 1252.098 160.500 L 1250.125 152.500 1247.853 147 L 1245.581 141.500 1242.363 136 L 1239.145 130.500 1234.306 124.534 L 1229.467 118.568 1222.984 113.277 L 1216.500 107.985 1204.500 102.017 L 1192.500 96.048 1184 93.634 L 1175.500 91.220 1165.981 89.603 L 1156.461 87.986 1143.981 87.016 L 1131.500 86.045 1065.250 86.023 L 999 86 999 274 M 1249 86.575 L 1249 87.172 1313.500 192.458 L 1378 297.743 1378 379.872 L 1378 462 1416 462 L 1454 462 1454 379.373 L 1454 296.745 1517.680 193.623 L 1581.361 90.500 1582.795 88.250 L 1584.230 86 1539.761 86 L 1495.292 86 1456.513 150.750 L 1417.734 215.500 1416.617 216.687 L 1415.500 217.874 1375.960 152.187 L 1336.421 86.500 1292.710 86.239 L 1249 85.979 1249 86.575 M 1587 274 L 1587 462 1624.500 462 L 1662 462 1662 310 L 1662 158 1692.250 158.008 L 1722.500 158.016 1731.138 159.006 L 1739.777 159.996 1746.332 162.021 L 1752.887 164.045 1759.176 168.273 L 1765.466 172.500 1769.139 177.393 L 1772.813 182.286 1774.942 188.771 L 1777.070 195.257 1777.636 204.378 L 1778.201 213.500 1776.628 220.878 L 1775.054 228.257 1772.823 232.878 L 1770.593 237.500 1766.046 242.386 L 1761.500 247.271 1757.623 249.728 L 1753.747 252.185 1747.227 254.639 L 1740.708 257.093 1731.104 258.540 L 1721.500 259.988 1710.250 259.994 L 1699 260 1699.013 296.750 L 1699.027 333.500 1743.618 397.750 L 1788.208 462 1833.604 462 L 1879 462 1879 461.539 L 1879 461.077 1830.468 392.036 L 1781.935 322.995 1781.488 321.747 L 1781.041 320.500 1792.410 315.145 L 1803.779 309.791 1812.264 303.423 L 1820.749 297.055 1826.047 291.277 L 1831.344 285.500 1836.681 277.333 L 1842.018 269.165 1845.951 259.333 L 1849.883 249.500 1852.134 239 L 1854.384 228.500 1854.402 209.500 L 1854.420 190.500 1852.655 181.626 L 1850.889 172.752 1848.350 164.626 L 1845.811 156.500 1842.021 148.866 L 1838.232 141.232 1833.938 134.866 L 1829.645 128.500 1822.572 121.439 L 1815.500 114.379 1809 109.792 L 1802.500 105.206 1794.500 101.212 L 1786.500 97.219 1779 94.532 L 1771.500 91.845 1762.193 89.894 L 1752.887 87.942 1740.693 86.994 L 1728.500 86.045 1657.750 86.023 L 1587 86 1587 274 M 2282 273.937 L 2282 462 2360.039 462 L 2438.079 462 2447.789 460.932 L 2457.500 459.863 2466.490 457.876 L 2475.480 455.888 2482.990 453.368 L 2490.500 450.847 2499.461 446.321 L 2508.422 441.794 2515.461 436.470 L 2522.500 431.146 2527.133 426.323 L 2531.766 421.500 2535.466 416.564 L 2539.166 411.629 2543.580 402.841 L 2547.993 394.053 2550.394 385.770 L 2552.794 377.487 2554.039 367.600 L 2555.283 357.713 2554.709 346.606 L 2554.135 335.500 2552.630 328.484 L 2551.126 321.469 2548.438 313.984 L 2545.750 306.500 2542.983 301 L 2540.216 295.500 2535.629 289.276 L 2531.043 283.053 2524.914 277.074 L 2518.785 271.096 2513.143 267.332 L 2507.500 263.568 2506.611 262.845 L 2505.722 262.122 2511.495 255.811 L 2517.269 249.500 2522.024 242.290 L 2526.780 235.081 2529.950 227.466 L 2533.120 219.851 2535.231 212.175 L 2537.342 204.500 2537.385 187 L 2537.429 169.500 2535.790 162.356 L 2534.152 155.213 2531.077 147.532 L 2528.001 139.852 2523.644 133.176 L 2519.288 126.500 2515.040 121.728 L 2510.792 116.957 2504.889 112.415 L 2498.986 107.873 2490.731 103.481 L 2482.475 99.089 2475.565 96.488 L 2468.655 93.887 2460.578 91.909 L 2452.500 89.930 2442 88.300 L 2431.500 86.669 2356.750 86.272 L 2282 85.874 2282 273.937 M 2628.250 98.304 L 2591 110.387 2591 286.194 L 2591 462 2628.500 462 L 2666 462 2666 274 L 2666 86 2665.750 86.111 L 2665.500 86.222 2628.250 98.304 M 2720 274 L 2720 462 2757.996 462 L 2795.992 462 2796.246 345.361 L 2796.500 228.722 2879.348 345.361 L 2962.196 462 2996.598 462 L 3031 462 3031 274 L 3031 86 2993.004 86 L 2955.008 86 2954.754 204.098 L 2954.500 322.195 2947.084 311.848 L 2939.669 301.500 2863.256 193.750 L 2786.843 86 2753.422 86 L 2720 86 2720 274 M 1075 196.089 L 1075 234.179 1109.250 233.751 L 1143.500 233.323 1149.267 231.670 L 1155.034 230.017 1160.051 227.474 L 1165.068 224.932 1169.135 220.865 L 1173.202 216.798 1175.351 212.149 L 1177.500 207.500 1177.500 195.429 L 1177.500 183.359 1174.479 177.452 L 1171.458 171.545 1166.126 167.820 L 1160.793 164.094 1154.647 162.064 L 1148.500 160.034 1141.500 159.037 L 1134.500 158.040 1104.750 158.020 L 1075 158 1075 196.089 M 2358 195.920 L 2358 234 2388.750 233.965 L 2419.500 233.930 2427.464 232.511 L 2435.429 231.092 2442.747 227.475 L 2450.065 223.858 2454.030 218.843 L 2457.994 213.828 2459.584 208.360 L 2461.173 202.892 2461.150 194.654 L 2461.127 186.415 2458.949 180.593 L 2456.770 174.770 2453.029 171.029 L 2449.288 167.288 2443.894 164.674 L 2438.500 162.061 2432.500 160.357 L 2426.500 158.653 2392.250 158.246 L 2358 157.840 2358 195.920 M 2036.500 161.951 L 2027.500 163.860 2020.134 166.410 L 2012.768 168.960 2004.450 173.385 L 1996.132 177.810 1988.290 183.779 L 1980.448 189.749 1974.767 195.885 L 1969.086 202.021 1964.555 208.371 L 1960.024 214.720 1956.082 222.610 L 1952.141 230.500 1949.608 238.065 L 1947.075 245.630 1945.537 254.446 L 1944 263.262 1944 274.596 L 1944 285.929 1945.908 295.715 L 1947.815 305.500 1950.881 313.869 L 1953.947 322.237 1957.579 328.869 L 1961.212 335.500 1966.022 342 L 1970.833 348.500 1979.166 356.616 L 1987.500 364.732 1996.212 370.404 L 2004.924 376.076 2010.481 378.534 L 2016.038 380.991 2022.061 383.021 L 2028.085 385.050 2035.793 386.531 L 2043.500 388.011 2053 388.630 L 2062.500 389.249 2074 387.564 L 2085.500 385.878 2094.237 382.963 L 2102.974 380.047 2108.237 377.400 L 2113.500 374.754 2121.550 369.530 L 2129.600 364.305 2136.365 357.977 L 2143.130 351.649 2149.586 343.075 L 2156.043 334.500 2161 324.500 L 2165.956 314.500 2168.474 305 L 2170.992 295.500 2172.159 284.750 L 2173.326 274 2172.134 263.013 L 2170.943 252.026 2168.442 243.263 L 2165.942 234.500 2161.475 225.169 L 2157.008 215.839 2151.925 208.486 L 2146.842 201.133 2137.956 192.567 L 2129.071 184.001 2120.407 178.354 L 2111.743 172.706 2103.621 169.255 L 2095.500 165.804 2086 163.296 L 2076.500 160.787 2061 160.414 L 2045.500 160.042 2036.500 161.951 M 1075 346.951 L 1075 390.122 1115.750 389.757 L 1156.500 389.393 1162.500 387.649 L 1168.500 385.906 1173.675 383.542 L 1178.850 381.179 1183.405 376.981 L 1187.959 372.783 1190.730 367.142 L 1193.500 361.500 1193.500 349 L 1193.500 336.500 1190.620 330.266 L 1187.741 324.031 1182.844 319.451 L 1177.947 314.870 1171.677 311.936 L 1165.406 309.002 1156.453 306.895 L 1147.500 304.788 1111.250 304.284 L 1075 303.780 1075 346.951 M 2358 347.069 L 2358 390.138 2399.250 389.737 L 2440.500 389.335 2446.446 387.585 L 2452.391 385.836 2457.286 383.355 L 2462.180 380.875 2466.570 376.829 L 2470.959 372.783 2473.730 367.142 L 2476.500 361.500 2476.500 349 L 2476.500 336.500 2473.620 330.266 L 2470.741 324.031 2466.003 319.600 L 2461.266 315.168 2456.192 312.597 L 2451.119 310.026 2443.809 308.037 L 2436.500 306.048 2427.500 305.032 L 2418.500 304.016 2388.250 304.008 L 2358 304 2358 347.069 M 184.308 381.250 L 191.604 392.500 214.052 427.213 L 236.500 461.926 237.595 460.713 L 238.690 459.500 253.043 437 L 267.395 414.500 281.668 392.250 L 295.941 370 236.477 370 L 177.012 370 184.308 381.250" stroke="none" fill="#000000" fill-rule="evenodd"/><path d="M 2038.235 84.999 L 2029.970 85.870 2019.737 87.957 L 2009.504 90.044 1997.502 94.106 L 1985.500 98.167 1974.689 103.549 L 1963.877 108.931 1954.189 115.294 L 1944.500 121.658 1936.822 127.852 L 1929.145 134.046 1920.417 143.273 L 1911.689 152.500 1905.925 160.229 L 1900.160 167.958 1894.956 176.572 L 1889.753 185.187 1884.993 195.843 L 1880.234 206.500 1877.215 216 L 1874.197 225.500 1872.035 236 L 1869.872 246.500 1868.735 260.251 L 1867.597 274.001 1868.801 288.251 L 1870.006 302.500 1872.058 312.500 L 1874.110 322.500 1878.094 334.469 L 1882.078 346.438 1887.473 357.575 L 1892.868 368.712 1901.113 381.106 L 1909.358 393.500 1923.429 407.500 L 1937.500 421.500 1946.750 428 L 1955.999 434.500 1964.250 439.246 L 1972.500 443.991 1982.962 448.580 L 1993.423 453.168 2005.179 456.552 L 2016.935 459.935 2026.218 461.527 L 2035.500 463.119 2052 463.689 L 2068.500 464.259 2081.600 462.590 L 2094.700 460.921 2105.600 458.047 L 2116.500 455.173 2125.415 451.932 L 2134.330 448.691 2144.915 443.267 L 2155.500 437.843 2163.528 432.449 L 2171.556 427.055 2181.528 418.697 L 2191.500 410.339 2196.809 404.524 L 2202.119 398.709 2208.478 390.565 L 2214.837 382.422 2220.096 373.961 L 2225.355 365.500 2230.079 355.500 L 2234.803 345.500 2238.394 334.756 L 2241.986 324.012 2244.723 311.256 L 2247.459 298.500 2247.440 274 L 2247.420 249.500 2244.754 237 L 2242.087 224.500 2238.853 214.500 L 2235.619 204.500 2227.817 189 L 2220.014 173.500 2213.284 164 L 2206.553 154.500 2192.027 139.920 L 2177.500 125.340 2165 117.010 L 2152.500 108.680 2141.500 103.378 L 2130.500 98.076 2116.956 93.556 L 2103.412 89.036 2091.456 86.962 L 2079.500 84.888 2063 84.508 L 2046.500 84.128 2038.235 84.999 M 202.548 89.250 L 201.198 92.500 180.200 148 L 159.203 203.500 110.503 332 L 61.803 460.500 61.342 461.250 L 60.882 462 101.191 461.978 L 141.500 461.955 188.500 332.495 L 235.500 203.035 236.022 203.017 L 236.544 203 284.022 332.485 L 331.500 461.970 371.809 461.985 L 412.118 462 411.592 461.149 L 411.067 460.299 349.666 298.899 L 288.266 137.500 278.478 111.750 L 268.691 86 236.295 86 L 203.898 86 202.548 89.250 M 425 273.922 L 425 462 463 462 L 501 462 501 310 L 501 158 530.750 158.008 L 560.500 158.016 569.410 159.037 L 578.320 160.058 585.748 162.551 L 593.176 165.045 598.838 168.907 L 604.500 172.768 606.618 175.665 L 608.736 178.561 610.872 182.749 L 613.009 186.937 614.489 193.219 L 615.970 199.500 615.970 208 L 615.970 216.500 614.492 222.769 L 613.014 229.038 610.424 234.150 L 607.834 239.261 603.081 244.014 L 598.328 248.767 590.914 252.286 L 583.500 255.806 576 257.508 L 568.500 259.210 552.750 259.747 L 537 260.284 537 296.576 L 537 332.868 581.750 397.423 L 626.500 461.977 672.335 461.988 L 718.170 462 714.730 457.250 L 711.289 452.500 665.144 386.812 L 619 321.124 619 320.562 L 619 320 620.103 320 L 621.205 320 629.436 316.143 L 637.666 312.286 645.434 307.045 L 653.201 301.804 660.493 294.877 L 667.784 287.951 672.763 280.725 L 677.741 273.500 680.496 268.035 L 683.251 262.571 685.718 256.035 L 688.184 249.500 690.160 241 L 692.136 232.500 692.661 214.500 L 693.186 196.500 691.645 186.500 L 690.104 176.500 687.486 167.505 L 684.867 158.511 681.009 150.278 L 677.151 142.045 671.978 134.562 L 666.805 127.079 659.075 119.694 L 651.346 112.309 645.423 108.291 L 639.500 104.274 633.434 101.215 L 627.368 98.157 616.934 94.521 L 606.500 90.885 595.500 88.805 L 584.500 86.725 504.750 86.285 L 425 85.844 425 273.922 M 695.667 86.667 L 695 87.333 695 122.658 L 695 157.982 746.250 158.241 L 797.500 158.500 797.753 310.250 L 798.006 462 835.503 462 L 873 462 873 310 L 873 158 925 158 L 977 158 977 122 L 977 86 836.667 86 L 696.333 86 695.667 86.667 M 999 274 L 999 462 1077.039 462 L 1155.079 462 1164.789 460.933 L 1174.500 459.866 1183.763 457.876 L 1193.027 455.885 1203.583 451.969 L 1214.140 448.053 1222.197 443.277 L 1230.254 438.500 1236.851 432.974 L 1243.448 427.448 1249.321 420.474 L 1255.193 413.500 1260.584 402.500 L 1265.974 391.500 1267.965 383.675 L 1269.956 375.851 1270.978 367.702 L 1272 359.552 1271.994 352.026 L 1271.988 344.500 1270.548 335 L 1269.107 325.500 1266.943 318.500 L 1264.779 311.500 1261.957 305.262 L 1259.136 299.024 1253.970 291.551 L 1248.805 284.079 1240.896 276.523 L 1232.988 268.967 1227.441 265.419 L 1221.894 261.871 1224.385 259.912 L 1226.876 257.952 1232.886 250.481 L 1238.897 243.010 1242.488 236.588 L 1246.079 230.167 1248.937 222.333 L 1251.795 214.500 1253.540 204.058 L 1255.285 193.616 1254.679 181.058 L 1254.072 168.500 1252.098 160.500 L 1250.125 152.500 1247.853 147 L 1245.581 141.500 1242.363 136 L 1239.145 130.500 1234.306 124.534 L 1229.467 118.568 1222.984 113.277 L 1216.500 107.985 1204.500 102.017 L 1192.500 96.048 1184 93.634 L 1175.500 91.220 1165.981 89.603 L 1156.461 87.986 1143.981 87.016 L 1131.500 86.045 1065.250 86.023 L 999 86 999 274 M 1249 86.575 L 1249 87.172 1313.500 192.458 L 1378 297.743 1378 379.872 L 1378 462 1416 462 L 1454 462 1454 379.373 L 1454 296.745 1517.680 193.623 L 1581.361 90.500 1582.795 88.250 L 1584.230 86 1539.761 86 L 1495.292 86 1456.513 150.750 L 1417.734 215.500 1416.617 216.687 L 1415.500 217.874 1375.960 152.187 L 1336.421 86.500 1292.710 86.239 L 1249 85.979 1249 86.575 M 1587 274 L 1587 462 1624.500 462 L 1662 462 1662 310 L 1662 158 1692.250 158.008 L 1722.500 158.016 1731.138 159.006 L 1739.777 159.996 1746.332 162.021 L 1752.887 164.045 1759.176 168.273 L 1765.466 172.500 1769.139 177.393 L 1772.813 182.286 1774.942 188.771 L 1777.070 195.257 1777.636 204.378 L 1778.201 213.500 1776.628 220.878 L 1775.054 228.257 1772.823 232.878 L 1770.593 237.500 1766.046 242.386 L 1761.500 247.271 1757.623 249.728 L 1753.747 252.185 1747.227 254.639 L 1740.708 257.093 1731.104 258.540 L 1721.500 259.988 1710.250 259.994 L 1699 260 1699.013 296.750 L 1699.027 333.500 1743.618 397.750 L 1788.208 462 1833.604 462 L 1879 462 1879 461.539 L 1879 461.077 1830.468 392.036 L 1781.935 322.995 1781.488 321.747 L 1781.041 320.500 1792.410 315.145 L 1803.779 309.791 1812.264 303.423 L 1820.749 297.055 1826.047 291.277 L 1831.344 285.500 1836.681 277.333 L 1842.018 269.165 1845.951 259.333 L 1849.883 249.500 1852.134 239 L 1854.384 228.500 1854.402 209.500 L 1854.420 190.500 1852.655 181.626 L 1850.889 172.752 1848.350 164.626 L 1845.811 156.500 1842.021 148.866 L 1838.232 141.232 1833.938 134.866 L 1829.645 128.500 1822.572 121.439 L 1815.500 114.379 1809 109.792 L 1802.500 105.206 1794.500 101.212 L 1786.500 97.219 1779 94.532 L 1771.500 91.845 1762.193 89.894 L 1752.887 87.942 1740.693 86.994 L 1728.500 86.045 1657.750 86.023 L 1587 86 1587 274 M 2282 273.937 L 2282 462 2360.039 462 L 2438.079 462 2447.789 460.932 L 2457.500 459.863 2466.490 457.876 L 2475.480 455.888 2482.990 453.368 L 2490.500 450.847 2499.461 446.321 L 2508.422 441.794 2515.461 436.470 L 2522.500 431.146 2527.133 426.323 L 2531.766 421.500 2535.466 416.564 L 2539.166 411.629 2543.580 402.841 L 2547.993 394.053 2550.394 385.770 L 2552.794 377.487 2554.039 367.600 L 2555.283 357.713 2554.709 346.606 L 2554.135 335.500 2552.630 328.484 L 2551.126 321.469 2548.438 313.984 L 2545.750 306.500 2542.983 301 L 2540.216 295.500 2535.629 289.276 L 2531.043 283.053 2524.914 277.074 L 2518.785 271.096 2513.143 267.332 L 2507.500 263.568 2506.611 262.845 L 2505.722 262.122 2511.495 255.811 L 2517.269 249.500 2522.024 242.290 L 2526.780 235.081 2529.950 227.466 L 2533.120 219.851 2535.231 212.175 L 2537.342 204.500 2537.385 187 L 2537.429 169.500 2535.790 162.356 L 2534.152 155.213 2531.077 147.532 L 2528.001 139.852 2523.644 133.176 L 2519.288 126.500 2515.040 121.728 L 2510.792 116.957 2504.889 112.415 L 2498.986 107.873 2490.731 103.481 L 2482.475 99.089 2475.565 96.488 L 2468.655 93.887 2460.578 91.909 L 2452.500 89.930 2442 88.300 L 2431.500 86.669 2356.750 86.272 L 2282 85.874 2282 273.937 M 2628.250 98.304 L 2591 110.387 2591 286.194 L 2591 462 2628.500 462 L 2666 462 2666 274 L 2666 86 2665.750 86.111 L 2665.500 86.222 2628.250 98.304 M 2720 274 L 2720 462 2757.996 462 L 2795.992 462 2796.246 345.361 L 2796.500 228.722 2879.348 345.361 L 2962.196 462 2996.598 462 L 3031 462 3031 274 L 3031 86 2993.004 86 L 2955.008 86 2954.754 204.098 L 2954.500 322.195 2947.084 311.848 L 2939.669 301.500 2863.256 193.750 L 2786.843 86 2753.422 86 L 2720 86 2720 274 M 1075 196.089 L 1075 234.179 1109.250 233.751 L 1143.500 233.323 1149.267 231.670 L 1155.034 230.017 1160.051 227.474 L 1165.068 224.932 1169.135 220.865 L 1173.202 216.798 1175.351 212.149 L 1177.500 207.500 1177.500 195.429 L 1177.500 183.359 1174.479 177.452 L 1171.458 171.545 1166.126 167.820 L 1160.793 164.094 1154.647 162.064 L 1148.500 160.034 1141.500 159.037 L 1134.500 158.040 1104.750 158.020 L 1075 158 1075 196.089 M 2358 195.920 L 2358 234 2388.750 233.965 L 2419.500 233.930 2427.464 232.511 L 2435.429 231.092 2442.747 227.475 L 2450.065 223.858 2454.030 218.843 L 2457.994 213.828 2459.584 208.360 L 2461.173 202.892 2461.150 194.654 L 2461.127 186.415 2458.949 180.593 L 2456.770 174.770 2453.029 171.029 L 2449.288 167.288 2443.894 164.674 L 2438.500 162.061 2432.500 160.357 L 2426.500 158.653 2392.250 158.246 L 2358 157.840 2358 195.920 M 2036.500 161.951 L 2027.500 163.860 2020.134 166.410 L 2012.768 168.960 2004.450 173.385 L 1996.132 177.810 1988.290 183.779 L 1980.448 189.749 1974.767 195.885 L 1969.086 202.021 1964.555 208.371 L 1960.024 214.720 1956.082 222.610 L 1952.141 230.500 1949.608 238.065 L 1947.075 245.630 1945.537 254.446 L 1944 263.262 1944 274.596 L 1944 285.929 1945.908 295.715 L 1947.815 305.500 1950.881 313.869 L 1953.947 322.237 1957.579 328.869 L 1961.212 335.500 1966.022 342 L 1970.833 348.500 1979.166 356.616 L 1987.500 364.732 1996.212 370.404 L 2004.924 376.076 2010.481 378.534 L 2016.038 380.991 2022.061 383.021 L 2028.085 385.050 2035.793 386.531 L 2043.500 388.011 2053 388.630 L 2062.500 389.249 2074 387.564 L 2085.500 385.878 2094.237 382.963 L 2102.974 380.047 2108.237 377.400 L 2113.500 374.754 2121.550 369.530 L 2129.600 364.305 2136.365 357.977 L 2143.130 351.649 2149.586 343.075 L 2156.043 334.500 2161 324.500 L 2165.956 314.500 2168.474 305 L 2170.992 295.500 2172.159 284.750 L 2173.326 274 2172.134 263.013 L 2170.943 252.026 2168.442 243.263 L 2165.942 234.500 2161.475 225.169 L 2157.008 215.839 2151.925 208.486 L 2146.842 201.133 2137.956 192.567 L 2129.071 184.001 2120.407 178.354 L 2111.743 172.706 2103.621 169.255 L 2095.500 165.804 2086 163.296 L 2076.500 160.787 2061 160.414 L 2045.500 160.042 2036.500 161.951 M 1075 346.951 L 1075 390.122 1115.750 389.757 L 1156.500 389.393 1162.500 387.649 L 1168.500 385.906 1173.675 383.542 L 1178.850 381.179 1183.405 376.981 L 1187.959 372.783 1190.730 367.142 L 1193.500 361.500 1193.500 349 L 1193.500 336.500 1190.620 330.266 L 1187.741 324.031 1182.844 319.451 L 1177.947 314.870 1171.677 311.936 L 1165.406 309.002 1156.453 306.895 L 1147.500 304.788 1111.250 304.284 L 1075 303.780 1075 346.951 M 2358 347.069 L 2358 390.138 2399.250 389.737 L 2440.500 389.335 2446.446 387.585 L 2452.391 385.836 2457.286 383.355 L 2462.180 380.875 2466.570 376.829 L 2470.959 372.783 2473.730 367.142 L 2476.500 361.500 2476.500 349 L 2476.500 336.500 2473.620 330.266 L 2470.741 324.031 2466.003 319.600 L 2461.266 315.168 2456.192 312.597 L 2451.119 310.026 2443.809 308.037 L 2436.500 306.048 2427.500 305.032 L 2418.500 304.016 2388.250 304.008 L 2358 304 2358 347.069 M 184.308 381.250 L 191.604 392.500 214.052 427.213 L 236.500 461.926 237.595 460.713 L 238.690 459.500 253.043 437 L 267.395 414.500 281.668 392.250 L 295.941 370 236.477 370 L 177.012 370 184.308 381.250" stroke="none" fill="#ffffff" fill-rule="evenodd"/></svg>