<svg xmlns="http://www.w3.org/2000/svg" width="3275" height="559" viewBox="0 0 3275 559" version="1.1"><path d="M -0 279.500 L -0 559.001 1637.750 558.750 L 3275.500 558.500 3275.752 279.250 L 3276.004 0 1638.002 0 L 0 0 -0 279.500 M 0.493 280 L 0.493 559.500 0.750 419.750 L 1.007 280 0.750 140.250 L 0.493 0.500 0.493 280 M 186.500 104.145 L 179.500 105.037 170.344 107.470 L 161.189 109.902 153.172 112.994 L 145.154 116.086 136.572 121.293 L 127.989 126.500 120.617 132.679 L 113.244 138.859 107.291 146.179 L 101.339 153.500 97.170 160.557 L 93.001 167.615 90.080 175.618 L 87.159 183.622 85.580 191.269 L 84 198.916 84.013 210.708 L 84.026 222.500 85.894 231.500 L 87.761 240.500 90.868 248.500 L 93.974 256.500 98.799 264 L 103.625 271.500 109.536 277.876 L 115.448 284.251 122.995 289.996 L 130.542 295.741 137.268 299.858 L 143.993 303.974 152.247 308.128 L 160.500 312.282 168.500 315.725 L 176.500 319.167 200 328.118 L 223.500 337.069 235.500 342.945 L 247.500 348.821 251.757 352.494 L 256.014 356.168 258.450 360.334 L 260.885 364.500 261.901 370.835 L 262.916 377.169 261.943 382.300 L 260.970 387.430 258.927 391.651 L 256.883 395.873 252.987 399.393 L 249.090 402.913 245.295 404.844 L 241.500 406.775 234.500 409.003 L 227.500 411.232 214.215 411.748 L 200.931 412.263 193.413 411.050 L 185.895 409.838 177.331 406.943 L 168.767 404.048 161.134 399.932 L 153.500 395.816 146.856 390.892 L 140.212 385.968 133.856 379.155 L 127.500 372.342 121.500 364.707 L 115.500 357.072 114.971 357.036 L 114.443 357 90.164 386.030 L 65.884 415.060 66.475 416.920 L 67.065 418.781 79.310 430.640 L 91.556 442.500 99.334 448.399 L 107.113 454.298 117.581 460.525 L 128.048 466.752 140.774 471.828 L 153.500 476.905 163.500 479.373 L 173.500 481.841 181 483.170 L 188.500 484.500 209.500 484.424 L 230.500 484.349 240.749 482.156 L 250.998 479.963 260.249 476.878 L 269.500 473.793 280 468.409 L 290.500 463.025 297.500 457.762 L 304.500 452.500 310.866 446 L 317.231 439.500 323.104 430.593 L 328.976 421.685 332.085 413.623 L 335.194 405.562 337.265 398.031 L 339.337 390.500 339.341 372 L 339.344 353.500 336.667 343.500 L 333.990 333.500 329.495 324.500 L 324.999 315.500 318.983 308.258 L 312.966 301.016 306.233 295.436 L 299.500 289.855 290.500 284.253 L 281.500 278.650 270.500 273.481 L 259.500 268.312 224.946 254.625 L 190.391 240.938 182.177 236.299 L 173.962 231.659 169.845 228.135 L 165.728 224.611 163.374 219.556 L 161.020 214.500 161.010 208.788 L 161 203.075 162.997 197.738 L 164.994 192.401 169.247 188.096 L 173.500 183.792 178.043 181.484 L 182.585 179.176 188.543 177.391 L 194.500 175.605 206 175.700 L 217.500 175.795 226.268 178.399 L 235.037 181.002 244.408 185.381 L 253.779 189.760 260.890 194.360 L 268 198.960 279.099 208.081 L 290.197 217.203 290.992 216.351 L 291.786 215.500 313.934 186.623 L 336.082 157.745 335.791 156.958 L 335.500 156.172 326.500 148.942 L 317.500 141.713 307 134.718 L 296.500 127.722 283.727 121.473 L 270.953 115.224 261.227 112.122 L 251.500 109.019 242.500 107.074 L 233.500 105.129 223.789 104.065 L 214.079 103 203.789 103.126 L 193.500 103.253 186.500 104.145 M 373 294 L 373 482 410.500 482 L 448 482 448 410.500 L 448 339 520.500 339 L 593 339 593 410.500 L 593 482 631 482 L 669 482 669 293.988 L 669 105.976 631.250 106.238 L 593.500 106.500 593.244 186.750 L 592.988 267 520.494 267 L 448 267 448 186.500 L 448 106 410.500 106 L 373 106 373 294 M 716 224.039 L 716 342.079 717.047 351.789 L 718.095 361.500 720.482 371.560 L 722.870 381.621 725.933 389.331 L 728.996 397.042 732.626 404.271 L 736.257 411.500 742.378 420.466 L 748.500 429.433 757.500 438.858 L 766.500 448.284 774 453.953 L 781.500 459.623 789.136 464.344 L 796.771 469.065 805.636 472.650 L 814.500 476.235 822.380 478.604 L 830.259 480.972 838.380 482.531 L 846.500 484.089 858 484.682 L 869.500 485.275 880 484.058 L 890.500 482.841 896.816 481.384 L 903.132 479.926 911.316 477.347 L 919.500 474.768 928.574 470.534 L 937.647 466.301 946.074 460.744 L 954.500 455.186 962.234 448.577 L 969.968 441.968 976.597 434.234 L 983.226 426.500 988.069 419.361 L 992.911 412.222 997.853 402.361 L 1002.795 392.500 1006.325 381.313 L 1009.855 370.126 1011.678 359.813 L 1013.500 349.500 1013.500 228 L 1013.500 106.500 975.777 106.238 L 938.054 105.976 937.760 227.238 L 937.467 348.500 935.173 356 L 932.879 363.500 929.323 370 L 925.767 376.500 921.827 381.500 L 917.886 386.500 911.693 391.824 L 905.500 397.148 896.500 401.497 L 887.500 405.845 879.644 407.547 L 871.787 409.248 861.144 408.751 L 850.500 408.254 842.500 405.653 L 834.500 403.051 828.024 399.276 L 821.548 395.500 813.931 388 L 806.314 380.500 802.060 373.278 L 797.805 366.056 795.153 358.278 L 792.500 350.500 792.227 228.250 L 791.954 106 753.977 106 L 716 106 716 224.039 M 1032 142 L 1032 178 1083 178 L 1134 178 1134 330 L 1134 482 1172 482 L 1210 482 1210 330 L 1210 178 1311.500 178 L 1413 178 1413 330 L 1413 482 1450.497 482 L 1487.994 482 1488.247 330.250 L 1488.500 178.500 1540.250 178.241 L 1592 177.982 1592 141.991 L 1592 106 1312 106 L 1032 106 1032 142 M 1614 142 L 1614 178 1736 178 L 1858 178 1858 142 L 1858 106 1736 106 L 1614 106 1614 142 M 1900.667 106.667 L 1900 107.333 1900 294.667 L 1900 482 1938 482 L 1976 482 1976 329.906 L 1976 177.812 2012.250 178.244 L 2048.500 178.677 2056.325 180.817 L 2064.149 182.956 2069.179 185.694 L 2074.208 188.431 2078.582 192.281 L 2082.955 196.131 2086.462 203.315 L 2089.969 210.500 2091.156 219.682 L 2092.342 228.865 2091.052 237.536 L 2089.762 246.207 2086.346 253.035 L 2082.930 259.863 2077.654 264.682 L 2072.378 269.500 2066.646 272.302 L 2060.914 275.104 2053.207 277.120 L 2045.500 279.137 2029.250 279.716 L 2013 280.296 2013 316.908 L 2013 353.521 2056.988 416.948 L 2100.975 480.375 2101.798 481.198 L 2102.621 482.021 2147.897 481.760 L 2193.174 481.500 2144.087 411.674 L 2095 341.849 2095.056 341.174 L 2095.111 340.500 2107.817 334.298 L 2120.523 328.096 2129.011 321.248 L 2137.500 314.400 2144.334 305.950 L 2151.168 297.500 2156.550 286.500 L 2161.932 275.500 2164.414 265.840 L 2166.896 256.180 2168.075 245.340 L 2169.254 234.500 2168.608 222.186 L 2167.961 209.872 2166.076 200.147 L 2164.191 190.422 2161.523 182.475 L 2158.856 174.528 2154.705 166.551 L 2150.555 158.573 2144.944 151.036 L 2139.332 143.500 2134.766 139.321 L 2130.200 135.143 2123.850 130.461 L 2117.500 125.780 2109 121.517 L 2100.500 117.253 2093 114.555 L 2085.500 111.857 2076 109.892 L 2066.500 107.927 2054.500 106.986 L 2042.500 106.045 1971.917 106.023 L 1901.333 106 1900.667 106.667 M 2210 294 L 2210 482 2289.250 481.995 L 2368.500 481.991 2381.584 480.066 L 2394.668 478.141 2400.905 476.525 L 2407.142 474.908 2417.321 470.975 L 2427.500 467.042 2436.500 461.211 L 2445.500 455.380 2451.738 449.594 L 2457.975 443.808 2462.639 437.654 L 2467.302 431.500 2472.150 421.413 L 2476.998 411.326 2478.931 403.769 L 2480.864 396.211 2481.932 388.533 L 2483 380.855 2482.994 372.678 L 2482.988 364.500 2481.511 354.697 L 2480.033 344.893 2477.045 335.974 L 2474.057 327.055 2471.137 321.271 L 2468.217 315.487 2463.646 309.406 L 2459.076 303.326 2451.489 296.119 L 2443.901 288.912 2438.583 285.510 L 2433.264 282.107 2438.130 277.059 L 2442.997 272.010 2447.606 265.755 L 2452.216 259.500 2454.983 254 L 2457.750 248.500 2460.259 241.500 L 2462.769 234.500 2464.384 225.074 L 2466 215.648 2466 205.955 L 2466 196.262 2464.478 187.534 L 2462.956 178.806 2460.898 172.653 L 2458.840 166.500 2455.818 160.500 L 2452.795 154.500 2447.820 147.773 L 2442.844 141.045 2437.894 136.594 L 2432.943 132.143 2425.971 127.550 L 2419 122.957 2410.900 119.396 L 2402.800 115.835 2395.150 113.556 L 2387.500 111.278 2378.500 109.669 L 2369.500 108.059 2359.144 107.030 L 2348.788 106 2279.394 106 L 2210 106 2210 294 M 2556.250 118.326 L 2519 130.421 2519 306.211 L 2519 482 2556.500 482 L 2594 482 2594 294 L 2594 106 2593.750 106.116 L 2593.500 106.231 2556.250 118.326 M 2648 294 L 2648 482 2686 482 L 2724 482 2724 329.883 L 2724 177.766 2760.250 178.280 L 2796.500 178.794 2802.912 180.423 L 2809.324 182.052 2815.412 184.972 L 2821.500 187.891 2826.085 192.434 L 2830.669 196.976 2833.308 201.825 L 2835.947 206.673 2837.459 213.087 L 2838.970 219.500 2838.970 228 L 2838.970 236.500 2837.489 242.781 L 2836.009 249.063 2833.871 253.281 L 2831.734 257.500 2828.828 261.193 L 2825.921 264.887 2819.868 268.929 L 2813.815 272.972 2806.005 275.439 L 2798.195 277.906 2787.991 278.953 L 2777.788 280 2768.894 280 L 2760 280 2760 316.495 L 2760 352.991 2804.748 417.495 L 2849.496 482 2895.367 482 L 2941.237 482 2938.798 478.750 L 2936.360 475.500 2889.065 408.198 L 2841.770 340.897 2842.135 340.624 L 2842.500 340.352 2848 338.079 L 2853.500 335.807 2860 332.260 L 2866.500 328.712 2873.144 323.840 L 2879.788 318.968 2886.307 312.058 L 2892.825 305.148 2897.039 298.943 L 2901.253 292.738 2905.118 284.489 L 2908.983 276.241 2911.438 266.870 L 2913.893 257.500 2915.079 249.127 L 2916.266 240.753 2915.707 223.627 L 2915.148 206.500 2912.672 196 L 2910.195 185.500 2907.723 178.965 L 2905.251 172.429 2902.487 166.965 L 2899.723 161.500 2895.680 155.500 L 2891.637 149.500 2885.069 142.660 L 2878.500 135.820 2872 131.040 L 2865.500 126.260 2858 122.206 L 2850.500 118.152 2840.500 114.712 L 2830.500 111.272 2821.500 109.647 L 2812.500 108.023 2801 107.020 L 2789.500 106.017 2718.750 106.009 L 2648 106 2648 294 M 2958 294.575 L 2958 483.150 3030.250 482.716 L 3102.500 482.282 3114 480.121 L 3125.500 477.960 3136.580 474.576 L 3147.659 471.192 3155.080 468.042 L 3162.500 464.893 3171 460.317 L 3179.500 455.742 3187 450.746 L 3194.500 445.749 3201.439 440.125 L 3208.377 434.500 3216.802 426.036 L 3225.226 417.571 3231.473 409.536 L 3237.721 401.500 3243.035 393 L 3248.350 384.500 3252.636 375.350 L 3256.921 366.201 3260.903 354.289 L 3264.885 342.378 3266.900 332.439 L 3268.915 322.500 3270.077 311 L 3271.240 299.500 3270.637 286.500 L 3270.033 273.500 3267.961 262 L 3265.889 250.500 3263.321 241.570 L 3260.754 232.640 3257.313 224.070 L 3253.872 215.500 3248.802 206 L 3243.733 196.500 3238.186 188.500 L 3232.639 180.500 3225.650 172.177 L 3218.661 163.853 3210.081 156.329 L 3201.500 148.805 3194.500 143.560 L 3187.500 138.315 3178.724 133.056 L 3169.949 127.796 3158.885 122.905 L 3147.821 118.015 3138.383 115.064 L 3128.946 112.114 3118.723 110.102 L 3108.500 108.089 3097.576 107.044 L 3086.653 106 3022.326 106 L 2958 106 2958 294.575 M 2286 216.098 L 2286 254.196 2320.250 253.729 L 2354.500 253.261 2360.446 251.548 L 2366.391 249.836 2371.230 247.384 L 2376.068 244.932 2380.135 240.865 L 2384.202 236.798 2386.351 232.149 L 2388.500 227.500 2388.500 215.429 L 2388.500 203.359 2385.479 197.452 L 2382.458 191.545 2377.126 187.820 L 2371.793 184.094 2365.647 182.064 L 2359.500 180.034 2352.500 179.037 L 2345.500 178.040 2315.750 178.020 L 2286 178 2286 216.098 M 3033 294.500 L 3033 407 3062.369 407 L 3091.738 407 3100.209 405.523 L 3108.680 404.045 3117.770 401.075 L 3126.860 398.105 3132.180 395.441 L 3137.500 392.778 3145.628 387.407 L 3153.756 382.036 3160.668 375.191 L 3167.581 368.346 3172.840 361.423 L 3178.099 354.500 3183.545 343.500 L 3188.992 332.500 3191.671 322.500 L 3194.349 312.500 3194.405 295 L 3194.461 277.500 3192.228 268.660 L 3189.995 259.820 3186.950 252.216 L 3183.905 244.611 3179.370 236.988 L 3174.835 229.364 3168.667 222.134 L 3162.500 214.904 3156 209.387 L 3149.500 203.871 3142.249 199.332 L 3134.998 194.792 3124.233 190.419 L 3113.468 186.046 3101.635 184.023 L 3089.801 182 3061.401 182 L 3033 182 3033 294.500 M 1614 295 L 1614 331 1736 331 L 1858 331 1858 295 L 1858 259 1736 259 L 1614 259 1614 295 M 2286 367.500 L 2286 411 2314.750 410.977 L 2343.500 410.955 2355.765 410.001 L 2368.030 409.047 2374.194 407.450 L 2380.357 405.853 2385.269 403.364 L 2390.180 400.875 2394.570 396.829 L 2398.959 392.783 2401.730 387.142 L 2404.500 381.500 2404.500 369 L 2404.500 356.500 2401.620 350.266 L 2398.741 344.031 2393.844 339.451 L 2388.947 334.870 2382.723 331.974 L 2376.500 329.077 2370.500 327.508 L 2364.500 325.939 2355 324.995 L 2345.500 324.052 2315.750 324.026 L 2286 324 2286 367.500 M 1614 447 L 1614 482 1736 482 L 1858 482 1858 447 L 1858 412 1736 412 L 1614 412 1614 447" stroke="none" fill="#fef7ec" fill-rule="evenodd"/><path d="M 186.500 104.145 L 179.500 105.037 170.344 107.470 L 161.189 109.902 153.172 112.994 L 145.154 116.086 136.572 121.293 L 127.989 126.500 120.617 132.679 L 113.244 138.859 107.291 146.179 L 101.339 153.500 97.170 160.557 L 93.001 167.615 90.080 175.618 L 87.159 183.622 85.580 191.269 L 84 198.916 84.013 210.708 L 84.026 222.500 85.894 231.500 L 87.761 240.500 90.868 248.500 L 93.974 256.500 98.799 264 L 103.625 271.500 109.536 277.876 L 115.448 284.251 122.995 289.996 L 130.542 295.741 137.268 299.858 L 143.993 303.974 152.247 308.128 L 160.500 312.282 168.500 315.725 L 176.500 319.167 200 328.118 L 223.500 337.069 235.500 342.945 L 247.500 348.821 251.757 352.494 L 256.014 356.168 258.450 360.334 L 260.885 364.500 261.901 370.835 L 262.916 377.169 261.943 382.300 L 260.970 387.430 258.927 391.651 L 256.883 395.873 252.987 399.393 L 249.090 402.913 245.295 404.844 L 241.500 406.775 234.500 409.003 L 227.500 411.232 214.215 411.748 L 200.931 412.263 193.413 411.050 L 185.895 409.838 177.331 406.943 L 168.767 404.048 161.134 399.932 L 153.500 395.816 146.856 390.892 L 140.212 385.968 133.856 379.155 L 127.500 372.342 121.500 364.707 L 115.500 357.072 114.971 357.036 L 114.443 357 90.164 386.030 L 65.884 415.060 66.475 416.920 L 67.065 418.781 79.310 430.640 L 91.556 442.500 99.334 448.399 L 107.113 454.298 117.581 460.525 L 128.048 466.752 140.774 471.828 L 153.500 476.905 163.500 479.373 L 173.500 481.841 181 483.170 L 188.500 484.500 209.500 484.424 L 230.500 484.349 240.749 482.156 L 250.998 479.963 260.249 476.878 L 269.500 473.793 280 468.409 L 290.500 463.025 297.500 457.762 L 304.500 452.500 310.866 446 L 317.231 439.500 323.104 430.593 L 328.976 421.685 332.085 413.623 L 335.194 405.562 337.265 398.031 L 339.337 390.500 339.341 372 L 339.344 353.500 336.667 343.500 L 333.990 333.500 329.495 324.500 L 324.999 315.500 318.983 308.258 L 312.966 301.016 306.233 295.436 L 299.500 289.855 290.500 284.253 L 281.500 278.650 270.500 273.481 L 259.500 268.312 224.946 254.625 L 190.391 240.938 182.177 236.299 L 173.962 231.659 169.845 228.135 L 165.728 224.611 163.374 219.556 L 161.020 214.500 161.010 208.788 L 161 203.075 162.997 197.738 L 164.994 192.401 169.247 188.096 L 173.500 183.792 178.043 181.484 L 182.585 179.176 188.543 177.391 L 194.500 175.605 206 175.700 L 217.500 175.795 226.268 178.399 L 235.037 181.002 244.408 185.381 L 253.779 189.760 260.890 194.360 L 268 198.960 279.099 208.081 L 290.197 217.203 290.992 216.351 L 291.786 215.500 313.934 186.623 L 336.082 157.745 335.791 156.958 L 335.500 156.172 326.500 148.942 L 317.500 141.713 307 134.718 L 296.500 127.722 283.727 121.473 L 270.953 115.224 261.227 112.122 L 251.500 109.019 242.500 107.074 L 233.500 105.129 223.789 104.065 L 214.079 103 203.789 103.126 L 193.500 103.253 186.500 104.145 M 373 294 L 373 482 410.500 482 L 448 482 448 410.500 L 448 339 520.500 339 L 593 339 593 410.500 L 593 482 631 482 L 669 482 669 293.988 L 669 105.976 631.250 106.238 L 593.500 106.500 593.244 186.750 L 592.988 267 520.494 267 L 448 267 448 186.500 L 448 106 410.500 106 L 373 106 373 294 M 716 224.039 L 716 342.079 717.047 351.789 L 718.095 361.500 720.482 371.560 L 722.870 381.621 725.933 389.331 L 728.996 397.042 732.626 404.271 L 736.257 411.500 742.378 420.466 L 748.500 429.433 757.500 438.858 L 766.500 448.284 774 453.953 L 781.500 459.623 789.136 464.344 L 796.771 469.065 805.636 472.650 L 814.500 476.235 822.380 478.604 L 830.259 480.972 838.380 482.531 L 846.500 484.089 858 484.682 L 869.500 485.275 880 484.058 L 890.500 482.841 896.816 481.384 L 903.132 479.926 911.316 477.347 L 919.500 474.768 928.574 470.534 L 937.647 466.301 946.074 460.744 L 954.500 455.186 962.234 448.577 L 969.968 441.968 976.597 434.234 L 983.226 426.500 988.069 419.361 L 992.911 412.222 997.853 402.361 L 1002.795 392.500 1006.325 381.313 L 1009.855 370.126 1011.678 359.813 L 1013.500 349.500 1013.500 228 L 1013.500 106.500 975.777 106.238 L 938.054 105.976 937.760 227.238 L 937.467 348.500 935.173 356 L 932.879 363.500 929.323 370 L 925.767 376.500 921.827 381.500 L 917.886 386.500 911.693 391.824 L 905.500 397.148 896.500 401.497 L 887.500 405.845 879.644 407.547 L 871.787 409.248 861.144 408.751 L 850.500 408.254 842.500 405.653 L 834.500 403.051 828.024 399.276 L 821.548 395.500 813.931 388 L 806.314 380.500 802.060 373.278 L 797.805 366.056 795.153 358.278 L 792.500 350.500 792.227 228.250 L 791.954 106 753.977 106 L 716 106 716 224.039 M 1032 142 L 1032 178 1083 178 L 1134 178 1134 330 L 1134 482 1172 482 L 1210 482 1210 330 L 1210 178 1311.500 178 L 1413 178 1413 330 L 1413 482 1450.497 482 L 1487.994 482 1488.247 330.250 L 1488.500 178.500 1540.250 178.241 L 1592 177.982 1592 141.991 L 1592 106 1312 106 L 1032 106 1032 142 M 1614 142 L 1614 178 1736 178 L 1858 178 1858 142 L 1858 106 1736 106 L 1614 106 1614 142 M 1900.667 106.667 L 1900 107.333 1900 294.667 L 1900 482 1938 482 L 1976 482 1976 329.906 L 1976 177.812 2012.250 178.244 L 2048.500 178.677 2056.325 180.817 L 2064.149 182.956 2069.179 185.694 L 2074.208 188.431 2078.582 192.281 L 2082.955 196.131 2086.462 203.315 L 2089.969 210.500 2091.156 219.682 L 2092.342 228.865 2091.052 237.536 L 2089.762 246.207 2086.346 253.035 L 2082.930 259.863 2077.654 264.682 L 2072.378 269.500 2066.646 272.302 L 2060.914 275.104 2053.207 277.120 L 2045.500 279.137 2029.250 279.716 L 2013 280.296 2013 316.908 L 2013 353.521 2056.988 416.948 L 2100.975 480.375 2101.798 481.198 L 2102.621 482.021 2147.897 481.760 L 2193.174 481.500 2144.087 411.674 L 2095 341.849 2095.056 341.174 L 2095.111 340.500 2107.817 334.298 L 2120.523 328.096 2129.011 321.248 L 2137.500 314.400 2144.334 305.950 L 2151.168 297.500 2156.550 286.500 L 2161.932 275.500 2164.414 265.840 L 2166.896 256.180 2168.075 245.340 L 2169.254 234.500 2168.608 222.186 L 2167.961 209.872 2166.076 200.147 L 2164.191 190.422 2161.523 182.475 L 2158.856 174.528 2154.705 166.551 L 2150.555 158.573 2144.944 151.036 L 2139.332 143.500 2134.766 139.321 L 2130.200 135.143 2123.850 130.461 L 2117.500 125.780 2109 121.517 L 2100.500 117.253 2093 114.555 L 2085.500 111.857 2076 109.892 L 2066.500 107.927 2054.500 106.986 L 2042.500 106.045 1971.917 106.023 L 1901.333 106 1900.667 106.667 M 2210 294 L 2210 482 2289.250 481.995 L 2368.500 481.991 2381.584 480.066 L 2394.668 478.141 2400.905 476.525 L 2407.142 474.908 2417.321 470.975 L 2427.500 467.042 2436.500 461.211 L 2445.500 455.380 2451.738 449.594 L 2457.975 443.808 2462.639 437.654 L 2467.302 431.500 2472.150 421.413 L 2476.998 411.326 2478.931 403.769 L 2480.864 396.211 2481.932 388.533 L 2483 380.855 2482.994 372.678 L 2482.988 364.500 2481.511 354.697 L 2480.033 344.893 2477.045 335.974 L 2474.057 327.055 2471.137 321.271 L 2468.217 315.487 2463.646 309.406 L 2459.076 303.326 2451.489 296.119 L 2443.901 288.912 2438.583 285.510 L 2433.264 282.107 2438.130 277.059 L 2442.997 272.010 2447.606 265.755 L 2452.216 259.500 2454.983 254 L 2457.750 248.500 2460.259 241.500 L 2462.769 234.500 2464.384 225.074 L 2466 215.648 2466 205.955 L 2466 196.262 2464.478 187.534 L 2462.956 178.806 2460.898 172.653 L 2458.840 166.500 2455.818 160.500 L 2452.795 154.500 2447.820 147.773 L 2442.844 141.045 2437.894 136.594 L 2432.943 132.143 2425.971 127.550 L 2419 122.957 2410.900 119.396 L 2402.800 115.835 2395.150 113.556 L 2387.500 111.278 2378.500 109.669 L 2369.500 108.059 2359.144 107.030 L 2348.788 106 2279.394 106 L 2210 106 2210 294 M 2556.250 118.326 L 2519 130.421 2519 306.211 L 2519 482 2556.500 482 L 2594 482 2594 294 L 2594 106 2593.750 106.116 L 2593.500 106.231 2556.250 118.326 M 2648 294 L 2648 482 2686 482 L 2724 482 2724 329.883 L 2724 177.766 2760.250 178.280 L 2796.500 178.794 2802.912 180.423 L 2809.324 182.052 2815.412 184.972 L 2821.500 187.891 2826.085 192.434 L 2830.669 196.976 2833.308 201.825 L 2835.947 206.673 2837.459 213.087 L 2838.970 219.500 2838.970 228 L 2838.970 236.500 2837.489 242.781 L 2836.009 249.063 2833.871 253.281 L 2831.734 257.500 2828.828 261.193 L 2825.921 264.887 2819.868 268.929 L 2813.815 272.972 2806.005 275.439 L 2798.195 277.906 2787.991 278.953 L 2777.788 280 2768.894 280 L 2760 280 2760 316.495 L 2760 352.991 2804.748 417.495 L 2849.496 482 2895.367 482 L 2941.237 482 2938.798 478.750 L 2936.360 475.500 2889.065 408.198 L 2841.770 340.897 2842.135 340.624 L 2842.500 340.352 2848 338.079 L 2853.500 335.807 2860 332.260 L 2866.500 328.712 2873.144 323.840 L 2879.788 318.968 2886.307 312.058 L 2892.825 305.148 2897.039 298.943 L 2901.253 292.738 2905.118 284.489 L 2908.983 276.241 2911.438 266.870 L 2913.893 257.500 2915.079 249.127 L 2916.266 240.753 2915.707 223.627 L 2915.148 206.500 2912.672 196 L 2910.195 185.500 2907.723 178.965 L 2905.251 172.429 2902.487 166.965 L 2899.723 161.500 2895.680 155.500 L 2891.637 149.500 2885.069 142.660 L 2878.500 135.820 2872 131.040 L 2865.500 126.260 2858 122.206 L 2850.500 118.152 2840.500 114.712 L 2830.500 111.272 2821.500 109.647 L 2812.500 108.023 2801 107.020 L 2789.500 106.017 2718.750 106.009 L 2648 106 2648 294 M 2958 294.575 L 2958 483.150 3030.250 482.716 L 3102.500 482.282 3114 480.121 L 3125.500 477.960 3136.580 474.576 L 3147.659 471.192 3155.080 468.042 L 3162.500 464.893 3171 460.317 L 3179.500 455.742 3187 450.746 L 3194.500 445.749 3201.439 440.125 L 3208.377 434.500 3216.802 426.036 L 3225.226 417.571 3231.473 409.536 L 3237.721 401.500 3243.035 393 L 3248.350 384.500 3252.636 375.350 L 3256.921 366.201 3260.903 354.289 L 3264.885 342.378 3266.900 332.439 L 3268.915 322.500 3270.077 311 L 3271.240 299.500 3270.637 286.500 L 3270.033 273.500 3267.961 262 L 3265.889 250.500 3263.321 241.570 L 3260.754 232.640 3257.313 224.070 L 3253.872 215.500 3248.802 206 L 3243.733 196.500 3238.186 188.500 L 3232.639 180.500 3225.650 172.177 L 3218.661 163.853 3210.081 156.329 L 3201.500 148.805 3194.500 143.560 L 3187.500 138.315 3178.724 133.056 L 3169.949 127.796 3158.885 122.905 L 3147.821 118.015 3138.383 115.064 L 3128.946 112.114 3118.723 110.102 L 3108.500 108.089 3097.576 107.044 L 3086.653 106 3022.326 106 L 2958 106 2958 294.575 M 2286 216.098 L 2286 254.196 2320.250 253.729 L 2354.500 253.261 2360.446 251.548 L 2366.391 249.836 2371.230 247.384 L 2376.068 244.932 2380.135 240.865 L 2384.202 236.798 2386.351 232.149 L 2388.500 227.500 2388.500 215.429 L 2388.500 203.359 2385.479 197.452 L 2382.458 191.545 2377.126 187.820 L 2371.793 184.094 2365.647 182.064 L 2359.500 180.034 2352.500 179.037 L 2345.500 178.040 2315.750 178.020 L 2286 178 2286 216.098 M 3033 294.500 L 3033 407 3062.369 407 L 3091.738 407 3100.209 405.523 L 3108.680 404.045 3117.770 401.075 L 3126.860 398.105 3132.180 395.441 L 3137.500 392.778 3145.628 387.407 L 3153.756 382.036 3160.668 375.191 L 3167.581 368.346 3172.840 361.423 L 3178.099 354.500 3183.545 343.500 L 3188.992 332.500 3191.671 322.500 L 3194.349 312.500 3194.405 295 L 3194.461 277.500 3192.228 268.660 L 3189.995 259.820 3186.950 252.216 L 3183.905 244.611 3179.370 236.988 L 3174.835 229.364 3168.667 222.134 L 3162.500 214.904 3156 209.387 L 3149.500 203.871 3142.249 199.332 L 3134.998 194.792 3124.233 190.419 L 3113.468 186.046 3101.635 184.023 L 3089.801 182 3061.401 182 L 3033 182 3033 294.500 M 1614 295 L 1614 331 1736 331 L 1858 331 1858 295 L 1858 259 1736 259 L 1614 259 1614 295 M 2286 367.500 L 2286 411 2314.750 410.977 L 2343.500 410.955 2355.765 410.001 L 2368.030 409.047 2374.194 407.450 L 2380.357 405.853 2385.269 403.364 L 2390.180 400.875 2394.570 396.829 L 2398.959 392.783 2401.730 387.142 L 2404.500 381.500 2404.500 369 L 2404.500 356.500 2401.620 350.266 L 2398.741 344.031 2393.844 339.451 L 2388.947 334.870 2382.723 331.974 L 2376.500 329.077 2370.500 327.508 L 2364.500 325.939 2355 324.995 L 2345.500 324.052 2315.750 324.026 L 2286 324 2286 367.500 M 1614 447 L 1614 482 1736 482 L 1858 482 1858 447 L 1858 412 1736 412 L 1614 412 1614 447" stroke="none" fill="#9dcbb3" fill-rule="evenodd"/></svg>