<svg xmlns="http://www.w3.org/2000/svg" width="4861" height="783" viewBox="0 0 4861 783" version="1.1"><path d="M 0 391.500 L 0 783 2430.750 782.750 L 4861.500 782.500 4861.751 391.250 L 4862.003 0 2431.001 0 L 0 0 0 391.500 M 0.495 392 L 0.495 783.500 0.750 587.750 L 1.005 392 0.750 196.250 L 0.495 0.500 0.495 392 M 302.625 117.797 L 302.133 118.594 203.464 379.047 L 104.796 639.500 90.972 676 L 77.148 712.500 76.467 714.250 L 75.786 716 139.444 716 L 203.102 716 204.465 712.738 L 205.828 709.476 279.433 506.988 L 353.038 304.500 353.542 303.107 L 354.047 301.714 354.653 302.320 L 355.260 302.927 430.948 509.213 L 506.635 715.500 570.318 715.757 L 634 716.015 634 715.457 L 634 714.900 550.631 495.700 L 467.262 276.500 436.941 196.750 L 406.620 117 354.869 117 L 303.118 117 302.625 117.797 M 655.248 416.203 L 655.500 715.500 715.748 715.758 L 775.996 716.016 776.248 473.758 L 776.500 231.500 829 231.517 L 881.500 231.535 892 233.341 L 902.500 235.147 911.500 238.191 L 920.500 241.235 927.500 245.276 L 934.500 249.317 941.071 256.051 L 947.641 262.785 951.373 270.439 L 955.106 278.094 957.113 285.797 L 959.119 293.500 959.678 306.500 L 960.236 319.500 958.594 328.889 L 956.952 338.279 954.343 344.889 L 951.733 351.500 947.314 358.214 L 942.894 364.928 936.697 370.555 L 930.500 376.183 920.500 381.051 L 910.500 385.919 903 387.949 L 895.500 389.979 885.500 391.484 L 875.500 392.988 856.332 392.994 L 837.164 393 835.582 393.607 L 834 394.214 834 452.234 L 834 510.254 842.834 522.877 L 851.669 535.500 912.944 624 L 974.218 712.500 975.894 714.257 L 977.569 716.013 1049.864 715.757 L 1122.159 715.500 1112.292 701.500 L 1102.425 687.500 1034.224 590.361 L 966.022 493.221 965.388 491.570 L 964.755 489.919 968.127 488.722 L 971.500 487.525 986.038 480.333 L 1000.575 473.140 1008.710 467.320 L 1016.844 461.500 1025.397 454.152 L 1033.950 446.804 1040.843 438.652 L 1047.737 430.500 1052.798 422.931 L 1057.860 415.361 1062.510 406.087 L 1067.160 396.812 1069.678 390.156 L 1072.196 383.500 1074.051 377.500 L 1075.906 371.500 1078.406 359 L 1080.906 346.500 1082.080 333.500 L 1083.254 320.500 1082.617 304.500 L 1081.980 288.500 1080.548 278.490 L 1079.116 268.479 1077.470 260.490 L 1075.824 252.500 1071.548 239.500 L 1067.272 226.500 1061.734 215.462 L 1056.196 204.424 1050.150 195.462 L 1044.105 186.500 1038.302 179.916 L 1032.500 173.332 1025.500 167.008 L 1018.500 160.684 1011.500 155.529 L 1004.500 150.375 998.280 146.633 L 992.059 142.891 982.622 138.481 L 973.185 134.071 961.843 130.162 L 950.500 126.252 938.500 123.544 L 926.500 120.835 915 119.246 L 903.500 117.658 779.248 117.282 L 654.997 116.906 655.248 416.203 M 1086 174 L 1086 231 1165.918 231 L 1245.836 231 1247.418 231.607 L 1249 232.214 1249 474.107 L 1249 716 1309 716 L 1369 716 1369 474.700 L 1369 233.400 1370.200 232.200 L 1371.400 231 1452.700 231 L 1534 231 1534 174 L 1534 117 1310 117 L 1086 117 1086 174 M 1570 416.497 L 1570 716.092 1697.750 715.719 L 1825.500 715.346 1837.500 713.693 L 1849.500 712.041 1857.320 710.524 L 1865.139 709.007 1872.936 707.016 L 1880.733 705.026 1891.116 701.434 L 1901.500 697.842 1912.500 692.514 L 1923.500 687.185 1934.500 679.926 L 1945.500 672.667 1958.079 660.083 L 1970.657 647.500 1976.818 638.091 L 1982.978 628.683 1987.407 619.591 L 1991.837 610.500 1995.355 599.926 L 1998.872 589.352 2000.965 578.412 L 2003.058 567.472 2003.812 554.486 L 2004.566 541.500 2003.841 528.796 L 2003.117 516.092 2001.427 506.796 L 1999.736 497.500 1996.923 487.968 L 1994.111 478.436 1990.494 469.968 L 1986.878 461.500 1982.228 453.551 L 1977.577 445.603 1971.958 438.051 L 1966.339 430.500 1958.903 422.919 L 1951.468 415.339 1940.984 407.535 L 1930.500 399.731 1928.250 398.705 L 1926 397.679 1926 396.375 L 1926 395.070 1927.965 394.019 L 1929.931 392.967 1938.536 383.233 L 1947.142 373.500 1952.463 364.935 L 1957.785 356.369 1960.768 350.435 L 1963.752 344.500 1967.283 335 L 1970.815 325.500 1973.370 314 L 1975.925 302.500 1976.963 289.596 L 1978.001 276.693 1976.994 263.422 L 1975.987 250.151 1974.413 241.826 L 1972.839 233.500 1969.442 223 L 1966.046 212.500 1961.947 204.500 L 1957.849 196.500 1952.248 188.081 L 1946.648 179.662 1937.574 170.500 L 1928.500 161.337 1922.500 156.809 L 1916.500 152.280 1905.795 146.119 L 1895.090 139.957 1883.795 135.413 L 1872.500 130.870 1860.246 127.413 L 1847.991 123.956 1836.246 121.975 L 1824.500 119.995 1815.500 118.847 L 1806.500 117.699 1688.250 117.300 L 1570 116.902 1570 416.497 M 1968.409 118.624 L 1969.037 120.261 2040.208 236.380 L 2111.379 352.500 2119.010 365 L 2126.641 377.500 2149.817 415.255 L 2172.993 453.011 2173.246 584.255 L 2173.500 715.500 2233.500 715.500 L 2293.500 715.500 2293.754 584.135 L 2294.007 452.771 2344.154 371.635 L 2394.300 290.500 2397.504 285.500 L 2400.708 280.500 2450.854 199.279 L 2501 118.058 2501 117.522 L 2501 116.987 2430.300 117.243 L 2359.601 117.500 2297.051 221.750 L 2234.501 326 2233.547 325.682 L 2232.594 325.365 2169.950 221.432 L 2107.306 117.500 2037.543 117.243 L 1967.781 116.986 1968.409 118.624 M 2506 416.453 L 2506 716 2566 716 L 2626 716 2626 474.019 L 2626 232.038 2628.481 231.415 L 2630.962 230.793 2682.231 231.285 L 2733.500 231.777 2740.880 232.959 L 2748.259 234.140 2756.880 236.615 L 2765.500 239.090 2774 243.269 L 2782.500 247.447 2790.104 254.974 L 2797.708 262.500 2801.888 271 L 2806.067 279.500 2808.132 289.500 L 2810.197 299.500 2809.694 315 L 2809.190 330.500 2807.027 337.984 L 2804.863 345.467 2801.293 352.262 L 2797.723 359.056 2791.296 365.998 L 2784.868 372.940 2777.672 377.425 L 2770.475 381.911 2763.898 384.386 L 2757.320 386.862 2750.910 388.524 L 2744.500 390.185 2739 391.230 L 2733.500 392.274 2709.500 392.887 L 2685.500 393.500 2685.242 452.338 L 2684.984 511.177 2738.180 587.838 L 2791.376 664.500 2809.253 690.250 L 2827.130 716 2899.565 716 L 2972 716 2972 715.468 L 2972 714.935 2940.250 669.812 L 2908.500 624.690 2902.500 616.013 L 2896.500 607.336 2856 549.654 L 2815.500 491.971 2815.500 490.922 L 2815.500 489.873 2825 485.899 L 2834.500 481.925 2843.500 476.925 L 2852.500 471.924 2862 465.212 L 2871.500 458.500 2883 446.997 L 2894.500 435.495 2900.165 427.497 L 2905.831 419.500 2911.845 408 L 2917.860 396.500 2921.970 384.521 L 2926.081 372.543 2928.499 360.521 L 2930.916 348.500 2932.097 337.072 L 2933.277 325.643 2932.690 305.572 L 2932.103 285.500 2930.521 275.500 L 2928.939 265.500 2926.948 257 L 2924.958 248.500 2921.333 237.561 L 2917.709 226.622 2911.541 214.543 L 2905.374 202.463 2900.302 194.982 L 2895.231 187.500 2888.176 179.380 L 2881.120 171.260 2871.810 163.447 L 2862.500 155.633 2854.287 150.278 L 2846.074 144.922 2833.787 139.033 L 2821.500 133.144 2811 129.605 L 2800.500 126.067 2788.500 123.464 L 2776.500 120.862 2765.500 119.259 L 2754.500 117.656 2630.250 117.281 L 2506 116.906 2506 416.453 M 3614 416.500 L 3614 716 3732.855 716 L 3851.710 716 3864.605 714.997 L 3877.500 713.994 3888.500 712.441 L 3899.500 710.887 3910.500 708.391 L 3921.500 705.894 3931.862 702.377 L 3942.225 698.859 3950.362 695.289 L 3958.500 691.719 3967.416 686.702 L 3976.332 681.686 3986.040 674.373 L 3995.748 667.060 4004.945 657.341 L 4014.143 647.623 4020.559 637.984 L 4026.976 628.346 4031.887 617.923 L 4036.797 607.500 4039.851 597.500 L 4042.906 587.500 4044.418 579.959 L 4045.931 572.419 4046.957 563.459 L 4047.984 554.500 4047.972 540.500 L 4047.961 526.500 4046.545 515.864 L 4045.129 505.227 4043.134 496.864 L 4041.139 488.500 4037.953 479.500 L 4034.768 470.500 4030.476 461.953 L 4026.184 453.406 4019.906 443.953 L 4013.629 434.500 4001.564 422.448 L 3989.500 410.395 3979.306 403.554 L 3969.113 396.713 3977.623 388.043 L 3986.133 379.373 3991.971 371.206 L 3997.809 363.039 4003.407 352.095 L 4009.005 341.151 4012.445 330.825 L 4015.885 320.500 4018.015 310.500 L 4020.144 300.500 4020.701 282.955 L 4021.259 265.409 4020.098 255.455 L 4018.937 245.500 4017.479 238.551 L 4016.021 231.603 4013.428 223.551 L 4010.834 215.500 4006.891 207.056 L 4002.948 198.612 3996.300 188.626 L 3989.652 178.640 3979.851 168.901 L 3970.050 159.161 3960.817 152.985 L 3951.584 146.810 3941.780 141.890 L 3931.977 136.970 3924.238 133.892 L 3916.500 130.815 3904.236 127.450 L 3891.972 124.086 3876.736 121.586 L 3861.500 119.087 3847.443 118.043 L 3833.387 117 3723.693 117 L 3614 117 3614 416.500 M 4209.500 122.031 L 4194.500 126.923 4149.750 141.171 L 4105 155.419 4105 435.710 L 4105 716 4165 716 L 4225 716 4225 416.500 L 4225 117 4224.750 117.069 L 4224.500 117.138 4209.500 122.031 M 4311 416.508 L 4311 716.016 4371.250 715.758 L 4431.500 715.500 4431.753 529.069 L 4432.005 342.637 4436.997 349.569 L 4441.989 356.500 4446.171 362.500 L 4450.353 368.500 4545.855 503 L 4641.358 637.500 4669.066 676.500 L 4696.774 715.500 4751.387 715.759 L 4806 716.017 4806 416.509 L 4806 117 4746 117 L 4686 117 4686 305 L 4686 493 4685.250 492.986 L 4684.500 492.971 4565 324.508 L 4445.500 156.045 4431.636 136.522 L 4417.772 117 4364.386 117 L 4311 117 4311 416.508 M 3232 120.033 L 3218.500 120.688 3211 121.885 L 3203.500 123.081 3197.500 124.045 L 3191.500 125.008 3186 126.129 L 3180.500 127.249 3173.500 129.143 L 3166.500 131.037 3159.500 133.176 L 3152.500 135.315 3147 137.280 L 3141.500 139.245 3138.846 140.622 L 3136.191 142 3135.054 142 L 3133.917 142 3127.208 145.099 L 3120.500 148.197 3114 151.510 L 3107.500 154.822 3103 157.411 L 3098.500 160 3095.500 161.528 L 3092.500 163.056 3086.878 166.778 L 3081.255 170.500 3078.378 172.472 L 3075.500 174.445 3065.500 181.939 L 3055.500 189.434 3052.027 192.467 L 3048.554 195.500 3036.017 208 L 3023.480 220.500 3017.998 226.806 L 3012.516 233.113 3011.573 234.806 L 3010.630 236.500 3005.986 242.500 L 3001.342 248.500 2995.421 257.474 L 2989.500 266.448 2988.407 268.474 L 2987.314 270.500 2985.025 274.500 L 2982.737 278.500 2978.982 286 L 2975.227 293.500 2972.614 299.096 L 2970 304.693 2970 305.487 L 2970 306.281 2968.123 310.390 L 2966.246 314.500 2964.281 320 L 2962.315 325.500 2960.176 332.500 L 2958.037 339.500 2956.143 346.500 L 2954.249 353.500 2953.106 359 L 2951.964 364.500 2950.461 375 L 2948.958 385.500 2947.987 391.500 L 2947.015 397.500 2947.008 421.956 L 2947 446.413 2948.466 455.956 L 2949.931 465.500 2950.972 472.500 L 2952.013 479.500 2953.934 488 L 2955.854 496.500 2957.855 503.500 L 2959.856 510.500 2961.400 515.500 L 2962.945 520.500 2965.065 526.500 L 2967.184 532.500 2967.969 533.500 L 2968.755 534.500 2969.476 537 L 2970.198 539.500 2972.715 545 L 2975.233 550.500 2978.515 557 L 2981.797 563.500 2984.397 568 L 2986.998 572.500 2988.249 575.015 L 2989.500 577.530 2995.487 586.515 L 3001.473 595.500 3008.987 605.506 L 3016.500 615.513 3020 619.480 L 3023.500 623.448 3035.500 635.474 L 3047.500 647.500 3052.500 651.703 L 3057.500 655.905 3065.500 662.058 L 3073.500 668.211 3083.500 674.837 L 3093.500 681.464 3096.222 682.982 L 3098.943 684.500 3116.235 693.250 L 3133.527 702 3134.859 702 L 3136.191 702 3138.846 703.378 L 3141.500 704.755 3147 706.720 L 3152.500 708.685 3159.500 710.773 L 3166.500 712.860 3173.500 714.817 L 3180.500 716.773 3186 717.893 L 3191.500 719.013 3198.500 720.050 L 3205.500 721.087 3215.454 722.655 L 3225.408 724.224 3249.570 724.211 L 3273.732 724.199 3283.616 722.614 L 3293.500 721.029 3300.500 720.014 L 3307.500 718.999 3313 717.886 L 3318.500 716.773 3325.500 714.817 L 3332.500 712.860 3339.500 710.773 L 3346.500 708.685 3352 706.679 L 3357.500 704.674 3361.566 702.837 L 3365.631 701 3366.508 701 L 3367.384 701 3383.730 692.750 L 3400.076 684.500 3402.788 682.990 L 3405.500 681.481 3414.500 675.538 L 3423.500 669.595 3433.440 662.047 L 3443.380 654.500 3448.940 649.521 L 3454.500 644.542 3465 633.969 L 3475.500 623.396 3478.517 619.948 L 3481.534 616.500 3489.570 606 L 3497.607 595.500 3503.544 586.500 L 3509.481 577.500 3510.990 574.788 L 3512.500 572.076 3520.750 555.730 L 3529 539.384 3529 538.508 L 3529 537.631 3530.837 533.566 L 3532.674 529.500 3534.679 524 L 3536.685 518.500 3538.760 511.500 L 3540.834 504.500 3542.424 499 L 3544.014 493.500 3545.517 486.500 L 3547.019 479.500 3548.077 472 L 3549.134 464.500 3550.567 455.376 L 3552 446.252 3552 422 L 3552 397.748 3550.567 388.624 L 3549.134 379.500 3548.077 372 L 3547.019 364.500 3545.517 357.500 L 3544.014 350.500 3542.424 345 L 3540.834 339.500 3538.760 332.500 L 3536.685 325.500 3534.719 320 L 3532.754 314.500 3530.877 310.390 L 3529 306.281 3529.011 305.390 L 3529.022 304.500 3520.761 288.236 L 3512.500 271.973 3510.990 269.236 L 3509.481 266.500 3503.504 257.500 L 3497.527 248.500 3490.013 238.494 L 3482.500 228.487 3479 224.520 L 3475.500 220.552 3463.500 208.526 L 3451.500 196.500 3446.500 192.309 L 3441.500 188.118 3434 182.362 L 3426.500 176.607 3416 169.549 L 3405.500 162.491 3403 161.233 L 3400.500 159.975 3396.500 157.697 L 3392.500 155.420 3388.500 153.268 L 3384.500 151.116 3374.870 146.558 L 3365.240 142 3364.024 142 L 3362.809 142 3360.154 140.622 L 3357.500 139.245 3352 137.280 L 3346.500 135.315 3339.500 133.176 L 3332.500 131.037 3325.500 129.143 L 3318.500 127.249 3313 126.129 L 3307.500 125.008 3301 123.984 L 3294.500 122.959 3284 121.513 L 3273.500 120.067 3259.500 119.722 L 3245.500 119.377 3232 120.033 M 3266.625 166.799 L 3266.131 167.597 3272.315 178.387 L 3278.500 189.176 3280.699 192.838 L 3282.897 196.500 3283.931 198.500 L 3284.965 200.500 3287.489 204.500 L 3290.013 208.500 3291.575 211.500 L 3293.137 214.500 3295.528 218.500 L 3297.919 222.500 3299.457 225.500 L 3300.996 228.500 3302.973 231.500 L 3304.951 234.500 3306.725 237.756 L 3308.500 241.012 3335.500 287.592 L 3362.500 334.172 3364.647 337.836 L 3366.794 341.500 3368.973 345.722 L 3371.151 349.944 3373.374 353.222 L 3375.597 356.500 3376.277 358 L 3376.958 359.500 3379.485 363.500 L 3382.013 367.500 3383.520 370.750 L 3385.027 374 3387.427 374 L 3389.828 374 3399.164 357.983 L 3408.500 341.965 3410.743 338.233 L 3412.986 334.500 3414.525 331.500 L 3416.064 328.500 3417.782 325.820 L 3419.500 323.141 3427.500 309.448 L 3435.500 295.755 3437.681 292.128 L 3439.863 288.500 3441.429 285.500 L 3442.996 282.500 3444.987 279.500 L 3446.979 276.500 3448.200 274 L 3449.420 271.500 3451.113 269.238 L 3452.807 266.976 3452.244 264.738 L 3451.682 262.500 3444.632 254.500 L 3437.582 246.500 3432.952 242 L 3428.322 237.500 3422.911 232.439 L 3417.500 227.377 3408 219.869 L 3398.500 212.361 3390 206.812 L 3381.500 201.262 3375 197.703 L 3368.500 194.143 3363.500 191.701 L 3358.500 189.259 3354 187.214 L 3349.500 185.169 3344.500 183.222 L 3339.500 181.274 3334 179.277 L 3328.500 177.280 3321.500 175.264 L 3314.500 173.248 3310 172.086 L 3305.500 170.924 3296 169.422 L 3286.500 167.921 3283 166.966 L 3279.500 166.011 3273.309 166.006 L 3267.118 166 3266.625 166.799 M 3207.500 168.058 L 3203.500 168.875 3198 169.888 L 3192.500 170.901 3186.500 172.312 L 3180.500 173.724 3175 175.531 L 3169.500 177.338 3164 179.306 L 3158.500 181.274 3153.500 183.222 L 3148.500 185.169 3144.500 186.973 L 3140.500 188.777 3135 191.416 L 3129.500 194.056 3123 197.664 L 3116.500 201.271 3111 204.845 L 3105.500 208.418 3094 216.938 L 3082.500 225.458 3068.410 239.479 L 3054.320 253.500 3046.812 263 L 3039.304 272.500 3037.771 275.665 L 3036.239 278.829 3038.369 279.401 L 3040.500 279.973 3157.168 279.986 L 3273.836 280 3275.418 279.393 L 3277 278.786 3277 277.458 L 3277 276.130 3275.949 273.815 L 3274.897 271.500 3272.489 267.500 L 3270.081 263.500 3268.547 260.500 L 3267.013 257.500 3264.489 253.500 L 3261.965 249.500 3260.931 247.500 L 3259.897 245.500 3257.699 241.794 L 3255.500 238.088 3236.561 205.294 L 3217.623 172.500 3215.561 169.805 L 3213.500 167.111 3212.500 167.175 L 3211.500 167.240 3207.500 168.058 M 1691 291.492 L 1691 352.154 1743.750 351.727 L 1796.500 351.300 1804 349.563 L 1811.500 347.826 1818.394 345.423 L 1825.288 343.021 1829.894 340.329 L 1834.500 337.638 1840.139 332.009 L 1845.779 326.381 1848.904 320.191 L 1852.029 314 1853.600 307.250 L 1855.171 300.500 1855.156 290.500 L 1855.140 280.500 1854.071 275 L 1853.002 269.500 1849.485 262.328 L 1845.968 255.157 1841.099 250.779 L 1836.230 246.401 1830.140 243.155 L 1824.051 239.910 1818.275 237.896 L 1812.500 235.882 1803.500 233.796 L 1794.500 231.710 1742.750 231.270 L 1691 230.830 1691 291.492 M 3734.667 231.667 L 3734 232.333 3734 292.167 L 3734 352 3780.461 352 L 3826.922 352 3837.211 350.888 L 3847.500 349.775 3855.963 347.330 L 3864.426 344.885 3871.295 341.275 L 3878.165 337.665 3883.833 332.059 L 3889.500 326.452 3892.272 321.301 L 3895.044 316.149 3897.022 308.415 L 3899 300.680 3898.985 290.590 L 3898.970 280.500 3897.480 274.176 L 3895.989 267.852 3893.312 262.176 L 3890.636 256.500 3885.287 251.264 L 3879.939 246.028 3871.591 241.987 L 3863.244 237.947 3853.779 235.546 L 3844.315 233.145 3834.697 232.072 L 3825.079 231 3780.206 231 L 3735.333 231 3734.667 231.667 M 3479.393 312.157 L 3477.285 313.178 3475.622 316.339 L 3473.958 319.500 3471.573 323.500 L 3469.188 327.500 3467.594 330.250 L 3466 333 3464.406 335.750 L 3462.812 338.500 3460.656 342.187 L 3458.500 345.875 3447 365.500 L 3435.500 385.125 3433.301 388.813 L 3431.103 392.500 3429.982 394.998 L 3428.861 397.496 3427.531 398.998 L 3426.201 400.500 3423.351 405.667 L 3420.500 410.834 3412.500 424.463 L 3404.500 438.092 3402.725 441.296 L 3400.951 444.500 3398.973 447.500 L 3396.996 450.500 3395.429 453.500 L 3393.863 456.500 3391.681 460.187 L 3389.500 463.875 3378 483.500 L 3366.500 503.125 3364.298 506.813 L 3362.097 510.500 3360.917 512.686 L 3359.737 514.872 3360.337 516.436 L 3360.937 518 3423.814 518 L 3486.690 518 3488.258 516.250 L 3489.826 514.500 3491.940 508.500 L 3494.055 502.500 3495.599 497.500 L 3497.143 492.500 3498.450 486.883 L 3499.757 481.267 3500.833 477.883 L 3501.910 474.500 3502.986 466.500 L 3504.062 458.500 3505.007 454.500 L 3505.952 450.500 3505.978 424.500 L 3506.004 398.500 3504.568 390 L 3503.132 381.500 3502.071 375 L 3501.011 368.500 3499.081 360.500 L 3497.152 352.500 3495.160 346 L 3493.169 339.500 3491.540 335 L 3489.911 330.500 3488.602 327.500 L 3487.293 324.500 3484.497 317.750 L 3481.700 311 3481.600 311.068 L 3481.500 311.135 3479.393 312.157 M 3010.598 327.545 L 3009.053 329.090 3007.929 333.295 L 3006.804 337.500 3006.008 338.500 L 3005.211 339.500 3003.557 345.500 L 3001.903 351.500 2999.879 359 L 2997.854 366.500 2996.870 372.500 L 2995.886 378.500 2994.443 386.270 L 2993 394.041 2993 420.410 L 2993 446.779 2994.422 454.640 L 2995.843 462.500 2996.509 468.371 L 2997.174 474.242 2998.587 478.247 L 3000 482.251 2999.986 484.376 L 2999.971 486.500 3002.125 493.500 L 3004.280 500.500 3006.260 506 L 3008.241 511.500 3010.223 516.500 L 3012.206 521.500 3013.576 524.500 L 3014.947 527.500 3015.897 530.113 L 3016.847 532.727 3018.956 533.278 L 3021.065 533.830 3022.416 531.665 L 3023.767 529.500 3029.446 519.500 L 3035.124 509.500 3036.004 508 L 3036.885 506.500 3065.505 457 L 3094.126 407.500 3095.018 406 L 3095.911 404.500 3102.518 393 L 3109.125 381.500 3110.028 380 L 3110.931 378.500 3114.215 372.661 L 3117.500 366.821 3119.681 363.161 L 3121.863 359.500 3123.458 356.500 L 3125.054 353.500 3126.311 351.500 L 3127.569 349.500 3129.822 345.500 L 3132.075 341.500 3134.486 337.500 L 3136.897 333.500 3137.989 331.078 L 3139.082 328.655 3138.572 327.328 L 3138.063 326 3075.103 326 L 3012.143 326 3010.598 327.545 M 3191.664 329.750 L 3189.302 333.500 3185.901 339.663 L 3182.500 345.826 3167 372.462 L 3151.500 399.098 3149.344 402.799 L 3147.188 406.500 3145.594 409.250 L 3144 412 3142.437 414.980 L 3140.873 417.960 3139.937 418.539 L 3139 419.118 3139 422 L 3139 424.882 3140.062 425.538 L 3141.123 426.194 3142.044 428.347 L 3142.965 430.500 3145.489 434.500 L 3148.013 438.500 3149.575 441.500 L 3151.137 444.500 3153.319 448.183 L 3155.500 451.867 3169 475.020 L 3182.500 498.174 3185.901 504.337 L 3189.302 510.500 3191.664 514.250 L 3194.025 518 3249.935 518 L 3305.845 518 3315.172 501.952 L 3324.500 485.904 3326.702 482.202 L 3328.905 478.500 3329.608 477 L 3330.310 475.500 3331.405 474.131 L 3332.500 472.762 3336 466.477 L 3339.500 460.193 3347.500 446.529 L 3355.500 432.865 3357.771 429.183 L 3360.042 425.500 3360.626 424.257 L 3361.209 423.013 3359.037 418.847 L 3356.866 414.681 3331.335 370.340 L 3305.805 326 3249.915 326 L 3194.025 326 3191.664 329.750 M 1691 532.421 L 1691 601 1749.824 601 L 1808.648 601 1818.074 599.392 L 1827.500 597.785 1835.500 595.290 L 1843.500 592.795 1851.316 588.752 L 1859.131 584.709 1865.067 578.773 L 1871.003 572.837 1874.392 565.668 L 1877.782 558.500 1879.141 553 L 1880.500 547.500 1880.454 535 L 1880.408 522.500 1878.687 516 L 1876.966 509.500 1873.829 503 L 1870.692 496.500 1863.096 488.967 L 1855.500 481.434 1846 476.754 L 1836.500 472.074 1829 470.064 L 1821.500 468.055 1813 466.396 L 1804.500 464.736 1747.750 464.289 L 1691 463.842 1691 532.421 M 3734 532.427 L 3734 601 3793.250 600.999 L 3852.500 600.997 3860.891 599.521 L 3869.283 598.044 3876.891 595.970 L 3884.500 593.897 3893 589.804 L 3901.500 585.710 3908.522 578.605 L 3915.544 571.500 3918.180 566 L 3920.816 560.500 3922.539 554 L 3924.261 547.500 3924.276 536 L 3924.290 524.500 3923.062 518.500 L 3921.835 512.500 3917.969 504.415 L 3914.103 496.331 3909.493 491.203 L 3904.883 486.076 3897.967 481.478 L 3891.052 476.881 3884.776 474.319 L 3878.500 471.756 3872 469.950 L 3865.500 468.143 3856.500 466.400 L 3847.500 464.658 3790.750 464.256 L 3734 463.854 3734 532.427 M 3107.720 473.687 L 3105.335 477.500 3101.418 484.316 L 3097.500 491.133 3096 493.840 L 3094.500 496.546 3090.500 503.371 L 3086.500 510.196 3084.319 513.848 L 3082.137 517.500 3080.571 520.500 L 3079.004 523.500 3077 526.500 L 3074.996 529.500 3073.429 532.500 L 3071.863 535.500 3069.438 539.500 L 3067.014 543.500 3065.438 546.500 L 3063.863 549.500 3061.681 553.153 L 3059.500 556.806 3054.750 564.857 L 3050 572.907 3050 573.831 L 3050 574.755 3048.500 576 L 3047 577.245 3047 579.622 L 3047 582 3047.795 582 L 3048.589 582 3052.244 586.750 L 3055.898 591.500 3063.291 599 L 3070.684 606.500 3076.092 611.589 L 3081.500 616.679 3089.500 623.113 L 3097.500 629.547 3106 635.187 L 3114.500 640.826 3123 645.723 L 3131.500 650.619 3137.500 653.374 L 3143.500 656.129 3146.500 657.528 L 3149.500 658.926 3154.377 660.963 L 3159.254 663 3160.226 663 L 3161.198 663 3164.349 664.493 L 3167.500 665.987 3172.500 667.424 L 3177.500 668.860 3182 670.017 L 3186.500 671.174 3191.609 672.594 L 3196.718 674.013 3204.160 674.957 L 3211.601 675.900 3216.051 676.926 L 3220.500 677.951 3226.750 677.976 L 3233 678 3233 676.745 L 3233 675.489 3226.750 664.684 L 3220.500 653.880 3218.725 650.690 L 3216.951 647.500 3214.973 644.500 L 3212.996 641.500 3211.429 638.500 L 3209.863 635.500 3207.681 631.817 L 3205.500 628.133 3192 605 L 3178.500 581.867 3176.301 578.183 L 3174.103 574.500 3173.069 572.500 L 3172.035 570.500 3169.767 566.817 L 3167.500 563.135 3159.500 549.488 L 3151.500 535.841 3149.319 532.171 L 3147.137 528.500 3145.571 525.500 L 3144.004 522.500 3142.027 519.500 L 3140.049 516.500 3138.064 513 L 3136.079 509.500 3134.496 506.500 L 3132.913 503.500 3123.189 487.010 L 3113.465 470.521 3111.785 470.197 L 3110.105 469.874 3107.720 473.687 M 3222.503 564.996 L 3221.887 565.992 3223.193 568.466 L 3224.500 570.940 3236 590.533 L 3247.500 610.125 3249.699 613.813 L 3251.897 617.500 3252.931 619.500 L 3253.965 621.500 3256.233 625.183 L 3258.500 628.865 3266.500 642.512 L 3274.500 656.159 3276.656 659.829 L 3278.812 663.500 3280.406 666.250 L 3282 669 3283.633 672.121 L 3285.267 675.242 3292.883 674.777 L 3300.500 674.312 3306 672.743 L 3311.500 671.174 3316 670.043 L 3320.500 668.912 3326 667.364 L 3331.500 665.816 3332.500 665.023 L 3333.500 664.231 3337 663.482 L 3340.500 662.733 3343.985 660.867 L 3347.470 659 3348.485 659.003 L 3349.500 659.007 3361 653.354 L 3372.500 647.701 3379.500 643.620 L 3386.500 639.538 3394.500 634.127 L 3402.500 628.716 3410 622.650 L 3417.500 616.585 3422.855 611.543 L 3428.211 606.500 3431.355 603.355 L 3434.500 600.211 3439.561 594.855 L 3444.623 589.500 3452.119 580 L 3459.616 570.500 3461.256 567.865 L 3462.896 565.229 3462.281 564.615 L 3461.667 564 3342.392 564 L 3223.118 564 3222.503 564.996 M 261.564 568.897 L 261.010 569.793 307.819 642.147 L 354.628 714.500 355.564 714.481 L 356.500 714.461 377.297 681.981 L 398.095 649.500 423.601 609.741 L 449.107 569.982 448.495 568.991 L 447.882 568 355 568 L 262.118 568 261.564 568.897" stroke="none" fill="#fef7ec" fill-rule="evenodd"/><path d="M 302.625 117.797 L 302.133 118.594 203.464 379.047 L 104.796 639.500 90.972 676 L 77.148 712.500 76.467 714.250 L 75.786 716 139.444 716 L 203.102 716 204.465 712.738 L 205.828 709.476 279.433 506.988 L 353.038 304.500 353.542 303.107 L 354.047 301.714 354.653 302.320 L 355.260 302.927 430.948 509.213 L 506.635 715.500 570.318 715.757 L 634 716.015 634 715.457 L 634 714.900 550.631 495.700 L 467.262 276.500 436.941 196.750 L 406.620 117 354.869 117 L 303.118 117 302.625 117.797 M 655.248 416.203 L 655.500 715.500 715.748 715.758 L 775.996 716.016 776.248 473.758 L 776.500 231.500 829 231.517 L 881.500 231.535 892 233.341 L 902.500 235.147 911.500 238.191 L 920.500 241.235 927.500 245.276 L 934.500 249.317 941.071 256.051 L 947.641 262.785 951.373 270.439 L 955.106 278.094 957.113 285.797 L 959.119 293.500 959.678 306.500 L 960.236 319.500 958.594 328.889 L 956.952 338.279 954.343 344.889 L 951.733 351.500 947.314 358.214 L 942.894 364.928 936.697 370.555 L 930.500 376.183 920.500 381.051 L 910.500 385.919 903 387.949 L 895.500 389.979 885.500 391.484 L 875.500 392.988 856.332 392.994 L 837.164 393 835.582 393.607 L 834 394.214 834 452.234 L 834 510.254 842.834 522.877 L 851.669 535.500 912.944 624 L 974.218 712.500 975.894 714.257 L 977.569 716.013 1049.864 715.757 L 1122.159 715.500 1112.292 701.500 L 1102.425 687.500 1034.224 590.361 L 966.022 493.221 965.388 491.570 L 964.755 489.919 968.127 488.722 L 971.500 487.525 986.038 480.333 L 1000.575 473.140 1008.710 467.320 L 1016.844 461.500 1025.397 454.152 L 1033.950 446.804 1040.843 438.652 L 1047.737 430.500 1052.798 422.931 L 1057.860 415.361 1062.510 406.087 L 1067.160 396.812 1069.678 390.156 L 1072.196 383.500 1074.051 377.500 L 1075.906 371.500 1078.406 359 L 1080.906 346.500 1082.080 333.500 L 1083.254 320.500 1082.617 304.500 L 1081.980 288.500 1080.548 278.490 L 1079.116 268.479 1077.470 260.490 L 1075.824 252.500 1071.548 239.500 L 1067.272 226.500 1061.734 215.462 L 1056.196 204.424 1050.150 195.462 L 1044.105 186.500 1038.302 179.916 L 1032.500 173.332 1025.500 167.008 L 1018.500 160.684 1011.500 155.529 L 1004.500 150.375 998.280 146.633 L 992.059 142.891 982.622 138.481 L 973.185 134.071 961.843 130.162 L 950.500 126.252 938.500 123.544 L 926.500 120.835 915 119.246 L 903.500 117.658 779.248 117.282 L 654.997 116.906 655.248 416.203 M 1086 174 L 1086 231 1165.918 231 L 1245.836 231 1247.418 231.607 L 1249 232.214 1249 474.107 L 1249 716 1309 716 L 1369 716 1369 474.700 L 1369 233.400 1370.200 232.200 L 1371.400 231 1452.700 231 L 1534 231 1534 174 L 1534 117 1310 117 L 1086 117 1086 174 M 1570 416.497 L 1570 716.092 1697.750 715.719 L 1825.500 715.346 1837.500 713.693 L 1849.500 712.041 1857.320 710.524 L 1865.139 709.007 1872.936 707.016 L 1880.733 705.026 1891.116 701.434 L 1901.500 697.842 1912.500 692.514 L 1923.500 687.185 1934.500 679.926 L 1945.500 672.667 1958.079 660.083 L 1970.657 647.500 1976.818 638.091 L 1982.978 628.683 1987.407 619.591 L 1991.837 610.500 1995.355 599.926 L 1998.872 589.352 2000.965 578.412 L 2003.058 567.472 2003.812 554.486 L 2004.566 541.500 2003.841 528.796 L 2003.117 516.092 2001.427 506.796 L 1999.736 497.500 1996.923 487.968 L 1994.111 478.436 1990.494 469.968 L 1986.878 461.500 1982.228 453.551 L 1977.577 445.603 1971.958 438.051 L 1966.339 430.500 1958.903 422.919 L 1951.468 415.339 1940.984 407.535 L 1930.500 399.731 1928.250 398.705 L 1926 397.679 1926 396.375 L 1926 395.070 1927.965 394.019 L 1929.931 392.967 1938.536 383.233 L 1947.142 373.500 1952.463 364.935 L 1957.785 356.369 1960.768 350.435 L 1963.752 344.500 1967.283 335 L 1970.815 325.500 1973.370 314 L 1975.925 302.500 1976.963 289.596 L 1978.001 276.693 1976.994 263.422 L 1975.987 250.151 1974.413 241.826 L 1972.839 233.500 1969.442 223 L 1966.046 212.500 1961.947 204.500 L 1957.849 196.500 1952.248 188.081 L 1946.648 179.662 1937.574 170.500 L 1928.500 161.337 1922.500 156.809 L 1916.500 152.280 1905.795 146.119 L 1895.090 139.957 1883.795 135.413 L 1872.500 130.870 1860.246 127.413 L 1847.991 123.956 1836.246 121.975 L 1824.500 119.995 1815.500 118.847 L 1806.500 117.699 1688.250 117.300 L 1570 116.902 1570 416.497 M 1968.409 118.624 L 1969.037 120.261 2040.208 236.380 L 2111.379 352.500 2119.010 365 L 2126.641 377.500 2149.817 415.255 L 2172.993 453.011 2173.246 584.255 L 2173.500 715.500 2233.500 715.500 L 2293.500 715.500 2293.754 584.135 L 2294.007 452.771 2344.154 371.635 L 2394.300 290.500 2397.504 285.500 L 2400.708 280.500 2450.854 199.279 L 2501 118.058 2501 117.522 L 2501 116.987 2430.300 117.243 L 2359.601 117.500 2297.051 221.750 L 2234.501 326 2233.547 325.682 L 2232.594 325.365 2169.950 221.432 L 2107.306 117.500 2037.543 117.243 L 1967.781 116.986 1968.409 118.624 M 2506 416.453 L 2506 716 2566 716 L 2626 716 2626 474.019 L 2626 232.038 2628.481 231.415 L 2630.962 230.793 2682.231 231.285 L 2733.500 231.777 2740.880 232.959 L 2748.259 234.140 2756.880 236.615 L 2765.500 239.090 2774 243.269 L 2782.500 247.447 2790.104 254.974 L 2797.708 262.500 2801.888 271 L 2806.067 279.500 2808.132 289.500 L 2810.197 299.500 2809.694 315 L 2809.190 330.500 2807.027 337.984 L 2804.863 345.467 2801.293 352.262 L 2797.723 359.056 2791.296 365.998 L 2784.868 372.940 2777.672 377.425 L 2770.475 381.911 2763.898 384.386 L 2757.320 386.862 2750.910 388.524 L 2744.500 390.185 2739 391.230 L 2733.500 392.274 2709.500 392.887 L 2685.500 393.500 2685.242 452.338 L 2684.984 511.177 2738.180 587.838 L 2791.376 664.500 2809.253 690.250 L 2827.130 716 2899.565 716 L 2972 716 2972 715.468 L 2972 714.935 2940.250 669.812 L 2908.500 624.690 2902.500 616.013 L 2896.500 607.336 2856 549.654 L 2815.500 491.971 2815.500 490.922 L 2815.500 489.873 2825 485.899 L 2834.500 481.925 2843.500 476.925 L 2852.500 471.924 2862 465.212 L 2871.500 458.500 2883 446.997 L 2894.500 435.495 2900.165 427.497 L 2905.831 419.500 2911.845 408 L 2917.860 396.500 2921.970 384.521 L 2926.081 372.543 2928.499 360.521 L 2930.916 348.500 2932.097 337.072 L 2933.277 325.643 2932.690 305.572 L 2932.103 285.500 2930.521 275.500 L 2928.939 265.500 2926.948 257 L 2924.958 248.500 2921.333 237.561 L 2917.709 226.622 2911.541 214.543 L 2905.374 202.463 2900.302 194.982 L 2895.231 187.500 2888.176 179.380 L 2881.120 171.260 2871.810 163.447 L 2862.500 155.633 2854.287 150.278 L 2846.074 144.922 2833.787 139.033 L 2821.500 133.144 2811 129.605 L 2800.500 126.067 2788.500 123.464 L 2776.500 120.862 2765.500 119.259 L 2754.500 117.656 2630.250 117.281 L 2506 116.906 2506 416.453 M 3614 416.500 L 3614 716 3732.855 716 L 3851.710 716 3864.605 714.997 L 3877.500 713.994 3888.500 712.441 L 3899.500 710.887 3910.500 708.391 L 3921.500 705.894 3931.862 702.377 L 3942.225 698.859 3950.362 695.289 L 3958.500 691.719 3967.416 686.702 L 3976.332 681.686 3986.040 674.373 L 3995.748 667.060 4004.945 657.341 L 4014.143 647.623 4020.559 637.984 L 4026.976 628.346 4031.887 617.923 L 4036.797 607.500 4039.851 597.500 L 4042.906 587.500 4044.418 579.959 L 4045.931 572.419 4046.957 563.459 L 4047.984 554.500 4047.972 540.500 L 4047.961 526.500 4046.545 515.864 L 4045.129 505.227 4043.134 496.864 L 4041.139 488.500 4037.953 479.500 L 4034.768 470.500 4030.476 461.953 L 4026.184 453.406 4019.906 443.953 L 4013.629 434.500 4001.564 422.448 L 3989.500 410.395 3979.306 403.554 L 3969.113 396.713 3977.623 388.043 L 3986.133 379.373 3991.971 371.206 L 3997.809 363.039 4003.407 352.095 L 4009.005 341.151 4012.445 330.825 L 4015.885 320.500 4018.015 310.500 L 4020.144 300.500 4020.701 282.955 L 4021.259 265.409 4020.098 255.455 L 4018.937 245.500 4017.479 238.551 L 4016.021 231.603 4013.428 223.551 L 4010.834 215.500 4006.891 207.056 L 4002.948 198.612 3996.300 188.626 L 3989.652 178.640 3979.851 168.901 L 3970.050 159.161 3960.817 152.985 L 3951.584 146.810 3941.780 141.890 L 3931.977 136.970 3924.238 133.892 L 3916.500 130.815 3904.236 127.450 L 3891.972 124.086 3876.736 121.586 L 3861.500 119.087 3847.443 118.043 L 3833.387 117 3723.693 117 L 3614 117 3614 416.500 M 4209.500 122.031 L 4194.500 126.923 4149.750 141.171 L 4105 155.419 4105 435.710 L 4105 716 4165 716 L 4225 716 4225 416.500 L 4225 117 4224.750 117.069 L 4224.500 117.138 4209.500 122.031 M 4311 416.508 L 4311 716.016 4371.250 715.758 L 4431.500 715.500 4431.753 529.069 L 4432.005 342.637 4436.997 349.569 L 4441.989 356.500 4446.171 362.500 L 4450.353 368.500 4545.855 503 L 4641.358 637.500 4669.066 676.500 L 4696.774 715.500 4751.387 715.759 L 4806 716.017 4806 416.509 L 4806 117 4746 117 L 4686 117 4686 305 L 4686 493 4685.250 492.986 L 4684.500 492.971 4565 324.508 L 4445.500 156.045 4431.636 136.522 L 4417.772 117 4364.386 117 L 4311 117 4311 416.508 M 3232 120.033 L 3218.500 120.688 3211 121.885 L 3203.500 123.081 3197.500 124.045 L 3191.500 125.008 3186 126.129 L 3180.500 127.249 3173.500 129.143 L 3166.500 131.037 3159.500 133.176 L 3152.500 135.315 3147 137.280 L 3141.500 139.245 3138.846 140.622 L 3136.191 142 3135.054 142 L 3133.917 142 3127.208 145.099 L 3120.500 148.197 3114 151.510 L 3107.500 154.822 3103 157.411 L 3098.500 160 3095.500 161.528 L 3092.500 163.056 3086.878 166.778 L 3081.255 170.500 3078.378 172.472 L 3075.500 174.445 3065.500 181.939 L 3055.500 189.434 3052.027 192.467 L 3048.554 195.500 3036.017 208 L 3023.480 220.500 3017.998 226.806 L 3012.516 233.113 3011.573 234.806 L 3010.630 236.500 3005.986 242.500 L 3001.342 248.500 2995.421 257.474 L 2989.500 266.448 2988.407 268.474 L 2987.314 270.500 2985.025 274.500 L 2982.737 278.500 2978.982 286 L 2975.227 293.500 2972.614 299.096 L 2970 304.693 2970 305.487 L 2970 306.281 2968.123 310.390 L 2966.246 314.500 2964.281 320 L 2962.315 325.500 2960.176 332.500 L 2958.037 339.500 2956.143 346.500 L 2954.249 353.500 2953.106 359 L 2951.964 364.500 2950.461 375 L 2948.958 385.500 2947.987 391.500 L 2947.015 397.500 2947.008 421.956 L 2947 446.413 2948.466 455.956 L 2949.931 465.500 2950.972 472.500 L 2952.013 479.500 2953.934 488 L 2955.854 496.500 2957.855 503.500 L 2959.856 510.500 2961.400 515.500 L 2962.945 520.500 2965.065 526.500 L 2967.184 532.500 2967.969 533.500 L 2968.755 534.500 2969.476 537 L 2970.198 539.500 2972.715 545 L 2975.233 550.500 2978.515 557 L 2981.797 563.500 2984.397 568 L 2986.998 572.500 2988.249 575.015 L 2989.500 577.530 2995.487 586.515 L 3001.473 595.500 3008.987 605.506 L 3016.500 615.513 3020 619.480 L 3023.500 623.448 3035.500 635.474 L 3047.500 647.500 3052.500 651.703 L 3057.500 655.905 3065.500 662.058 L 3073.500 668.211 3083.500 674.837 L 3093.500 681.464 3096.222 682.982 L 3098.943 684.500 3116.235 693.250 L 3133.527 702 3134.859 702 L 3136.191 702 3138.846 703.378 L 3141.500 704.755 3147 706.720 L 3152.500 708.685 3159.500 710.773 L 3166.500 712.860 3173.500 714.817 L 3180.500 716.773 3186 717.893 L 3191.500 719.013 3198.500 720.050 L 3205.500 721.087 3215.454 722.655 L 3225.408 724.224 3249.570 724.211 L 3273.732 724.199 3283.616 722.614 L 3293.500 721.029 3300.500 720.014 L 3307.500 718.999 3313 717.886 L 3318.500 716.773 3325.500 714.817 L 3332.500 712.860 3339.500 710.773 L 3346.500 708.685 3352 706.679 L 3357.500 704.674 3361.566 702.837 L 3365.631 701 3366.508 701 L 3367.384 701 3383.730 692.750 L 3400.076 684.500 3402.788 682.990 L 3405.500 681.481 3414.500 675.538 L 3423.500 669.595 3433.440 662.047 L 3443.380 654.500 3448.940 649.521 L 3454.500 644.542 3465 633.969 L 3475.500 623.396 3478.517 619.948 L 3481.534 616.500 3489.570 606 L 3497.607 595.500 3503.544 586.500 L 3509.481 577.500 3510.990 574.788 L 3512.500 572.076 3520.750 555.730 L 3529 539.384 3529 538.508 L 3529 537.631 3530.837 533.566 L 3532.674 529.500 3534.679 524 L 3536.685 518.500 3538.760 511.500 L 3540.834 504.500 3542.424 499 L 3544.014 493.500 3545.517 486.500 L 3547.019 479.500 3548.077 472 L 3549.134 464.500 3550.567 455.376 L 3552 446.252 3552 422 L 3552 397.748 3550.567 388.624 L 3549.134 379.500 3548.077 372 L 3547.019 364.500 3545.517 357.500 L 3544.014 350.500 3542.424 345 L 3540.834 339.500 3538.760 332.500 L 3536.685 325.500 3534.719 320 L 3532.754 314.500 3530.877 310.390 L 3529 306.281 3529.011 305.390 L 3529.022 304.500 3520.761 288.236 L 3512.500 271.973 3510.990 269.236 L 3509.481 266.500 3503.504 257.500 L 3497.527 248.500 3490.013 238.494 L 3482.500 228.487 3479 224.520 L 3475.500 220.552 3463.500 208.526 L 3451.500 196.500 3446.500 192.309 L 3441.500 188.118 3434 182.362 L 3426.500 176.607 3416 169.549 L 3405.500 162.491 3403 161.233 L 3400.500 159.975 3396.500 157.697 L 3392.500 155.420 3388.500 153.268 L 3384.500 151.116 3374.870 146.558 L 3365.240 142 3364.024 142 L 3362.809 142 3360.154 140.622 L 3357.500 139.245 3352 137.280 L 3346.500 135.315 3339.500 133.176 L 3332.500 131.037 3325.500 129.143 L 3318.500 127.249 3313 126.129 L 3307.500 125.008 3301 123.984 L 3294.500 122.959 3284 121.513 L 3273.500 120.067 3259.500 119.722 L 3245.500 119.377 3232 120.033 M 3266.625 166.799 L 3266.131 167.597 3272.315 178.387 L 3278.500 189.176 3280.699 192.838 L 3282.897 196.500 3283.931 198.500 L 3284.965 200.500 3287.489 204.500 L 3290.013 208.500 3291.575 211.500 L 3293.137 214.500 3295.528 218.500 L 3297.919 222.500 3299.457 225.500 L 3300.996 228.500 3302.973 231.500 L 3304.951 234.500 3306.725 237.756 L 3308.500 241.012 3335.500 287.592 L 3362.500 334.172 3364.647 337.836 L 3366.794 341.500 3368.973 345.722 L 3371.151 349.944 3373.374 353.222 L 3375.597 356.500 3376.277 358 L 3376.958 359.500 3379.485 363.500 L 3382.013 367.500 3383.520 370.750 L 3385.027 374 3387.427 374 L 3389.828 374 3399.164 357.983 L 3408.500 341.965 3410.743 338.233 L 3412.986 334.500 3414.525 331.500 L 3416.064 328.500 3417.782 325.820 L 3419.500 323.141 3427.500 309.448 L 3435.500 295.755 3437.681 292.128 L 3439.863 288.500 3441.429 285.500 L 3442.996 282.500 3444.987 279.500 L 3446.979 276.500 3448.200 274 L 3449.420 271.500 3451.113 269.238 L 3452.807 266.976 3452.244 264.738 L 3451.682 262.500 3444.632 254.500 L 3437.582 246.500 3432.952 242 L 3428.322 237.500 3422.911 232.439 L 3417.500 227.377 3408 219.869 L 3398.500 212.361 3390 206.812 L 3381.500 201.262 3375 197.703 L 3368.500 194.143 3363.500 191.701 L 3358.500 189.259 3354 187.214 L 3349.500 185.169 3344.500 183.222 L 3339.500 181.274 3334 179.277 L 3328.500 177.280 3321.500 175.264 L 3314.500 173.248 3310 172.086 L 3305.500 170.924 3296 169.422 L 3286.500 167.921 3283 166.966 L 3279.500 166.011 3273.309 166.006 L 3267.118 166 3266.625 166.799 M 3207.500 168.058 L 3203.500 168.875 3198 169.888 L 3192.500 170.901 3186.500 172.312 L 3180.500 173.724 3175 175.531 L 3169.500 177.338 3164 179.306 L 3158.500 181.274 3153.500 183.222 L 3148.500 185.169 3144.500 186.973 L 3140.500 188.777 3135 191.416 L 3129.500 194.056 3123 197.664 L 3116.500 201.271 3111 204.845 L 3105.500 208.418 3094 216.938 L 3082.500 225.458 3068.410 239.479 L 3054.320 253.500 3046.812 263 L 3039.304 272.500 3037.771 275.665 L 3036.239 278.829 3038.369 279.401 L 3040.500 279.973 3157.168 279.986 L 3273.836 280 3275.418 279.393 L 3277 278.786 3277 277.458 L 3277 276.130 3275.949 273.815 L 3274.897 271.500 3272.489 267.500 L 3270.081 263.500 3268.547 260.500 L 3267.013 257.500 3264.489 253.500 L 3261.965 249.500 3260.931 247.500 L 3259.897 245.500 3257.699 241.794 L 3255.500 238.088 3236.561 205.294 L 3217.623 172.500 3215.561 169.805 L 3213.500 167.111 3212.500 167.175 L 3211.500 167.240 3207.500 168.058 M 1691 291.492 L 1691 352.154 1743.750 351.727 L 1796.500 351.300 1804 349.563 L 1811.500 347.826 1818.394 345.423 L 1825.288 343.021 1829.894 340.329 L 1834.500 337.638 1840.139 332.009 L 1845.779 326.381 1848.904 320.191 L 1852.029 314 1853.600 307.250 L 1855.171 300.500 1855.156 290.500 L 1855.140 280.500 1854.071 275 L 1853.002 269.500 1849.485 262.328 L 1845.968 255.157 1841.099 250.779 L 1836.230 246.401 1830.140 243.155 L 1824.051 239.910 1818.275 237.896 L 1812.500 235.882 1803.500 233.796 L 1794.500 231.710 1742.750 231.270 L 1691 230.830 1691 291.492 M 3734.667 231.667 L 3734 232.333 3734 292.167 L 3734 352 3780.461 352 L 3826.922 352 3837.211 350.888 L 3847.500 349.775 3855.963 347.330 L 3864.426 344.885 3871.295 341.275 L 3878.165 337.665 3883.833 332.059 L 3889.500 326.452 3892.272 321.301 L 3895.044 316.149 3897.022 308.415 L 3899 300.680 3898.985 290.590 L 3898.970 280.500 3897.480 274.176 L 3895.989 267.852 3893.312 262.176 L 3890.636 256.500 3885.287 251.264 L 3879.939 246.028 3871.591 241.987 L 3863.244 237.947 3853.779 235.546 L 3844.315 233.145 3834.697 232.072 L 3825.079 231 3780.206 231 L 3735.333 231 3734.667 231.667 M 3479.393 312.157 L 3477.285 313.178 3475.622 316.339 L 3473.958 319.500 3471.573 323.500 L 3469.188 327.500 3467.594 330.250 L 3466 333 3464.406 335.750 L 3462.812 338.500 3460.656 342.187 L 3458.500 345.875 3447 365.500 L 3435.500 385.125 3433.301 388.813 L 3431.103 392.500 3429.982 394.998 L 3428.861 397.496 3427.531 398.998 L 3426.201 400.500 3423.351 405.667 L 3420.500 410.834 3412.500 424.463 L 3404.500 438.092 3402.725 441.296 L 3400.951 444.500 3398.973 447.500 L 3396.996 450.500 3395.429 453.500 L 3393.863 456.500 3391.681 460.187 L 3389.500 463.875 3378 483.500 L 3366.500 503.125 3364.298 506.813 L 3362.097 510.500 3360.917 512.686 L 3359.737 514.872 3360.337 516.436 L 3360.937 518 3423.814 518 L 3486.690 518 3488.258 516.250 L 3489.826 514.500 3491.940 508.500 L 3494.055 502.500 3495.599 497.500 L 3497.143 492.500 3498.450 486.883 L 3499.757 481.267 3500.833 477.883 L 3501.910 474.500 3502.986 466.500 L 3504.062 458.500 3505.007 454.500 L 3505.952 450.500 3505.978 424.500 L 3506.004 398.500 3504.568 390 L 3503.132 381.500 3502.071 375 L 3501.011 368.500 3499.081 360.500 L 3497.152 352.500 3495.160 346 L 3493.169 339.500 3491.540 335 L 3489.911 330.500 3488.602 327.500 L 3487.293 324.500 3484.497 317.750 L 3481.700 311 3481.600 311.068 L 3481.500 311.135 3479.393 312.157 M 3010.598 327.545 L 3009.053 329.090 3007.929 333.295 L 3006.804 337.500 3006.008 338.500 L 3005.211 339.500 3003.557 345.500 L 3001.903 351.500 2999.879 359 L 2997.854 366.500 2996.870 372.500 L 2995.886 378.500 2994.443 386.270 L 2993 394.041 2993 420.410 L 2993 446.779 2994.422 454.640 L 2995.843 462.500 2996.509 468.371 L 2997.174 474.242 2998.587 478.247 L 3000 482.251 2999.986 484.376 L 2999.971 486.500 3002.125 493.500 L 3004.280 500.500 3006.260 506 L 3008.241 511.500 3010.223 516.500 L 3012.206 521.500 3013.576 524.500 L 3014.947 527.500 3015.897 530.113 L 3016.847 532.727 3018.956 533.278 L 3021.065 533.830 3022.416 531.665 L 3023.767 529.500 3029.446 519.500 L 3035.124 509.500 3036.004 508 L 3036.885 506.500 3065.505 457 L 3094.126 407.500 3095.018 406 L 3095.911 404.500 3102.518 393 L 3109.125 381.500 3110.028 380 L 3110.931 378.500 3114.215 372.661 L 3117.500 366.821 3119.681 363.161 L 3121.863 359.500 3123.458 356.500 L 3125.054 353.500 3126.311 351.500 L 3127.569 349.500 3129.822 345.500 L 3132.075 341.500 3134.486 337.500 L 3136.897 333.500 3137.989 331.078 L 3139.082 328.655 3138.572 327.328 L 3138.063 326 3075.103 326 L 3012.143 326 3010.598 327.545 M 3191.664 329.750 L 3189.302 333.500 3185.901 339.663 L 3182.500 345.826 3167 372.462 L 3151.500 399.098 3149.344 402.799 L 3147.188 406.500 3145.594 409.250 L 3144 412 3142.437 414.980 L 3140.873 417.960 3139.937 418.539 L 3139 419.118 3139 422 L 3139 424.882 3140.062 425.538 L 3141.123 426.194 3142.044 428.347 L 3142.965 430.500 3145.489 434.500 L 3148.013 438.500 3149.575 441.500 L 3151.137 444.500 3153.319 448.183 L 3155.500 451.867 3169 475.020 L 3182.500 498.174 3185.901 504.337 L 3189.302 510.500 3191.664 514.250 L 3194.025 518 3249.935 518 L 3305.845 518 3315.172 501.952 L 3324.500 485.904 3326.702 482.202 L 3328.905 478.500 3329.608 477 L 3330.310 475.500 3331.405 474.131 L 3332.500 472.762 3336 466.477 L 3339.500 460.193 3347.500 446.529 L 3355.500 432.865 3357.771 429.183 L 3360.042 425.500 3360.626 424.257 L 3361.209 423.013 3359.037 418.847 L 3356.866 414.681 3331.335 370.340 L 3305.805 326 3249.915 326 L 3194.025 326 3191.664 329.750 M 1691 532.421 L 1691 601 1749.824 601 L 1808.648 601 1818.074 599.392 L 1827.500 597.785 1835.500 595.290 L 1843.500 592.795 1851.316 588.752 L 1859.131 584.709 1865.067 578.773 L 1871.003 572.837 1874.392 565.668 L 1877.782 558.500 1879.141 553 L 1880.500 547.500 1880.454 535 L 1880.408 522.500 1878.687 516 L 1876.966 509.500 1873.829 503 L 1870.692 496.500 1863.096 488.967 L 1855.500 481.434 1846 476.754 L 1836.500 472.074 1829 470.064 L 1821.500 468.055 1813 466.396 L 1804.500 464.736 1747.750 464.289 L 1691 463.842 1691 532.421 M 3734 532.427 L 3734 601 3793.250 600.999 L 3852.500 600.997 3860.891 599.521 L 3869.283 598.044 3876.891 595.970 L 3884.500 593.897 3893 589.804 L 3901.500 585.710 3908.522 578.605 L 3915.544 571.500 3918.180 566 L 3920.816 560.500 3922.539 554 L 3924.261 547.500 3924.276 536 L 3924.290 524.500 3923.062 518.500 L 3921.835 512.500 3917.969 504.415 L 3914.103 496.331 3909.493 491.203 L 3904.883 486.076 3897.967 481.478 L 3891.052 476.881 3884.776 474.319 L 3878.500 471.756 3872 469.950 L 3865.500 468.143 3856.500 466.400 L 3847.500 464.658 3790.750 464.256 L 3734 463.854 3734 532.427 M 3107.720 473.687 L 3105.335 477.500 3101.418 484.316 L 3097.500 491.133 3096 493.840 L 3094.500 496.546 3090.500 503.371 L 3086.500 510.196 3084.319 513.848 L 3082.137 517.500 3080.571 520.500 L 3079.004 523.500 3077 526.500 L 3074.996 529.500 3073.429 532.500 L 3071.863 535.500 3069.438 539.500 L 3067.014 543.500 3065.438 546.500 L 3063.863 549.500 3061.681 553.153 L 3059.500 556.806 3054.750 564.857 L 3050 572.907 3050 573.831 L 3050 574.755 3048.500 576 L 3047 577.245 3047 579.622 L 3047 582 3047.795 582 L 3048.589 582 3052.244 586.750 L 3055.898 591.500 3063.291 599 L 3070.684 606.500 3076.092 611.589 L 3081.500 616.679 3089.500 623.113 L 3097.500 629.547 3106 635.187 L 3114.500 640.826 3123 645.723 L 3131.500 650.619 3137.500 653.374 L 3143.500 656.129 3146.500 657.528 L 3149.500 658.926 3154.377 660.963 L 3159.254 663 3160.226 663 L 3161.198 663 3164.349 664.493 L 3167.500 665.987 3172.500 667.424 L 3177.500 668.860 3182 670.017 L 3186.500 671.174 3191.609 672.594 L 3196.718 674.013 3204.160 674.957 L 3211.601 675.900 3216.051 676.926 L 3220.500 677.951 3226.750 677.976 L 3233 678 3233 676.745 L 3233 675.489 3226.750 664.684 L 3220.500 653.880 3218.725 650.690 L 3216.951 647.500 3214.973 644.500 L 3212.996 641.500 3211.429 638.500 L 3209.863 635.500 3207.681 631.817 L 3205.500 628.133 3192 605 L 3178.500 581.867 3176.301 578.183 L 3174.103 574.500 3173.069 572.500 L 3172.035 570.500 3169.767 566.817 L 3167.500 563.135 3159.500 549.488 L 3151.500 535.841 3149.319 532.171 L 3147.137 528.500 3145.571 525.500 L 3144.004 522.500 3142.027 519.500 L 3140.049 516.500 3138.064 513 L 3136.079 509.500 3134.496 506.500 L 3132.913 503.500 3123.189 487.010 L 3113.465 470.521 3111.785 470.197 L 3110.105 469.874 3107.720 473.687 M 3222.503 564.996 L 3221.887 565.992 3223.193 568.466 L 3224.500 570.940 3236 590.533 L 3247.500 610.125 3249.699 613.813 L 3251.897 617.500 3252.931 619.500 L 3253.965 621.500 3256.233 625.183 L 3258.500 628.865 3266.500 642.512 L 3274.500 656.159 3276.656 659.829 L 3278.812 663.500 3280.406 666.250 L 3282 669 3283.633 672.121 L 3285.267 675.242 3292.883 674.777 L 3300.500 674.312 3306 672.743 L 3311.500 671.174 3316 670.043 L 3320.500 668.912 3326 667.364 L 3331.500 665.816 3332.500 665.023 L 3333.500 664.231 3337 663.482 L 3340.500 662.733 3343.985 660.867 L 3347.470 659 3348.485 659.003 L 3349.500 659.007 3361 653.354 L 3372.500 647.701 3379.500 643.620 L 3386.500 639.538 3394.500 634.127 L 3402.500 628.716 3410 622.650 L 3417.500 616.585 3422.855 611.543 L 3428.211 606.500 3431.355 603.355 L 3434.500 600.211 3439.561 594.855 L 3444.623 589.500 3452.119 580 L 3459.616 570.500 3461.256 567.865 L 3462.896 565.229 3462.281 564.615 L 3461.667 564 3342.392 564 L 3223.118 564 3222.503 564.996 M 261.564 568.897 L 261.010 569.793 307.819 642.147 L 354.628 714.500 355.564 714.481 L 356.500 714.461 377.297 681.981 L 398.095 649.500 423.601 609.741 L 449.107 569.982 448.495 568.991 L 447.882 568 355 568 L 262.118 568 261.564 568.897" stroke="none" fill="#bc987e" fill-rule="evenodd"/></svg>