<svg xmlns="http://www.w3.org/2000/svg" width="3071" height="559" viewBox="0 0 3071 559" version="1.1"><path d="M 0 279.500 L 0 559.001 1535.750 558.750 L 3071.500 558.500 3071.752 279.250 L 3072.004 -0 1536.002 -0 L 0 0 0 279.500 M 0.493 280 L 0.493 559.500 0.750 419.750 L 1.007 280 0.750 140.250 L 0.493 0.500 0.493 280 M 2037.572 105.030 L 2029.643 105.937 2019.573 107.991 L 2009.504 110.044 1997.502 114.102 L 1985.500 118.159 1973.863 123.978 L 1962.226 129.796 1953.279 135.812 L 1944.332 141.828 1936.738 147.937 L 1929.145 154.046 1920.417 163.273 L 1911.689 172.500 1905.925 180.229 L 1900.160 187.958 1895.023 196.461 L 1889.887 204.965 1885.831 213.732 L 1881.774 222.500 1877.963 234 L 1874.152 245.500 1872.034 255.892 L 1869.917 266.285 1868.770 279.648 L 1867.623 293.010 1868.812 307.755 L 1870.001 322.500 1872.055 332.500 L 1874.110 342.500 1878.094 354.469 L 1882.078 366.438 1887.473 377.575 L 1892.868 388.712 1901.113 401.106 L 1909.358 413.500 1923.429 427.500 L 1937.500 441.500 1946.750 448 L 1955.999 454.500 1964.250 459.246 L 1972.500 463.991 1982.962 468.580 L 1993.423 473.168 2005.462 476.642 L 2017.500 480.116 2031 482.042 L 2044.500 483.969 2057.699 483.984 L 2070.898 484 2082.699 482.466 L 2094.500 480.933 2105.500 478.054 L 2116.500 475.176 2125.415 471.934 L 2134.330 468.691 2144.915 463.267 L 2155.500 457.843 2163.782 452.278 L 2172.065 446.713 2183.035 437.338 L 2194.005 427.962 2201.253 419.409 L 2208.500 410.856 2214.743 402.178 L 2220.985 393.500 2227.942 379.500 L 2234.898 365.500 2238.442 354.756 L 2241.986 344.012 2244.708 331.256 L 2247.430 318.500 2247.430 294 L 2247.430 269.500 2244.730 256.854 L 2242.031 244.208 2238.592 233.710 L 2235.153 223.213 2229.988 212.879 L 2224.823 202.546 2220.827 195.703 L 2216.830 188.860 2209.533 179.180 L 2202.236 169.500 2189.862 157.464 L 2177.488 145.429 2164.994 137.054 L 2152.500 128.680 2141.500 123.378 L 2130.500 118.076 2116.956 113.556 L 2103.412 109.036 2091.456 106.958 L 2079.500 104.879 2062.500 104.501 L 2045.500 104.122 2037.572 105.030 M 202.555 109.250 L 201.212 112.500 131.506 296.500 L 61.801 480.500 61.341 481.250 L 60.882 482 101.191 481.978 L 141.500 481.956 188.500 352.496 L 235.500 223.036 236.023 223.018 L 236.546 223 272.236 320.250 L 307.927 417.500 319.713 449.738 L 331.500 481.975 371.610 481.988 L 411.720 482 404.974 464.250 L 398.228 446.500 347.247 312.500 L 296.266 178.500 282.491 142.250 L 268.716 106 236.307 106 L 203.898 106 202.555 109.250 M 425 293.922 L 425 482 463 482 L 501 482 501 330 L 501 178 531.276 178 L 561.552 178 570.026 179.061 L 578.500 180.122 585.866 182.593 L 593.233 185.064 597.866 188.249 L 602.500 191.434 605.362 194.467 L 608.223 197.500 611.091 203.504 L 613.959 209.509 614.979 214.891 L 616 220.273 615.985 228.386 L 615.970 236.500 614.492 242.769 L 613.014 249.038 610.409 254.180 L 607.804 259.321 602.846 264.150 L 597.889 268.978 590.695 272.392 L 583.500 275.806 576 277.528 L 568.500 279.249 552.750 279.757 L 537 280.264 537 316.596 L 537 352.928 581.750 417.451 L 626.500 481.973 672.335 481.986 L 718.170 482 714.723 477.250 L 711.276 472.500 665.138 406.805 L 619 341.110 619 340.555 L 619 340 620.103 340 L 621.205 340 629.436 336.143 L 637.666 332.286 645.434 327.045 L 653.201 321.804 660.493 314.877 L 667.784 307.951 672.764 300.725 L 677.744 293.500 680.747 287.500 L 683.750 281.500 686.261 274.500 L 688.771 267.500 690.631 259 L 692.492 250.500 692.496 229.500 L 692.500 208.500 690.612 199.500 L 688.725 190.500 685.748 182 L 682.771 173.500 679.758 167.500 L 676.744 161.500 671.774 154.289 L 666.805 147.079 659.075 139.694 L 651.346 132.309 645.423 128.291 L 639.500 124.274 633.434 121.215 L 627.368 118.157 616.934 114.521 L 606.500 110.885 595.500 108.805 L 584.500 106.725 504.750 106.285 L 425 105.844 425 293.922 M 695.667 106.667 L 695 107.333 695 142.658 L 695 177.982 746.250 178.241 L 797.500 178.500 797.753 330.250 L 798.006 482 835.503 482 L 873 482 873 330 L 873 178 925 178 L 977 178 977 142 L 977 106 836.667 106 L 696.333 106 695.667 106.667 M 999 294 L 999 482 1077.039 482 L 1155.079 482 1164.789 480.933 L 1174.500 479.866 1183.763 477.876 L 1193.027 475.885 1203.583 471.969 L 1214.140 468.053 1222.197 463.277 L 1230.254 458.500 1236.851 452.974 L 1243.448 447.448 1249.321 440.474 L 1255.193 433.500 1260.557 422.500 L 1265.921 411.500 1267.946 403.500 L 1269.970 395.500 1270.965 388.500 L 1271.960 381.500 1271.974 373 L 1271.988 364.500 1270.511 354.697 L 1269.033 344.893 1266.045 335.974 L 1263.057 327.055 1260.137 321.271 L 1257.217 315.487 1252.646 309.406 L 1248.076 303.326 1240.489 296.119 L 1232.901 288.912 1227.583 285.510 L 1222.264 282.107 1227.130 277.059 L 1231.997 272.010 1236.606 265.755 L 1241.216 259.500 1243.983 254 L 1246.750 248.500 1249.279 241.458 L 1251.807 234.416 1253.541 224.048 L 1255.274 213.679 1254.717 201.090 L 1254.160 188.500 1251.655 178.818 L 1249.150 169.136 1245.480 161.818 L 1241.811 154.500 1236.828 147.773 L 1231.844 141.045 1226.922 136.620 L 1222 132.194 1216.750 128.724 L 1211.500 125.253 1204.211 121.594 L 1196.923 117.936 1188.211 115.032 L 1179.500 112.128 1168.500 110.099 L 1157.500 108.069 1144.696 107.035 L 1131.891 106 1065.446 106 L 999 106 999 294 M 1249 106.588 L 1249 107.196 1313.500 212.458 L 1378 317.719 1378 399.860 L 1378 482 1416 482 L 1454 482 1454 399.356 L 1454 316.712 1477.870 278.106 L 1501.739 239.500 1542.186 174 L 1582.633 108.500 1583.376 107.250 L 1584.118 106 1539.705 106 L 1495.292 106 1456.513 170.750 L 1417.734 235.500 1416.617 236.682 L 1415.500 237.864 1375.967 172.182 L 1336.433 106.500 1292.717 106.239 L 1249 105.979 1249 106.588 M 1587 294 L 1587 482 1624.500 482 L 1662 482 1662 330 L 1662 178 1692.250 178.008 L 1722.500 178.016 1731.138 179.006 L 1739.777 179.996 1746.332 182.021 L 1752.887 184.045 1759.176 188.273 L 1765.466 192.500 1769.139 197.393 L 1772.813 202.286 1774.942 208.771 L 1777.070 215.257 1777.636 224.378 L 1778.201 233.500 1776.655 240.746 L 1775.109 247.992 1772.489 253.246 L 1769.868 258.500 1765.684 262.853 L 1761.500 267.207 1757.623 269.696 L 1753.747 272.185 1747.227 274.639 L 1740.708 277.093 1731.104 278.540 L 1721.500 279.988 1710.250 279.994 L 1699 280 1699.014 316.750 L 1699.027 353.500 1743.609 417.750 L 1788.191 482 1833.596 482 L 1879 482 1879 481.544 L 1879 481.087 1830.481 412.075 L 1781.962 343.063 1781.501 341.782 L 1781.041 340.500 1792.410 335.145 L 1803.779 329.791 1812.264 323.423 L 1820.749 317.055 1826.047 311.277 L 1831.344 305.500 1836.681 297.333 L 1842.018 289.165 1845.951 279.333 L 1849.883 269.500 1852.144 259 L 1854.404 248.500 1854.417 230 L 1854.429 211.500 1852.678 202.039 L 1850.927 192.578 1847.958 183.715 L 1844.988 174.852 1842.451 169.488 L 1839.913 164.124 1834.816 156.312 L 1829.719 148.500 1822.609 141.439 L 1815.500 134.379 1809 129.792 L 1802.500 125.206 1794.500 121.212 L 1786.500 117.219 1779 114.532 L 1771.500 111.845 1762.193 109.894 L 1752.887 107.942 1740.693 106.994 L 1728.500 106.045 1657.750 106.023 L 1587 106 1587 294 M 2282 293.989 L 2282 482.104 2366.250 481.715 L 2450.500 481.326 2459 479.639 L 2467.500 477.952 2476.074 475.509 L 2484.648 473.066 2491.074 470.274 L 2497.500 467.481 2504.500 463.741 L 2511.500 460.001 2518.965 453.736 L 2526.429 447.470 2532.179 440.624 L 2537.928 433.778 2542.917 424.066 L 2547.906 414.353 2550.339 405.927 L 2552.773 397.500 2554.032 388.222 L 2555.292 378.944 2554.719 367.222 L 2554.146 355.500 2552.636 348.484 L 2551.126 341.469 2548.438 333.984 L 2545.750 326.500 2542.983 321 L 2540.216 315.500 2535.783 309.500 L 2531.349 303.500 2525.090 297.314 L 2518.831 291.127 2513.166 287.348 L 2507.500 283.568 2506.611 282.845 L 2505.722 282.122 2511.495 275.811 L 2517.269 269.500 2522.024 262.290 L 2526.780 255.081 2529.950 247.466 L 2533.120 239.851 2535.231 232.175 L 2537.342 224.500 2537.385 207 L 2537.429 189.500 2535.790 182.356 L 2534.152 175.213 2531.077 167.532 L 2528.001 159.852 2523.644 153.176 L 2519.288 146.500 2514.978 141.658 L 2510.667 136.815 2504.285 131.984 L 2497.903 127.152 2488.881 122.493 L 2479.858 117.833 2473.130 115.544 L 2466.401 113.256 2456.950 111.145 L 2447.500 109.035 2439.500 107.866 L 2431.500 106.696 2356.750 106.285 L 2282 105.874 2282 293.989 M 2628.250 118.298 L 2591 130.387 2591 306.193 L 2591 482 2628.500 482 L 2666 482 2666 294 L 2666 106 2665.750 106.105 L 2665.500 106.209 2628.250 118.298 M 2720 294 L 2720 482 2757.996 482 L 2795.992 482 2796.246 365.383 L 2796.500 248.766 2879.359 365.383 L 2962.218 482 2996.609 482 L 3031 482 3031 294 L 3031 106 2993.004 106 L 2955.008 106 2954.754 224.098 L 2954.500 342.195 2947.084 331.848 L 2939.669 321.500 2863.256 213.750 L 2786.843 106 2753.422 106 L 2720 106 2720 294 M 1075 216.089 L 1075 254.179 1109.250 253.751 L 1143.500 253.323 1149.267 251.670 L 1155.034 250.017 1160.051 247.474 L 1165.068 244.932 1169.135 240.865 L 1173.202 236.798 1175.351 232.149 L 1177.500 227.500 1177.500 215.429 L 1177.500 203.359 1174.479 197.452 L 1171.458 191.545 1166.126 187.820 L 1160.793 184.094 1154.647 182.064 L 1148.500 180.034 1141.500 179.037 L 1134.500 178.040 1104.750 178.020 L 1075 178 1075 216.089 M 2358 216 L 2358 254 2388.750 253.965 L 2419.500 253.930 2427.464 252.511 L 2435.429 251.092 2442.747 247.475 L 2450.065 243.858 2454.030 238.843 L 2457.994 233.828 2459.566 228.422 L 2461.137 223.017 2461.166 215.726 L 2461.194 208.435 2460.015 203.967 L 2458.837 199.500 2456.395 195.282 L 2453.953 191.064 2449.321 187.877 L 2444.688 184.689 2439.594 182.735 L 2434.500 180.780 2427 179.425 L 2419.500 178.070 2388.750 178.035 L 2358 178 2358 216 M 2043 180.677 L 2040.500 181.081 2034 182.505 L 2027.500 183.929 2020.134 186.444 L 2012.768 188.960 2004.402 193.410 L 1996.036 197.861 1988.625 203.438 L 1981.215 209.015 1975.210 215.434 L 1969.206 221.853 1964.706 228.177 L 1960.206 234.500 1956.175 242.513 L 1952.145 250.526 1949.610 258.078 L 1947.075 265.630 1945.537 274.446 L 1944 283.262 1944 293.955 L 1944 304.648 1945.618 314.074 L 1947.236 323.500 1950.202 332 L 1953.169 340.500 1957.177 348 L 1961.184 355.500 1966.009 362 L 1970.833 368.500 1979.166 376.616 L 1987.500 384.732 1996.212 390.404 L 2004.924 396.076 2010.481 398.534 L 2016.038 400.991 2022.061 403.021 L 2028.085 405.050 2035.793 406.531 L 2043.500 408.011 2053 408.630 L 2062.500 409.249 2074 407.564 L 2085.500 405.878 2094.237 402.963 L 2102.974 400.047 2108.237 397.400 L 2113.500 394.754 2121.550 389.530 L 2129.600 384.305 2136.340 378 L 2143.080 371.696 2148.984 363.861 L 2154.887 356.026 2158.471 349.618 L 2162.055 343.209 2164.474 337.256 L 2166.893 331.302 2168.930 323.525 L 2170.967 315.748 2172.147 304.874 L 2173.326 294 2172.134 283.013 L 2170.943 272.026 2168.442 263.263 L 2165.942 254.500 2161.475 245.169 L 2157.008 235.839 2151.925 228.486 L 2146.842 221.133 2137.911 212.523 L 2128.979 203.913 2119.740 197.936 L 2110.500 191.959 2100.500 188.049 L 2090.500 184.138 2080.343 182.069 L 2070.186 180 2057.843 180.136 L 2045.500 180.272 2043 180.677 M 1075 367.390 L 1075 411 1106.250 410.983 L 1137.500 410.965 1147 409.971 L 1156.500 408.976 1162.500 407.446 L 1168.500 405.915 1173.675 403.547 L 1178.850 401.179 1183.405 396.981 L 1187.959 392.783 1190.730 387.142 L 1193.500 381.500 1193.500 369 L 1193.500 356.500 1190.620 350.266 L 1187.741 344.031 1182.844 339.451 L 1177.947 334.870 1171.677 331.936 L 1165.406 329.002 1156.453 326.895 L 1147.500 324.788 1111.250 324.284 L 1075 323.780 1075 367.390 M 2358 367.500 L 2358 411 2389.539 411 L 2421.079 411 2430.789 409.939 L 2440.500 408.879 2446.429 407.366 L 2452.357 405.853 2457.269 403.364 L 2462.180 400.875 2466.570 396.829 L 2470.959 392.783 2473.730 387.142 L 2476.500 381.500 2476.500 369 L 2476.500 356.500 2473.620 350.266 L 2470.741 344.031 2466.003 339.600 L 2461.266 335.168 2456.192 332.597 L 2451.119 330.026 2443.809 328.037 L 2436.500 326.048 2427.500 325.032 L 2418.500 324.016 2388.250 324.008 L 2358 324 2358 367.500 M 177.759 391.250 L 178.764 392.500 207.502 437 L 236.240 481.500 236.511 481.808 L 236.782 482.115 255.583 452.808 L 274.384 423.500 285.167 406.750 L 295.949 390 236.352 390 L 176.755 390 177.759 391.250" stroke="none" fill="#fef7ec" fill-rule="evenodd"/><path d="M 2037.572 105.030 L 2029.643 105.937 2019.573 107.991 L 2009.504 110.044 1997.502 114.102 L 1985.500 118.159 1973.863 123.978 L 1962.226 129.796 1953.279 135.812 L 1944.332 141.828 1936.738 147.937 L 1929.145 154.046 1920.417 163.273 L 1911.689 172.500 1905.925 180.229 L 1900.160 187.958 1895.023 196.461 L 1889.887 204.965 1885.831 213.732 L 1881.774 222.500 1877.963 234 L 1874.152 245.500 1872.034 255.892 L 1869.917 266.285 1868.770 279.648 L 1867.623 293.010 1868.812 307.755 L 1870.001 322.500 1872.055 332.500 L 1874.110 342.500 1878.094 354.469 L 1882.078 366.438 1887.473 377.575 L 1892.868 388.712 1901.113 401.106 L 1909.358 413.500 1923.429 427.500 L 1937.500 441.500 1946.750 448 L 1955.999 454.500 1964.250 459.246 L 1972.500 463.991 1982.962 468.580 L 1993.423 473.168 2005.462 476.642 L 2017.500 480.116 2031 482.042 L 2044.500 483.969 2057.699 483.984 L 2070.898 484 2082.699 482.466 L 2094.500 480.933 2105.500 478.054 L 2116.500 475.176 2125.415 471.934 L 2134.330 468.691 2144.915 463.267 L 2155.500 457.843 2163.782 452.278 L 2172.065 446.713 2183.035 437.338 L 2194.005 427.962 2201.253 419.409 L 2208.500 410.856 2214.743 402.178 L 2220.985 393.500 2227.942 379.500 L 2234.898 365.500 2238.442 354.756 L 2241.986 344.012 2244.708 331.256 L 2247.430 318.500 2247.430 294 L 2247.430 269.500 2244.730 256.854 L 2242.031 244.208 2238.592 233.710 L 2235.153 223.213 2229.988 212.879 L 2224.823 202.546 2220.827 195.703 L 2216.830 188.860 2209.533 179.180 L 2202.236 169.500 2189.862 157.464 L 2177.488 145.429 2164.994 137.054 L 2152.500 128.680 2141.500 123.378 L 2130.500 118.076 2116.956 113.556 L 2103.412 109.036 2091.456 106.958 L 2079.500 104.879 2062.500 104.501 L 2045.500 104.122 2037.572 105.030 M 202.555 109.250 L 201.212 112.500 131.506 296.500 L 61.801 480.500 61.341 481.250 L 60.882 482 101.191 481.978 L 141.500 481.956 188.500 352.496 L 235.500 223.036 236.023 223.018 L 236.546 223 272.236 320.250 L 307.927 417.500 319.713 449.738 L 331.500 481.975 371.610 481.988 L 411.720 482 404.974 464.250 L 398.228 446.500 347.247 312.500 L 296.266 178.500 282.491 142.250 L 268.716 106 236.307 106 L 203.898 106 202.555 109.250 M 425 293.922 L 425 482 463 482 L 501 482 501 330 L 501 178 531.276 178 L 561.552 178 570.026 179.061 L 578.500 180.122 585.866 182.593 L 593.233 185.064 597.866 188.249 L 602.500 191.434 605.362 194.467 L 608.223 197.500 611.091 203.504 L 613.959 209.509 614.979 214.891 L 616 220.273 615.985 228.386 L 615.970 236.500 614.492 242.769 L 613.014 249.038 610.409 254.180 L 607.804 259.321 602.846 264.150 L 597.889 268.978 590.695 272.392 L 583.500 275.806 576 277.528 L 568.500 279.249 552.750 279.757 L 537 280.264 537 316.596 L 537 352.928 581.750 417.451 L 626.500 481.973 672.335 481.986 L 718.170 482 714.723 477.250 L 711.276 472.500 665.138 406.805 L 619 341.110 619 340.555 L 619 340 620.103 340 L 621.205 340 629.436 336.143 L 637.666 332.286 645.434 327.045 L 653.201 321.804 660.493 314.877 L 667.784 307.951 672.764 300.725 L 677.744 293.500 680.747 287.500 L 683.750 281.500 686.261 274.500 L 688.771 267.500 690.631 259 L 692.492 250.500 692.496 229.500 L 692.500 208.500 690.612 199.500 L 688.725 190.500 685.748 182 L 682.771 173.500 679.758 167.500 L 676.744 161.500 671.774 154.289 L 666.805 147.079 659.075 139.694 L 651.346 132.309 645.423 128.291 L 639.500 124.274 633.434 121.215 L 627.368 118.157 616.934 114.521 L 606.500 110.885 595.500 108.805 L 584.500 106.725 504.750 106.285 L 425 105.844 425 293.922 M 695.667 106.667 L 695 107.333 695 142.658 L 695 177.982 746.250 178.241 L 797.500 178.500 797.753 330.250 L 798.006 482 835.503 482 L 873 482 873 330 L 873 178 925 178 L 977 178 977 142 L 977 106 836.667 106 L 696.333 106 695.667 106.667 M 999 294 L 999 482 1077.039 482 L 1155.079 482 1164.789 480.933 L 1174.500 479.866 1183.763 477.876 L 1193.027 475.885 1203.583 471.969 L 1214.140 468.053 1222.197 463.277 L 1230.254 458.500 1236.851 452.974 L 1243.448 447.448 1249.321 440.474 L 1255.193 433.500 1260.557 422.500 L 1265.921 411.500 1267.946 403.500 L 1269.970 395.500 1270.965 388.500 L 1271.960 381.500 1271.974 373 L 1271.988 364.500 1270.511 354.697 L 1269.033 344.893 1266.045 335.974 L 1263.057 327.055 1260.137 321.271 L 1257.217 315.487 1252.646 309.406 L 1248.076 303.326 1240.489 296.119 L 1232.901 288.912 1227.583 285.510 L 1222.264 282.107 1227.130 277.059 L 1231.997 272.010 1236.606 265.755 L 1241.216 259.500 1243.983 254 L 1246.750 248.500 1249.279 241.458 L 1251.807 234.416 1253.541 224.048 L 1255.274 213.679 1254.717 201.090 L 1254.160 188.500 1251.655 178.818 L 1249.150 169.136 1245.480 161.818 L 1241.811 154.500 1236.828 147.773 L 1231.844 141.045 1226.922 136.620 L 1222 132.194 1216.750 128.724 L 1211.500 125.253 1204.211 121.594 L 1196.923 117.936 1188.211 115.032 L 1179.500 112.128 1168.500 110.099 L 1157.500 108.069 1144.696 107.035 L 1131.891 106 1065.446 106 L 999 106 999 294 M 1249 106.588 L 1249 107.196 1313.500 212.458 L 1378 317.719 1378 399.860 L 1378 482 1416 482 L 1454 482 1454 399.356 L 1454 316.712 1477.870 278.106 L 1501.739 239.500 1542.186 174 L 1582.633 108.500 1583.376 107.250 L 1584.118 106 1539.705 106 L 1495.292 106 1456.513 170.750 L 1417.734 235.500 1416.617 236.682 L 1415.500 237.864 1375.967 172.182 L 1336.433 106.500 1292.717 106.239 L 1249 105.979 1249 106.588 M 1587 294 L 1587 482 1624.500 482 L 1662 482 1662 330 L 1662 178 1692.250 178.008 L 1722.500 178.016 1731.138 179.006 L 1739.777 179.996 1746.332 182.021 L 1752.887 184.045 1759.176 188.273 L 1765.466 192.500 1769.139 197.393 L 1772.813 202.286 1774.942 208.771 L 1777.070 215.257 1777.636 224.378 L 1778.201 233.500 1776.655 240.746 L 1775.109 247.992 1772.489 253.246 L 1769.868 258.500 1765.684 262.853 L 1761.500 267.207 1757.623 269.696 L 1753.747 272.185 1747.227 274.639 L 1740.708 277.093 1731.104 278.540 L 1721.500 279.988 1710.250 279.994 L 1699 280 1699.014 316.750 L 1699.027 353.500 1743.609 417.750 L 1788.191 482 1833.596 482 L 1879 482 1879 481.544 L 1879 481.087 1830.481 412.075 L 1781.962 343.063 1781.501 341.782 L 1781.041 340.500 1792.410 335.145 L 1803.779 329.791 1812.264 323.423 L 1820.749 317.055 1826.047 311.277 L 1831.344 305.500 1836.681 297.333 L 1842.018 289.165 1845.951 279.333 L 1849.883 269.500 1852.144 259 L 1854.404 248.500 1854.417 230 L 1854.429 211.500 1852.678 202.039 L 1850.927 192.578 1847.958 183.715 L 1844.988 174.852 1842.451 169.488 L 1839.913 164.124 1834.816 156.312 L 1829.719 148.500 1822.609 141.439 L 1815.500 134.379 1809 129.792 L 1802.500 125.206 1794.500 121.212 L 1786.500 117.219 1779 114.532 L 1771.500 111.845 1762.193 109.894 L 1752.887 107.942 1740.693 106.994 L 1728.500 106.045 1657.750 106.023 L 1587 106 1587 294 M 2282 293.989 L 2282 482.104 2366.250 481.715 L 2450.500 481.326 2459 479.639 L 2467.500 477.952 2476.074 475.509 L 2484.648 473.066 2491.074 470.274 L 2497.500 467.481 2504.500 463.741 L 2511.500 460.001 2518.965 453.736 L 2526.429 447.470 2532.179 440.624 L 2537.928 433.778 2542.917 424.066 L 2547.906 414.353 2550.339 405.927 L 2552.773 397.500 2554.032 388.222 L 2555.292 378.944 2554.719 367.222 L 2554.146 355.500 2552.636 348.484 L 2551.126 341.469 2548.438 333.984 L 2545.750 326.500 2542.983 321 L 2540.216 315.500 2535.783 309.500 L 2531.349 303.500 2525.090 297.314 L 2518.831 291.127 2513.166 287.348 L 2507.500 283.568 2506.611 282.845 L 2505.722 282.122 2511.495 275.811 L 2517.269 269.500 2522.024 262.290 L 2526.780 255.081 2529.950 247.466 L 2533.120 239.851 2535.231 232.175 L 2537.342 224.500 2537.385 207 L 2537.429 189.500 2535.790 182.356 L 2534.152 175.213 2531.077 167.532 L 2528.001 159.852 2523.644 153.176 L 2519.288 146.500 2514.978 141.658 L 2510.667 136.815 2504.285 131.984 L 2497.903 127.152 2488.881 122.493 L 2479.858 117.833 2473.130 115.544 L 2466.401 113.256 2456.950 111.145 L 2447.500 109.035 2439.500 107.866 L 2431.500 106.696 2356.750 106.285 L 2282 105.874 2282 293.989 M 2628.250 118.298 L 2591 130.387 2591 306.193 L 2591 482 2628.500 482 L 2666 482 2666 294 L 2666 106 2665.750 106.105 L 2665.500 106.209 2628.250 118.298 M 2720 294 L 2720 482 2757.996 482 L 2795.992 482 2796.246 365.383 L 2796.500 248.766 2879.359 365.383 L 2962.218 482 2996.609 482 L 3031 482 3031 294 L 3031 106 2993.004 106 L 2955.008 106 2954.754 224.098 L 2954.500 342.195 2947.084 331.848 L 2939.669 321.500 2863.256 213.750 L 2786.843 106 2753.422 106 L 2720 106 2720 294 M 1075 216.089 L 1075 254.179 1109.250 253.751 L 1143.500 253.323 1149.267 251.670 L 1155.034 250.017 1160.051 247.474 L 1165.068 244.932 1169.135 240.865 L 1173.202 236.798 1175.351 232.149 L 1177.500 227.500 1177.500 215.429 L 1177.500 203.359 1174.479 197.452 L 1171.458 191.545 1166.126 187.820 L 1160.793 184.094 1154.647 182.064 L 1148.500 180.034 1141.500 179.037 L 1134.500 178.040 1104.750 178.020 L 1075 178 1075 216.089 M 2358 216 L 2358 254 2388.750 253.965 L 2419.500 253.930 2427.464 252.511 L 2435.429 251.092 2442.747 247.475 L 2450.065 243.858 2454.030 238.843 L 2457.994 233.828 2459.566 228.422 L 2461.137 223.017 2461.166 215.726 L 2461.194 208.435 2460.015 203.967 L 2458.837 199.500 2456.395 195.282 L 2453.953 191.064 2449.321 187.877 L 2444.688 184.689 2439.594 182.735 L 2434.500 180.780 2427 179.425 L 2419.500 178.070 2388.750 178.035 L 2358 178 2358 216 M 2043 180.677 L 2040.500 181.081 2034 182.505 L 2027.500 183.929 2020.134 186.444 L 2012.768 188.960 2004.402 193.410 L 1996.036 197.861 1988.625 203.438 L 1981.215 209.015 1975.210 215.434 L 1969.206 221.853 1964.706 228.177 L 1960.206 234.500 1956.175 242.513 L 1952.145 250.526 1949.610 258.078 L 1947.075 265.630 1945.537 274.446 L 1944 283.262 1944 293.955 L 1944 304.648 1945.618 314.074 L 1947.236 323.500 1950.202 332 L 1953.169 340.500 1957.177 348 L 1961.184 355.500 1966.009 362 L 1970.833 368.500 1979.166 376.616 L 1987.500 384.732 1996.212 390.404 L 2004.924 396.076 2010.481 398.534 L 2016.038 400.991 2022.061 403.021 L 2028.085 405.050 2035.793 406.531 L 2043.500 408.011 2053 408.630 L 2062.500 409.249 2074 407.564 L 2085.500 405.878 2094.237 402.963 L 2102.974 400.047 2108.237 397.400 L 2113.500 394.754 2121.550 389.530 L 2129.600 384.305 2136.340 378 L 2143.080 371.696 2148.984 363.861 L 2154.887 356.026 2158.471 349.618 L 2162.055 343.209 2164.474 337.256 L 2166.893 331.302 2168.930 323.525 L 2170.967 315.748 2172.147 304.874 L 2173.326 294 2172.134 283.013 L 2170.943 272.026 2168.442 263.263 L 2165.942 254.500 2161.475 245.169 L 2157.008 235.839 2151.925 228.486 L 2146.842 221.133 2137.911 212.523 L 2128.979 203.913 2119.740 197.936 L 2110.500 191.959 2100.500 188.049 L 2090.500 184.138 2080.343 182.069 L 2070.186 180 2057.843 180.136 L 2045.500 180.272 2043 180.677 M 1075 367.390 L 1075 411 1106.250 410.983 L 1137.500 410.965 1147 409.971 L 1156.500 408.976 1162.500 407.446 L 1168.500 405.915 1173.675 403.547 L 1178.850 401.179 1183.405 396.981 L 1187.959 392.783 1190.730 387.142 L 1193.500 381.500 1193.500 369 L 1193.500 356.500 1190.620 350.266 L 1187.741 344.031 1182.844 339.451 L 1177.947 334.870 1171.677 331.936 L 1165.406 329.002 1156.453 326.895 L 1147.500 324.788 1111.250 324.284 L 1075 323.780 1075 367.390 M 2358 367.500 L 2358 411 2389.539 411 L 2421.079 411 2430.789 409.939 L 2440.500 408.879 2446.429 407.366 L 2452.357 405.853 2457.269 403.364 L 2462.180 400.875 2466.570 396.829 L 2470.959 392.783 2473.730 387.142 L 2476.500 381.500 2476.500 369 L 2476.500 356.500 2473.620 350.266 L 2470.741 344.031 2466.003 339.600 L 2461.266 335.168 2456.192 332.597 L 2451.119 330.026 2443.809 328.037 L 2436.500 326.048 2427.500 325.032 L 2418.500 324.016 2388.250 324.008 L 2358 324 2358 367.500 M 177.759 391.250 L 178.764 392.500 207.502 437 L 236.240 481.500 236.511 481.808 L 236.782 482.115 255.583 452.808 L 274.384 423.500 285.167 406.750 L 295.949 390 236.352 390 L 176.755 390 177.759 391.250" stroke="none" fill="#9dcbb3" fill-rule="evenodd"/></svg>