<svg xmlns="http://www.w3.org/2000/svg" width="4881" height="763" viewBox="0 0 4881 763" version="1.1"><path d="M -0 381.500 L -0 763 2440.750 762.750 L 4881.500 762.500 4881.751 381.250 L 4882.003 -0 2441.001 -0 L 0 0 -0 381.500 M 0.495 382 L 0.495 763.500 0.750 572.750 L 1.005 382 0.750 191.250 L 0.495 0.500 0.495 382 M 302.625 97.797 L 302.133 98.594 203.464 359.047 L 104.796 619.500 90.972 656 L 77.148 692.500 76.467 694.250 L 75.786 696 139.444 696 L 203.102 696 204.465 692.738 L 205.828 689.476 279.433 486.988 L 353.038 284.500 353.542 283.107 L 354.047 281.714 354.653 282.320 L 355.260 282.927 430.948 489.213 L 506.635 695.500 570.318 695.757 L 634 696.015 634 695.457 L 634 694.900 550.631 475.700 L 467.262 256.500 436.941 176.750 L 406.620 97 354.869 97 L 303.118 97 302.625 97.797 M 655.248 396.203 L 655.500 695.500 715.748 695.758 L 775.996 696.016 776.248 453.758 L 776.500 211.500 829 211.517 L 881.500 211.535 892 213.341 L 902.500 215.147 911.500 218.191 L 920.500 221.235 927.500 225.276 L 934.500 229.317 941.071 236.051 L 947.641 242.785 951.373 250.439 L 955.106 258.094 957.113 265.797 L 959.119 273.500 959.678 286.500 L 960.236 299.500 958.594 308.889 L 956.952 318.279 954.343 324.889 L 951.733 331.500 947.314 338.214 L 942.894 344.928 936.697 350.555 L 930.500 356.183 920.500 361.051 L 910.500 365.919 903 367.949 L 895.500 369.979 885.500 371.484 L 875.500 372.988 856.332 372.994 L 837.164 373 835.582 373.607 L 834 374.214 834 432.234 L 834 490.254 842.834 502.877 L 851.669 515.500 912.944 604 L 974.218 692.500 975.894 694.257 L 977.569 696.013 1049.864 695.757 L 1122.159 695.500 1112.292 681.500 L 1102.425 667.500 1034.224 570.361 L 966.022 473.221 965.388 471.570 L 964.755 469.919 968.127 468.722 L 971.500 467.525 986.038 460.333 L 1000.575 453.140 1008.710 447.320 L 1016.844 441.500 1025.397 434.152 L 1033.950 426.804 1040.843 418.652 L 1047.737 410.500 1052.798 402.931 L 1057.860 395.361 1062.510 386.087 L 1067.160 376.812 1069.678 370.156 L 1072.196 363.500 1074.051 357.500 L 1075.906 351.500 1078.406 339 L 1080.906 326.500 1082.080 313.500 L 1083.254 300.500 1082.617 284.500 L 1081.980 268.500 1080.548 258.490 L 1079.116 248.479 1077.470 240.490 L 1075.824 232.500 1071.548 219.500 L 1067.272 206.500 1061.734 195.462 L 1056.196 184.424 1050.150 175.462 L 1044.105 166.500 1038.302 159.916 L 1032.500 153.332 1025.500 147.008 L 1018.500 140.684 1011.500 135.529 L 1004.500 130.375 998.280 126.633 L 992.059 122.891 982.622 118.481 L 973.185 114.071 961.843 110.162 L 950.500 106.252 938.500 103.544 L 926.500 100.835 915 99.246 L 903.500 97.658 779.248 97.282 L 654.997 96.906 655.248 396.203 M 1086 154 L 1086 211 1165.918 211 L 1245.836 211 1247.418 211.607 L 1249 212.214 1249 454.107 L 1249 696 1309 696 L 1369 696 1369 454.700 L 1369 213.400 1370.200 212.200 L 1371.400 211 1452.700 211 L 1534 211 1534 154 L 1534 97 1310 97 L 1086 97 1086 154 M 1570 396.497 L 1570 696.092 1697.750 695.719 L 1825.500 695.346 1837.500 693.693 L 1849.500 692.041 1857.320 690.524 L 1865.139 689.007 1872.936 687.016 L 1880.733 685.026 1891.116 681.434 L 1901.500 677.842 1912.500 672.514 L 1923.500 667.185 1934.500 659.926 L 1945.500 652.667 1958.079 640.083 L 1970.657 627.500 1976.818 618.091 L 1982.978 608.683 1987.407 599.591 L 1991.837 590.500 1995.355 579.926 L 1998.872 569.352 2000.965 558.412 L 2003.058 547.472 2003.812 534.486 L 2004.566 521.500 2003.841 508.796 L 2003.117 496.092 2001.427 486.796 L 1999.736 477.500 1996.923 467.968 L 1994.111 458.436 1990.494 449.968 L 1986.878 441.500 1982.228 433.551 L 1977.577 425.603 1971.958 418.051 L 1966.339 410.500 1958.903 402.919 L 1951.468 395.339 1940.984 387.535 L 1930.500 379.731 1928.250 378.705 L 1926 377.679 1926 376.375 L 1926 375.070 1927.965 374.019 L 1929.931 372.967 1938.536 363.233 L 1947.142 353.500 1952.463 344.935 L 1957.785 336.369 1960.768 330.435 L 1963.752 324.500 1967.283 315 L 1970.815 305.500 1973.370 294 L 1975.925 282.500 1976.963 269.596 L 1978.001 256.693 1976.994 243.422 L 1975.987 230.151 1974.413 221.826 L 1972.839 213.500 1969.442 203 L 1966.046 192.500 1961.947 184.500 L 1957.849 176.500 1952.248 168.081 L 1946.648 159.662 1937.574 150.500 L 1928.500 141.337 1922.500 136.809 L 1916.500 132.280 1905.795 126.119 L 1895.090 119.957 1883.795 115.413 L 1872.500 110.870 1860.246 107.413 L 1847.991 103.956 1836.246 101.975 L 1824.500 99.995 1815.500 98.847 L 1806.500 97.699 1688.250 97.300 L 1570 96.902 1570 396.497 M 1968.409 98.624 L 1969.037 100.261 2040.208 216.380 L 2111.379 332.500 2119.010 345 L 2126.641 357.500 2149.817 395.255 L 2172.993 433.011 2173.246 564.255 L 2173.500 695.500 2233.500 695.500 L 2293.500 695.500 2293.754 564.135 L 2294.007 432.771 2344.154 351.635 L 2394.300 270.500 2397.504 265.500 L 2400.708 260.500 2450.854 179.279 L 2501 98.058 2501 97.522 L 2501 96.987 2430.300 97.243 L 2359.601 97.500 2297.051 201.750 L 2234.501 306 2233.547 305.682 L 2232.594 305.365 2169.950 201.432 L 2107.306 97.500 2037.543 97.243 L 1967.781 96.986 1968.409 98.624 M 2506 396.453 L 2506 696 2566 696 L 2626 696 2626 454.019 L 2626 212.038 2628.481 211.415 L 2630.962 210.793 2682.231 211.285 L 2733.500 211.777 2740.880 212.959 L 2748.259 214.140 2756.880 216.615 L 2765.500 219.090 2774 223.269 L 2782.500 227.447 2790.104 234.974 L 2797.708 242.500 2801.888 251 L 2806.067 259.500 2808.132 269.500 L 2810.197 279.500 2809.694 295 L 2809.190 310.500 2807.027 317.984 L 2804.863 325.467 2801.293 332.262 L 2797.723 339.056 2791.296 345.998 L 2784.868 352.940 2777.672 357.425 L 2770.475 361.911 2763.898 364.386 L 2757.320 366.862 2750.910 368.524 L 2744.500 370.185 2739 371.230 L 2733.500 372.274 2709.500 372.887 L 2685.500 373.500 2685.242 432.338 L 2684.984 491.177 2738.180 567.838 L 2791.376 644.500 2809.253 670.250 L 2827.130 696 2899.565 696 L 2972 696 2972 695.468 L 2972 694.935 2940.250 649.812 L 2908.500 604.690 2902.500 596.013 L 2896.500 587.336 2856 529.654 L 2815.500 471.971 2815.500 470.922 L 2815.500 469.873 2825 465.899 L 2834.500 461.925 2843.500 456.925 L 2852.500 451.924 2862 445.212 L 2871.500 438.500 2883 426.997 L 2894.500 415.495 2900.165 407.497 L 2905.831 399.500 2911.845 388 L 2917.860 376.500 2921.970 364.521 L 2926.081 352.543 2928.499 340.521 L 2930.916 328.500 2932.097 317.072 L 2933.277 305.643 2932.690 285.572 L 2932.103 265.500 2930.521 255.500 L 2928.939 245.500 2926.948 237 L 2924.958 228.500 2921.333 217.561 L 2917.709 206.622 2911.541 194.543 L 2905.374 182.463 2900.302 174.982 L 2895.231 167.500 2888.176 159.380 L 2881.120 151.260 2871.810 143.447 L 2862.500 135.633 2854.287 130.278 L 2846.074 124.922 2833.787 119.033 L 2821.500 113.144 2811 109.605 L 2800.500 106.067 2788.500 103.464 L 2776.500 100.862 2765.500 99.259 L 2754.500 97.656 2630.250 97.281 L 2506 96.906 2506 396.453 M 3614 396.500 L 3614 696 3732.855 696 L 3851.710 696 3864.605 694.997 L 3877.500 693.994 3888.500 692.441 L 3899.500 690.887 3910.500 688.391 L 3921.500 685.894 3931.862 682.377 L 3942.225 678.859 3950.362 675.289 L 3958.500 671.719 3967.416 666.702 L 3976.332 661.686 3986.040 654.373 L 3995.748 647.060 4004.945 637.341 L 4014.143 627.623 4020.559 617.984 L 4026.976 608.346 4031.887 597.923 L 4036.797 587.500 4039.851 577.500 L 4042.906 567.500 4044.418 559.959 L 4045.931 552.419 4046.957 543.459 L 4047.984 534.500 4047.972 520.500 L 4047.961 506.500 4046.545 495.864 L 4045.129 485.227 4043.134 476.864 L 4041.139 468.500 4037.953 459.500 L 4034.768 450.500 4030.476 441.953 L 4026.184 433.406 4019.906 423.953 L 4013.629 414.500 4001.564 402.448 L 3989.500 390.395 3979.306 383.554 L 3969.113 376.713 3977.623 368.043 L 3986.133 359.373 3991.971 351.206 L 3997.809 343.039 4003.407 332.095 L 4009.005 321.151 4012.445 310.825 L 4015.885 300.500 4018.015 290.500 L 4020.144 280.500 4020.701 262.955 L 4021.259 245.409 4020.098 235.455 L 4018.937 225.500 4017.479 218.551 L 4016.021 211.603 4013.428 203.551 L 4010.834 195.500 4006.891 187.056 L 4002.948 178.612 3996.300 168.626 L 3989.652 158.640 3979.851 148.901 L 3970.050 139.161 3960.817 132.985 L 3951.584 126.810 3941.780 121.890 L 3931.977 116.970 3924.238 113.892 L 3916.500 110.815 3904.236 107.450 L 3891.972 104.086 3876.736 101.586 L 3861.500 99.087 3847.443 98.043 L 3833.387 97 3723.693 97 L 3614 97 3614 396.500 M 4209.500 102.031 L 4194.500 106.923 4149.750 121.171 L 4105 135.419 4105 415.710 L 4105 696 4165 696 L 4225 696 4225 396.500 L 4225 97 4224.750 97.069 L 4224.500 97.138 4209.500 102.031 M 4311 396.508 L 4311 696.016 4371.250 695.758 L 4431.500 695.500 4431.753 509.069 L 4432.005 322.637 4436.997 329.569 L 4441.989 336.500 4446.171 342.500 L 4450.353 348.500 4545.855 483 L 4641.358 617.500 4669.066 656.500 L 4696.774 695.500 4751.387 695.759 L 4806 696.017 4806 396.509 L 4806 97 4746 97 L 4686 97 4686 285 L 4686 473 4685.250 472.986 L 4684.500 472.971 4565 304.508 L 4445.500 136.045 4431.636 116.522 L 4417.772 97 4364.386 97 L 4311 97 4311 396.508 M 3232 100.033 L 3218.500 100.688 3211 101.885 L 3203.500 103.081 3197.500 104.045 L 3191.500 105.008 3186 106.129 L 3180.500 107.249 3173.500 109.143 L 3166.500 111.037 3159.500 113.176 L 3152.500 115.315 3147 117.280 L 3141.500 119.245 3138.846 120.622 L 3136.191 122 3135.054 122 L 3133.917 122 3127.208 125.099 L 3120.500 128.197 3114 131.510 L 3107.500 134.822 3103 137.411 L 3098.500 140 3095.500 141.528 L 3092.500 143.056 3086.878 146.778 L 3081.255 150.500 3078.378 152.472 L 3075.500 154.445 3065.500 161.939 L 3055.500 169.434 3052.027 172.467 L 3048.554 175.500 3036.017 188 L 3023.480 200.500 3017.998 206.806 L 3012.516 213.113 3011.573 214.806 L 3010.630 216.500 3005.986 222.500 L 3001.342 228.500 2995.421 237.474 L 2989.500 246.448 2988.407 248.474 L 2987.314 250.500 2985.025 254.500 L 2982.737 258.500 2978.982 266 L 2975.227 273.500 2972.614 279.096 L 2970 284.693 2970 285.487 L 2970 286.281 2968.123 290.390 L 2966.246 294.500 2964.281 300 L 2962.315 305.500 2960.176 312.500 L 2958.037 319.500 2956.143 326.500 L 2954.249 333.500 2953.106 339 L 2951.964 344.500 2950.461 355 L 2948.958 365.500 2947.987 371.500 L 2947.015 377.500 2947.008 401.956 L 2947 426.413 2948.466 435.956 L 2949.931 445.500 2950.972 452.500 L 2952.013 459.500 2953.934 468 L 2955.854 476.500 2957.855 483.500 L 2959.856 490.500 2961.400 495.500 L 2962.945 500.500 2965.065 506.500 L 2967.184 512.500 2967.969 513.500 L 2968.755 514.500 2969.476 517 L 2970.198 519.500 2972.715 525 L 2975.233 530.500 2978.515 537 L 2981.797 543.500 2984.397 548 L 2986.998 552.500 2988.249 555.015 L 2989.500 557.530 2995.487 566.515 L 3001.473 575.500 3008.987 585.506 L 3016.500 595.513 3020 599.480 L 3023.500 603.448 3035.500 615.474 L 3047.500 627.500 3052.500 631.703 L 3057.500 635.905 3065.500 642.058 L 3073.500 648.211 3083.500 654.837 L 3093.500 661.464 3096.222 662.982 L 3098.943 664.500 3116.235 673.250 L 3133.527 682 3134.859 682 L 3136.191 682 3138.846 683.378 L 3141.500 684.755 3147 686.720 L 3152.500 688.685 3159.500 690.773 L 3166.500 692.860 3173.500 694.817 L 3180.500 696.773 3186 697.893 L 3191.500 699.013 3198.500 700.050 L 3205.500 701.087 3215.454 702.655 L 3225.408 704.224 3249.570 704.211 L 3273.732 704.199 3283.616 702.614 L 3293.500 701.029 3300.500 700.014 L 3307.500 698.999 3313 697.886 L 3318.500 696.773 3325.500 694.817 L 3332.500 692.860 3339.500 690.773 L 3346.500 688.685 3352 686.679 L 3357.500 684.674 3361.566 682.837 L 3365.631 681 3366.508 681 L 3367.384 681 3383.730 672.750 L 3400.076 664.500 3402.788 662.990 L 3405.500 661.481 3414.500 655.538 L 3423.500 649.595 3433.440 642.047 L 3443.380 634.500 3448.940 629.521 L 3454.500 624.542 3465 613.969 L 3475.500 603.396 3478.517 599.948 L 3481.534 596.500 3489.570 586 L 3497.607 575.500 3503.544 566.500 L 3509.481 557.500 3510.990 554.788 L 3512.500 552.076 3520.750 535.730 L 3529 519.384 3529 518.508 L 3529 517.631 3530.837 513.566 L 3532.674 509.500 3534.679 504 L 3536.685 498.500 3538.760 491.500 L 3540.834 484.500 3542.424 479 L 3544.014 473.500 3545.517 466.500 L 3547.019 459.500 3548.077 452 L 3549.134 444.500 3550.567 435.376 L 3552 426.252 3552 402 L 3552 377.748 3550.567 368.624 L 3549.134 359.500 3548.077 352 L 3547.019 344.500 3545.517 337.500 L 3544.014 330.500 3542.424 325 L 3540.834 319.500 3538.760 312.500 L 3536.685 305.500 3534.719 300 L 3532.754 294.500 3530.877 290.390 L 3529 286.281 3529.011 285.390 L 3529.022 284.500 3520.761 268.236 L 3512.500 251.973 3510.990 249.236 L 3509.481 246.500 3503.504 237.500 L 3497.527 228.500 3490.013 218.494 L 3482.500 208.487 3479 204.520 L 3475.500 200.552 3463.500 188.526 L 3451.500 176.500 3446.500 172.309 L 3441.500 168.118 3434 162.362 L 3426.500 156.607 3416 149.549 L 3405.500 142.491 3403 141.233 L 3400.500 139.975 3396.500 137.697 L 3392.500 135.420 3388.500 133.268 L 3384.500 131.116 3374.870 126.558 L 3365.240 122 3364.024 122 L 3362.809 122 3360.154 120.622 L 3357.500 119.245 3352 117.280 L 3346.500 115.315 3339.500 113.176 L 3332.500 111.037 3325.500 109.143 L 3318.500 107.249 3313 106.129 L 3307.500 105.008 3301 103.984 L 3294.500 102.959 3284 101.513 L 3273.500 100.067 3259.500 99.722 L 3245.500 99.377 3232 100.033 M 3266.625 146.799 L 3266.131 147.597 3272.315 158.387 L 3278.500 169.176 3280.699 172.838 L 3282.897 176.500 3283.931 178.500 L 3284.965 180.500 3287.489 184.500 L 3290.013 188.500 3291.575 191.500 L 3293.137 194.500 3295.528 198.500 L 3297.919 202.500 3299.457 205.500 L 3300.996 208.500 3302.973 211.500 L 3304.951 214.500 3306.725 217.756 L 3308.500 221.012 3335.500 267.592 L 3362.500 314.172 3364.647 317.836 L 3366.794 321.500 3368.973 325.722 L 3371.151 329.944 3373.374 333.222 L 3375.597 336.500 3376.277 338 L 3376.958 339.500 3379.485 343.500 L 3382.013 347.500 3383.520 350.750 L 3385.027 354 3387.427 354 L 3389.828 354 3399.164 337.983 L 3408.500 321.965 3410.743 318.233 L 3412.986 314.500 3414.525 311.500 L 3416.064 308.500 3417.782 305.820 L 3419.500 303.141 3427.500 289.448 L 3435.500 275.755 3437.681 272.128 L 3439.863 268.500 3441.429 265.500 L 3442.996 262.500 3444.987 259.500 L 3446.979 256.500 3448.200 254 L 3449.420 251.500 3451.113 249.238 L 3452.807 246.976 3452.244 244.738 L 3451.682 242.500 3444.632 234.500 L 3437.582 226.500 3432.952 222 L 3428.322 217.500 3422.911 212.439 L 3417.500 207.377 3408 199.869 L 3398.500 192.361 3390 186.812 L 3381.500 181.262 3375 177.703 L 3368.500 174.143 3363.500 171.701 L 3358.500 169.259 3354 167.214 L 3349.500 165.169 3344.500 163.222 L 3339.500 161.274 3334 159.277 L 3328.500 157.280 3321.500 155.264 L 3314.500 153.248 3310 152.086 L 3305.500 150.924 3296 149.422 L 3286.500 147.921 3283 146.966 L 3279.500 146.011 3273.309 146.006 L 3267.118 146 3266.625 146.799 M 3207.500 148.058 L 3203.500 148.875 3198 149.888 L 3192.500 150.901 3186.500 152.312 L 3180.500 153.724 3175 155.531 L 3169.500 157.338 3164 159.306 L 3158.500 161.274 3153.500 163.222 L 3148.500 165.169 3144.500 166.973 L 3140.500 168.777 3135 171.416 L 3129.500 174.056 3123 177.664 L 3116.500 181.271 3111 184.845 L 3105.500 188.418 3094 196.938 L 3082.500 205.458 3068.410 219.479 L 3054.320 233.500 3046.812 243 L 3039.304 252.500 3037.771 255.665 L 3036.239 258.829 3038.369 259.401 L 3040.500 259.973 3157.168 259.986 L 3273.836 260 3275.418 259.393 L 3277 258.786 3277 257.458 L 3277 256.130 3275.949 253.815 L 3274.897 251.500 3272.489 247.500 L 3270.081 243.500 3268.547 240.500 L 3267.013 237.500 3264.489 233.500 L 3261.965 229.500 3260.931 227.500 L 3259.897 225.500 3257.699 221.794 L 3255.500 218.088 3236.561 185.294 L 3217.623 152.500 3215.561 149.805 L 3213.500 147.111 3212.500 147.175 L 3211.500 147.240 3207.500 148.058 M 1691 271.492 L 1691 332.154 1743.750 331.727 L 1796.500 331.300 1804 329.563 L 1811.500 327.826 1818.394 325.423 L 1825.288 323.021 1829.894 320.329 L 1834.500 317.638 1840.139 312.009 L 1845.779 306.381 1848.904 300.191 L 1852.029 294 1853.600 287.250 L 1855.171 280.500 1855.156 270.500 L 1855.140 260.500 1854.071 255 L 1853.002 249.500 1849.485 242.328 L 1845.968 235.157 1841.099 230.779 L 1836.230 226.401 1830.140 223.155 L 1824.051 219.910 1818.275 217.896 L 1812.500 215.882 1803.500 213.796 L 1794.500 211.710 1742.750 211.270 L 1691 210.830 1691 271.492 M 3734.667 211.667 L 3734 212.333 3734 272.167 L 3734 332 3780.461 332 L 3826.922 332 3837.211 330.888 L 3847.500 329.775 3855.963 327.330 L 3864.426 324.885 3871.295 321.275 L 3878.165 317.665 3883.833 312.059 L 3889.500 306.452 3892.272 301.301 L 3895.044 296.149 3897.022 288.415 L 3899 280.680 3898.985 270.590 L 3898.970 260.500 3897.480 254.176 L 3895.989 247.852 3893.312 242.176 L 3890.636 236.500 3885.287 231.264 L 3879.939 226.028 3871.591 221.987 L 3863.244 217.947 3853.779 215.546 L 3844.315 213.145 3834.697 212.072 L 3825.079 211 3780.206 211 L 3735.333 211 3734.667 211.667 M 3479.393 292.157 L 3477.285 293.178 3475.622 296.339 L 3473.958 299.500 3471.573 303.500 L 3469.188 307.500 3467.594 310.250 L 3466 313 3464.406 315.750 L 3462.812 318.500 3460.656 322.187 L 3458.500 325.875 3447 345.500 L 3435.500 365.125 3433.301 368.813 L 3431.103 372.500 3429.982 374.998 L 3428.861 377.496 3427.531 378.998 L 3426.201 380.500 3423.351 385.667 L 3420.500 390.834 3412.500 404.463 L 3404.500 418.092 3402.725 421.296 L 3400.951 424.500 3398.973 427.500 L 3396.996 430.500 3395.429 433.500 L 3393.863 436.500 3391.681 440.187 L 3389.500 443.875 3378 463.500 L 3366.500 483.125 3364.298 486.813 L 3362.097 490.500 3360.917 492.686 L 3359.737 494.872 3360.337 496.436 L 3360.937 498 3423.814 498 L 3486.690 498 3488.258 496.250 L 3489.826 494.500 3491.940 488.500 L 3494.055 482.500 3495.599 477.500 L 3497.143 472.500 3498.450 466.883 L 3499.757 461.267 3500.833 457.883 L 3501.910 454.500 3502.986 446.500 L 3504.062 438.500 3505.007 434.500 L 3505.952 430.500 3505.978 404.500 L 3506.004 378.500 3504.568 370 L 3503.132 361.500 3502.071 355 L 3501.011 348.500 3499.081 340.500 L 3497.152 332.500 3495.160 326 L 3493.169 319.500 3491.540 315 L 3489.911 310.500 3488.602 307.500 L 3487.293 304.500 3484.497 297.750 L 3481.700 291 3481.600 291.068 L 3481.500 291.135 3479.393 292.157 M 3010.598 307.545 L 3009.053 309.090 3007.929 313.295 L 3006.804 317.500 3006.008 318.500 L 3005.211 319.500 3003.557 325.500 L 3001.903 331.500 2999.879 339 L 2997.854 346.500 2996.870 352.500 L 2995.886 358.500 2994.443 366.270 L 2993 374.041 2993 400.410 L 2993 426.779 2994.422 434.640 L 2995.843 442.500 2996.509 448.371 L 2997.174 454.242 2998.587 458.247 L 3000 462.251 2999.986 464.376 L 2999.971 466.500 3002.125 473.500 L 3004.280 480.500 3006.260 486 L 3008.241 491.500 3010.223 496.500 L 3012.206 501.500 3013.576 504.500 L 3014.947 507.500 3015.897 510.113 L 3016.847 512.727 3018.956 513.278 L 3021.065 513.830 3022.416 511.665 L 3023.767 509.500 3029.446 499.500 L 3035.124 489.500 3036.004 488 L 3036.885 486.500 3065.505 437 L 3094.126 387.500 3095.018 386 L 3095.911 384.500 3102.518 373 L 3109.125 361.500 3110.028 360 L 3110.931 358.500 3114.215 352.661 L 3117.500 346.821 3119.681 343.161 L 3121.863 339.500 3123.458 336.500 L 3125.054 333.500 3126.311 331.500 L 3127.569 329.500 3129.822 325.500 L 3132.075 321.500 3134.486 317.500 L 3136.897 313.500 3137.989 311.078 L 3139.082 308.655 3138.572 307.328 L 3138.063 306 3075.103 306 L 3012.143 306 3010.598 307.545 M 3191.664 309.750 L 3189.302 313.500 3185.901 319.663 L 3182.500 325.826 3167 352.462 L 3151.500 379.098 3149.344 382.799 L 3147.188 386.500 3145.594 389.250 L 3144 392 3142.437 394.980 L 3140.873 397.960 3139.937 398.539 L 3139 399.118 3139 402 L 3139 404.882 3140.062 405.538 L 3141.123 406.194 3142.044 408.347 L 3142.965 410.500 3145.489 414.500 L 3148.013 418.500 3149.575 421.500 L 3151.137 424.500 3153.319 428.183 L 3155.500 431.867 3169 455.020 L 3182.500 478.174 3185.901 484.337 L 3189.302 490.500 3191.664 494.250 L 3194.025 498 3249.935 498 L 3305.845 498 3315.172 481.952 L 3324.500 465.904 3326.702 462.202 L 3328.905 458.500 3329.608 457 L 3330.310 455.500 3331.405 454.131 L 3332.500 452.762 3336 446.477 L 3339.500 440.193 3347.500 426.529 L 3355.500 412.865 3357.771 409.183 L 3360.042 405.500 3360.626 404.257 L 3361.209 403.013 3359.037 398.847 L 3356.866 394.681 3331.335 350.340 L 3305.805 306 3249.915 306 L 3194.025 306 3191.664 309.750 M 1691 512.421 L 1691 581 1749.824 581 L 1808.648 581 1818.074 579.392 L 1827.500 577.785 1835.500 575.290 L 1843.500 572.795 1851.316 568.752 L 1859.131 564.709 1865.067 558.773 L 1871.003 552.837 1874.392 545.668 L 1877.782 538.500 1879.141 533 L 1880.500 527.500 1880.454 515 L 1880.408 502.500 1878.687 496 L 1876.966 489.500 1873.829 483 L 1870.692 476.500 1863.096 468.967 L 1855.500 461.434 1846 456.754 L 1836.500 452.074 1829 450.064 L 1821.500 448.055 1813 446.396 L 1804.500 444.736 1747.750 444.289 L 1691 443.842 1691 512.421 M 3734 512.427 L 3734 581 3793.250 580.999 L 3852.500 580.997 3860.891 579.521 L 3869.283 578.044 3876.891 575.970 L 3884.500 573.897 3893 569.804 L 3901.500 565.710 3908.522 558.605 L 3915.544 551.500 3918.180 546 L 3920.816 540.500 3922.539 534 L 3924.261 527.500 3924.276 516 L 3924.290 504.500 3923.062 498.500 L 3921.835 492.500 3917.969 484.415 L 3914.103 476.331 3909.493 471.203 L 3904.883 466.076 3897.967 461.478 L 3891.052 456.881 3884.776 454.319 L 3878.500 451.756 3872 449.950 L 3865.500 448.143 3856.500 446.400 L 3847.500 444.658 3790.750 444.256 L 3734 443.854 3734 512.427 M 3107.720 453.687 L 3105.335 457.500 3101.418 464.316 L 3097.500 471.133 3096 473.840 L 3094.500 476.546 3090.500 483.371 L 3086.500 490.196 3084.319 493.848 L 3082.137 497.500 3080.571 500.500 L 3079.004 503.500 3077 506.500 L 3074.996 509.500 3073.429 512.500 L 3071.863 515.500 3069.438 519.500 L 3067.014 523.500 3065.438 526.500 L 3063.863 529.500 3061.681 533.153 L 3059.500 536.806 3054.750 544.857 L 3050 552.907 3050 553.831 L 3050 554.755 3048.500 556 L 3047 557.245 3047 559.622 L 3047 562 3047.795 562 L 3048.589 562 3052.244 566.750 L 3055.898 571.500 3063.291 579 L 3070.684 586.500 3076.092 591.589 L 3081.500 596.679 3089.500 603.113 L 3097.500 609.547 3106 615.187 L 3114.500 620.826 3123 625.723 L 3131.500 630.619 3137.500 633.374 L 3143.500 636.129 3146.500 637.528 L 3149.500 638.926 3154.377 640.963 L 3159.254 643 3160.226 643 L 3161.198 643 3164.349 644.493 L 3167.500 645.987 3172.500 647.424 L 3177.500 648.860 3182 650.017 L 3186.500 651.174 3191.609 652.594 L 3196.718 654.013 3204.160 654.957 L 3211.601 655.900 3216.051 656.926 L 3220.500 657.951 3226.750 657.976 L 3233 658 3233 656.745 L 3233 655.489 3226.750 644.684 L 3220.500 633.880 3218.725 630.690 L 3216.951 627.500 3214.973 624.500 L 3212.996 621.500 3211.429 618.500 L 3209.863 615.500 3207.681 611.817 L 3205.500 608.133 3192 585 L 3178.500 561.867 3176.301 558.183 L 3174.103 554.500 3173.069 552.500 L 3172.035 550.500 3169.767 546.817 L 3167.500 543.135 3159.500 529.488 L 3151.500 515.841 3149.319 512.171 L 3147.137 508.500 3145.571 505.500 L 3144.004 502.500 3142.027 499.500 L 3140.049 496.500 3138.064 493 L 3136.079 489.500 3134.496 486.500 L 3132.913 483.500 3123.189 467.010 L 3113.465 450.521 3111.785 450.197 L 3110.105 449.874 3107.720 453.687 M 3222.503 544.996 L 3221.887 545.992 3223.193 548.466 L 3224.500 550.940 3236 570.533 L 3247.500 590.125 3249.699 593.813 L 3251.897 597.500 3252.931 599.500 L 3253.965 601.500 3256.233 605.183 L 3258.500 608.865 3266.500 622.512 L 3274.500 636.159 3276.656 639.829 L 3278.812 643.500 3280.406 646.250 L 3282 649 3283.633 652.121 L 3285.267 655.242 3292.883 654.777 L 3300.500 654.312 3306 652.743 L 3311.500 651.174 3316 650.043 L 3320.500 648.912 3326 647.364 L 3331.500 645.816 3332.500 645.023 L 3333.500 644.231 3337 643.482 L 3340.500 642.733 3343.985 640.867 L 3347.470 639 3348.485 639.003 L 3349.500 639.007 3361 633.354 L 3372.500 627.701 3379.500 623.620 L 3386.500 619.538 3394.500 614.127 L 3402.500 608.716 3410 602.650 L 3417.500 596.585 3422.855 591.543 L 3428.211 586.500 3431.355 583.355 L 3434.500 580.211 3439.561 574.855 L 3444.623 569.500 3452.119 560 L 3459.616 550.500 3461.256 547.865 L 3462.896 545.229 3462.281 544.615 L 3461.667 544 3342.392 544 L 3223.118 544 3222.503 544.996 M 261.564 548.897 L 261.010 549.793 307.819 622.147 L 354.628 694.500 355.564 694.481 L 356.500 694.461 377.297 661.981 L 398.095 629.500 423.601 589.741 L 449.107 549.982 448.495 548.991 L 447.882 548 355 548 L 262.118 548 261.564 548.897" stroke="none" fill="#fef7ec" fill-rule="evenodd"/><path d="M 302.625 97.797 L 302.133 98.594 203.464 359.047 L 104.796 619.500 90.972 656 L 77.148 692.500 76.467 694.250 L 75.786 696 139.444 696 L 203.102 696 204.465 692.738 L 205.828 689.476 279.433 486.988 L 353.038 284.500 353.542 283.107 L 354.047 281.714 354.653 282.320 L 355.260 282.927 430.948 489.213 L 506.635 695.500 570.318 695.757 L 634 696.015 634 695.457 L 634 694.900 550.631 475.700 L 467.262 256.500 436.941 176.750 L 406.620 97 354.869 97 L 303.118 97 302.625 97.797 M 655.248 396.203 L 655.500 695.500 715.748 695.758 L 775.996 696.016 776.248 453.758 L 776.500 211.500 829 211.517 L 881.500 211.535 892 213.341 L 902.500 215.147 911.500 218.191 L 920.500 221.235 927.500 225.276 L 934.500 229.317 941.071 236.051 L 947.641 242.785 951.373 250.439 L 955.106 258.094 957.113 265.797 L 959.119 273.500 959.678 286.500 L 960.236 299.500 958.594 308.889 L 956.952 318.279 954.343 324.889 L 951.733 331.500 947.314 338.214 L 942.894 344.928 936.697 350.555 L 930.500 356.183 920.500 361.051 L 910.500 365.919 903 367.949 L 895.500 369.979 885.500 371.484 L 875.500 372.988 856.332 372.994 L 837.164 373 835.582 373.607 L 834 374.214 834 432.234 L 834 490.254 842.834 502.877 L 851.669 515.500 912.944 604 L 974.218 692.500 975.894 694.257 L 977.569 696.013 1049.864 695.757 L 1122.159 695.500 1112.292 681.500 L 1102.425 667.500 1034.224 570.361 L 966.022 473.221 965.388 471.570 L 964.755 469.919 968.127 468.722 L 971.500 467.525 986.038 460.333 L 1000.575 453.140 1008.710 447.320 L 1016.844 441.500 1025.397 434.152 L 1033.950 426.804 1040.843 418.652 L 1047.737 410.500 1052.798 402.931 L 1057.860 395.361 1062.510 386.087 L 1067.160 376.812 1069.678 370.156 L 1072.196 363.500 1074.051 357.500 L 1075.906 351.500 1078.406 339 L 1080.906 326.500 1082.080 313.500 L 1083.254 300.500 1082.617 284.500 L 1081.980 268.500 1080.548 258.490 L 1079.116 248.479 1077.470 240.490 L 1075.824 232.500 1071.548 219.500 L 1067.272 206.500 1061.734 195.462 L 1056.196 184.424 1050.150 175.462 L 1044.105 166.500 1038.302 159.916 L 1032.500 153.332 1025.500 147.008 L 1018.500 140.684 1011.500 135.529 L 1004.500 130.375 998.280 126.633 L 992.059 122.891 982.622 118.481 L 973.185 114.071 961.843 110.162 L 950.500 106.252 938.500 103.544 L 926.500 100.835 915 99.246 L 903.500 97.658 779.248 97.282 L 654.997 96.906 655.248 396.203 M 1086 154 L 1086 211 1165.918 211 L 1245.836 211 1247.418 211.607 L 1249 212.214 1249 454.107 L 1249 696 1309 696 L 1369 696 1369 454.700 L 1369 213.400 1370.200 212.200 L 1371.400 211 1452.700 211 L 1534 211 1534 154 L 1534 97 1310 97 L 1086 97 1086 154 M 1570 396.497 L 1570 696.092 1697.750 695.719 L 1825.500 695.346 1837.500 693.693 L 1849.500 692.041 1857.320 690.524 L 1865.139 689.007 1872.936 687.016 L 1880.733 685.026 1891.116 681.434 L 1901.500 677.842 1912.500 672.514 L 1923.500 667.185 1934.500 659.926 L 1945.500 652.667 1958.079 640.083 L 1970.657 627.500 1976.818 618.091 L 1982.978 608.683 1987.407 599.591 L 1991.837 590.500 1995.355 579.926 L 1998.872 569.352 2000.965 558.412 L 2003.058 547.472 2003.812 534.486 L 2004.566 521.500 2003.841 508.796 L 2003.117 496.092 2001.427 486.796 L 1999.736 477.500 1996.923 467.968 L 1994.111 458.436 1990.494 449.968 L 1986.878 441.500 1982.228 433.551 L 1977.577 425.603 1971.958 418.051 L 1966.339 410.500 1958.903 402.919 L 1951.468 395.339 1940.984 387.535 L 1930.500 379.731 1928.250 378.705 L 1926 377.679 1926 376.375 L 1926 375.070 1927.965 374.019 L 1929.931 372.967 1938.536 363.233 L 1947.142 353.500 1952.463 344.935 L 1957.785 336.369 1960.768 330.435 L 1963.752 324.500 1967.283 315 L 1970.815 305.500 1973.370 294 L 1975.925 282.500 1976.963 269.596 L 1978.001 256.693 1976.994 243.422 L 1975.987 230.151 1974.413 221.826 L 1972.839 213.500 1969.442 203 L 1966.046 192.500 1961.947 184.500 L 1957.849 176.500 1952.248 168.081 L 1946.648 159.662 1937.574 150.500 L 1928.500 141.337 1922.500 136.809 L 1916.500 132.280 1905.795 126.119 L 1895.090 119.957 1883.795 115.413 L 1872.500 110.870 1860.246 107.413 L 1847.991 103.956 1836.246 101.975 L 1824.500 99.995 1815.500 98.847 L 1806.500 97.699 1688.250 97.300 L 1570 96.902 1570 396.497 M 1968.409 98.624 L 1969.037 100.261 2040.208 216.380 L 2111.379 332.500 2119.010 345 L 2126.641 357.500 2149.817 395.255 L 2172.993 433.011 2173.246 564.255 L 2173.500 695.500 2233.500 695.500 L 2293.500 695.500 2293.754 564.135 L 2294.007 432.771 2344.154 351.635 L 2394.300 270.500 2397.504 265.500 L 2400.708 260.500 2450.854 179.279 L 2501 98.058 2501 97.522 L 2501 96.987 2430.300 97.243 L 2359.601 97.500 2297.051 201.750 L 2234.501 306 2233.547 305.682 L 2232.594 305.365 2169.950 201.432 L 2107.306 97.500 2037.543 97.243 L 1967.781 96.986 1968.409 98.624 M 2506 396.453 L 2506 696 2566 696 L 2626 696 2626 454.019 L 2626 212.038 2628.481 211.415 L 2630.962 210.793 2682.231 211.285 L 2733.500 211.777 2740.880 212.959 L 2748.259 214.140 2756.880 216.615 L 2765.500 219.090 2774 223.269 L 2782.500 227.447 2790.104 234.974 L 2797.708 242.500 2801.888 251 L 2806.067 259.500 2808.132 269.500 L 2810.197 279.500 2809.694 295 L 2809.190 310.500 2807.027 317.984 L 2804.863 325.467 2801.293 332.262 L 2797.723 339.056 2791.296 345.998 L 2784.868 352.940 2777.672 357.425 L 2770.475 361.911 2763.898 364.386 L 2757.320 366.862 2750.910 368.524 L 2744.500 370.185 2739 371.230 L 2733.500 372.274 2709.500 372.887 L 2685.500 373.500 2685.242 432.338 L 2684.984 491.177 2738.180 567.838 L 2791.376 644.500 2809.253 670.250 L 2827.130 696 2899.565 696 L 2972 696 2972 695.468 L 2972 694.935 2940.250 649.812 L 2908.500 604.690 2902.500 596.013 L 2896.500 587.336 2856 529.654 L 2815.500 471.971 2815.500 470.922 L 2815.500 469.873 2825 465.899 L 2834.500 461.925 2843.500 456.925 L 2852.500 451.924 2862 445.212 L 2871.500 438.500 2883 426.997 L 2894.500 415.495 2900.165 407.497 L 2905.831 399.500 2911.845 388 L 2917.860 376.500 2921.970 364.521 L 2926.081 352.543 2928.499 340.521 L 2930.916 328.500 2932.097 317.072 L 2933.277 305.643 2932.690 285.572 L 2932.103 265.500 2930.521 255.500 L 2928.939 245.500 2926.948 237 L 2924.958 228.500 2921.333 217.561 L 2917.709 206.622 2911.541 194.543 L 2905.374 182.463 2900.302 174.982 L 2895.231 167.500 2888.176 159.380 L 2881.120 151.260 2871.810 143.447 L 2862.500 135.633 2854.287 130.278 L 2846.074 124.922 2833.787 119.033 L 2821.500 113.144 2811 109.605 L 2800.500 106.067 2788.500 103.464 L 2776.500 100.862 2765.500 99.259 L 2754.500 97.656 2630.250 97.281 L 2506 96.906 2506 396.453 M 3614 396.500 L 3614 696 3732.855 696 L 3851.710 696 3864.605 694.997 L 3877.500 693.994 3888.500 692.441 L 3899.500 690.887 3910.500 688.391 L 3921.500 685.894 3931.862 682.377 L 3942.225 678.859 3950.362 675.289 L 3958.500 671.719 3967.416 666.702 L 3976.332 661.686 3986.040 654.373 L 3995.748 647.060 4004.945 637.341 L 4014.143 627.623 4020.559 617.984 L 4026.976 608.346 4031.887 597.923 L 4036.797 587.500 4039.851 577.500 L 4042.906 567.500 4044.418 559.959 L 4045.931 552.419 4046.957 543.459 L 4047.984 534.500 4047.972 520.500 L 4047.961 506.500 4046.545 495.864 L 4045.129 485.227 4043.134 476.864 L 4041.139 468.500 4037.953 459.500 L 4034.768 450.500 4030.476 441.953 L 4026.184 433.406 4019.906 423.953 L 4013.629 414.500 4001.564 402.448 L 3989.500 390.395 3979.306 383.554 L 3969.113 376.713 3977.623 368.043 L 3986.133 359.373 3991.971 351.206 L 3997.809 343.039 4003.407 332.095 L 4009.005 321.151 4012.445 310.825 L 4015.885 300.500 4018.015 290.500 L 4020.144 280.500 4020.701 262.955 L 4021.259 245.409 4020.098 235.455 L 4018.937 225.500 4017.479 218.551 L 4016.021 211.603 4013.428 203.551 L 4010.834 195.500 4006.891 187.056 L 4002.948 178.612 3996.300 168.626 L 3989.652 158.640 3979.851 148.901 L 3970.050 139.161 3960.817 132.985 L 3951.584 126.810 3941.780 121.890 L 3931.977 116.970 3924.238 113.892 L 3916.500 110.815 3904.236 107.450 L 3891.972 104.086 3876.736 101.586 L 3861.500 99.087 3847.443 98.043 L 3833.387 97 3723.693 97 L 3614 97 3614 396.500 M 4209.500 102.031 L 4194.500 106.923 4149.750 121.171 L 4105 135.419 4105 415.710 L 4105 696 4165 696 L 4225 696 4225 396.500 L 4225 97 4224.750 97.069 L 4224.500 97.138 4209.500 102.031 M 4311 396.508 L 4311 696.016 4371.250 695.758 L 4431.500 695.500 4431.753 509.069 L 4432.005 322.637 4436.997 329.569 L 4441.989 336.500 4446.171 342.500 L 4450.353 348.500 4545.855 483 L 4641.358 617.500 4669.066 656.500 L 4696.774 695.500 4751.387 695.759 L 4806 696.017 4806 396.509 L 4806 97 4746 97 L 4686 97 4686 285 L 4686 473 4685.250 472.986 L 4684.500 472.971 4565 304.508 L 4445.500 136.045 4431.636 116.522 L 4417.772 97 4364.386 97 L 4311 97 4311 396.508 M 3232 100.033 L 3218.500 100.688 3211 101.885 L 3203.500 103.081 3197.500 104.045 L 3191.500 105.008 3186 106.129 L 3180.500 107.249 3173.500 109.143 L 3166.500 111.037 3159.500 113.176 L 3152.500 115.315 3147 117.280 L 3141.500 119.245 3138.846 120.622 L 3136.191 122 3135.054 122 L 3133.917 122 3127.208 125.099 L 3120.500 128.197 3114 131.510 L 3107.500 134.822 3103 137.411 L 3098.500 140 3095.500 141.528 L 3092.500 143.056 3086.878 146.778 L 3081.255 150.500 3078.378 152.472 L 3075.500 154.445 3065.500 161.939 L 3055.500 169.434 3052.027 172.467 L 3048.554 175.500 3036.017 188 L 3023.480 200.500 3017.998 206.806 L 3012.516 213.113 3011.573 214.806 L 3010.630 216.500 3005.986 222.500 L 3001.342 228.500 2995.421 237.474 L 2989.500 246.448 2988.407 248.474 L 2987.314 250.500 2985.025 254.500 L 2982.737 258.500 2978.982 266 L 2975.227 273.500 2972.614 279.096 L 2970 284.693 2970 285.487 L 2970 286.281 2968.123 290.390 L 2966.246 294.500 2964.281 300 L 2962.315 305.500 2960.176 312.500 L 2958.037 319.500 2956.143 326.500 L 2954.249 333.500 2953.106 339 L 2951.964 344.500 2950.461 355 L 2948.958 365.500 2947.987 371.500 L 2947.015 377.500 2947.008 401.956 L 2947 426.413 2948.466 435.956 L 2949.931 445.500 2950.972 452.500 L 2952.013 459.500 2953.934 468 L 2955.854 476.500 2957.855 483.500 L 2959.856 490.500 2961.400 495.500 L 2962.945 500.500 2965.065 506.500 L 2967.184 512.500 2967.969 513.500 L 2968.755 514.500 2969.476 517 L 2970.198 519.500 2972.715 525 L 2975.233 530.500 2978.515 537 L 2981.797 543.500 2984.397 548 L 2986.998 552.500 2988.249 555.015 L 2989.500 557.530 2995.487 566.515 L 3001.473 575.500 3008.987 585.506 L 3016.500 595.513 3020 599.480 L 3023.500 603.448 3035.500 615.474 L 3047.500 627.500 3052.500 631.703 L 3057.500 635.905 3065.500 642.058 L 3073.500 648.211 3083.500 654.837 L 3093.500 661.464 3096.222 662.982 L 3098.943 664.500 3116.235 673.250 L 3133.527 682 3134.859 682 L 3136.191 682 3138.846 683.378 L 3141.500 684.755 3147 686.720 L 3152.500 688.685 3159.500 690.773 L 3166.500 692.860 3173.500 694.817 L 3180.500 696.773 3186 697.893 L 3191.500 699.013 3198.500 700.050 L 3205.500 701.087 3215.454 702.655 L 3225.408 704.224 3249.570 704.211 L 3273.732 704.199 3283.616 702.614 L 3293.500 701.029 3300.500 700.014 L 3307.500 698.999 3313 697.886 L 3318.500 696.773 3325.500 694.817 L 3332.500 692.860 3339.500 690.773 L 3346.500 688.685 3352 686.679 L 3357.500 684.674 3361.566 682.837 L 3365.631 681 3366.508 681 L 3367.384 681 3383.730 672.750 L 3400.076 664.500 3402.788 662.990 L 3405.500 661.481 3414.500 655.538 L 3423.500 649.595 3433.440 642.047 L 3443.380 634.500 3448.940 629.521 L 3454.500 624.542 3465 613.969 L 3475.500 603.396 3478.517 599.948 L 3481.534 596.500 3489.570 586 L 3497.607 575.500 3503.544 566.500 L 3509.481 557.500 3510.990 554.788 L 3512.500 552.076 3520.750 535.730 L 3529 519.384 3529 518.508 L 3529 517.631 3530.837 513.566 L 3532.674 509.500 3534.679 504 L 3536.685 498.500 3538.760 491.500 L 3540.834 484.500 3542.424 479 L 3544.014 473.500 3545.517 466.500 L 3547.019 459.500 3548.077 452 L 3549.134 444.500 3550.567 435.376 L 3552 426.252 3552 402 L 3552 377.748 3550.567 368.624 L 3549.134 359.500 3548.077 352 L 3547.019 344.500 3545.517 337.500 L 3544.014 330.500 3542.424 325 L 3540.834 319.500 3538.760 312.500 L 3536.685 305.500 3534.719 300 L 3532.754 294.500 3530.877 290.390 L 3529 286.281 3529.011 285.390 L 3529.022 284.500 3520.761 268.236 L 3512.500 251.973 3510.990 249.236 L 3509.481 246.500 3503.504 237.500 L 3497.527 228.500 3490.013 218.494 L 3482.500 208.487 3479 204.520 L 3475.500 200.552 3463.500 188.526 L 3451.500 176.500 3446.500 172.309 L 3441.500 168.118 3434 162.362 L 3426.500 156.607 3416 149.549 L 3405.500 142.491 3403 141.233 L 3400.500 139.975 3396.500 137.697 L 3392.500 135.420 3388.500 133.268 L 3384.500 131.116 3374.870 126.558 L 3365.240 122 3364.024 122 L 3362.809 122 3360.154 120.622 L 3357.500 119.245 3352 117.280 L 3346.500 115.315 3339.500 113.176 L 3332.500 111.037 3325.500 109.143 L 3318.500 107.249 3313 106.129 L 3307.500 105.008 3301 103.984 L 3294.500 102.959 3284 101.513 L 3273.500 100.067 3259.500 99.722 L 3245.500 99.377 3232 100.033 M 3266.625 146.799 L 3266.131 147.597 3272.315 158.387 L 3278.500 169.176 3280.699 172.838 L 3282.897 176.500 3283.931 178.500 L 3284.965 180.500 3287.489 184.500 L 3290.013 188.500 3291.575 191.500 L 3293.137 194.500 3295.528 198.500 L 3297.919 202.500 3299.457 205.500 L 3300.996 208.500 3302.973 211.500 L 3304.951 214.500 3306.725 217.756 L 3308.500 221.012 3335.500 267.592 L 3362.500 314.172 3364.647 317.836 L 3366.794 321.500 3368.973 325.722 L 3371.151 329.944 3373.374 333.222 L 3375.597 336.500 3376.277 338 L 3376.958 339.500 3379.485 343.500 L 3382.013 347.500 3383.520 350.750 L 3385.027 354 3387.427 354 L 3389.828 354 3399.164 337.983 L 3408.500 321.965 3410.743 318.233 L 3412.986 314.500 3414.525 311.500 L 3416.064 308.500 3417.782 305.820 L 3419.500 303.141 3427.500 289.448 L 3435.500 275.755 3437.681 272.128 L 3439.863 268.500 3441.429 265.500 L 3442.996 262.500 3444.987 259.500 L 3446.979 256.500 3448.200 254 L 3449.420 251.500 3451.113 249.238 L 3452.807 246.976 3452.244 244.738 L 3451.682 242.500 3444.632 234.500 L 3437.582 226.500 3432.952 222 L 3428.322 217.500 3422.911 212.439 L 3417.500 207.377 3408 199.869 L 3398.500 192.361 3390 186.812 L 3381.500 181.262 3375 177.703 L 3368.500 174.143 3363.500 171.701 L 3358.500 169.259 3354 167.214 L 3349.500 165.169 3344.500 163.222 L 3339.500 161.274 3334 159.277 L 3328.500 157.280 3321.500 155.264 L 3314.500 153.248 3310 152.086 L 3305.500 150.924 3296 149.422 L 3286.500 147.921 3283 146.966 L 3279.500 146.011 3273.309 146.006 L 3267.118 146 3266.625 146.799 M 3207.500 148.058 L 3203.500 148.875 3198 149.888 L 3192.500 150.901 3186.500 152.312 L 3180.500 153.724 3175 155.531 L 3169.500 157.338 3164 159.306 L 3158.500 161.274 3153.500 163.222 L 3148.500 165.169 3144.500 166.973 L 3140.500 168.777 3135 171.416 L 3129.500 174.056 3123 177.664 L 3116.500 181.271 3111 184.845 L 3105.500 188.418 3094 196.938 L 3082.500 205.458 3068.410 219.479 L 3054.320 233.500 3046.812 243 L 3039.304 252.500 3037.771 255.665 L 3036.239 258.829 3038.369 259.401 L 3040.500 259.973 3157.168 259.986 L 3273.836 260 3275.418 259.393 L 3277 258.786 3277 257.458 L 3277 256.130 3275.949 253.815 L 3274.897 251.500 3272.489 247.500 L 3270.081 243.500 3268.547 240.500 L 3267.013 237.500 3264.489 233.500 L 3261.965 229.500 3260.931 227.500 L 3259.897 225.500 3257.699 221.794 L 3255.500 218.088 3236.561 185.294 L 3217.623 152.500 3215.561 149.805 L 3213.500 147.111 3212.500 147.175 L 3211.500 147.240 3207.500 148.058 M 1691 271.492 L 1691 332.154 1743.750 331.727 L 1796.500 331.300 1804 329.563 L 1811.500 327.826 1818.394 325.423 L 1825.288 323.021 1829.894 320.329 L 1834.500 317.638 1840.139 312.009 L 1845.779 306.381 1848.904 300.191 L 1852.029 294 1853.600 287.250 L 1855.171 280.500 1855.156 270.500 L 1855.140 260.500 1854.071 255 L 1853.002 249.500 1849.485 242.328 L 1845.968 235.157 1841.099 230.779 L 1836.230 226.401 1830.140 223.155 L 1824.051 219.910 1818.275 217.896 L 1812.500 215.882 1803.500 213.796 L 1794.500 211.710 1742.750 211.270 L 1691 210.830 1691 271.492 M 3734.667 211.667 L 3734 212.333 3734 272.167 L 3734 332 3780.461 332 L 3826.922 332 3837.211 330.888 L 3847.500 329.775 3855.963 327.330 L 3864.426 324.885 3871.295 321.275 L 3878.165 317.665 3883.833 312.059 L 3889.500 306.452 3892.272 301.301 L 3895.044 296.149 3897.022 288.415 L 3899 280.680 3898.985 270.590 L 3898.970 260.500 3897.480 254.176 L 3895.989 247.852 3893.312 242.176 L 3890.636 236.500 3885.287 231.264 L 3879.939 226.028 3871.591 221.987 L 3863.244 217.947 3853.779 215.546 L 3844.315 213.145 3834.697 212.072 L 3825.079 211 3780.206 211 L 3735.333 211 3734.667 211.667 M 3479.393 292.157 L 3477.285 293.178 3475.622 296.339 L 3473.958 299.500 3471.573 303.500 L 3469.188 307.500 3467.594 310.250 L 3466 313 3464.406 315.750 L 3462.812 318.500 3460.656 322.187 L 3458.500 325.875 3447 345.500 L 3435.500 365.125 3433.301 368.813 L 3431.103 372.500 3429.982 374.998 L 3428.861 377.496 3427.531 378.998 L 3426.201 380.500 3423.351 385.667 L 3420.500 390.834 3412.500 404.463 L 3404.500 418.092 3402.725 421.296 L 3400.951 424.500 3398.973 427.500 L 3396.996 430.500 3395.429 433.500 L 3393.863 436.500 3391.681 440.187 L 3389.500 443.875 3378 463.500 L 3366.500 483.125 3364.298 486.813 L 3362.097 490.500 3360.917 492.686 L 3359.737 494.872 3360.337 496.436 L 3360.937 498 3423.814 498 L 3486.690 498 3488.258 496.250 L 3489.826 494.500 3491.940 488.500 L 3494.055 482.500 3495.599 477.500 L 3497.143 472.500 3498.450 466.883 L 3499.757 461.267 3500.833 457.883 L 3501.910 454.500 3502.986 446.500 L 3504.062 438.500 3505.007 434.500 L 3505.952 430.500 3505.978 404.500 L 3506.004 378.500 3504.568 370 L 3503.132 361.500 3502.071 355 L 3501.011 348.500 3499.081 340.500 L 3497.152 332.500 3495.160 326 L 3493.169 319.500 3491.540 315 L 3489.911 310.500 3488.602 307.500 L 3487.293 304.500 3484.497 297.750 L 3481.700 291 3481.600 291.068 L 3481.500 291.135 3479.393 292.157 M 3010.598 307.545 L 3009.053 309.090 3007.929 313.295 L 3006.804 317.500 3006.008 318.500 L 3005.211 319.500 3003.557 325.500 L 3001.903 331.500 2999.879 339 L 2997.854 346.500 2996.870 352.500 L 2995.886 358.500 2994.443 366.270 L 2993 374.041 2993 400.410 L 2993 426.779 2994.422 434.640 L 2995.843 442.500 2996.509 448.371 L 2997.174 454.242 2998.587 458.247 L 3000 462.251 2999.986 464.376 L 2999.971 466.500 3002.125 473.500 L 3004.280 480.500 3006.260 486 L 3008.241 491.500 3010.223 496.500 L 3012.206 501.500 3013.576 504.500 L 3014.947 507.500 3015.897 510.113 L 3016.847 512.727 3018.956 513.278 L 3021.065 513.830 3022.416 511.665 L 3023.767 509.500 3029.446 499.500 L 3035.124 489.500 3036.004 488 L 3036.885 486.500 3065.505 437 L 3094.126 387.500 3095.018 386 L 3095.911 384.500 3102.518 373 L 3109.125 361.500 3110.028 360 L 3110.931 358.500 3114.215 352.661 L 3117.500 346.821 3119.681 343.161 L 3121.863 339.500 3123.458 336.500 L 3125.054 333.500 3126.311 331.500 L 3127.569 329.500 3129.822 325.500 L 3132.075 321.500 3134.486 317.500 L 3136.897 313.500 3137.989 311.078 L 3139.082 308.655 3138.572 307.328 L 3138.063 306 3075.103 306 L 3012.143 306 3010.598 307.545 M 3191.664 309.750 L 3189.302 313.500 3185.901 319.663 L 3182.500 325.826 3167 352.462 L 3151.500 379.098 3149.344 382.799 L 3147.188 386.500 3145.594 389.250 L 3144 392 3142.437 394.980 L 3140.873 397.960 3139.937 398.539 L 3139 399.118 3139 402 L 3139 404.882 3140.062 405.538 L 3141.123 406.194 3142.044 408.347 L 3142.965 410.500 3145.489 414.500 L 3148.013 418.500 3149.575 421.500 L 3151.137 424.500 3153.319 428.183 L 3155.500 431.867 3169 455.020 L 3182.500 478.174 3185.901 484.337 L 3189.302 490.500 3191.664 494.250 L 3194.025 498 3249.935 498 L 3305.845 498 3315.172 481.952 L 3324.500 465.904 3326.702 462.202 L 3328.905 458.500 3329.608 457 L 3330.310 455.500 3331.405 454.131 L 3332.500 452.762 3336 446.477 L 3339.500 440.193 3347.500 426.529 L 3355.500 412.865 3357.771 409.183 L 3360.042 405.500 3360.626 404.257 L 3361.209 403.013 3359.037 398.847 L 3356.866 394.681 3331.335 350.340 L 3305.805 306 3249.915 306 L 3194.025 306 3191.664 309.750 M 1691 512.421 L 1691 581 1749.824 581 L 1808.648 581 1818.074 579.392 L 1827.500 577.785 1835.500 575.290 L 1843.500 572.795 1851.316 568.752 L 1859.131 564.709 1865.067 558.773 L 1871.003 552.837 1874.392 545.668 L 1877.782 538.500 1879.141 533 L 1880.500 527.500 1880.454 515 L 1880.408 502.500 1878.687 496 L 1876.966 489.500 1873.829 483 L 1870.692 476.500 1863.096 468.967 L 1855.500 461.434 1846 456.754 L 1836.500 452.074 1829 450.064 L 1821.500 448.055 1813 446.396 L 1804.500 444.736 1747.750 444.289 L 1691 443.842 1691 512.421 M 3734 512.427 L 3734 581 3793.250 580.999 L 3852.500 580.997 3860.891 579.521 L 3869.283 578.044 3876.891 575.970 L 3884.500 573.897 3893 569.804 L 3901.500 565.710 3908.522 558.605 L 3915.544 551.500 3918.180 546 L 3920.816 540.500 3922.539 534 L 3924.261 527.500 3924.276 516 L 3924.290 504.500 3923.062 498.500 L 3921.835 492.500 3917.969 484.415 L 3914.103 476.331 3909.493 471.203 L 3904.883 466.076 3897.967 461.478 L 3891.052 456.881 3884.776 454.319 L 3878.500 451.756 3872 449.950 L 3865.500 448.143 3856.500 446.400 L 3847.500 444.658 3790.750 444.256 L 3734 443.854 3734 512.427 M 3107.720 453.687 L 3105.335 457.500 3101.418 464.316 L 3097.500 471.133 3096 473.840 L 3094.500 476.546 3090.500 483.371 L 3086.500 490.196 3084.319 493.848 L 3082.137 497.500 3080.571 500.500 L 3079.004 503.500 3077 506.500 L 3074.996 509.500 3073.429 512.500 L 3071.863 515.500 3069.438 519.500 L 3067.014 523.500 3065.438 526.500 L 3063.863 529.500 3061.681 533.153 L 3059.500 536.806 3054.750 544.857 L 3050 552.907 3050 553.831 L 3050 554.755 3048.500 556 L 3047 557.245 3047 559.622 L 3047 562 3047.795 562 L 3048.589 562 3052.244 566.750 L 3055.898 571.500 3063.291 579 L 3070.684 586.500 3076.092 591.589 L 3081.500 596.679 3089.500 603.113 L 3097.500 609.547 3106 615.187 L 3114.500 620.826 3123 625.723 L 3131.500 630.619 3137.500 633.374 L 3143.500 636.129 3146.500 637.528 L 3149.500 638.926 3154.377 640.963 L 3159.254 643 3160.226 643 L 3161.198 643 3164.349 644.493 L 3167.500 645.987 3172.500 647.424 L 3177.500 648.860 3182 650.017 L 3186.500 651.174 3191.609 652.594 L 3196.718 654.013 3204.160 654.957 L 3211.601 655.900 3216.051 656.926 L 3220.500 657.951 3226.750 657.976 L 3233 658 3233 656.745 L 3233 655.489 3226.750 644.684 L 3220.500 633.880 3218.725 630.690 L 3216.951 627.500 3214.973 624.500 L 3212.996 621.500 3211.429 618.500 L 3209.863 615.500 3207.681 611.817 L 3205.500 608.133 3192 585 L 3178.500 561.867 3176.301 558.183 L 3174.103 554.500 3173.069 552.500 L 3172.035 550.500 3169.767 546.817 L 3167.500 543.135 3159.500 529.488 L 3151.500 515.841 3149.319 512.171 L 3147.137 508.500 3145.571 505.500 L 3144.004 502.500 3142.027 499.500 L 3140.049 496.500 3138.064 493 L 3136.079 489.500 3134.496 486.500 L 3132.913 483.500 3123.189 467.010 L 3113.465 450.521 3111.785 450.197 L 3110.105 449.874 3107.720 453.687 M 3222.503 544.996 L 3221.887 545.992 3223.193 548.466 L 3224.500 550.940 3236 570.533 L 3247.500 590.125 3249.699 593.813 L 3251.897 597.500 3252.931 599.500 L 3253.965 601.500 3256.233 605.183 L 3258.500 608.865 3266.500 622.512 L 3274.500 636.159 3276.656 639.829 L 3278.812 643.500 3280.406 646.250 L 3282 649 3283.633 652.121 L 3285.267 655.242 3292.883 654.777 L 3300.500 654.312 3306 652.743 L 3311.500 651.174 3316 650.043 L 3320.500 648.912 3326 647.364 L 3331.500 645.816 3332.500 645.023 L 3333.500 644.231 3337 643.482 L 3340.500 642.733 3343.985 640.867 L 3347.470 639 3348.485 639.003 L 3349.500 639.007 3361 633.354 L 3372.500 627.701 3379.500 623.620 L 3386.500 619.538 3394.500 614.127 L 3402.500 608.716 3410 602.650 L 3417.500 596.585 3422.855 591.543 L 3428.211 586.500 3431.355 583.355 L 3434.500 580.211 3439.561 574.855 L 3444.623 569.500 3452.119 560 L 3459.616 550.500 3461.256 547.865 L 3462.896 545.229 3462.281 544.615 L 3461.667 544 3342.392 544 L 3223.118 544 3222.503 544.996 M 261.564 548.897 L 261.010 549.793 307.819 622.147 L 354.628 694.500 355.564 694.481 L 356.500 694.461 377.297 661.981 L 398.095 629.500 423.601 589.741 L 449.107 549.982 448.495 548.991 L 447.882 548 355 548 L 262.118 548 261.564 548.897" stroke="none" fill="#bc987e" fill-rule="evenodd"/></svg>