<svg xmlns="http://www.w3.org/2000/svg" width="4922" height="783" viewBox="0 0 4922 783" version="1.1"><path d="M 3224 103.073 L 3218.500 103.884 3207 105.357 L 3195.500 106.831 3188 108.475 L 3180.500 110.120 3175.815 111.578 L 3171.130 113.036 3166.815 113.943 L 3162.500 114.849 3157.500 116.598 L 3152.500 118.346 3147.500 120.128 L 3142.500 121.910 3135.571 124.559 L 3128.641 127.207 3127.071 128.011 L 3125.500 128.815 3115.500 133.655 L 3105.500 138.495 3098 142.798 L 3090.500 147.101 3088.514 148.301 L 3086.529 149.500 3077.014 155.899 L 3067.500 162.298 3056 171.506 L 3044.500 180.714 3030.300 195.107 L 3016.100 209.500 3009.611 217.625 L 3003.122 225.751 3000.047 230.125 L 2996.973 234.500 2992.316 241.500 L 2987.659 248.500 2985.449 252 L 2983.239 255.500 2979.836 261.500 L 2976.432 267.500 2971.610 277.500 L 2966.788 287.500 2965.997 289.071 L 2965.207 290.641 2962.559 297.571 L 2959.910 304.500 2958.128 309.500 L 2956.346 314.500 2954.614 319.500 L 2952.881 324.500 2951.517 330 L 2950.153 335.500 2949.114 339.500 L 2948.076 343.500 2946.093 352.500 L 2944.110 361.500 2942.993 371 L 2941.875 380.500 2940.981 387.500 L 2940.088 394.500 2940.107 413.500 L 2940.126 432.500 2941.021 440.500 L 2941.917 448.500 2943.332 459.001 L 2944.747 469.503 2946.402 477.001 L 2948.058 484.500 2949.105 488.500 L 2950.153 492.500 2951.517 498 L 2952.881 503.500 2954.614 508.500 L 2956.346 513.500 2958.128 518.500 L 2959.910 523.500 2962.559 530.429 L 2965.207 537.359 2966.025 538.929 L 2966.842 540.500 2973.495 554 L 2980.148 567.500 2981.574 569.079 L 2983 570.657 2983 571.525 L 2983 572.392 2985.320 575.946 L 2987.640 579.500 2993.570 588.496 L 2999.500 597.491 3007.911 607.996 L 3016.322 618.500 3021.411 623.882 L 3026.500 629.264 3037 639.572 L 3047.500 649.881 3058.007 658.190 L 3068.515 666.500 3077.507 672.385 L 3086.500 678.270 3090 680.495 L 3093.500 682.720 3097 684.763 L 3100.500 686.806 3111.500 692.348 L 3122.500 697.889 3128.096 700.445 L 3133.693 703 3134.765 703 L 3135.838 703 3138.669 704.406 L 3141.500 705.811 3147 707.748 L 3152.500 709.685 3159.500 711.808 L 3166.500 713.931 3173.500 715.886 L 3180.500 717.841 3186 718.927 L 3191.500 720.012 3197.500 721.007 L 3203.500 722.002 3213.500 723.610 L 3223.500 725.219 3245 725.721 L 3266.500 726.223 3276.500 725.117 L 3286.500 724.011 3297.500 722.562 L 3308.500 721.113 3314.460 719.557 L 3320.420 718 3322.390 718 L 3324.359 718 3330.930 715.953 L 3337.500 713.907 3344.500 711.796 L 3351.500 709.685 3357 707.748 L 3362.500 705.811 3365.331 704.406 L 3368.162 703 3369.235 703 L 3370.307 703 3375.904 700.415 L 3381.500 697.830 3393.500 691.820 L 3405.500 685.811 3407.079 684.405 L 3408.657 683 3409.579 682.972 L 3410.500 682.943 3416.500 679.022 L 3422.500 675.100 3428.863 670.800 L 3435.226 666.500 3444.863 658.897 L 3454.500 651.294 3457.500 648.526 L 3460.500 645.757 3469 637.518 L 3477.500 629.278 3482.717 623.645 L 3487.934 618.011 3494.334 610.255 L 3500.735 602.500 3503.894 598 L 3507.053 593.500 3511.646 586.500 L 3516.238 579.500 3518.619 575.946 L 3521 572.392 3521 571.525 L 3521 570.657 3522.405 569.079 L 3523.811 567.500 3529.820 555.500 L 3535.830 543.500 3538.415 537.904 L 3541 532.307 3541 531.235 L 3541 530.162 3542.406 527.331 L 3543.811 524.500 3545.748 519 L 3547.685 513.500 3549.807 506.500 L 3551.928 499.500 3553.599 494 L 3555.270 488.500 3556.526 482 L 3557.783 475.500 3558.859 469.500 L 3559.934 463.500 3561.717 452 L 3563.500 440.500 3563.500 414 L 3563.500 387.500 3561.717 376 L 3559.934 364.500 3558.859 358.500 L 3557.783 352.500 3556.526 346 L 3555.270 339.500 3553.599 334 L 3551.928 328.500 3549.807 321.500 L 3547.685 314.500 3545.887 309.500 L 3544.090 304.500 3541.441 297.571 L 3538.793 290.641 3537.958 289.071 L 3537.122 287.500 3531.751 276.500 L 3526.379 265.500 3522.635 259 L 3518.892 252.500 3515.196 246.868 L 3511.500 241.236 3506.793 234.237 L 3502.086 227.238 3495.030 218.606 L 3487.973 209.973 3486.237 208.127 L 3484.500 206.281 3475.900 197.391 L 3467.301 188.500 3461.656 183.283 L 3456.011 178.066 3448.255 171.666 L 3440.500 165.265 3436 162.106 L 3431.500 158.947 3424.500 154.354 L 3417.500 149.762 3414 147.501 L 3410.500 145.239 3404.500 141.846 L 3398.500 138.452 3388.500 133.664 L 3378.500 128.876 3376.929 128.042 L 3375.359 127.207 3368.429 124.559 L 3361.500 121.910 3356.500 120.128 L 3351.500 118.346 3346.500 116.614 L 3341.500 114.881 3335.500 113.383 L 3329.500 111.884 3321.500 110.105 L 3313.500 108.327 3311.463 107.663 L 3309.425 107 3297.463 105.436 L 3285.500 103.873 3278.500 102.980 L 3271.500 102.088 3250.500 102.175 L 3229.500 102.262 3224 103.073 M 292.542 111.250 L 291.185 114.500 179.093 410.354 L 67 706.207 67 706.611 L 67 707.015 130.745 706.757 L 194.491 706.500 269.687 500 L 344.883 293.500 344.972 293 L 345.061 292.500 345.930 294 L 346.800 295.500 414.859 481 L 482.919 666.500 490.281 686.500 L 497.643 706.500 561.322 706.757 L 625 707.015 625 706.477 L 625 705.940 568.431 557.220 L 511.863 408.500 507.577 397.500 L 503.291 386.500 450.410 247.250 L 397.530 108 345.714 108 L 293.898 108 292.542 111.250 M 646.248 407.250 L 646.500 706.500 706.500 706.500 L 766.500 706.500 766.752 464.750 L 767.004 223 820.826 223 L 874.648 223 884.074 224.582 L 893.500 226.163 902.117 229.081 L 910.735 231.999 917.598 235.750 L 924.460 239.500 931.100 246.086 L 937.740 252.671 941.876 261.086 L 946.012 269.500 948.150 277.500 L 950.288 285.500 950.394 301.500 L 950.500 317.500 948.627 325 L 946.755 332.500 943.036 340.500 L 939.317 348.500 935.127 353.760 L 930.938 359.019 925.219 363.513 L 919.500 368.007 913 371.417 L 906.500 374.827 900.158 376.955 L 893.817 379.083 884.158 381.153 L 874.500 383.223 852 383.658 L 829.500 384.094 827.250 384.566 L 825 385.038 825 443.068 L 825 501.098 869.863 565.799 L 914.726 630.500 941.123 668.500 L 967.519 706.500 1039.760 706.757 L 1112 707.013 1112 705.910 L 1112 704.808 1075.669 653.154 L 1039.338 601.500 1015.471 567.500 L 991.604 533.500 973.996 508.469 L 956.388 483.438 955.715 482.348 L 955.042 481.259 965.271 477.062 L 975.500 472.864 986 466.778 L 996.500 460.692 1004 455.187 L 1011.500 449.682 1018 443.673 L 1024.500 437.664 1030.814 430.582 L 1037.129 423.500 1043.160 414.542 L 1049.190 405.584 1054.180 395.641 L 1059.169 385.699 1063.038 374.099 L 1066.906 362.500 1069.400 350 L 1071.894 337.500 1073.074 323 L 1074.254 308.500 1073.603 295 L 1072.952 281.500 1071.898 272.500 L 1070.845 263.500 1068.392 252 L 1065.940 240.500 1061.884 228.560 L 1057.827 216.619 1052.789 206.560 L 1047.751 196.500 1043.382 189.729 L 1039.013 182.957 1034.937 177.729 L 1030.862 172.500 1022.681 164.145 L 1014.500 155.790 1006.500 149.517 L 998.500 143.244 990.854 138.610 L 983.209 133.977 972.854 129.049 L 962.500 124.121 954.836 121.565 L 947.173 119.008 935.325 116.041 L 923.478 113.074 913.489 111.596 L 903.500 110.117 892 109.062 L 880.500 108.007 763.248 108.003 L 645.997 108 646.248 407.250 M 1077.242 165.250 L 1077.500 222.500 1158.750 222.756 L 1240 223.012 1240 465.006 L 1240 707 1300 707 L 1360 707 1360 465.006 L 1360 223.012 1442.250 222.756 L 1524.500 222.500 1524.758 165.250 L 1525.016 108 1301 108 L 1076.984 108 1077.242 165.250 M 1561 407.546 L 1561 707.092 1688.750 706.729 L 1816.500 706.367 1831 704.255 L 1845.500 702.143 1857 699.547 L 1868.500 696.951 1880.500 692.874 L 1892.500 688.797 1903.579 683.477 L 1914.658 678.157 1925.579 670.872 L 1936.500 663.588 1948.573 651.544 L 1960.645 639.500 1966.915 630.047 L 1973.184 620.594 1977.675 611.652 L 1982.166 602.710 1986.017 591.105 L 1989.869 579.500 1991.401 571.954 L 1992.933 564.408 1994.093 554.574 L 1995.253 544.739 1994.741 525.620 L 1994.229 506.500 1992.054 495.621 L 1989.878 484.743 1986.479 474.366 L 1983.080 463.989 1978.522 454.493 L 1973.965 444.998 1967.375 435.278 L 1960.785 425.558 1953.829 418.110 L 1946.873 410.661 1939.209 404.290 L 1931.546 397.919 1923.750 392.709 L 1915.954 387.500 1921.918 382 L 1927.882 376.500 1934.216 368.500 L 1940.550 360.500 1945.358 352.783 L 1950.166 345.065 1954.466 335.283 L 1958.765 325.500 1961.842 314.751 L 1964.918 304.001 1966.533 293.251 L 1968.149 282.500 1968.143 267 L 1968.138 251.500 1966.602 241.298 L 1965.067 231.095 1962.965 222.798 L 1960.864 214.500 1957.313 205.579 L 1953.762 196.658 1948.631 187.844 L 1943.500 179.029 1936.660 170.472 L 1929.820 161.915 1921.189 154.370 L 1912.559 146.826 1905.030 141.869 L 1897.500 136.913 1886.500 131.554 L 1875.500 126.195 1866.906 123.181 L 1858.313 120.167 1844.406 116.676 L 1830.500 113.185 1819.500 111.605 L 1808.500 110.025 1795.605 109.012 L 1782.710 108 1671.855 108 L 1561 108 1561 407.546 M 1959 109.004 L 1959 110.022 1964.165 118.261 L 1969.329 126.500 2066.665 285.296 L 2164 444.092 2164 575.554 L 2164 707.016 2224.250 706.758 L 2284.500 706.500 2285 574.500 L 2285.500 442.500 2306.878 408 L 2328.257 373.500 2334.499 363.500 L 2340.741 353.500 2416.371 231.186 L 2492 108.872 2492 108.429 L 2492 107.987 2421.250 108.243 L 2350.500 108.500 2288 212.708 L 2225.500 316.916 2224.515 316.630 L 2223.530 316.343 2160.862 212.422 L 2098.193 108.500 2028.597 108.243 L 1959 107.986 1959 109.004 M 2497 407.500 L 2497 707 2557 707 L 2617 707 2617 464.941 L 2617 222.883 2675.250 223.259 L 2733.500 223.636 2743 226.214 L 2752.500 228.791 2757.714 230.867 L 2762.929 232.943 2768.714 236.194 L 2774.500 239.445 2781.505 246.473 L 2788.510 253.500 2791.632 259.500 L 2794.754 265.500 2796.844 272 L 2798.934 278.500 2799.959 285 L 2800.985 291.500 2800.985 302 L 2800.985 312.500 2799.959 319 L 2798.934 325.500 2796.853 332 L 2794.772 338.500 2791.231 345 L 2787.690 351.500 2779.991 359.138 L 2772.291 366.776 2761.896 371.915 L 2751.500 377.053 2741.500 379.492 L 2731.500 381.931 2722.500 382.957 L 2713.500 383.984 2695.450 383.992 L 2677.400 384 2676.200 385.200 L 2675 386.400 2675 443.515 L 2675 500.629 2746.372 603.565 L 2817.745 706.500 2890.372 706.757 L 2963 707.013 2963 706.428 L 2963 705.844 2884.858 594.672 L 2806.715 483.500 2806.608 482.206 L 2806.500 480.912 2815.500 477.165 L 2824.500 473.419 2834.519 467.783 L 2844.538 462.147 2853.515 455.823 L 2862.492 449.500 2873.518 438.500 L 2884.543 427.500 2891.226 418 L 2897.909 408.500 2902.852 399 L 2907.796 389.500 2911.315 380 L 2914.835 370.500 2917.407 360.585 L 2919.979 350.670 2921.740 339.585 L 2923.500 328.500 2923.461 304 L 2923.421 279.500 2921.605 267.500 L 2919.789 255.500 2916.914 244.259 L 2914.040 233.018 2910.427 223.259 L 2906.814 213.500 2901.336 203.061 L 2895.859 192.622 2890.955 185.561 L 2886.051 178.500 2879.024 170.278 L 2871.996 162.056 2864.374 155.552 L 2856.751 149.048 2847.972 143.035 L 2839.193 137.022 2827.347 131.122 L 2815.500 125.221 2808.164 122.601 L 2800.828 119.981 2789.664 117.021 L 2778.500 114.061 2769.500 112.483 L 2760.500 110.906 2746 109.474 L 2731.500 108.041 2614.250 108.021 L 2497 108 2497 407.500 M 3623 407.490 L 3623 707.092 3750.750 706.729 L 3878.500 706.367 3893 704.249 L 3907.500 702.131 3917 700.036 L 3926.500 697.941 3936.319 694.920 L 3946.137 691.899 3957.673 687.010 L 3969.209 682.121 3978.435 676.616 L 3987.660 671.111 3996.580 664.209 L 4005.500 657.307 4014.184 648.172 L 4022.868 639.036 4029.422 629.191 L 4035.976 619.346 4040.856 608.923 L 4045.736 598.500 4048.345 590.500 L 4050.954 582.500 4052.506 575.720 L 4054.058 568.940 4055.510 558.720 L 4056.963 548.500 4056.962 532.500 L 4056.961 516.500 4055.542 505.845 L 4054.124 495.190 4051.579 485.123 L 4049.035 475.057 4044.982 464.778 L 4040.929 454.500 4036.338 446.500 L 4031.747 438.500 4027.163 432 L 4022.579 425.500 4015.558 418 L 4008.538 410.500 4001.019 404.189 L 3993.500 397.877 3985.721 392.756 L 3977.941 387.635 3984.265 381.568 L 3990.589 375.500 3996.196 368.500 L 4001.803 361.500 4006.746 353.500 L 4011.689 345.500 4015.724 336.500 L 4019.759 327.500 4022.807 317.964 L 4025.855 308.427 4027.678 299.464 L 4029.500 290.500 4029.465 266.500 L 4029.430 242.500 4027.159 232 L 4024.888 221.500 4021.821 212.500 L 4018.754 203.500 4014.870 195.759 L 4010.987 188.018 4007.529 182.612 L 4004.071 177.206 3997.909 169.547 L 3991.747 161.887 3984.030 155.087 L 3976.313 148.287 3970.007 144.005 L 3963.701 139.722 3957.600 136.259 L 3951.500 132.797 3941.754 128.403 L 3932.008 124.009 3920.387 120.487 L 3908.765 116.964 3896.133 114.404 L 3883.500 111.845 3872 110.271 L 3860.500 108.697 3741.750 108.293 L 3623 107.888 3623 407.490 M 4174.571 127.119 L 4115.643 145.957 4114.820 146.780 L 4113.996 147.604 4114.248 427.052 L 4114.500 706.500 4173.936 706.758 L 4233.372 707.016 4234.171 705.758 L 4234.969 704.500 4234.858 428 L 4234.747 151.500 4234.123 129.890 L 4233.500 108.280 4174.571 127.119 M 4320 407.508 L 4320 707.016 4380.250 706.758 L 4440.500 706.500 4440.753 520.750 L 4441.005 335 4441.753 335.060 L 4442.500 335.119 4466.626 369.310 L 4490.753 403.500 4570.999 516.500 L 4651.245 629.500 4678.801 668.250 L 4706.357 707 4760.678 707 L 4815 707 4815 407.500 L 4815 108 4755 108 L 4695 108 4695 296.122 L 4695 484.245 4693.585 483.070 L 4692.169 481.896 4646.335 417.351 L 4600.500 352.806 4597.945 349.153 L 4595.389 345.500 4511.131 226.750 L 4426.873 108 4373.437 108 L 4320 108 4320 407.508 M 3269.625 150.799 L 3269.131 151.597 3275.315 162.334 L 3281.500 173.071 3283.709 176.785 L 3285.919 180.500 3287.467 183.500 L 3289.014 186.500 3291.438 190.500 L 3293.863 194.500 3295.467 197.500 L 3297.070 200.500 3299.285 204.156 L 3301.500 207.811 3323.500 245.938 L 3345.500 284.065 3348.500 289.402 L 3351.500 294.739 3352.692 296.152 L 3353.884 297.566 3354.994 300.033 L 3356.103 302.500 3358.544 306.500 L 3360.986 310.500 3362.562 313.500 L 3364.137 316.500 3366.319 320.188 L 3368.500 323.876 3380.414 344.486 L 3392.329 365.096 3394.414 364.798 L 3396.500 364.500 3405.670 348.500 L 3414.839 332.500 3415.934 331.276 L 3417.029 330.053 3417.997 327.776 L 3418.965 325.500 3421.233 321.810 L 3423.500 318.120 3433.500 301.030 L 3443.500 283.940 3445.500 280.525 L 3447.500 277.110 3454.250 265.599 L 3461 254.088 3461 252.397 L 3461 250.706 3457.315 246.103 L 3453.631 241.500 3438.565 226.445 L 3423.500 211.391 3411.309 202.445 L 3399.118 193.500 3393.499 190 L 3387.881 186.500 3384.191 184.370 L 3380.500 182.240 3371 177.524 L 3361.500 172.808 3357.500 171.023 L 3353.500 169.238 3348.723 167.119 L 3343.946 165 3342.874 165 L 3341.802 165 3338.651 163.610 L 3335.500 162.221 3328.500 160.067 L 3321.500 157.912 3315 156.396 L 3308.500 154.880 3300 153.467 L 3291.500 152.054 3286.701 151.027 L 3281.902 150 3276.010 150 L 3270.118 150 3269.625 150.799 M 3207.500 152.214 L 3202.500 153.152 3190.500 156.033 L 3178.500 158.913 3173 160.463 L 3167.500 162.013 3164.349 163.507 L 3161.198 165 3159.834 165 L 3158.470 165 3154.739 167 L 3151.007 169 3149.958 169 L 3148.908 169 3135.704 175.559 L 3122.500 182.118 3115.500 186.512 L 3108.500 190.906 3105.602 192.555 L 3102.705 194.204 3095.102 199.792 L 3087.500 205.379 3076 215.562 L 3064.500 225.744 3059 231.653 L 3053.500 237.561 3048.869 243.031 L 3044.238 248.500 3041.816 251.500 L 3039.393 254.500 3036.197 259.421 L 3033 264.343 3033 265.675 L 3033 267.008 3156.750 266.754 L 3280.500 266.500 3280.168 264 L 3279.837 261.500 3278.172 259 L 3276.507 256.500 3275.245 254 L 3273.983 251.500 3271.560 247.500 L 3269.137 243.500 3267.573 240.500 L 3266.009 237.500 3264.005 234.250 L 3262 231 3260.250 228.075 L 3258.500 225.150 3253.423 216.325 L 3248.345 207.500 3247.625 206 L 3246.905 204.500 3244.702 200.808 L 3242.500 197.117 3231.108 177.308 L 3219.715 157.500 3217.239 154.250 L 3214.763 151 3213.631 151.138 L 3212.500 151.275 3207.500 152.214 M 1720.500 221.990 L 1681.500 222.500 1681.500 282.500 L 1681.500 342.500 1732.500 342.499 L 1783.500 342.499 1792.500 340.673 L 1801.500 338.846 1810 335.650 L 1818.500 332.454 1824.262 328.622 L 1830.025 324.789 1833.602 320.645 L 1837.180 316.500 1840.099 310.760 L 1843.018 305.021 1844.494 298.760 L 1845.970 292.500 1845.970 281.500 L 1845.970 270.500 1844.492 264.231 L 1843.014 257.962 1840.445 252.891 L 1837.875 247.820 1833.747 243.341 L 1829.619 238.863 1823.059 234.976 L 1816.500 231.089 1807.278 228.083 L 1798.056 225.077 1787.278 223.602 L 1776.500 222.126 1768 221.803 L 1759.500 221.479 1720.500 221.990 M 3782.500 221.964 L 3743.500 222.500 3743.500 282.500 L 3743.500 342.500 3794 342.500 L 3844.500 342.500 3852 341.135 L 3859.500 339.771 3867.500 337.294 L 3875.500 334.818 3881.763 331.353 L 3888.025 327.888 3893.363 322.676 L 3898.701 317.465 3902.275 309.982 L 3905.849 302.500 3906.924 296.566 L 3908 290.633 3907.985 280.566 L 3907.970 270.500 3906.492 264.231 L 3905.014 257.962 3902.472 252.945 L 3899.930 247.928 3896.394 244.014 L 3892.858 240.100 3887.234 236.368 L 3881.611 232.635 3874.158 229.741 L 3866.705 226.847 3858.102 225.002 L 3849.500 223.158 3840.500 222.551 L 3831.500 221.944 3826.500 221.686 L 3821.500 221.428 3782.500 221.964 M 3488.279 300.657 L 3487.059 301.147 3482.779 308.687 L 3478.500 316.227 3476.344 319.863 L 3474.188 323.500 3472.594 326.250 L 3471 329 3469.406 331.750 L 3467.812 334.500 3465.656 338.188 L 3463.500 341.876 3455.500 355.517 L 3447.500 369.159 3445.285 372.829 L 3443.070 376.500 3441.467 379.500 L 3439.863 382.500 3437.681 386.171 L 3435.500 389.841 3427.500 403.483 L 3419.500 417.124 3417.301 420.812 L 3415.103 424.500 3414 426.500 L 3412.897 428.500 3410.699 432.168 L 3408.500 435.836 3400 450.486 L 3391.500 465.137 3388.494 470.491 L 3385.488 475.845 3384.656 476.673 L 3383.824 477.500 3382.398 480.500 L 3380.972 483.500 3373.056 496.982 L 3365.139 510.463 3366.192 511.732 L 3367.245 513 3431.967 513 L 3496.690 513 3498.252 511.250 L 3499.814 509.500 3501.005 505 L 3502.196 500.500 3502.992 499.500 L 3503.789 498.500 3505.461 492.500 L 3507.134 486.500 3508.483 481 L 3509.831 475.500 3511.331 469 L 3512.831 462.500 3513.954 455.500 L 3515.078 448.500 3516.133 437 L 3517.189 425.500 3516.568 406.747 L 3515.947 387.994 3514.935 382.747 L 3513.922 377.500 3512.966 370 L 3512.010 362.500 3510.374 355.500 L 3508.739 348.500 3506.772 341.500 L 3504.806 334.500 3502.941 329.234 L 3501.075 323.969 3498.977 318.234 L 3496.878 312.500 3494.792 308 L 3492.705 303.500 3492.031 302.060 L 3491.357 300.619 3490.429 300.393 L 3489.500 300.167 3488.279 300.657 M 3005.807 316.750 L 3004.304 318.500 3002.571 323.500 L 3000.838 328.500 2999.431 333.500 L 2998.023 338.500 2997.028 340.500 L 2996.033 342.500 2994.484 349.500 L 2992.936 356.500 2992.066 361 L 2991.197 365.500 2989.362 376 L 2987.526 386.500 2987.589 413 L 2987.653 439.500 2989.237 448 L 2990.822 456.500 2991.459 462 L 2992.097 467.500 2993.484 472.500 L 2994.871 477.500 2995.866 482 L 2996.862 486.500 2998.847 493 L 3000.831 499.500 3002.449 504 L 3004.066 508.500 3005.451 511.500 L 3006.835 514.500 3009.801 521.500 L 3012.767 528.500 3015.052 528.500 L 3017.337 528.500 3019.171 525.500 L 3021.004 522.500 3022.571 519.500 L 3024.137 516.500 3026.319 512.791 L 3028.500 509.083 3048.317 474.791 L 3068.133 440.500 3069.032 439 L 3069.931 437.500 3073.215 431.661 L 3076.500 425.821 3078.681 422.161 L 3080.863 418.500 3082.438 415.500 L 3084.014 412.500 3086.438 408.500 L 3088.863 404.500 3090.425 401.500 L 3091.987 398.500 3094.511 394.500 L 3097.035 390.500 3098 388.500 L 3098.965 386.500 3101.489 382.500 L 3104.013 378.500 3105.575 375.500 L 3107.137 372.500 3109.562 368.500 L 3111.986 364.500 3113.562 361.500 L 3115.137 358.500 3117.319 354.839 L 3119.500 351.179 3122.580 345.839 L 3125.660 340.500 3126.355 339 L 3127.051 337.500 3132.958 327.521 L 3138.866 317.543 3137.810 316.271 L 3136.755 315 3072.033 315 L 3007.310 315 3005.807 316.750 M 3192.680 318.750 L 3190.335 322.500 3186.418 329.348 L 3182.500 336.196 3180.319 339.848 L 3178.137 343.500 3176.571 346.500 L 3175.004 349.500 3173.027 352.500 L 3171.049 355.500 3169.064 359 L 3167.079 362.500 3165.471 365.500 L 3163.863 368.500 3161.681 372.213 L 3159.500 375.927 3148.750 394.455 L 3138 412.983 3138 414.035 L 3138 415.088 3144.750 426.616 L 3151.500 438.145 3155 444.498 L 3158.500 450.850 3159.338 451.675 L 3160.176 452.500 3161.595 455.500 L 3163.014 458.500 3165.456 462.500 L 3167.897 466.500 3168.931 468.500 L 3169.965 470.500 3172.489 474.500 L 3175.013 478.500 3176.548 481.500 L 3178.083 484.500 3186.297 498.500 L 3194.511 512.500 3252.152 512.758 L 3309.793 513.016 3312.107 509.258 L 3314.422 505.500 3315.719 503 L 3317.017 500.500 3319.258 496.820 L 3321.500 493.140 3329.500 479.494 L 3337.500 465.849 3339.767 462.174 L 3342.035 458.500 3343.069 456.500 L 3344.103 454.500 3346.544 450.500 L 3348.986 446.500 3350.562 443.500 L 3352.137 440.500 3354.319 436.802 L 3356.500 433.105 3361.250 425.075 L 3366 417.046 3366 414.082 L 3366 411.118 3364.985 410.491 L 3363.970 409.863 3362.478 406.682 L 3360.986 403.500 3358.562 399.500 L 3356.137 395.500 3354.562 392.500 L 3352.986 389.500 3350.562 385.500 L 3348.137 381.500 3346.562 378.500 L 3344.986 375.500 3342.562 371.500 L 3340.137 367.500 3338.562 364.500 L 3336.986 361.500 3334.587 357.500 L 3332.188 353.500 3330.757 351 L 3329.327 348.500 3327 344.500 L 3324.673 340.500 3323.243 338 L 3321.812 335.500 3319.415 331.500 L 3317.017 327.500 3315.719 325 L 3314.422 322.500 3312.112 318.750 L 3309.802 315 3252.414 315 L 3195.025 315 3192.680 318.750 M 1681.750 455.583 L 1681 456.333 1681 524.167 L 1681 592 1738.250 591.997 L 1795.500 591.994 1804.500 590.933 L 1813.500 589.873 1821.500 587.836 L 1829.500 585.800 1839.500 580.999 L 1849.500 576.198 1855.826 569.863 L 1862.152 563.528 1865.467 556.514 L 1868.782 549.500 1870.124 544 L 1871.466 538.500 1871.418 526 L 1871.370 513.500 1869.080 505.267 L 1866.790 497.034 1863.334 491.267 L 1859.878 485.500 1855.689 481.125 L 1851.500 476.751 1845 472.491 L 1838.500 468.232 1832.500 465.713 L 1826.500 463.193 1820.684 461.506 L 1814.867 459.819 1804.684 457.790 L 1794.500 455.761 1738.500 455.297 L 1682.500 454.832 1681.750 455.583 M 3743.745 455.589 L 3743 456.333 3743 524.167 L 3743 592 3802.325 592 L 3861.650 592 3872.988 589.958 L 3884.326 587.917 3893.089 584.625 L 3901.852 581.334 3907.527 577.917 L 3913.201 574.500 3918.984 568.338 L 3924.767 562.176 3927.358 556.838 L 3929.949 551.500 3931.665 545 L 3933.382 538.500 3933.337 526.500 L 3933.292 514.500 3931.625 507.600 L 3929.959 500.701 3927.038 494.600 L 3924.118 488.500 3918.940 482.707 L 3913.763 476.914 3907.666 472.773 L 3901.570 468.633 3894.035 465.488 L 3886.500 462.344 3880.500 460.704 L 3874.500 459.065 3866 457.401 L 3857.500 455.736 3800.995 455.290 L 3744.489 454.844 3743.745 455.589 M 3101.500 474.615 L 3095.500 485.197 3093.301 488.848 L 3091.103 492.500 3090.067 494.773 L 3089.032 497.046 3085.705 502.273 L 3082.378 507.500 3081.710 509 L 3081.042 510.500 3078.515 514.500 L 3075.987 518.500 3074.425 521.500 L 3072.863 524.500 3070.681 528.199 L 3068.500 531.899 3056.500 552.654 L 3044.500 573.410 3043.921 575.455 L 3043.342 577.500 3047.355 582.500 L 3051.368 587.500 3064.934 601.040 L 3078.500 614.580 3086.006 620.540 L 3093.513 626.500 3096.760 628.782 L 3100.007 631.065 3103.753 633.551 L 3107.500 636.037 3109 637.042 L 3110.500 638.048 3114 640.232 L 3117.500 642.416 3120 643.841 L 3122.500 645.266 3131 649.686 L 3139.500 654.107 3146.500 657.130 L 3153.500 660.152 3156.651 661.576 L 3159.802 663 3161 663 L 3162.198 663 3165.349 664.493 L 3168.500 665.987 3174 667.565 L 3179.500 669.143 3185 670.487 L 3190.500 671.831 3197 673.331 L 3203.500 674.831 3211 676.064 L 3218.500 677.297 3226.340 677.758 L 3234.180 678.220 3235.010 677.360 L 3235.839 676.500 3228.978 665 L 3222.117 653.500 3220.523 650.500 L 3218.930 647.500 3216.715 643.835 L 3214.500 640.169 3202.500 619.534 L 3190.500 598.899 3188.301 595.199 L 3186.103 591.500 3185.069 589.500 L 3184.035 587.500 3181.767 583.821 L 3179.500 580.141 3169.500 562.895 L 3159.500 545.650 3157.244 542.075 L 3154.987 538.500 3153.425 535.500 L 3151.863 532.500 3149.681 528.801 L 3147.500 525.101 3135.500 504.541 L 3123.500 483.980 3121.500 480.588 L 3119.500 477.196 3115.701 470.598 L 3111.902 464 3109.701 464.017 L 3107.500 464.034 3101.500 474.615 M 252 559.835 L 252 560.670 298.755 632.994 L 345.510 705.317 346.366 705.409 L 347.222 705.500 382.861 649.937 L 418.500 594.374 429 577.981 L 439.500 561.588 439.823 560.294 L 440.147 559 346.073 559 L 252 559 252 559.835 M 3224.337 561.564 L 3223.737 563.128 3224.921 565.314 L 3226.105 567.500 3228.077 571 L 3230.049 574.500 3231.775 577.169 L 3233.500 579.838 3242 594.501 L 3250.500 609.164 3252.702 612.832 L 3254.905 616.500 3255.608 618 L 3256.310 619.500 3257.405 620.869 L 3258.500 622.238 3262 628.522 L 3265.500 634.806 3271.500 644.931 L 3277.500 655.055 3279.500 658.429 L 3281.500 661.804 3285.299 668.402 L 3289.098 675 3294.299 674.956 L 3299.500 674.913 3303.500 673.996 L 3307.500 673.078 3315.500 671.115 L 3323.500 669.152 3330 667.180 L 3336.500 665.208 3340 663.968 L 3343.500 662.728 3348.500 660.760 L 3353.500 658.793 3357.500 657.033 L 3361.500 655.273 3366.500 652.890 L 3371.500 650.508 3382.500 644.187 L 3393.500 637.867 3397 635.730 L 3400.500 633.592 3410.500 626.137 L 3420.500 618.683 3424 615.627 L 3427.500 612.572 3441.058 598.962 L 3454.617 585.353 3463.220 573.926 L 3471.823 562.500 3470.220 561.250 L 3468.618 560 3346.777 560 L 3224.937 560 3224.337 561.564" stroke="none" fill="#9dcbb3" fill-rule="evenodd"/><path d="M 0 391.500 L 0 783 2461.250 782.750 L 4922.500 782.500 4922.751 391.250 L 4923.003 0 2461.501 0 L 0 0 0 391.500 M 0.495 392 L 0.495 783.500 0.750 587.750 L 1.005 392 0.750 196.250 L 0.495 0.500 0.495 392 M 3224 103.073 L 3218.500 103.884 3207 105.357 L 3195.500 106.831 3188 108.475 L 3180.500 110.120 3175.815 111.578 L 3171.130 113.036 3166.815 113.943 L 3162.500 114.849 3157.500 116.598 L 3152.500 118.346 3147.500 120.128 L 3142.500 121.910 3135.571 124.559 L 3128.641 127.207 3127.071 128.011 L 3125.500 128.815 3115.500 133.655 L 3105.500 138.495 3098 142.798 L 3090.500 147.101 3088.514 148.301 L 3086.529 149.500 3077.014 155.899 L 3067.500 162.298 3056 171.506 L 3044.500 180.714 3030.300 195.107 L 3016.100 209.500 3009.611 217.625 L 3003.122 225.751 3000.047 230.125 L 2996.973 234.500 2992.316 241.500 L 2987.659 248.500 2985.449 252 L 2983.239 255.500 2979.836 261.500 L 2976.432 267.500 2971.610 277.500 L 2966.788 287.500 2965.997 289.071 L 2965.207 290.641 2962.559 297.571 L 2959.910 304.500 2958.128 309.500 L 2956.346 314.500 2954.614 319.500 L 2952.881 324.500 2951.517 330 L 2950.153 335.500 2949.114 339.500 L 2948.076 343.500 2946.093 352.500 L 2944.110 361.500 2942.993 371 L 2941.875 380.500 2940.981 387.500 L 2940.088 394.500 2940.107 413.500 L 2940.126 432.500 2941.021 440.500 L 2941.917 448.500 2943.332 459.001 L 2944.747 469.503 2946.402 477.001 L 2948.058 484.500 2949.105 488.500 L 2950.153 492.500 2951.517 498 L 2952.881 503.500 2954.614 508.500 L 2956.346 513.500 2958.128 518.500 L 2959.910 523.500 2962.559 530.429 L 2965.207 537.359 2966.025 538.929 L 2966.842 540.500 2973.495 554 L 2980.148 567.500 2981.574 569.079 L 2983 570.657 2983 571.525 L 2983 572.392 2985.320 575.946 L 2987.640 579.500 2993.570 588.496 L 2999.500 597.491 3007.911 607.996 L 3016.322 618.500 3021.411 623.882 L 3026.500 629.264 3037 639.572 L 3047.500 649.881 3058.007 658.190 L 3068.515 666.500 3077.507 672.385 L 3086.500 678.270 3090 680.495 L 3093.500 682.720 3097 684.763 L 3100.500 686.806 3111.500 692.348 L 3122.500 697.889 3128.096 700.445 L 3133.693 703 3134.765 703 L 3135.838 703 3138.669 704.406 L 3141.500 705.811 3147 707.748 L 3152.500 709.685 3159.500 711.808 L 3166.500 713.931 3173.500 715.886 L 3180.500 717.841 3186 718.927 L 3191.500 720.012 3197.500 721.007 L 3203.500 722.002 3213.500 723.610 L 3223.500 725.219 3245 725.721 L 3266.500 726.223 3276.500 725.117 L 3286.500 724.011 3297.500 722.562 L 3308.500 721.113 3314.460 719.557 L 3320.420 718 3322.390 718 L 3324.359 718 3330.930 715.953 L 3337.500 713.907 3344.500 711.796 L 3351.500 709.685 3357 707.748 L 3362.500 705.811 3365.331 704.406 L 3368.162 703 3369.235 703 L 3370.307 703 3375.904 700.415 L 3381.500 697.830 3393.500 691.820 L 3405.500 685.811 3407.079 684.405 L 3408.657 683 3409.579 682.972 L 3410.500 682.943 3416.500 679.022 L 3422.500 675.100 3428.863 670.800 L 3435.226 666.500 3444.863 658.897 L 3454.500 651.294 3457.500 648.526 L 3460.500 645.757 3469 637.518 L 3477.500 629.278 3482.717 623.645 L 3487.934 618.011 3494.334 610.255 L 3500.735 602.500 3503.894 598 L 3507.053 593.500 3511.646 586.500 L 3516.238 579.500 3518.619 575.946 L 3521 572.392 3521 571.525 L 3521 570.657 3522.405 569.079 L 3523.811 567.500 3529.820 555.500 L 3535.830 543.500 3538.415 537.904 L 3541 532.307 3541 531.235 L 3541 530.162 3542.406 527.331 L 3543.811 524.500 3545.748 519 L 3547.685 513.500 3549.807 506.500 L 3551.928 499.500 3553.599 494 L 3555.270 488.500 3556.526 482 L 3557.783 475.500 3558.859 469.500 L 3559.934 463.500 3561.717 452 L 3563.500 440.500 3563.500 414 L 3563.500 387.500 3561.717 376 L 3559.934 364.500 3558.859 358.500 L 3557.783 352.500 3556.526 346 L 3555.270 339.500 3553.599 334 L 3551.928 328.500 3549.807 321.500 L 3547.685 314.500 3545.887 309.500 L 3544.090 304.500 3541.441 297.571 L 3538.793 290.641 3537.958 289.071 L 3537.122 287.500 3531.751 276.500 L 3526.379 265.500 3522.635 259 L 3518.892 252.500 3515.196 246.868 L 3511.500 241.236 3506.793 234.237 L 3502.086 227.238 3495.030 218.606 L 3487.973 209.973 3486.237 208.127 L 3484.500 206.281 3475.900 197.391 L 3467.301 188.500 3461.656 183.283 L 3456.011 178.066 3448.255 171.666 L 3440.500 165.265 3436 162.106 L 3431.500 158.947 3424.500 154.354 L 3417.500 149.762 3414 147.501 L 3410.500 145.239 3404.500 141.846 L 3398.500 138.452 3388.500 133.664 L 3378.500 128.876 3376.929 128.042 L 3375.359 127.207 3368.429 124.559 L 3361.500 121.910 3356.500 120.128 L 3351.500 118.346 3346.500 116.614 L 3341.500 114.881 3335.500 113.383 L 3329.500 111.884 3321.500 110.105 L 3313.500 108.327 3311.463 107.663 L 3309.425 107 3297.463 105.436 L 3285.500 103.873 3278.500 102.980 L 3271.500 102.088 3250.500 102.175 L 3229.500 102.262 3224 103.073 M 292.542 111.250 L 291.185 114.500 179.093 410.354 L 67 706.207 67 706.611 L 67 707.015 130.745 706.757 L 194.491 706.500 269.687 500 L 344.883 293.500 344.972 293 L 345.061 292.500 345.930 294 L 346.800 295.500 414.859 481 L 482.919 666.500 490.281 686.500 L 497.643 706.500 561.322 706.757 L 625 707.015 625 706.477 L 625 705.940 568.431 557.220 L 511.863 408.500 507.577 397.500 L 503.291 386.500 450.410 247.250 L 397.530 108 345.714 108 L 293.898 108 292.542 111.250 M 646.248 407.250 L 646.500 706.500 706.500 706.500 L 766.500 706.500 766.752 464.750 L 767.004 223 820.826 223 L 874.648 223 884.074 224.582 L 893.500 226.163 902.117 229.081 L 910.735 231.999 917.598 235.750 L 924.460 239.500 931.100 246.086 L 937.740 252.671 941.876 261.086 L 946.012 269.500 948.150 277.500 L 950.288 285.500 950.394 301.500 L 950.500 317.500 948.627 325 L 946.755 332.500 943.036 340.500 L 939.317 348.500 935.127 353.760 L 930.938 359.019 925.219 363.513 L 919.500 368.007 913 371.417 L 906.500 374.827 900.158 376.955 L 893.817 379.083 884.158 381.153 L 874.500 383.223 852 383.658 L 829.500 384.094 827.250 384.566 L 825 385.038 825 443.068 L 825 501.098 869.863 565.799 L 914.726 630.500 941.123 668.500 L 967.519 706.500 1039.760 706.757 L 1112 707.013 1112 705.910 L 1112 704.808 1075.669 653.154 L 1039.338 601.500 1015.471 567.500 L 991.604 533.500 973.996 508.469 L 956.388 483.438 955.715 482.348 L 955.042 481.259 965.271 477.062 L 975.500 472.864 986 466.778 L 996.500 460.692 1004 455.187 L 1011.500 449.682 1018 443.673 L 1024.500 437.664 1030.814 430.582 L 1037.129 423.500 1043.160 414.542 L 1049.190 405.584 1054.180 395.641 L 1059.169 385.699 1063.038 374.099 L 1066.906 362.500 1069.400 350 L 1071.894 337.500 1073.074 323 L 1074.254 308.500 1073.603 295 L 1072.952 281.500 1071.898 272.500 L 1070.845 263.500 1068.392 252 L 1065.940 240.500 1061.884 228.560 L 1057.827 216.619 1052.789 206.560 L 1047.751 196.500 1043.382 189.729 L 1039.013 182.957 1034.937 177.729 L 1030.862 172.500 1022.681 164.145 L 1014.500 155.790 1006.500 149.517 L 998.500 143.244 990.854 138.610 L 983.209 133.977 972.854 129.049 L 962.500 124.121 954.836 121.565 L 947.173 119.008 935.325 116.041 L 923.478 113.074 913.489 111.596 L 903.500 110.117 892 109.062 L 880.500 108.007 763.248 108.003 L 645.997 108 646.248 407.250 M 1077.242 165.250 L 1077.500 222.500 1158.750 222.756 L 1240 223.012 1240 465.006 L 1240 707 1300 707 L 1360 707 1360 465.006 L 1360 223.012 1442.250 222.756 L 1524.500 222.500 1524.758 165.250 L 1525.016 108 1301 108 L 1076.984 108 1077.242 165.250 M 1561 407.546 L 1561 707.092 1688.750 706.729 L 1816.500 706.367 1831 704.255 L 1845.500 702.143 1857 699.547 L 1868.500 696.951 1880.500 692.874 L 1892.500 688.797 1903.579 683.477 L 1914.658 678.157 1925.579 670.872 L 1936.500 663.588 1948.573 651.544 L 1960.645 639.500 1966.915 630.047 L 1973.184 620.594 1977.675 611.652 L 1982.166 602.710 1986.017 591.105 L 1989.869 579.500 1991.401 571.954 L 1992.933 564.408 1994.093 554.574 L 1995.253 544.739 1994.741 525.620 L 1994.229 506.500 1992.054 495.621 L 1989.878 484.743 1986.479 474.366 L 1983.080 463.989 1978.522 454.493 L 1973.965 444.998 1967.375 435.278 L 1960.785 425.558 1953.829 418.110 L 1946.873 410.661 1939.209 404.290 L 1931.546 397.919 1923.750 392.709 L 1915.954 387.500 1921.918 382 L 1927.882 376.500 1934.216 368.500 L 1940.550 360.500 1945.358 352.783 L 1950.166 345.065 1954.466 335.283 L 1958.765 325.500 1961.842 314.751 L 1964.918 304.001 1966.533 293.251 L 1968.149 282.500 1968.143 267 L 1968.138 251.500 1966.602 241.298 L 1965.067 231.095 1962.965 222.798 L 1960.864 214.500 1957.313 205.579 L 1953.762 196.658 1948.631 187.844 L 1943.500 179.029 1936.660 170.472 L 1929.820 161.915 1921.189 154.370 L 1912.559 146.826 1905.030 141.869 L 1897.500 136.913 1886.500 131.554 L 1875.500 126.195 1866.906 123.181 L 1858.313 120.167 1844.406 116.676 L 1830.500 113.185 1819.500 111.605 L 1808.500 110.025 1795.605 109.012 L 1782.710 108 1671.855 108 L 1561 108 1561 407.546 M 1959 109.004 L 1959 110.022 1964.165 118.261 L 1969.329 126.500 2066.665 285.296 L 2164 444.092 2164 575.554 L 2164 707.016 2224.250 706.758 L 2284.500 706.500 2285 574.500 L 2285.500 442.500 2306.878 408 L 2328.257 373.500 2334.499 363.500 L 2340.741 353.500 2416.371 231.186 L 2492 108.872 2492 108.429 L 2492 107.987 2421.250 108.243 L 2350.500 108.500 2288 212.708 L 2225.500 316.916 2224.515 316.630 L 2223.530 316.343 2160.862 212.422 L 2098.193 108.500 2028.597 108.243 L 1959 107.986 1959 109.004 M 2497 407.500 L 2497 707 2557 707 L 2617 707 2617 464.941 L 2617 222.883 2675.250 223.259 L 2733.500 223.636 2743 226.214 L 2752.500 228.791 2757.714 230.867 L 2762.929 232.943 2768.714 236.194 L 2774.500 239.445 2781.505 246.473 L 2788.510 253.500 2791.632 259.500 L 2794.754 265.500 2796.844 272 L 2798.934 278.500 2799.959 285 L 2800.985 291.500 2800.985 302 L 2800.985 312.500 2799.959 319 L 2798.934 325.500 2796.853 332 L 2794.772 338.500 2791.231 345 L 2787.690 351.500 2779.991 359.138 L 2772.291 366.776 2761.896 371.915 L 2751.500 377.053 2741.500 379.492 L 2731.500 381.931 2722.500 382.957 L 2713.500 383.984 2695.450 383.992 L 2677.400 384 2676.200 385.200 L 2675 386.400 2675 443.515 L 2675 500.629 2746.372 603.565 L 2817.745 706.500 2890.372 706.757 L 2963 707.013 2963 706.428 L 2963 705.844 2884.858 594.672 L 2806.715 483.500 2806.608 482.206 L 2806.500 480.912 2815.500 477.165 L 2824.500 473.419 2834.519 467.783 L 2844.538 462.147 2853.515 455.823 L 2862.492 449.500 2873.518 438.500 L 2884.543 427.500 2891.226 418 L 2897.909 408.500 2902.852 399 L 2907.796 389.500 2911.315 380 L 2914.835 370.500 2917.407 360.585 L 2919.979 350.670 2921.740 339.585 L 2923.500 328.500 2923.461 304 L 2923.421 279.500 2921.605 267.500 L 2919.789 255.500 2916.914 244.259 L 2914.040 233.018 2910.427 223.259 L 2906.814 213.500 2901.336 203.061 L 2895.859 192.622 2890.955 185.561 L 2886.051 178.500 2879.024 170.278 L 2871.996 162.056 2864.374 155.552 L 2856.751 149.048 2847.972 143.035 L 2839.193 137.022 2827.347 131.122 L 2815.500 125.221 2808.164 122.601 L 2800.828 119.981 2789.664 117.021 L 2778.500 114.061 2769.500 112.483 L 2760.500 110.906 2746 109.474 L 2731.500 108.041 2614.250 108.021 L 2497 108 2497 407.500 M 3623 407.490 L 3623 707.092 3750.750 706.729 L 3878.500 706.367 3893 704.249 L 3907.500 702.131 3917 700.036 L 3926.500 697.941 3936.319 694.920 L 3946.137 691.899 3957.673 687.010 L 3969.209 682.121 3978.435 676.616 L 3987.660 671.111 3996.580 664.209 L 4005.500 657.307 4014.184 648.172 L 4022.868 639.036 4029.422 629.191 L 4035.976 619.346 4040.856 608.923 L 4045.736 598.500 4048.345 590.500 L 4050.954 582.500 4052.506 575.720 L 4054.058 568.940 4055.510 558.720 L 4056.963 548.500 4056.962 532.500 L 4056.961 516.500 4055.542 505.845 L 4054.124 495.190 4051.579 485.123 L 4049.035 475.057 4044.982 464.778 L 4040.929 454.500 4036.338 446.500 L 4031.747 438.500 4027.163 432 L 4022.579 425.500 4015.558 418 L 4008.538 410.500 4001.019 404.189 L 3993.500 397.877 3985.721 392.756 L 3977.941 387.635 3984.265 381.568 L 3990.589 375.500 3996.196 368.500 L 4001.803 361.500 4006.746 353.500 L 4011.689 345.500 4015.724 336.500 L 4019.759 327.500 4022.807 317.964 L 4025.855 308.427 4027.678 299.464 L 4029.500 290.500 4029.465 266.500 L 4029.430 242.500 4027.159 232 L 4024.888 221.500 4021.821 212.500 L 4018.754 203.500 4014.870 195.759 L 4010.987 188.018 4007.529 182.612 L 4004.071 177.206 3997.909 169.547 L 3991.747 161.887 3984.030 155.087 L 3976.313 148.287 3970.007 144.005 L 3963.701 139.722 3957.600 136.259 L 3951.500 132.797 3941.754 128.403 L 3932.008 124.009 3920.387 120.487 L 3908.765 116.964 3896.133 114.404 L 3883.500 111.845 3872 110.271 L 3860.500 108.697 3741.750 108.293 L 3623 107.888 3623 407.490 M 4174.571 127.119 L 4115.643 145.957 4114.820 146.780 L 4113.996 147.604 4114.248 427.052 L 4114.500 706.500 4173.936 706.758 L 4233.372 707.016 4234.171 705.758 L 4234.969 704.500 4234.858 428 L 4234.747 151.500 4234.123 129.890 L 4233.500 108.280 4174.571 127.119 M 4320 407.508 L 4320 707.016 4380.250 706.758 L 4440.500 706.500 4440.753 520.750 L 4441.005 335 4441.753 335.060 L 4442.500 335.119 4466.626 369.310 L 4490.753 403.500 4570.999 516.500 L 4651.245 629.500 4678.801 668.250 L 4706.357 707 4760.678 707 L 4815 707 4815 407.500 L 4815 108 4755 108 L 4695 108 4695 296.122 L 4695 484.245 4693.585 483.070 L 4692.169 481.896 4646.335 417.351 L 4600.500 352.806 4597.945 349.153 L 4595.389 345.500 4511.131 226.750 L 4426.873 108 4373.437 108 L 4320 108 4320 407.508 M 3269.625 150.799 L 3269.131 151.597 3275.315 162.334 L 3281.500 173.071 3283.709 176.785 L 3285.919 180.500 3287.467 183.500 L 3289.014 186.500 3291.438 190.500 L 3293.863 194.500 3295.467 197.500 L 3297.070 200.500 3299.285 204.156 L 3301.500 207.811 3323.500 245.938 L 3345.500 284.065 3348.500 289.402 L 3351.500 294.739 3352.692 296.152 L 3353.884 297.566 3354.994 300.033 L 3356.103 302.500 3358.544 306.500 L 3360.986 310.500 3362.562 313.500 L 3364.137 316.500 3366.319 320.188 L 3368.500 323.876 3380.414 344.486 L 3392.329 365.096 3394.414 364.798 L 3396.500 364.500 3405.670 348.500 L 3414.839 332.500 3415.934 331.276 L 3417.029 330.053 3417.997 327.776 L 3418.965 325.500 3421.233 321.810 L 3423.500 318.120 3433.500 301.030 L 3443.500 283.940 3445.500 280.525 L 3447.500 277.110 3454.250 265.599 L 3461 254.088 3461 252.397 L 3461 250.706 3457.315 246.103 L 3453.631 241.500 3438.565 226.445 L 3423.500 211.391 3411.309 202.445 L 3399.118 193.500 3393.499 190 L 3387.881 186.500 3384.191 184.370 L 3380.500 182.240 3371 177.524 L 3361.500 172.808 3357.500 171.023 L 3353.500 169.238 3348.723 167.119 L 3343.946 165 3342.874 165 L 3341.802 165 3338.651 163.610 L 3335.500 162.221 3328.500 160.067 L 3321.500 157.912 3315 156.396 L 3308.500 154.880 3300 153.467 L 3291.500 152.054 3286.701 151.027 L 3281.902 150 3276.010 150 L 3270.118 150 3269.625 150.799 M 3207.500 152.214 L 3202.500 153.152 3190.500 156.033 L 3178.500 158.913 3173 160.463 L 3167.500 162.013 3164.349 163.507 L 3161.198 165 3159.834 165 L 3158.470 165 3154.739 167 L 3151.007 169 3149.958 169 L 3148.908 169 3135.704 175.559 L 3122.500 182.118 3115.500 186.512 L 3108.500 190.906 3105.602 192.555 L 3102.705 194.204 3095.102 199.792 L 3087.500 205.379 3076 215.562 L 3064.500 225.744 3059 231.653 L 3053.500 237.561 3048.869 243.031 L 3044.238 248.500 3041.816 251.500 L 3039.393 254.500 3036.197 259.421 L 3033 264.343 3033 265.675 L 3033 267.008 3156.750 266.754 L 3280.500 266.500 3280.168 264 L 3279.837 261.500 3278.172 259 L 3276.507 256.500 3275.245 254 L 3273.983 251.500 3271.560 247.500 L 3269.137 243.500 3267.573 240.500 L 3266.009 237.500 3264.005 234.250 L 3262 231 3260.250 228.075 L 3258.500 225.150 3253.423 216.325 L 3248.345 207.500 3247.625 206 L 3246.905 204.500 3244.702 200.808 L 3242.500 197.117 3231.108 177.308 L 3219.715 157.500 3217.239 154.250 L 3214.763 151 3213.631 151.138 L 3212.500 151.275 3207.500 152.214 M 1720.500 221.990 L 1681.500 222.500 1681.500 282.500 L 1681.500 342.500 1732.500 342.499 L 1783.500 342.499 1792.500 340.673 L 1801.500 338.846 1810 335.650 L 1818.500 332.454 1824.262 328.622 L 1830.025 324.789 1833.602 320.645 L 1837.180 316.500 1840.099 310.760 L 1843.018 305.021 1844.494 298.760 L 1845.970 292.500 1845.970 281.500 L 1845.970 270.500 1844.492 264.231 L 1843.014 257.962 1840.445 252.891 L 1837.875 247.820 1833.747 243.341 L 1829.619 238.863 1823.059 234.976 L 1816.500 231.089 1807.278 228.083 L 1798.056 225.077 1787.278 223.602 L 1776.500 222.126 1768 221.803 L 1759.500 221.479 1720.500 221.990 M 3782.500 221.964 L 3743.500 222.500 3743.500 282.500 L 3743.500 342.500 3794 342.500 L 3844.500 342.500 3852 341.135 L 3859.500 339.771 3867.500 337.294 L 3875.500 334.818 3881.763 331.353 L 3888.025 327.888 3893.363 322.676 L 3898.701 317.465 3902.275 309.982 L 3905.849 302.500 3906.924 296.566 L 3908 290.633 3907.985 280.566 L 3907.970 270.500 3906.492 264.231 L 3905.014 257.962 3902.472 252.945 L 3899.930 247.928 3896.394 244.014 L 3892.858 240.100 3887.234 236.368 L 3881.611 232.635 3874.158 229.741 L 3866.705 226.847 3858.102 225.002 L 3849.500 223.158 3840.500 222.551 L 3831.500 221.944 3826.500 221.686 L 3821.500 221.428 3782.500 221.964 M 3488.279 300.657 L 3487.059 301.147 3482.779 308.687 L 3478.500 316.227 3476.344 319.863 L 3474.188 323.500 3472.594 326.250 L 3471 329 3469.406 331.750 L 3467.812 334.500 3465.656 338.188 L 3463.500 341.876 3455.500 355.517 L 3447.500 369.159 3445.285 372.829 L 3443.070 376.500 3441.467 379.500 L 3439.863 382.500 3437.681 386.171 L 3435.500 389.841 3427.500 403.483 L 3419.500 417.124 3417.301 420.812 L 3415.103 424.500 3414 426.500 L 3412.897 428.500 3410.699 432.168 L 3408.500 435.836 3400 450.486 L 3391.500 465.137 3388.494 470.491 L 3385.488 475.845 3384.656 476.673 L 3383.824 477.500 3382.398 480.500 L 3380.972 483.500 3373.056 496.982 L 3365.139 510.463 3366.192 511.732 L 3367.245 513 3431.967 513 L 3496.690 513 3498.252 511.250 L 3499.814 509.500 3501.005 505 L 3502.196 500.500 3502.992 499.500 L 3503.789 498.500 3505.461 492.500 L 3507.134 486.500 3508.483 481 L 3509.831 475.500 3511.331 469 L 3512.831 462.500 3513.954 455.500 L 3515.078 448.500 3516.133 437 L 3517.189 425.500 3516.568 406.747 L 3515.947 387.994 3514.935 382.747 L 3513.922 377.500 3512.966 370 L 3512.010 362.500 3510.374 355.500 L 3508.739 348.500 3506.772 341.500 L 3504.806 334.500 3502.941 329.234 L 3501.075 323.969 3498.977 318.234 L 3496.878 312.500 3494.792 308 L 3492.705 303.500 3492.031 302.060 L 3491.357 300.619 3490.429 300.393 L 3489.500 300.167 3488.279 300.657 M 3005.807 316.750 L 3004.304 318.500 3002.571 323.500 L 3000.838 328.500 2999.431 333.500 L 2998.023 338.500 2997.028 340.500 L 2996.033 342.500 2994.484 349.500 L 2992.936 356.500 2992.066 361 L 2991.197 365.500 2989.362 376 L 2987.526 386.500 2987.589 413 L 2987.653 439.500 2989.237 448 L 2990.822 456.500 2991.459 462 L 2992.097 467.500 2993.484 472.500 L 2994.871 477.500 2995.866 482 L 2996.862 486.500 2998.847 493 L 3000.831 499.500 3002.449 504 L 3004.066 508.500 3005.451 511.500 L 3006.835 514.500 3009.801 521.500 L 3012.767 528.500 3015.052 528.500 L 3017.337 528.500 3019.171 525.500 L 3021.004 522.500 3022.571 519.500 L 3024.137 516.500 3026.319 512.791 L 3028.500 509.083 3048.317 474.791 L 3068.133 440.500 3069.032 439 L 3069.931 437.500 3073.215 431.661 L 3076.500 425.821 3078.681 422.161 L 3080.863 418.500 3082.438 415.500 L 3084.014 412.500 3086.438 408.500 L 3088.863 404.500 3090.425 401.500 L 3091.987 398.500 3094.511 394.500 L 3097.035 390.500 3098 388.500 L 3098.965 386.500 3101.489 382.500 L 3104.013 378.500 3105.575 375.500 L 3107.137 372.500 3109.562 368.500 L 3111.986 364.500 3113.562 361.500 L 3115.137 358.500 3117.319 354.839 L 3119.500 351.179 3122.580 345.839 L 3125.660 340.500 3126.355 339 L 3127.051 337.500 3132.958 327.521 L 3138.866 317.543 3137.810 316.271 L 3136.755 315 3072.033 315 L 3007.310 315 3005.807 316.750 M 3192.680 318.750 L 3190.335 322.500 3186.418 329.348 L 3182.500 336.196 3180.319 339.848 L 3178.137 343.500 3176.571 346.500 L 3175.004 349.500 3173.027 352.500 L 3171.049 355.500 3169.064 359 L 3167.079 362.500 3165.471 365.500 L 3163.863 368.500 3161.681 372.213 L 3159.500 375.927 3148.750 394.455 L 3138 412.983 3138 414.035 L 3138 415.088 3144.750 426.616 L 3151.500 438.145 3155 444.498 L 3158.500 450.850 3159.338 451.675 L 3160.176 452.500 3161.595 455.500 L 3163.014 458.500 3165.456 462.500 L 3167.897 466.500 3168.931 468.500 L 3169.965 470.500 3172.489 474.500 L 3175.013 478.500 3176.548 481.500 L 3178.083 484.500 3186.297 498.500 L 3194.511 512.500 3252.152 512.758 L 3309.793 513.016 3312.107 509.258 L 3314.422 505.500 3315.719 503 L 3317.017 500.500 3319.258 496.820 L 3321.500 493.140 3329.500 479.494 L 3337.500 465.849 3339.767 462.174 L 3342.035 458.500 3343.069 456.500 L 3344.103 454.500 3346.544 450.500 L 3348.986 446.500 3350.562 443.500 L 3352.137 440.500 3354.319 436.802 L 3356.500 433.105 3361.250 425.075 L 3366 417.046 3366 414.082 L 3366 411.118 3364.985 410.491 L 3363.970 409.863 3362.478 406.682 L 3360.986 403.500 3358.562 399.500 L 3356.137 395.500 3354.562 392.500 L 3352.986 389.500 3350.562 385.500 L 3348.137 381.500 3346.562 378.500 L 3344.986 375.500 3342.562 371.500 L 3340.137 367.500 3338.562 364.500 L 3336.986 361.500 3334.587 357.500 L 3332.188 353.500 3330.757 351 L 3329.327 348.500 3327 344.500 L 3324.673 340.500 3323.243 338 L 3321.812 335.500 3319.415 331.500 L 3317.017 327.500 3315.719 325 L 3314.422 322.500 3312.112 318.750 L 3309.802 315 3252.414 315 L 3195.025 315 3192.680 318.750 M 1681.750 455.583 L 1681 456.333 1681 524.167 L 1681 592 1738.250 591.997 L 1795.500 591.994 1804.500 590.933 L 1813.500 589.873 1821.500 587.836 L 1829.500 585.800 1839.500 580.999 L 1849.500 576.198 1855.826 569.863 L 1862.152 563.528 1865.467 556.514 L 1868.782 549.500 1870.124 544 L 1871.466 538.500 1871.418 526 L 1871.370 513.500 1869.080 505.267 L 1866.790 497.034 1863.334 491.267 L 1859.878 485.500 1855.689 481.125 L 1851.500 476.751 1845 472.491 L 1838.500 468.232 1832.500 465.713 L 1826.500 463.193 1820.684 461.506 L 1814.867 459.819 1804.684 457.790 L 1794.500 455.761 1738.500 455.297 L 1682.500 454.832 1681.750 455.583 M 3743.745 455.589 L 3743 456.333 3743 524.167 L 3743 592 3802.325 592 L 3861.650 592 3872.988 589.958 L 3884.326 587.917 3893.089 584.625 L 3901.852 581.334 3907.527 577.917 L 3913.201 574.500 3918.984 568.338 L 3924.767 562.176 3927.358 556.838 L 3929.949 551.500 3931.665 545 L 3933.382 538.500 3933.337 526.500 L 3933.292 514.500 3931.625 507.600 L 3929.959 500.701 3927.038 494.600 L 3924.118 488.500 3918.940 482.707 L 3913.763 476.914 3907.666 472.773 L 3901.570 468.633 3894.035 465.488 L 3886.500 462.344 3880.500 460.704 L 3874.500 459.065 3866 457.401 L 3857.500 455.736 3800.995 455.290 L 3744.489 454.844 3743.745 455.589 M 3101.500 474.615 L 3095.500 485.197 3093.301 488.848 L 3091.103 492.500 3090.067 494.773 L 3089.032 497.046 3085.705 502.273 L 3082.378 507.500 3081.710 509 L 3081.042 510.500 3078.515 514.500 L 3075.987 518.500 3074.425 521.500 L 3072.863 524.500 3070.681 528.199 L 3068.500 531.899 3056.500 552.654 L 3044.500 573.410 3043.921 575.455 L 3043.342 577.500 3047.355 582.500 L 3051.368 587.500 3064.934 601.040 L 3078.500 614.580 3086.006 620.540 L 3093.513 626.500 3096.760 628.782 L 3100.007 631.065 3103.753 633.551 L 3107.500 636.037 3109 637.042 L 3110.500 638.048 3114 640.232 L 3117.500 642.416 3120 643.841 L 3122.500 645.266 3131 649.686 L 3139.500 654.107 3146.500 657.130 L 3153.500 660.152 3156.651 661.576 L 3159.802 663 3161 663 L 3162.198 663 3165.349 664.493 L 3168.500 665.987 3174 667.565 L 3179.500 669.143 3185 670.487 L 3190.500 671.831 3197 673.331 L 3203.500 674.831 3211 676.064 L 3218.500 677.297 3226.340 677.758 L 3234.180 678.220 3235.010 677.360 L 3235.839 676.500 3228.978 665 L 3222.117 653.500 3220.523 650.500 L 3218.930 647.500 3216.715 643.835 L 3214.500 640.169 3202.500 619.534 L 3190.500 598.899 3188.301 595.199 L 3186.103 591.500 3185.069 589.500 L 3184.035 587.500 3181.767 583.821 L 3179.500 580.141 3169.500 562.895 L 3159.500 545.650 3157.244 542.075 L 3154.987 538.500 3153.425 535.500 L 3151.863 532.500 3149.681 528.801 L 3147.500 525.101 3135.500 504.541 L 3123.500 483.980 3121.500 480.588 L 3119.500 477.196 3115.701 470.598 L 3111.902 464 3109.701 464.017 L 3107.500 464.034 3101.500 474.615 M 252 559.835 L 252 560.670 298.755 632.994 L 345.510 705.317 346.366 705.409 L 347.222 705.500 382.861 649.937 L 418.500 594.374 429 577.981 L 439.500 561.588 439.823 560.294 L 440.147 559 346.073 559 L 252 559 252 559.835 M 3224.337 561.564 L 3223.737 563.128 3224.921 565.314 L 3226.105 567.500 3228.077 571 L 3230.049 574.500 3231.775 577.169 L 3233.500 579.838 3242 594.501 L 3250.500 609.164 3252.702 612.832 L 3254.905 616.500 3255.608 618 L 3256.310 619.500 3257.405 620.869 L 3258.500 622.238 3262 628.522 L 3265.500 634.806 3271.500 644.931 L 3277.500 655.055 3279.500 658.429 L 3281.500 661.804 3285.299 668.402 L 3289.098 675 3294.299 674.956 L 3299.500 674.913 3303.500 673.996 L 3307.500 673.078 3315.500 671.115 L 3323.500 669.152 3330 667.180 L 3336.500 665.208 3340 663.968 L 3343.500 662.728 3348.500 660.760 L 3353.500 658.793 3357.500 657.033 L 3361.500 655.273 3366.500 652.890 L 3371.500 650.508 3382.500 644.187 L 3393.500 637.867 3397 635.730 L 3400.500 633.592 3410.500 626.137 L 3420.500 618.683 3424 615.627 L 3427.500 612.572 3441.058 598.962 L 3454.617 585.353 3463.220 573.926 L 3471.823 562.500 3470.220 561.250 L 3468.618 560 3346.777 560 L 3224.937 560 3224.337 561.564" stroke="none" fill="#fef7ec" fill-rule="evenodd"/></svg>