<svg xmlns="http://www.w3.org/2000/svg" width="5044" height="1800" viewBox="0 0 5044 1800" version="1.1"><path d="M 0 900 L 0 1800 2522.250 1799.750 L 5044.500 1799.500 5044.751 899.750 L 5045.001 0 2522.501 0 L 0 0 0 900 M 0.498 900.500 L 0.498 1800.500 0.750 1350.833 L 1.002 901.165 0.750 450.833 L 0.498 0.500 0.498 900.500 M 98 411.500 L 98 733 230.250 732.990 L 362.500 732.981 376 731.505 L 389.500 730.029 399.500 728.424 L 409.500 726.819 421.052 723.945 L 432.604 721.070 443.052 717.461 L 453.500 713.852 465.552 708.023 L 477.604 702.194 488.052 695.195 L 498.500 688.196 506.208 681.604 L 513.915 675.013 521.575 666.257 L 529.234 657.500 535.199 648.500 L 541.165 639.500 545.998 629.500 L 550.831 619.500 554.352 608.926 L 557.872 598.352 559.929 587.426 L 561.987 576.500 562.985 567.500 L 563.984 558.500 563.974 546 L 563.965 533.500 562.980 524 L 561.994 514.500 559.896 504 L 557.797 493.500 554.339 483 L 550.880 472.500 544.924 460.500 L 538.969 448.500 532.585 439.609 L 526.201 430.717 519.422 423.232 L 512.642 415.747 504.068 408.623 L 495.493 401.500 487.275 396.106 L 479.058 390.712 489.318 380.004 L 499.578 369.297 505.662 360.399 L 511.747 351.500 516.247 342.500 L 520.748 333.500 524.397 323.733 L 528.046 313.965 530.029 305.616 L 532.012 297.266 533.488 286.883 L 534.963 276.500 534.982 261.801 L 535 247.102 533.455 235.301 L 531.910 223.500 529.952 215.820 L 527.993 208.140 524.882 199.320 L 521.770 190.500 518.489 184 L 515.207 177.500 509.221 168.500 L 503.235 159.500 497.829 153.205 L 492.423 146.911 484.961 140.399 L 477.500 133.887 468 127.507 L 458.500 121.127 446 115.157 L 433.500 109.187 421.278 105.150 L 409.057 101.113 397.778 98.600 L 386.500 96.087 372.500 94.088 L 358.500 92.090 341.289 91.045 L 324.077 90 211.039 90 L 98 90 98 411.500 M 1057.256 299.750 L 1057.561 509.500 1059.322 520 L 1061.083 530.500 1063.975 542.500 L 1066.868 554.500 1069.830 563.500 L 1072.793 572.500 1077.947 584.500 L 1083.102 596.500 1088.678 606.500 L 1094.254 616.500 1101.055 626.500 L 1107.855 636.500 1115.788 646.003 L 1123.720 655.505 1135.249 666.588 L 1146.778 677.672 1158.139 686.252 L 1169.500 694.833 1178.500 700.282 L 1187.500 705.731 1197.968 710.984 L 1208.437 716.237 1219.697 720.640 L 1230.957 725.043 1243.729 728.546 L 1256.500 732.050 1268 733.990 L 1279.500 735.931 1291 736.962 L 1302.500 737.993 1310.589 737.997 L 1318.679 738 1334.589 736.476 L 1350.500 734.952 1362.808 732.417 L 1375.116 729.881 1387.788 725.830 L 1400.460 721.779 1411.749 716.935 L 1423.038 712.091 1433.269 706.363 L 1443.500 700.636 1450 696.475 L 1456.500 692.314 1466.500 684.495 L 1476.500 676.675 1484.879 669.088 L 1493.257 661.500 1503.183 650 L 1513.109 638.500 1520.875 627 L 1528.640 615.500 1533.286 607.356 L 1537.931 599.212 1540.579 593.356 L 1543.226 587.500 1547.134 578.033 L 1551.042 568.567 1554.465 557.033 L 1557.889 545.500 1559.353 539 L 1560.818 532.500 1562.448 522.135 L 1564.078 511.771 1565.015 494.135 L 1565.952 476.500 1565.961 284.500 L 1565.969 92.500 1565.171 91.243 L 1564.373 89.985 1500.436 90.243 L 1436.500 90.500 1435.965 296 L 1435.430 501.500 1433.654 508.841 L 1431.879 516.183 1428.825 524.841 L 1425.771 533.500 1422.962 539.071 L 1420.152 544.641 1413.916 553.965 L 1407.680 563.288 1400.241 570.727 L 1392.803 578.165 1384.732 584.077 L 1376.662 589.988 1367.081 594.904 L 1357.500 599.819 1349.500 602.362 L 1341.500 604.906 1333.140 606.453 L 1324.779 608 1310.797 608 L 1296.814 608 1286.723 605.944 L 1276.633 603.887 1267.566 600.392 L 1258.500 596.896 1252 593.342 L 1245.500 589.789 1239 585.214 L 1232.500 580.638 1223.706 572.095 L 1214.911 563.551 1209.084 555.026 L 1203.257 546.500 1199.754 539.500 L 1196.251 532.500 1193.645 525.244 L 1191.039 517.988 1188.807 508.244 L 1186.576 498.500 1186.260 294.250 L 1185.945 90 1121.448 90 L 1056.950 90 1057.256 299.750 M 1645 151.500 L 1645 213 1853 213 L 2061 213 2061 151.500 L 2061 90 1853 90 L 1645 90 1645 151.500 M 2358 411.536 L 2358 733.073 2497.250 732.743 L 2636.500 732.414 2647 730.672 L 2657.500 728.930 2670.500 726.377 L 2683.500 723.825 2698.329 718.898 L 2713.157 713.971 2723.560 709.064 L 2733.963 704.157 2742.617 698.929 L 2751.272 693.702 2760.886 686.038 L 2770.500 678.375 2778.825 669.437 L 2787.150 660.500 2794.106 650.150 L 2801.062 639.800 2805.996 629.650 L 2810.930 619.500 2814.409 609 L 2817.887 598.500 2819.886 588.500 L 2821.884 578.500 2822.942 568.789 L 2824 559.079 2823.992 545.289 L 2823.984 531.500 2822.956 522.500 L 2821.929 513.500 2819.908 503.500 L 2817.887 493.500 2814.394 483 L 2810.901 472.500 2806.038 462.305 L 2801.175 452.110 2794.154 441.805 L 2787.133 431.500 2779.816 423.566 L 2772.500 415.633 2763.877 408.454 L 2755.254 401.274 2747.187 395.939 L 2739.121 390.604 2749.621 379.737 L 2760.120 368.869 2767.167 358.184 L 2774.214 347.500 2776.983 342 L 2779.752 336.500 2783.418 326.682 L 2787.084 316.864 2789.536 307.652 L 2791.987 298.440 2793.475 287.970 L 2794.963 277.500 2794.963 261 L 2794.963 244.500 2793.477 234 L 2791.991 223.500 2789.873 215 L 2787.755 206.500 2784.816 198.500 L 2781.878 190.500 2776.950 181.128 L 2772.023 171.756 2766.261 163.687 L 2760.500 155.618 2751.441 146.559 L 2742.382 137.500 2734.441 131.835 L 2726.500 126.171 2719.513 121.931 L 2712.526 117.690 2701.769 112.897 L 2691.012 108.104 2680.249 104.625 L 2669.486 101.145 2658.493 98.623 L 2647.500 96.100 2633.500 94.069 L 2619.500 92.038 2603.500 91.023 L 2587.500 90.007 2472.750 90.004 L 2358 90 2358 411.536 M 3106.483 91.196 L 3105.988 92.500 3106.244 412.500 L 3106.500 732.500 3171.250 732.757 L 3236 733.015 3236 472.937 L 3236 212.858 3294.750 213.287 L 3353.500 213.717 3362 215.363 L 3370.500 217.009 3379 219.615 L 3387.500 222.220 3392.283 224.644 L 3397.067 227.067 3402.283 230.423 L 3407.500 233.779 3412.159 238.398 L 3416.817 243.017 3420.591 248.703 L 3424.365 254.389 3427.104 261.444 L 3429.843 268.500 3431.489 277.289 L 3433.136 286.078 3433.165 298.789 L 3433.193 311.500 3432.015 317.956 L 3430.837 324.412 3428.454 331.956 L 3426.071 339.500 3422.557 345.336 L 3419.043 351.172 3414.897 356.123 L 3410.752 361.074 3404.859 365.609 L 3398.966 370.143 3389.675 374.544 L 3380.384 378.945 3370.942 381.435 L 3361.500 383.926 3354.500 385.092 L 3347.500 386.259 3323 386.879 L 3298.500 387.500 3298.242 449.301 L 3297.985 511.103 3299.144 513.301 L 3300.303 515.500 3326.339 553 L 3352.374 590.500 3380.471 631 L 3408.567 671.500 3429.902 702.250 L 3451.237 733 3529.119 733 L 3607 733 3607 732.538 L 3607 732.077 3582.178 696.788 L 3557.357 661.500 3498.157 577.186 L 3438.957 492.872 3438.729 491.855 L 3438.500 490.838 3449.910 485.905 L 3461.320 480.972 3472.044 474.885 L 3482.769 468.799 3491.634 462.162 L 3500.500 455.524 3508.874 447.512 L 3517.248 439.500 3523.689 431.500 L 3530.130 423.500 3535.737 414.500 L 3541.344 405.500 3545.636 396.460 L 3549.928 387.420 3553.917 375.460 L 3557.906 363.500 3560.398 351 L 3562.891 338.500 3563.945 328.789 L 3565 319.079 3564.999 300.789 L 3564.998 282.500 3563.449 269 L 3561.900 255.500 3559.375 244 L 3556.850 232.500 3553.476 222.320 L 3550.102 212.140 3545.246 201.320 L 3540.389 190.500 3534.604 181.202 L 3528.819 171.903 3522.736 164.202 L 3516.652 156.500 3509.076 148.941 L 3501.500 141.382 3494.500 135.902 L 3487.500 130.421 3479.040 125.040 L 3470.580 119.659 3460.040 114.440 L 3449.500 109.220 3441 106.183 L 3432.500 103.146 3425.894 101.150 L 3419.287 99.154 3406.894 96.610 L 3394.500 94.066 3382.500 92.369 L 3370.500 90.672 3238.739 90.282 L 3106.979 89.892 3106.483 91.196 M 3636 411.944 L 3636 734 3749.750 733.997 L 3863.500 733.993 3875 732.938 L 3886.500 731.883 3896.500 730.408 L 3906.500 728.933 3919.500 726.028 L 3932.500 723.123 3944.202 719.573 L 3955.904 716.022 3965.702 712.114 L 3975.500 708.206 3986.345 703.123 L 3997.191 698.041 4006.345 692.860 L 4015.500 687.679 4028.152 679.375 L 4040.803 671.072 4054.380 659.952 L 4067.958 648.833 4081.922 634.370 L 4095.887 619.907 4105.821 606.703 L 4115.754 593.500 4122.908 582.044 L 4130.062 570.588 4136.436 558.044 L 4142.810 545.500 4146.538 536.500 L 4150.266 527.500 4154.114 516.272 L 4157.961 505.044 4160.936 493.772 L 4163.911 482.500 4165.887 472.483 L 4167.863 462.465 4169.539 448.483 L 4171.214 434.500 4171.279 412.500 L 4171.343 390.500 4170.088 379 L 4168.833 367.500 4166.379 354 L 4163.925 340.500 4160.983 329.500 L 4158.040 318.500 4154.659 308.500 L 4151.278 298.500 4147.547 289.500 L 4143.816 280.500 4137.494 267.927 L 4131.173 255.355 4125.467 245.927 L 4119.761 236.500 4114.138 228.500 L 4108.515 220.500 4100.933 211 L 4093.352 201.500 4082.949 190.623 L 4072.545 179.745 4062.523 171.051 L 4052.500 162.357 4043 155.248 L 4033.500 148.138 4020.700 140.123 L 4007.899 132.107 3996.200 126.143 L 3984.500 120.178 3972.065 115.067 L 3959.630 109.955 3947.170 105.972 L 3934.711 101.989 3922.105 99.055 L 3909.500 96.120 3903.162 95 L 3896.823 93.880 3885.662 92.277 L 3874.500 90.675 3755.250 90.282 L 3636 89.889 3636 411.944 M 683.750 111.323 L 621 131.438 621 432.221 L 621 733.005 830.250 732.752 L 1039.500 732.500 1039.758 672.064 L 1040.016 611.628 1038.758 610.829 L 1037.500 610.031 893.750 610.015 L 750 610 750 350.500 L 750 91 748.250 91.104 L 746.500 91.207 683.750 111.323 M 2950.500 110.596 L 2889.500 130.104 2887.250 131.031 L 2885 131.957 2885 432.479 L 2885 733 2949.500 733 L 3014 733 3014 412 L 3014 91 3012.750 91.044 L 3011.500 91.087 2950.500 110.596 M 255.250 212.749 L 227 213.031 227 277.574 L 227 342.117 285.250 341.751 L 343.500 341.384 353.978 338.653 L 364.455 335.921 371.698 332.437 L 378.942 328.953 385.221 323.614 L 391.500 318.276 395.276 311.888 L 399.053 305.500 401.114 299 L 403.175 292.500 403.688 280 L 404.200 267.500 402.656 260.260 L 401.112 253.020 398.119 246.750 L 395.127 240.480 389.813 235.174 L 384.500 229.869 378.713 226.339 L 372.925 222.810 364.713 220.019 L 356.500 217.229 348.500 215.629 L 340.500 214.030 329.500 213.016 L 318.500 212.002 301 212.235 L 283.500 212.468 255.250 212.749 M 2515.250 212.749 L 2487 213.031 2487 277.574 L 2487 342.116 2545.750 341.771 L 2604.500 341.425 2614.500 338.671 L 2624.500 335.916 2632.779 331.839 L 2641.057 327.761 2647.507 321.529 L 2653.957 315.298 2657.488 307.864 L 2661.018 300.430 2662.604 292.965 L 2664.190 285.500 2663.707 273 L 2663.223 260.500 2661.102 253.850 L 2658.981 247.200 2654.988 241.219 L 2650.994 235.238 2645.747 231.213 L 2640.500 227.188 2634.500 224.180 L 2628.500 221.172 2622.094 219.089 L 2615.688 217.006 2607.594 215.510 L 2599.500 214.013 2588 213.015 L 2576.500 212.017 2560 212.242 L 2543.500 212.468 2515.250 212.749 M 3765.462 221.250 L 3764.987 222.500 3765.243 413.500 L 3765.500 604.500 3815 604.458 L 3864.500 604.416 3875.583 602.673 L 3886.665 600.930 3897.664 598.045 L 3908.663 595.159 3918.582 591.455 L 3928.500 587.752 3934.500 584.762 L 3940.500 581.773 3948.771 576.807 L 3957.042 571.840 3965.153 565.827 L 3973.263 559.813 3982.249 551.157 L 3991.235 542.500 3997.579 534.899 L 4003.923 527.299 4010.264 517.815 L 4016.605 508.332 4020.717 500.416 L 4024.828 492.500 4028.881 482.314 L 4032.933 472.128 4035.473 462.291 L 4038.014 452.453 4039.595 443.976 L 4041.176 435.500 4041.693 417.500 L 4042.210 399.500 4040.615 387.500 L 4039.020 375.500 4036.524 365.243 L 4034.027 354.986 4030.387 345.243 L 4026.747 335.500 4021.979 326 L 4017.210 316.500 4011.285 307.500 L 4005.360 298.500 3997.840 289.500 L 3990.321 280.500 3982.884 273.465 L 3975.446 266.429 3967.193 260.147 L 3958.941 253.865 3951.158 249.038 L 3943.375 244.211 3935.438 240.231 L 3927.500 236.251 3918 232.714 L 3908.500 229.177 3898.836 226.555 L 3889.171 223.933 3875.836 221.971 L 3862.500 220.009 3814.219 220.005 L 3765.937 220 3765.462 221.250 M 1645.242 413.250 L 1645.500 474.500 1851 474.773 L 2056.500 475.047 2058.750 474.504 L 2061 473.962 2061 412.981 L 2061 352 1852.992 352 L 1644.985 352 1645.242 413.250 M 227 536.552 L 227 610.104 293.750 609.723 L 360.500 609.342 370 607.270 L 379.500 605.198 386.870 602.618 L 394.240 600.038 400.870 596.343 L 407.500 592.648 413.668 586.744 L 419.836 580.840 423.446 573.971 L 427.056 567.101 429.028 559.391 L 431 551.680 430.983 539.590 L 430.965 527.500 429.501 520.500 L 428.036 513.500 424.055 505.500 L 420.073 497.500 415.899 492.680 L 411.724 487.859 406.550 484.037 L 401.375 480.214 394.438 476.748 L 387.500 473.281 381 471.156 L 374.500 469.031 364.890 467.067 L 355.280 465.103 345.034 464.051 L 334.788 463 280.894 463 L 227 463 227 536.552 M 2487.667 463.667 L 2487 464.333 2487 537.167 L 2487 610 2549.622 610 L 2612.243 610 2622.838 608.427 L 2633.433 606.854 2642.967 603.823 L 2652.500 600.792 2659.469 597.157 L 2666.437 593.522 2672.642 587.718 L 2678.847 581.914 2682.019 576.971 L 2685.191 572.027 2687.542 565.264 L 2689.892 558.500 2690.813 549.305 L 2691.735 540.110 2690.857 530.559 L 2689.979 521.009 2687.585 513.471 L 2685.191 505.933 2680.967 499.449 L 2676.743 492.965 2671.293 487.985 L 2665.843 483.004 2660.105 479.641 L 2654.368 476.278 2646.434 473.148 L 2638.500 470.017 2629.984 468.027 L 2621.468 466.036 2608.490 464.518 L 2595.512 463 2541.923 463 L 2488.333 463 2487.667 463.667 M 1645 673 L 1645 733 1853 733 L 2061 733 2061 673 L 2061 613 1853 613 L 1645 613 1645 673 M 654.265 898.713 L 593.031 919.156 592.765 1104.828 L 592.500 1290.500 592.765 1416.250 L 593.030 1542 654.997 1542 L 716.964 1542 717.232 1408.750 L 717.500 1275.500 720.181 1268.277 L 722.862 1261.054 726.491 1254.150 L 730.119 1247.245 735.572 1240.634 L 741.024 1234.024 747.404 1228.762 L 753.784 1223.500 761.642 1219.316 L 769.500 1215.132 778.500 1212.384 L 787.500 1209.636 801.500 1209.594 L 815.500 1209.552 823.157 1211.747 L 830.813 1213.943 836.504 1216.460 L 842.196 1218.976 849.088 1223.559 L 855.981 1228.141 862.168 1234.320 L 868.356 1240.500 873.068 1247.710 L 877.780 1254.919 880.805 1262.210 L 883.831 1269.500 885.606 1277 L 887.381 1284.500 887.733 1413.250 L 888.085 1542 949.580 1542 L 1011.075 1542 1010.704 1406.750 L 1010.333 1271.500 1008.711 1262.359 L 1007.090 1253.219 1004.529 1243.114 L 1001.968 1233.010 998.468 1223.255 L 994.968 1213.500 989.524 1202.500 L 984.081 1191.500 977.219 1181 L 970.356 1170.500 964.286 1163 L 958.217 1155.500 947.358 1144.958 L 936.500 1134.417 928.220 1128.141 L 919.941 1121.865 911.720 1116.759 L 903.500 1111.654 892.500 1106.367 L 881.500 1101.079 871.781 1097.569 L 862.062 1094.059 853.804 1091.950 L 845.545 1089.841 832.522 1087.925 L 819.500 1086.009 802 1086.023 L 784.500 1086.037 774.196 1087.501 L 763.893 1088.966 754.696 1091.118 L 745.500 1093.270 733 1097.557 L 720.500 1101.845 718.750 1102.529 L 717 1103.214 717 991.166 L 717 879.118 716.250 878.694 L 715.500 878.270 654.265 898.713 M 4165.584 898.378 L 4104.936 918.730 4104.496 919.171 L 4104.055 919.612 4103.999 1106.556 L 4103.944 1293.500 4103.972 1417.750 L 4104 1542 4166 1542 L 4228 1542 4228 1411.314 L 4228 1280.628 4229.610 1274.064 L 4231.221 1267.500 4235.089 1259.156 L 4238.958 1250.813 4243.362 1244.656 L 4247.765 1238.500 4253.633 1232.947 L 4259.500 1227.394 4264 1224.330 L 4268.500 1221.266 4274.703 1218.142 L 4280.907 1215.018 4289.703 1212.327 L 4298.500 1209.636 4312.500 1209.594 L 4326.500 1209.552 4334.157 1211.747 L 4341.813 1213.943 4347.504 1216.460 L 4353.196 1218.976 4359.898 1223.432 L 4366.601 1227.888 4373.602 1234.945 L 4380.603 1242.002 4385.397 1249.931 L 4390.190 1257.861 4393.045 1266.180 L 4395.900 1274.500 4396.942 1281 L 4397.985 1287.500 4397.992 1414.750 L 4398 1542 4460 1542 L 4522 1542 4522 1414.174 L 4522 1286.347 4520.937 1275.424 L 4519.874 1264.500 4517.430 1252.244 L 4514.986 1239.988 4511.423 1229.338 L 4507.859 1218.687 4503.576 1208.953 L 4499.292 1199.220 4493.022 1188.695 L 4486.752 1178.169 4480.198 1169.436 L 4473.643 1160.703 4464.743 1151.393 L 4455.843 1142.083 4447.603 1135.088 L 4439.363 1128.092 4427.932 1120.436 L 4416.500 1112.780 4403.500 1106.494 L 4390.500 1100.208 4379.500 1096.625 L 4368.500 1093.042 4359.883 1091.015 L 4351.266 1088.988 4340.883 1087.512 L 4330.500 1086.037 4313 1086.037 L 4295.500 1086.037 4285.395 1087.473 L 4275.289 1088.910 4267.895 1090.542 L 4260.500 1092.175 4253 1094.499 L 4245.500 1096.824 4237.059 1099.912 L 4228.617 1103 4228.309 1103 L 4228 1103 4228 991.059 L 4228 879.118 4227.116 878.571 L 4226.231 878.025 4165.584 898.378 M 98 1220.500 L 98 1542 162.500 1542 L 227 1542 227 1282 L 227 1022 281.250 1022.020 L 335.500 1022.039 346 1023.472 L 356.500 1024.905 362.354 1026.467 L 368.208 1028.029 375.752 1031.169 L 383.295 1034.310 390.601 1039.196 L 397.906 1044.082 402.820 1049.683 L 407.733 1055.285 411.300 1061.892 L 414.867 1068.500 417.364 1077.124 L 419.862 1085.747 420.870 1096.624 L 421.879 1107.500 421.001 1117.500 L 420.124 1127.500 419.104 1132 L 418.085 1136.500 416.031 1142.439 L 413.978 1148.378 410.864 1153.939 L 407.750 1159.500 403.162 1164.909 L 398.574 1170.318 392.537 1174.796 L 386.500 1179.274 377.500 1183.641 L 368.500 1188.008 358.919 1190.428 L 349.338 1192.849 341.919 1193.955 L 334.500 1195.061 312.242 1195.681 L 289.985 1196.301 290.242 1257.400 L 290.500 1318.500 302.500 1318.813 L 314.500 1319.125 336 1318.040 L 357.500 1316.955 368 1315.409 L 378.500 1313.864 388.918 1311.863 L 399.336 1309.863 410.918 1306.367 L 422.500 1302.870 431.500 1299.308 L 440.500 1295.746 450.500 1290.773 L 460.500 1285.800 469 1280.260 L 477.500 1274.719 484.500 1268.967 L 491.500 1263.214 500.599 1253.857 L 509.698 1244.500 515.817 1236.206 L 521.936 1227.913 527.425 1218.206 L 532.914 1208.500 537.906 1196 L 542.899 1183.500 545.888 1171.500 L 548.876 1159.500 550.688 1148.500 L 552.500 1137.500 552.475 1109.500 L 552.450 1081.500 550.663 1069.550 L 548.875 1057.600 545.520 1044.550 L 542.165 1031.500 538.900 1022.507 L 535.635 1013.513 529.939 1002.381 L 524.244 991.249 519.969 984.875 L 515.694 978.500 508.597 969.630 L 501.500 960.760 492 952.300 L 482.500 943.840 471.500 936.504 L 460.500 929.168 449.452 923.657 L 438.404 918.147 426.830 914.156 L 415.257 910.165 404.690 907.570 L 394.122 904.974 381.311 903.046 L 368.500 901.118 355.696 900.059 L 342.891 899 220.446 899 L 98 899 98 1220.500 M 1630.224 956.330 L 1569.948 976.500 1570.257 1150 L 1570.566 1323.500 1572.332 1334 L 1574.098 1344.500 1576.687 1355.500 L 1579.275 1366.500 1583.665 1379.345 L 1588.055 1392.191 1594.336 1405.345 L 1600.617 1418.500 1607.485 1429.500 L 1614.353 1440.500 1618.869 1446.500 L 1623.385 1452.500 1631.422 1461.917 L 1639.460 1471.334 1651.285 1482.097 L 1663.111 1492.860 1672.627 1500.044 L 1682.143 1507.228 1692.467 1513.549 L 1702.790 1519.869 1709.645 1523.311 L 1716.500 1526.753 1730.512 1532.349 L 1744.524 1537.946 1756.012 1540.971 L 1767.500 1543.996 1778 1545.933 L 1788.500 1547.870 1798.789 1548.935 L 1809.078 1550 1816.539 1550 L 1824 1550 1824 1488.625 L 1824 1427.250 1820.875 1426.625 L 1817.750 1426 1813.410 1426 L 1809.071 1426 1799.285 1424.082 L 1789.500 1422.165 1780.500 1418.970 L 1771.500 1415.776 1767.500 1413.773 L 1763.500 1411.770 1757.500 1408.212 L 1751.500 1404.654 1743.500 1398.451 L 1735.500 1392.249 1729.963 1386.374 L 1724.426 1380.500 1719.860 1374.500 L 1715.295 1368.500 1710.690 1360.500 L 1706.084 1352.500 1702.943 1344.585 L 1699.801 1336.670 1697.425 1327.302 L 1695.048 1317.934 1694.024 1305.322 L 1693 1292.710 1693 1246.937 L 1693 1201.164 1693.607 1199.582 L 1694.214 1198 1759.107 1198 L 1824 1198 1824 1140.507 L 1824 1083.014 1758.750 1082.757 L 1693.500 1082.500 1693.244 1009.250 L 1692.987 936 1691.744 936.080 L 1690.500 936.161 1630.224 956.330 M 3068 1072.085 L 3058.500 1072.935 3048 1074.541 L 3037.500 1076.148 3027.500 1078.616 L 3017.500 1081.083 3008 1084.168 L 2998.500 1087.253 2989 1091.235 L 2979.500 1095.216 2969 1100.593 L 2958.500 1105.969 2948.397 1112.318 L 2938.294 1118.666 2930.620 1124.442 L 2922.945 1130.218 2913.676 1138.471 L 2904.407 1146.723 2895.135 1156.747 L 2885.863 1166.771 2879.790 1174.636 L 2873.717 1182.500 2865.738 1194.500 L 2857.760 1206.500 2850.459 1221.500 L 2843.159 1236.500 2839.522 1246.360 L 2835.885 1256.220 2832.413 1268.860 L 2828.942 1281.500 2827 1292.500 L 2825.058 1303.500 2824.029 1313.856 L 2823 1324.212 2823 1433.106 L 2823 1542 2884.459 1542 L 2945.918 1542 2946.283 1431.750 L 2946.649 1321.500 2948.369 1313 L 2950.089 1304.500 2953.479 1294.361 L 2956.870 1284.223 2961.824 1274.361 L 2966.779 1264.500 2972.518 1256.500 L 2978.257 1248.500 2984.289 1242 L 2990.322 1235.500 2996.411 1230.145 L 3002.500 1224.790 3009.515 1220.023 L 3016.530 1215.256 3025.515 1210.744 L 3034.500 1206.232 3043.235 1203.150 L 3051.969 1200.067 3059.992 1198.442 L 3068.014 1196.816 3079.257 1195.643 L 3090.500 1194.470 3090.500 1132.985 L 3090.500 1071.500 3084 1071.368 L 3077.500 1071.235 3068 1072.085 M 1267 1077.686 L 1262.500 1078.022 1248.477 1079.996 L 1234.454 1081.969 1221.706 1085.463 L 1208.957 1088.957 1197.688 1093.363 L 1186.419 1097.770 1176.959 1102.520 L 1167.500 1107.270 1158.505 1112.749 L 1149.511 1118.228 1140.007 1125.364 L 1130.503 1132.500 1119.614 1143 L 1108.725 1153.500 1100.500 1163.500 L 1092.276 1173.500 1085 1184.500 L 1077.724 1195.500 1070.922 1209.365 L 1064.120 1223.230 1059.649 1236.865 L 1055.179 1250.500 1052.666 1262.500 L 1050.154 1274.500 1048.957 1284.500 L 1047.761 1294.500 1047.829 1313 L 1047.896 1331.500 1049.486 1343.431 L 1051.076 1355.362 1053.010 1363.931 L 1054.945 1372.500 1056.846 1379 L 1058.747 1385.500 1062.473 1395.500 L 1066.199 1405.500 1071.373 1416 L 1076.547 1426.500 1081.523 1434.851 L 1086.500 1443.202 1094.425 1453.758 L 1102.349 1464.313 1111.925 1474.294 L 1121.500 1484.276 1131 1492.210 L 1140.500 1500.145 1150.500 1506.935 L 1160.500 1513.726 1171 1519.298 L 1181.500 1524.870 1192.500 1529.342 L 1203.500 1533.815 1213.500 1536.898 L 1223.500 1539.981 1233 1541.947 L 1242.500 1543.914 1252 1545.150 L 1261.500 1546.385 1283 1546.397 L 1304.500 1546.408 1316.058 1544.696 L 1327.617 1542.984 1339.558 1540.066 L 1351.500 1537.148 1361 1533.673 L 1370.500 1530.197 1377.920 1527.003 L 1385.339 1523.809 1394.420 1518.777 L 1403.500 1513.745 1411 1508.738 L 1418.500 1503.731 1427 1497.143 L 1435.500 1490.556 1447.085 1479.028 L 1458.671 1467.500 1465.001 1459.500 L 1471.330 1451.500 1478.001 1441.404 L 1484.672 1431.307 1490.247 1420.404 L 1495.821 1409.500 1499.793 1399.500 L 1503.765 1389.500 1506.873 1379.767 L 1509.982 1370.033 1512.436 1357.767 L 1514.891 1345.500 1515.945 1335.789 L 1517 1326.079 1517 1312.500 L 1517 1298.921 1515.967 1289.211 L 1514.935 1279.500 1513.928 1274 L 1512.922 1268.500 1511.364 1261.500 L 1509.806 1254.500 1506.382 1243.293 L 1502.958 1232.086 1498.442 1221.307 L 1493.926 1210.528 1488.910 1201.141 L 1483.895 1191.753 1478.798 1184.127 L 1473.702 1176.500 1466.125 1167 L 1458.548 1157.500 1450.524 1149.118 L 1442.500 1140.737 1432.500 1132.342 L 1422.500 1123.947 1413 1117.590 L 1403.500 1111.234 1392.500 1105.219 L 1381.500 1099.203 1369.663 1094.554 L 1357.825 1089.904 1345.881 1086.466 L 1333.937 1083.028 1322.219 1080.988 L 1310.500 1078.948 1299 1077.990 L 1287.500 1077.032 1279.500 1077.191 L 1271.500 1077.349 1267 1077.686 M 2034.500 1077.621 L 2029.500 1078.026 2015.782 1080.051 L 2002.065 1082.076 1989.511 1085.516 L 1976.957 1088.957 1965.697 1093.360 L 1954.437 1097.763 1944.084 1102.958 L 1933.731 1108.153 1924.798 1113.679 L 1915.866 1119.204 1906.183 1126.704 L 1896.500 1134.203 1885.178 1145.352 L 1873.856 1156.500 1866.601 1165.500 L 1859.346 1174.500 1854.353 1182 L 1849.360 1189.500 1844.260 1198.500 L 1839.159 1207.500 1835.212 1216.500 L 1831.264 1225.500 1827.108 1238.282 L 1822.952 1251.063 1820.560 1262.282 L 1818.169 1273.500 1816.863 1283 L 1815.558 1292.500 1815.666 1313 L 1815.774 1333.500 1817.882 1347.562 L 1819.990 1361.624 1823.535 1374.562 L 1827.080 1387.500 1831.667 1399 L 1836.254 1410.500 1839.762 1417.500 L 1843.270 1424.500 1849.297 1434.500 L 1855.325 1444.500 1862.829 1454.500 L 1870.332 1464.500 1883.916 1478.046 L 1897.500 1491.592 1905.500 1497.623 L 1913.500 1503.653 1921.242 1508.851 L 1928.983 1514.050 1939.242 1519.460 L 1949.500 1524.870 1960.500 1529.342 L 1971.500 1533.815 1981.500 1536.898 L 1991.500 1539.981 2001 1541.947 L 2010.500 1543.914 2020 1545.150 L 2029.500 1546.385 2051 1546.397 L 2072.500 1546.408 2084.353 1544.655 L 2096.205 1542.902 2109.353 1539.585 L 2122.500 1536.268 2134.314 1531.642 L 2146.129 1527.016 2157.159 1521.374 L 2168.189 1515.732 2177.344 1509.746 L 2186.500 1503.759 2196 1496.165 L 2205.500 1488.571 2215.516 1478.536 L 2225.533 1468.500 2231.701 1460.908 L 2237.870 1453.317 2244.247 1443.908 L 2250.625 1434.500 2255.479 1425.593 L 2260.334 1416.685 2264.553 1407.093 L 2268.772 1397.500 2271.950 1388.500 L 2275.129 1379.500 2277.604 1370 L 2280.078 1360.500 2282.078 1348.500 L 2284.078 1336.500 2284.673 1320.500 L 2285.268 1304.500 2284.079 1292 L 2282.891 1279.500 2280.411 1267 L 2277.930 1254.500 2272.395 1238 L 2266.860 1221.500 2260.468 1208.427 L 2254.077 1195.353 2246.094 1183.427 L 2238.111 1171.500 2228.205 1160 L 2218.300 1148.500 2211.400 1142.050 L 2204.500 1135.600 2194.335 1127.550 L 2184.170 1119.500 2174.292 1113.357 L 2164.415 1107.214 2154.207 1102.056 L 2144 1096.898 2133.415 1092.922 L 2122.830 1088.946 2112.165 1085.940 L 2101.500 1082.934 2086.635 1080.483 L 2071.771 1078.033 2055.635 1077.625 L 2039.500 1077.216 2034.500 1077.621 M 2513.055 1078.054 L 2501.611 1078.930 2487.764 1081.474 L 2473.917 1084.018 2459.208 1088.875 L 2444.500 1093.732 2431.979 1099.686 L 2419.457 1105.640 2409.804 1111.707 L 2400.151 1117.774 2392.825 1123.310 L 2385.500 1128.846 2376.284 1137.173 L 2367.068 1145.500 2359.923 1153.500 L 2352.778 1161.500 2346.033 1170.500 L 2339.288 1179.500 2333.561 1189 L 2327.835 1198.500 2323.423 1207.650 L 2319.011 1216.801 2315.442 1226.150 L 2311.872 1235.500 2308.976 1246 L 2306.079 1256.500 2303.928 1268 L 2301.778 1279.500 2301.265 1300.217 L 2300.753 1320.933 2301.918 1332.217 L 2303.084 1343.500 2305.578 1355.902 L 2308.073 1368.303 2312.607 1381.902 L 2317.142 1395.500 2323.403 1408.540 L 2329.664 1421.580 2335.856 1431.434 L 2342.049 1441.287 2350.135 1451.613 L 2358.221 1461.939 2369.861 1473.231 L 2381.500 1484.524 2393 1493.136 L 2404.500 1501.747 2411.272 1505.876 L 2418.044 1510.005 2428.772 1515.376 L 2439.500 1520.747 2449.360 1524.431 L 2459.220 1528.115 2471.482 1531.476 L 2483.745 1534.837 2494.622 1536.668 L 2505.500 1538.500 2532.500 1538.433 L 2559.500 1538.365 2573.466 1535.637 L 2587.432 1532.909 2603.696 1527.479 L 2619.959 1522.049 2625.951 1519.025 L 2631.943 1516 2633.463 1516 L 2634.983 1516 2632.444 1522.750 L 2629.905 1529.500 2626.365 1535.943 L 2622.826 1542.386 2618.396 1548.593 L 2613.967 1554.801 2606.733 1561.968 L 2599.500 1569.136 2591.389 1574.567 L 2583.278 1579.999 2576.889 1582.895 L 2570.500 1585.791 2564.297 1587.826 L 2558.093 1589.861 2547.880 1591.569 L 2537.666 1593.277 2525.583 1592.713 L 2513.500 1592.150 2504 1589.681 L 2494.500 1587.212 2486.865 1583.715 L 2479.230 1580.219 2471.326 1575.148 L 2463.422 1570.078 2461.037 1567.539 L 2458.651 1565 2457.509 1565 L 2456.368 1565 2432.434 1590.227 L 2408.500 1615.454 2396.954 1627.477 L 2385.409 1639.500 2379.106 1646.187 L 2372.804 1652.874 2373.481 1653.970 L 2374.158 1655.065 2382.829 1662.652 L 2391.500 1670.239 2404 1678.533 L 2416.500 1686.826 2426 1691.819 L 2435.500 1696.811 2447 1701.365 L 2458.500 1705.920 2471.438 1709.465 L 2484.376 1713.010 2497.938 1714.989 L 2511.500 1716.967 2523 1717.582 L 2534.500 1718.197 2549.687 1716.636 L 2564.874 1715.076 2577.468 1712.526 L 2590.062 1709.976 2603.781 1705.465 L 2617.500 1700.954 2632.500 1693.581 L 2647.500 1686.207 2658 1679.168 L 2668.500 1672.128 2678.500 1663.717 L 2688.500 1655.307 2698.816 1644.571 L 2709.132 1633.835 2716.439 1624.017 L 2723.745 1614.200 2728.762 1605.850 L 2733.778 1597.500 2738.253 1588.500 L 2742.728 1579.500 2746.447 1570.046 L 2750.167 1560.592 2753.514 1548.379 L 2756.861 1536.166 2759.181 1523.333 L 2761.500 1510.500 2761.500 1398.500 L 2761.500 1286.500 2759.697 1275 L 2757.895 1263.500 2755.336 1253 L 2752.777 1242.500 2748.783 1231 L 2744.790 1219.500 2738.451 1206.500 L 2732.111 1193.500 2725.066 1182.710 L 2718.021 1171.920 2712.292 1164.710 L 2706.563 1157.500 2697.032 1147.622 L 2687.500 1137.744 2677.500 1129.498 L 2667.500 1121.252 2656.500 1114.076 L 2645.500 1106.900 2633.500 1101.034 L 2621.500 1095.167 2610.500 1091.178 L 2599.500 1087.190 2587 1084.131 L 2574.500 1081.071 2563 1079.614 L 2551.500 1078.156 2538 1077.667 L 2524.500 1077.179 2513.055 1078.054 M 3291.500 1078.685 L 3287.500 1079.034 3276.500 1080.579 L 3265.500 1082.123 3259 1083.672 L 3252.500 1085.221 3242.500 1088.210 L 3232.500 1091.199 3221.851 1095.539 L 3211.202 1099.879 3201.851 1104.558 L 3192.500 1109.237 3180 1117.512 L 3167.500 1125.787 3157.968 1133.778 L 3148.436 1141.770 3140.291 1150.374 L 3132.145 1158.979 3125.948 1166.564 L 3119.750 1174.149 3112.391 1185.163 L 3105.032 1196.178 3099.112 1208.339 L 3093.191 1220.500 3089.507 1230.500 L 3085.822 1240.500 3082.477 1253.536 L 3079.132 1266.571 3077.327 1278.036 L 3075.522 1289.500 3075.516 1312.500 L 3075.511 1335.500 3076.808 1344.500 L 3078.106 1353.500 3080.063 1363 L 3082.019 1372.500 3085.092 1382.500 L 3088.165 1392.500 3092.761 1403.500 L 3097.358 1414.500 3103.326 1425.500 L 3109.294 1436.500 3113.330 1442.500 L 3117.365 1448.500 3122.247 1455 L 3127.129 1461.500 3135.814 1471.348 L 3144.500 1481.197 3155.807 1490.848 L 3167.115 1500.500 3178.613 1508.212 L 3190.111 1515.923 3204.806 1523.269 L 3219.500 1530.615 3235 1535.763 L 3250.500 1540.911 3263 1543.378 L 3275.500 1545.845 3291.500 1547.049 L 3307.500 1548.253 3320 1547.577 L 3332.500 1546.901 3342.322 1545.439 L 3352.143 1543.976 3361.822 1541.899 L 3371.500 1539.821 3384.511 1535.494 L 3397.521 1531.168 3405.386 1527.584 L 3413.250 1524 3414.125 1524 L 3415 1524 3415 1533 L 3415 1542 3477 1542 L 3539 1542 3539 1309.992 L 3539 1077.985 3477.250 1078.242 L 3415.500 1078.500 3415.219 1090.750 L 3414.938 1103 3414.594 1103 L 3414.250 1103 3404.841 1098.633 L 3395.432 1094.266 3384.861 1090.691 L 3374.291 1087.117 3366.395 1085.138 L 3358.500 1083.158 3349 1081.597 L 3339.500 1080.036 3330.500 1079.026 L 3321.500 1078.016 3308.500 1078.176 L 3295.500 1078.336 3291.500 1078.685 M 3808.761 1079.014 L 3801.022 1079.903 3791.269 1081.565 L 3781.515 1083.226 3769.252 1086.587 L 3756.989 1089.948 3746.245 1094.198 L 3735.500 1098.449 3723 1104.783 L 3710.500 1111.117 3701 1117.514 L 3691.500 1123.911 3683.116 1130.633 L 3674.733 1137.355 3665.567 1146.427 L 3656.402 1155.500 3649.310 1164 L 3642.218 1172.500 3634.615 1183.757 L 3627.013 1195.013 3620.570 1208.257 L 3614.128 1221.500 3610.544 1231.259 L 3606.960 1241.018 3604.038 1252.351 L 3601.116 1263.684 3599.605 1272.592 L 3598.094 1281.500 3597.050 1293 L 3596.007 1304.500 3596.003 1484.250 L 3596 1664 3596.250 1664 L 3596.500 1664 3657.976 1684.500 L 3719.451 1705 3719.725 1705 L 3720 1705 3720 1612.458 L 3720 1519.916 3724.250 1522.375 L 3728.500 1524.834 3739.102 1529.335 L 3749.703 1533.835 3760.779 1537.342 L 3771.855 1540.849 3781.677 1542.873 L 3791.500 1544.897 3799.500 1545.888 L 3807.500 1546.879 3822.500 1547.572 L 3837.500 1548.266 3851.344 1547.054 L 3865.187 1545.842 3879.022 1542.996 L 3892.856 1540.149 3906.678 1535.544 L 3920.500 1530.939 3933.694 1524.444 L 3946.888 1517.948 3957.694 1510.852 L 3968.500 1503.756 3977.870 1496.250 L 3987.240 1488.744 3996.544 1479.378 L 4005.849 1470.013 4012.502 1461.757 L 4019.155 1453.500 4026.516 1442.500 L 4033.877 1431.500 4040.348 1418.500 L 4046.819 1405.500 4050.874 1394.500 L 4054.928 1383.500 4057.438 1374.727 L 4059.948 1365.955 4061.955 1355.227 L 4063.963 1344.500 4064.981 1334.144 L 4066 1323.788 4066 1313.568 L 4066 1303.347 4064.937 1292.424 L 4063.874 1281.500 4061.421 1269 L 4058.968 1256.500 4054.920 1243.645 L 4050.872 1230.790 4046.522 1220.645 L 4042.172 1210.500 4036.927 1201 L 4031.682 1191.500 4025.960 1182.965 L 4020.237 1174.430 4013.945 1166.465 L 4007.653 1158.500 3996.077 1146.954 L 3984.500 1135.409 3977 1129.345 L 3969.500 1123.281 3959.500 1116.732 L 3949.500 1110.183 3942 1106.150 L 3934.500 1102.118 3926 1098.488 L 3917.500 1094.858 3907.552 1091.394 L 3897.604 1087.930 3886.052 1085.029 L 3874.500 1082.129 3864 1080.513 L 3853.500 1078.898 3835 1078.512 L 3816.500 1078.125 3808.761 1079.014 M 4505.287 1084.750 L 4505.807 1086.500 4595.528 1289 L 4685.249 1491.500 4686.679 1495.003 L 4688.109 1498.505 4647.410 1599.503 L 4606.711 1700.500 4606.237 1702.757 L 4605.764 1705.014 4671.457 1704.757 L 4737.151 1704.500 4767.924 1628 L 4798.696 1551.500 4856.497 1408 L 4914.298 1264.500 4950.649 1174.188 L 4987 1083.875 4987 1083.438 L 4987 1083 4920.914 1083 L 4854.828 1083 4852.838 1087.750 L 4850.849 1092.500 4801.674 1216.912 L 4752.500 1341.324 4751.666 1341.412 L 4750.832 1341.500 4696.586 1214.500 L 4642.341 1087.500 4641.136 1085.250 L 4639.930 1083 4572.348 1083 L 4504.767 1083 4505.287 1084.750 M 1260.785 1202.978 L 1252.070 1204.816 1246.785 1206.524 L 1241.500 1208.232 1233.740 1212.063 L 1225.980 1215.894 1218.441 1221.106 L 1210.902 1226.318 1203.447 1233.846 L 1195.992 1241.374 1190.925 1248.703 L 1185.858 1256.033 1181.378 1265.489 L 1176.899 1274.945 1174.409 1284.723 L 1171.918 1294.500 1171.326 1305.500 L 1170.733 1316.500 1171.891 1325.156 L 1173.050 1333.812 1175.055 1341.656 L 1177.061 1349.500 1182.988 1361.500 L 1188.914 1373.500 1195.554 1381.783 L 1202.194 1390.066 1209.347 1396.104 L 1216.500 1402.142 1223.677 1406.629 L 1230.853 1411.115 1239.346 1414.578 L 1247.840 1418.041 1255.670 1420.196 L 1263.500 1422.351 1282 1422.421 L 1300.500 1422.492 1310.370 1419.738 L 1320.241 1416.983 1328.528 1413.100 L 1336.816 1409.216 1343.780 1404.711 L 1350.745 1400.206 1357.914 1393.443 L 1365.082 1386.680 1369.868 1380.590 L 1374.653 1374.500 1378.209 1368.500 L 1381.764 1362.500 1385.347 1353.464 L 1388.929 1344.428 1390.462 1337.821 L 1391.994 1331.213 1392.961 1321.865 L 1393.929 1312.516 1392.925 1302.508 L 1391.922 1292.500 1389.452 1283.130 L 1386.983 1273.759 1383.067 1265.402 L 1379.151 1257.045 1373.825 1249.340 L 1368.500 1241.634 1360.946 1234.007 L 1353.391 1226.380 1346.879 1221.733 L 1340.366 1217.086 1332.506 1213.066 L 1324.646 1209.046 1317.048 1206.516 L 1309.450 1203.986 1300.975 1202.494 L 1292.500 1201.003 1281 1201.072 L 1269.500 1201.141 1260.785 1202.978 M 2030.334 1202.481 L 2023.168 1203.781 2016.334 1206.050 L 2009.500 1208.319 2003.500 1211.034 L 1997.500 1213.748 1988.250 1219.856 L 1978.999 1225.964 1972.742 1232.232 L 1966.484 1238.500 1961.699 1244.730 L 1956.914 1250.959 1953.344 1257.230 L 1949.774 1263.500 1946.292 1272.458 L 1942.810 1281.417 1940.905 1291.244 L 1939 1301.071 1939 1310.463 L 1939 1319.855 1940.072 1327.566 L 1941.145 1335.276 1943.634 1343.888 L 1946.124 1352.500 1950.628 1361.588 L 1955.132 1370.677 1961.520 1379.188 L 1967.908 1387.699 1974.043 1393.379 L 1980.178 1399.059 1987.751 1404.170 L 1995.325 1409.280 2002.413 1412.535 L 2009.500 1415.790 2017.524 1418.307 L 2025.547 1420.824 2033.919 1422.048 L 2042.290 1423.273 2055.395 1422.714 L 2068.500 1422.155 2077 1419.952 L 2085.500 1417.750 2094.024 1414.085 L 2102.547 1410.421 2111.074 1404.863 L 2119.600 1399.305 2126.357 1392.985 L 2133.114 1386.664 2139.153 1378.582 L 2145.193 1370.500 2149.095 1362.774 L 2152.998 1355.049 2155.617 1347.274 L 2158.236 1339.500 2159.583 1332 L 2160.930 1324.500 2160.952 1312 L 2160.974 1299.500 2159.088 1290.500 L 2157.203 1281.500 2153.999 1272.729 L 2150.796 1263.958 2145.648 1255.502 L 2140.500 1247.046 2135 1240.421 L 2129.500 1233.795 2121.857 1227.400 L 2114.214 1221.006 2107.857 1217.146 L 2101.500 1213.287 2094.500 1210.264 L 2087.500 1207.240 2082.500 1205.666 L 2077.500 1204.092 2069.140 1202.546 L 2060.779 1201 2049.140 1201.090 L 2037.500 1201.180 2030.334 1202.481 M 2517.500 1201.626 L 2515.500 1202.020 2510 1203.076 L 2504.500 1204.133 2498 1206.193 L 2491.500 1208.252 2482.651 1212.778 L 2473.802 1217.305 2465.118 1224.016 L 2456.433 1230.728 2451.383 1236.614 L 2446.333 1242.500 2442.040 1248.881 L 2437.747 1255.262 2433.805 1263.675 L 2429.862 1272.088 2427.387 1281.794 L 2424.911 1291.500 2424.336 1301 L 2423.760 1310.500 2424.875 1319.544 L 2425.991 1328.588 2428.070 1336.544 L 2430.149 1344.500 2433.966 1352.658 L 2437.784 1360.816 2442.211 1367.658 L 2446.639 1374.500 2452.569 1380.922 L 2458.500 1387.345 2465.676 1393.062 L 2472.852 1398.778 2480.176 1402.795 L 2487.500 1406.812 2496.387 1409.926 L 2505.275 1413.041 2514.887 1414.624 L 2524.500 1416.208 2536 1415.651 L 2547.500 1415.094 2557.477 1412.547 L 2567.453 1410 2577.477 1405.104 L 2587.500 1400.208 2593.500 1395.776 L 2599.500 1391.344 2605.208 1386.110 L 2610.916 1380.876 2616.322 1373.688 L 2621.727 1366.500 2626.264 1358 L 2630.802 1349.500 2633.332 1342 L 2635.862 1334.500 2637.551 1325.500 L 2639.240 1316.500 2638.675 1303.500 L 2638.110 1290.500 2636.086 1282.749 L 2634.063 1274.998 2631.428 1268.412 L 2628.793 1261.827 2625.325 1255.663 L 2621.857 1249.500 2616.316 1242.242 L 2610.776 1234.984 2605.638 1230.333 L 2600.500 1225.682 2594.500 1221.231 L 2588.500 1216.781 2581 1213.017 L 2573.500 1209.252 2566.162 1206.616 L 2558.824 1203.980 2550.281 1202.490 L 2541.738 1201 2530.619 1201.116 L 2519.500 1201.232 2517.500 1201.626 M 3288.625 1203.498 L 3281.751 1204.920 3275.125 1207.077 L 3268.500 1209.234 3260.740 1213.064 L 3252.980 1216.894 3245.475 1222.082 L 3237.970 1227.271 3229.627 1236.037 L 3221.285 1244.803 3217.101 1251.152 L 3212.916 1257.500 3209.528 1264.575 L 3206.139 1271.649 3203.974 1278.075 L 3201.809 1284.500 3200.319 1292 L 3198.829 1299.500 3198.885 1312.417 L 3198.942 1325.334 3200.470 1333.488 L 3201.997 1341.642 3204.357 1348.571 L 3206.717 1355.500 3210.494 1363 L 3214.271 1370.500 3218.259 1376.377 L 3222.247 1382.254 3229.249 1389.626 L 3236.252 1396.997 3242.876 1401.906 L 3249.500 1406.816 3257.037 1410.880 L 3264.573 1414.944 3275.037 1418.369 L 3285.500 1421.795 3295.397 1423.040 L 3305.295 1424.284 3315.897 1423.703 L 3326.500 1423.122 3333.837 1421.557 L 3341.174 1419.991 3351.438 1415.978 L 3361.702 1411.965 3370.601 1406.080 L 3379.500 1400.195 3387.275 1392.465 L 3395.050 1384.734 3400.525 1376.506 L 3406 1368.278 3410.069 1359.595 L 3414.138 1350.912 3416.746 1341.206 L 3419.354 1331.500 3419.409 1313.500 L 3419.465 1295.500 3417.261 1286.793 L 3415.058 1278.085 3412.017 1270.200 L 3408.976 1262.315 3403.107 1253.407 L 3397.239 1244.500 3390.521 1237.245 L 3383.803 1229.989 3375.651 1223.904 L 3367.500 1217.818 3357.500 1212.940 L 3347.500 1208.062 3338 1205.414 L 3328.500 1202.766 3312 1202.421 L 3295.500 1202.077 3288.625 1203.498 M 3809.625 1203.499 L 3802.751 1204.920 3796.125 1207.100 L 3789.500 1209.281 3782.500 1212.779 L 3775.500 1216.277 3768 1221.284 L 3760.500 1226.291 3752 1234.935 L 3743.500 1243.579 3738.874 1250.539 L 3734.248 1257.500 3731.254 1263.500 L 3728.260 1269.500 3725.699 1277 L 3723.138 1284.500 3721.450 1293.500 L 3719.763 1302.500 3720.287 1316.500 L 3720.811 1330.500 3723.303 1340.074 L 3725.795 1349.648 3729.028 1357.413 L 3732.261 1365.179 3737.986 1373.839 L 3743.710 1382.500 3749.938 1389.243 L 3756.165 1395.987 3764.175 1401.950 L 3772.185 1407.913 3781.342 1412.392 L 3790.500 1416.872 3799.219 1419.395 L 3807.938 1421.917 3816.719 1423.091 L 3825.500 1424.264 3836 1423.693 L 3846.500 1423.122 3853.500 1421.608 L 3860.500 1420.093 3867.866 1417.567 L 3875.232 1415.040 3883.609 1410.584 L 3891.986 1406.127 3898.243 1401.373 L 3904.500 1396.619 3911.350 1389.559 L 3918.201 1382.500 3923.751 1374.161 L 3929.302 1365.823 3933.026 1357.161 L 3936.750 1348.500 3938.976 1340 L 3941.201 1331.500 3941.728 1318.336 L 3942.255 1305.171 3941.060 1296.836 L 3939.864 1288.500 3936.381 1278 L 3932.898 1267.500 3929.362 1261.057 L 3925.826 1254.614 3921.163 1248.066 L 3916.500 1241.518 3908.943 1233.952 L 3901.386 1226.386 3892.443 1220.412 L 3883.500 1214.439 3875 1210.796 L 3866.500 1207.154 3858.500 1204.947 L 3850.500 1202.739 3833.500 1202.409 L 3816.500 1202.078 3809.625 1203.499" stroke="none" fill="#ffffff" fill-rule="evenodd"/><path d="M 98 411.500 L 98 733 230.250 732.990 L 362.500 732.981 376 731.505 L 389.500 730.029 399.500 728.424 L 409.500 726.819 421.052 723.945 L 432.604 721.070 443.052 717.461 L 453.500 713.852 465.552 708.023 L 477.604 702.194 488.052 695.195 L 498.500 688.196 506.208 681.604 L 513.915 675.013 521.575 666.257 L 529.234 657.500 535.199 648.500 L 541.165 639.500 545.998 629.500 L 550.831 619.500 554.352 608.926 L 557.872 598.352 559.929 587.426 L 561.987 576.500 562.985 567.500 L 563.984 558.500 563.974 546 L 563.965 533.500 562.980 524 L 561.994 514.500 559.896 504 L 557.797 493.500 554.339 483 L 550.880 472.500 544.924 460.500 L 538.969 448.500 532.585 439.609 L 526.201 430.717 519.422 423.232 L 512.642 415.747 504.068 408.623 L 495.493 401.500 487.275 396.106 L 479.058 390.712 489.318 380.004 L 499.578 369.297 505.662 360.399 L 511.747 351.500 516.247 342.500 L 520.748 333.500 524.397 323.733 L 528.046 313.965 530.029 305.616 L 532.012 297.266 533.488 286.883 L 534.963 276.500 534.982 261.801 L 535 247.102 533.455 235.301 L 531.910 223.500 529.952 215.820 L 527.993 208.140 524.882 199.320 L 521.770 190.500 518.489 184 L 515.207 177.500 509.221 168.500 L 503.235 159.500 497.829 153.205 L 492.423 146.911 484.961 140.399 L 477.500 133.887 468 127.507 L 458.500 121.127 446 115.157 L 433.500 109.187 421.278 105.150 L 409.057 101.113 397.778 98.600 L 386.500 96.087 372.500 94.088 L 358.500 92.090 341.289 91.045 L 324.077 90 211.039 90 L 98 90 98 411.500 M 1057.256 299.750 L 1057.561 509.500 1059.322 520 L 1061.083 530.500 1063.975 542.500 L 1066.868 554.500 1069.830 563.500 L 1072.793 572.500 1077.947 584.500 L 1083.102 596.500 1088.678 606.500 L 1094.254 616.500 1101.055 626.500 L 1107.855 636.500 1115.788 646.003 L 1123.720 655.505 1135.249 666.588 L 1146.778 677.672 1158.139 686.252 L 1169.500 694.833 1178.500 700.282 L 1187.500 705.731 1197.968 710.984 L 1208.437 716.237 1219.697 720.640 L 1230.957 725.043 1243.729 728.546 L 1256.500 732.050 1268 733.990 L 1279.500 735.931 1291 736.962 L 1302.500 737.993 1310.589 737.997 L 1318.679 738 1334.589 736.476 L 1350.500 734.952 1362.808 732.417 L 1375.116 729.881 1387.788 725.830 L 1400.460 721.779 1411.749 716.935 L 1423.038 712.091 1433.269 706.363 L 1443.500 700.636 1450 696.475 L 1456.500 692.314 1466.500 684.495 L 1476.500 676.675 1484.879 669.088 L 1493.257 661.500 1503.183 650 L 1513.109 638.500 1520.875 627 L 1528.640 615.500 1533.286 607.356 L 1537.931 599.212 1540.579 593.356 L 1543.226 587.500 1547.134 578.033 L 1551.042 568.567 1554.465 557.033 L 1557.889 545.500 1559.353 539 L 1560.818 532.500 1562.448 522.135 L 1564.078 511.771 1565.015 494.135 L 1565.952 476.500 1565.961 284.500 L 1565.969 92.500 1565.171 91.243 L 1564.373 89.985 1500.436 90.243 L 1436.500 90.500 1435.965 296 L 1435.430 501.500 1433.654 508.841 L 1431.879 516.183 1428.825 524.841 L 1425.771 533.500 1422.962 539.071 L 1420.152 544.641 1413.916 553.965 L 1407.680 563.288 1400.241 570.727 L 1392.803 578.165 1384.732 584.077 L 1376.662 589.988 1367.081 594.904 L 1357.500 599.819 1349.500 602.362 L 1341.500 604.906 1333.140 606.453 L 1324.779 608 1310.797 608 L 1296.814 608 1286.723 605.944 L 1276.633 603.887 1267.566 600.392 L 1258.500 596.896 1252 593.342 L 1245.500 589.789 1239 585.214 L 1232.500 580.638 1223.706 572.095 L 1214.911 563.551 1209.084 555.026 L 1203.257 546.500 1199.754 539.500 L 1196.251 532.500 1193.645 525.244 L 1191.039 517.988 1188.807 508.244 L 1186.576 498.500 1186.260 294.250 L 1185.945 90 1121.448 90 L 1056.950 90 1057.256 299.750 M 1645 151.500 L 1645 213 1853 213 L 2061 213 2061 151.500 L 2061 90 1853 90 L 1645 90 1645 151.500 M 2358 411.536 L 2358 733.073 2497.250 732.743 L 2636.500 732.414 2647 730.672 L 2657.500 728.930 2670.500 726.377 L 2683.500 723.825 2698.329 718.898 L 2713.157 713.971 2723.560 709.064 L 2733.963 704.157 2742.617 698.929 L 2751.272 693.702 2760.886 686.038 L 2770.500 678.375 2778.825 669.437 L 2787.150 660.500 2794.106 650.150 L 2801.062 639.800 2805.996 629.650 L 2810.930 619.500 2814.409 609 L 2817.887 598.500 2819.886 588.500 L 2821.884 578.500 2822.942 568.789 L 2824 559.079 2823.992 545.289 L 2823.984 531.500 2822.956 522.500 L 2821.929 513.500 2819.908 503.500 L 2817.887 493.500 2814.394 483 L 2810.901 472.500 2806.038 462.305 L 2801.175 452.110 2794.154 441.805 L 2787.133 431.500 2779.816 423.566 L 2772.500 415.633 2763.877 408.454 L 2755.254 401.274 2747.187 395.939 L 2739.121 390.604 2749.621 379.737 L 2760.120 368.869 2767.167 358.184 L 2774.214 347.500 2776.983 342 L 2779.752 336.500 2783.418 326.682 L 2787.084 316.864 2789.536 307.652 L 2791.987 298.440 2793.475 287.970 L 2794.963 277.500 2794.963 261 L 2794.963 244.500 2793.477 234 L 2791.991 223.500 2789.873 215 L 2787.755 206.500 2784.816 198.500 L 2781.878 190.500 2776.950 181.128 L 2772.023 171.756 2766.261 163.687 L 2760.500 155.618 2751.441 146.559 L 2742.382 137.500 2734.441 131.835 L 2726.500 126.171 2719.513 121.931 L 2712.526 117.690 2701.769 112.897 L 2691.012 108.104 2680.249 104.625 L 2669.486 101.145 2658.493 98.623 L 2647.500 96.100 2633.500 94.069 L 2619.500 92.038 2603.500 91.023 L 2587.500 90.007 2472.750 90.004 L 2358 90 2358 411.536 M 3106.483 91.196 L 3105.988 92.500 3106.244 412.500 L 3106.500 732.500 3171.250 732.757 L 3236 733.015 3236 472.937 L 3236 212.858 3294.750 213.287 L 3353.500 213.717 3362 215.363 L 3370.500 217.009 3379 219.615 L 3387.500 222.220 3392.283 224.644 L 3397.067 227.067 3402.283 230.423 L 3407.500 233.779 3412.159 238.398 L 3416.817 243.017 3420.591 248.703 L 3424.365 254.389 3427.104 261.444 L 3429.843 268.500 3431.489 277.289 L 3433.136 286.078 3433.165 298.789 L 3433.193 311.500 3432.015 317.956 L 3430.837 324.412 3428.454 331.956 L 3426.071 339.500 3422.557 345.336 L 3419.043 351.172 3414.897 356.123 L 3410.752 361.074 3404.859 365.609 L 3398.966 370.143 3389.675 374.544 L 3380.384 378.945 3370.942 381.435 L 3361.500 383.926 3354.500 385.092 L 3347.500 386.259 3323 386.879 L 3298.500 387.500 3298.242 449.301 L 3297.985 511.103 3299.144 513.301 L 3300.303 515.500 3326.339 553 L 3352.374 590.500 3380.471 631 L 3408.567 671.500 3429.902 702.250 L 3451.237 733 3529.119 733 L 3607 733 3607 732.538 L 3607 732.077 3582.178 696.788 L 3557.357 661.500 3498.157 577.186 L 3438.957 492.872 3438.729 491.855 L 3438.500 490.838 3449.910 485.905 L 3461.320 480.972 3472.044 474.885 L 3482.769 468.799 3491.634 462.162 L 3500.500 455.524 3508.874 447.512 L 3517.248 439.500 3523.689 431.500 L 3530.130 423.500 3535.737 414.500 L 3541.344 405.500 3545.636 396.460 L 3549.928 387.420 3553.917 375.460 L 3557.906 363.500 3560.398 351 L 3562.891 338.500 3563.945 328.789 L 3565 319.079 3564.999 300.789 L 3564.998 282.500 3563.449 269 L 3561.900 255.500 3559.375 244 L 3556.850 232.500 3553.476 222.320 L 3550.102 212.140 3545.246 201.320 L 3540.389 190.500 3534.604 181.202 L 3528.819 171.903 3522.736 164.202 L 3516.652 156.500 3509.076 148.941 L 3501.500 141.382 3494.500 135.902 L 3487.500 130.421 3479.040 125.040 L 3470.580 119.659 3460.040 114.440 L 3449.500 109.220 3441 106.183 L 3432.500 103.146 3425.894 101.150 L 3419.287 99.154 3406.894 96.610 L 3394.500 94.066 3382.500 92.369 L 3370.500 90.672 3238.739 90.282 L 3106.979 89.892 3106.483 91.196 M 3636 411.944 L 3636 734 3749.750 733.997 L 3863.500 733.993 3875 732.938 L 3886.500 731.883 3896.500 730.408 L 3906.500 728.933 3919.500 726.028 L 3932.500 723.123 3944.202 719.573 L 3955.904 716.022 3965.702 712.114 L 3975.500 708.206 3986.345 703.123 L 3997.191 698.041 4006.345 692.860 L 4015.500 687.679 4028.152 679.375 L 4040.803 671.072 4054.380 659.952 L 4067.958 648.833 4081.922 634.370 L 4095.887 619.907 4105.821 606.703 L 4115.754 593.500 4122.908 582.044 L 4130.062 570.588 4136.436 558.044 L 4142.810 545.500 4146.538 536.500 L 4150.266 527.500 4154.114 516.272 L 4157.961 505.044 4160.936 493.772 L 4163.911 482.500 4165.887 472.483 L 4167.863 462.465 4169.539 448.483 L 4171.214 434.500 4171.279 412.500 L 4171.343 390.500 4170.088 379 L 4168.833 367.500 4166.379 354 L 4163.925 340.500 4160.983 329.500 L 4158.040 318.500 4154.659 308.500 L 4151.278 298.500 4147.547 289.500 L 4143.816 280.500 4137.494 267.927 L 4131.173 255.355 4125.467 245.927 L 4119.761 236.500 4114.138 228.500 L 4108.515 220.500 4100.933 211 L 4093.352 201.500 4082.949 190.623 L 4072.545 179.745 4062.523 171.051 L 4052.500 162.357 4043 155.248 L 4033.500 148.138 4020.700 140.123 L 4007.899 132.107 3996.200 126.143 L 3984.500 120.178 3972.065 115.067 L 3959.630 109.955 3947.170 105.972 L 3934.711 101.989 3922.105 99.055 L 3909.500 96.120 3903.162 95 L 3896.823 93.880 3885.662 92.277 L 3874.500 90.675 3755.250 90.282 L 3636 89.889 3636 411.944 M 683.750 111.323 L 621 131.438 621 432.221 L 621 733.005 830.250 732.752 L 1039.500 732.500 1039.758 672.064 L 1040.016 611.628 1038.758 610.829 L 1037.500 610.031 893.750 610.015 L 750 610 750 350.500 L 750 91 748.250 91.104 L 746.500 91.207 683.750 111.323 M 2950.500 110.596 L 2889.500 130.104 2887.250 131.031 L 2885 131.957 2885 432.479 L 2885 733 2949.500 733 L 3014 733 3014 412 L 3014 91 3012.750 91.044 L 3011.500 91.087 2950.500 110.596 M 255.250 212.749 L 227 213.031 227 277.574 L 227 342.117 285.250 341.751 L 343.500 341.384 353.978 338.653 L 364.455 335.921 371.698 332.437 L 378.942 328.953 385.221 323.614 L 391.500 318.276 395.276 311.888 L 399.053 305.500 401.114 299 L 403.175 292.500 403.688 280 L 404.200 267.500 402.656 260.260 L 401.112 253.020 398.119 246.750 L 395.127 240.480 389.813 235.174 L 384.500 229.869 378.713 226.339 L 372.925 222.810 364.713 220.019 L 356.500 217.229 348.500 215.629 L 340.500 214.030 329.500 213.016 L 318.500 212.002 301 212.235 L 283.500 212.468 255.250 212.749 M 2515.250 212.749 L 2487 213.031 2487 277.574 L 2487 342.116 2545.750 341.771 L 2604.500 341.425 2614.500 338.671 L 2624.500 335.916 2632.779 331.839 L 2641.057 327.761 2647.507 321.529 L 2653.957 315.298 2657.488 307.864 L 2661.018 300.430 2662.604 292.965 L 2664.190 285.500 2663.707 273 L 2663.223 260.500 2661.102 253.850 L 2658.981 247.200 2654.988 241.219 L 2650.994 235.238 2645.747 231.213 L 2640.500 227.188 2634.500 224.180 L 2628.500 221.172 2622.094 219.089 L 2615.688 217.006 2607.594 215.510 L 2599.500 214.013 2588 213.015 L 2576.500 212.017 2560 212.242 L 2543.500 212.468 2515.250 212.749 M 3765.462 221.250 L 3764.987 222.500 3765.243 413.500 L 3765.500 604.500 3815 604.458 L 3864.500 604.416 3875.583 602.673 L 3886.665 600.930 3897.664 598.045 L 3908.663 595.159 3918.582 591.455 L 3928.500 587.752 3934.500 584.762 L 3940.500 581.773 3948.771 576.807 L 3957.042 571.840 3965.153 565.827 L 3973.263 559.813 3982.249 551.157 L 3991.235 542.500 3997.579 534.899 L 4003.923 527.299 4010.264 517.815 L 4016.605 508.332 4020.717 500.416 L 4024.828 492.500 4028.881 482.314 L 4032.933 472.128 4035.473 462.291 L 4038.014 452.453 4039.595 443.976 L 4041.176 435.500 4041.693 417.500 L 4042.210 399.500 4040.615 387.500 L 4039.020 375.500 4036.524 365.243 L 4034.027 354.986 4030.387 345.243 L 4026.747 335.500 4021.979 326 L 4017.210 316.500 4011.285 307.500 L 4005.360 298.500 3997.840 289.500 L 3990.321 280.500 3982.884 273.465 L 3975.446 266.429 3967.193 260.147 L 3958.941 253.865 3951.158 249.038 L 3943.375 244.211 3935.438 240.231 L 3927.500 236.251 3918 232.714 L 3908.500 229.177 3898.836 226.555 L 3889.171 223.933 3875.836 221.971 L 3862.500 220.009 3814.219 220.005 L 3765.937 220 3765.462 221.250 M 1645.242 413.250 L 1645.500 474.500 1851 474.773 L 2056.500 475.047 2058.750 474.504 L 2061 473.962 2061 412.981 L 2061 352 1852.992 352 L 1644.985 352 1645.242 413.250 M 227 536.552 L 227 610.104 293.750 609.723 L 360.500 609.342 370 607.270 L 379.500 605.198 386.870 602.618 L 394.240 600.038 400.870 596.343 L 407.500 592.648 413.668 586.744 L 419.836 580.840 423.446 573.971 L 427.056 567.101 429.028 559.391 L 431 551.680 430.983 539.590 L 430.965 527.500 429.501 520.500 L 428.036 513.500 424.055 505.500 L 420.073 497.500 415.899 492.680 L 411.724 487.859 406.550 484.037 L 401.375 480.214 394.438 476.748 L 387.500 473.281 381 471.156 L 374.500 469.031 364.890 467.067 L 355.280 465.103 345.034 464.051 L 334.788 463 280.894 463 L 227 463 227 536.552 M 2487.667 463.667 L 2487 464.333 2487 537.167 L 2487 610 2549.622 610 L 2612.243 610 2622.838 608.427 L 2633.433 606.854 2642.967 603.823 L 2652.500 600.792 2659.469 597.157 L 2666.437 593.522 2672.642 587.718 L 2678.847 581.914 2682.019 576.971 L 2685.191 572.027 2687.542 565.264 L 2689.892 558.500 2690.813 549.305 L 2691.735 540.110 2690.857 530.559 L 2689.979 521.009 2687.585 513.471 L 2685.191 505.933 2680.967 499.449 L 2676.743 492.965 2671.293 487.985 L 2665.843 483.004 2660.105 479.641 L 2654.368 476.278 2646.434 473.148 L 2638.500 470.017 2629.984 468.027 L 2621.468 466.036 2608.490 464.518 L 2595.512 463 2541.923 463 L 2488.333 463 2487.667 463.667 M 1645 673 L 1645 733 1853 733 L 2061 733 2061 673 L 2061 613 1853 613 L 1645 613 1645 673 M 654.265 898.713 L 593.031 919.156 592.765 1104.828 L 592.500 1290.500 592.765 1416.250 L 593.030 1542 654.997 1542 L 716.964 1542 717.232 1408.750 L 717.500 1275.500 720.181 1268.277 L 722.862 1261.054 726.491 1254.150 L 730.119 1247.245 735.572 1240.634 L 741.024 1234.024 747.404 1228.762 L 753.784 1223.500 761.642 1219.316 L 769.500 1215.132 778.500 1212.384 L 787.500 1209.636 801.500 1209.594 L 815.500 1209.552 823.157 1211.747 L 830.813 1213.943 836.504 1216.460 L 842.196 1218.976 849.088 1223.559 L 855.981 1228.141 862.168 1234.320 L 868.356 1240.500 873.068 1247.710 L 877.780 1254.919 880.805 1262.210 L 883.831 1269.500 885.606 1277 L 887.381 1284.500 887.733 1413.250 L 888.085 1542 949.580 1542 L 1011.075 1542 1010.704 1406.750 L 1010.333 1271.500 1008.711 1262.359 L 1007.090 1253.219 1004.529 1243.114 L 1001.968 1233.010 998.468 1223.255 L 994.968 1213.500 989.524 1202.500 L 984.081 1191.500 977.219 1181 L 970.356 1170.500 964.286 1163 L 958.217 1155.500 947.358 1144.958 L 936.500 1134.417 928.220 1128.141 L 919.941 1121.865 911.720 1116.759 L 903.500 1111.654 892.500 1106.367 L 881.500 1101.079 871.781 1097.569 L 862.062 1094.059 853.804 1091.950 L 845.545 1089.841 832.522 1087.925 L 819.500 1086.009 802 1086.023 L 784.500 1086.037 774.196 1087.501 L 763.893 1088.966 754.696 1091.118 L 745.500 1093.270 733 1097.557 L 720.500 1101.845 718.750 1102.529 L 717 1103.214 717 991.166 L 717 879.118 716.250 878.694 L 715.500 878.270 654.265 898.713 M 4165.584 898.378 L 4104.936 918.730 4104.496 919.171 L 4104.055 919.612 4103.999 1106.556 L 4103.944 1293.500 4103.972 1417.750 L 4104 1542 4166 1542 L 4228 1542 4228 1411.314 L 4228 1280.628 4229.610 1274.064 L 4231.221 1267.500 4235.089 1259.156 L 4238.958 1250.813 4243.362 1244.656 L 4247.765 1238.500 4253.633 1232.947 L 4259.500 1227.394 4264 1224.330 L 4268.500 1221.266 4274.703 1218.142 L 4280.907 1215.018 4289.703 1212.327 L 4298.500 1209.636 4312.500 1209.594 L 4326.500 1209.552 4334.157 1211.747 L 4341.813 1213.943 4347.504 1216.460 L 4353.196 1218.976 4359.898 1223.432 L 4366.601 1227.888 4373.602 1234.945 L 4380.603 1242.002 4385.397 1249.931 L 4390.190 1257.861 4393.045 1266.180 L 4395.900 1274.500 4396.942 1281 L 4397.985 1287.500 4397.992 1414.750 L 4398 1542 4460 1542 L 4522 1542 4522 1414.174 L 4522 1286.347 4520.937 1275.424 L 4519.874 1264.500 4517.430 1252.244 L 4514.986 1239.988 4511.423 1229.338 L 4507.859 1218.687 4503.576 1208.953 L 4499.292 1199.220 4493.022 1188.695 L 4486.752 1178.169 4480.198 1169.436 L 4473.643 1160.703 4464.743 1151.393 L 4455.843 1142.083 4447.603 1135.088 L 4439.363 1128.092 4427.932 1120.436 L 4416.500 1112.780 4403.500 1106.494 L 4390.500 1100.208 4379.500 1096.625 L 4368.500 1093.042 4359.883 1091.015 L 4351.266 1088.988 4340.883 1087.512 L 4330.500 1086.037 4313 1086.037 L 4295.500 1086.037 4285.395 1087.473 L 4275.289 1088.910 4267.895 1090.542 L 4260.500 1092.175 4253 1094.499 L 4245.500 1096.824 4237.059 1099.912 L 4228.617 1103 4228.309 1103 L 4228 1103 4228 991.059 L 4228 879.118 4227.116 878.571 L 4226.231 878.025 4165.584 898.378 M 98 1220.500 L 98 1542 162.500 1542 L 227 1542 227 1282 L 227 1022 281.250 1022.020 L 335.500 1022.039 346 1023.472 L 356.500 1024.905 362.354 1026.467 L 368.208 1028.029 375.752 1031.169 L 383.295 1034.310 390.601 1039.196 L 397.906 1044.082 402.820 1049.683 L 407.733 1055.285 411.300 1061.892 L 414.867 1068.500 417.364 1077.124 L 419.862 1085.747 420.870 1096.624 L 421.879 1107.500 421.001 1117.500 L 420.124 1127.500 419.104 1132 L 418.085 1136.500 416.031 1142.439 L 413.978 1148.378 410.864 1153.939 L 407.750 1159.500 403.162 1164.909 L 398.574 1170.318 392.537 1174.796 L 386.500 1179.274 377.500 1183.641 L 368.500 1188.008 358.919 1190.428 L 349.338 1192.849 341.919 1193.955 L 334.500 1195.061 312.242 1195.681 L 289.985 1196.301 290.242 1257.400 L 290.500 1318.500 302.500 1318.813 L 314.500 1319.125 336 1318.040 L 357.500 1316.955 368 1315.409 L 378.500 1313.864 388.918 1311.863 L 399.336 1309.863 410.918 1306.367 L 422.500 1302.870 431.500 1299.308 L 440.500 1295.746 450.500 1290.773 L 460.500 1285.800 469 1280.260 L 477.500 1274.719 484.500 1268.967 L 491.500 1263.214 500.599 1253.857 L 509.698 1244.500 515.817 1236.206 L 521.936 1227.913 527.425 1218.206 L 532.914 1208.500 537.906 1196 L 542.899 1183.500 545.888 1171.500 L 548.876 1159.500 550.688 1148.500 L 552.500 1137.500 552.475 1109.500 L 552.450 1081.500 550.663 1069.550 L 548.875 1057.600 545.520 1044.550 L 542.165 1031.500 538.900 1022.507 L 535.635 1013.513 529.939 1002.381 L 524.244 991.249 519.969 984.875 L 515.694 978.500 508.597 969.630 L 501.500 960.760 492 952.300 L 482.500 943.840 471.500 936.504 L 460.500 929.168 449.452 923.657 L 438.404 918.147 426.830 914.156 L 415.257 910.165 404.690 907.570 L 394.122 904.974 381.311 903.046 L 368.500 901.118 355.696 900.059 L 342.891 899 220.446 899 L 98 899 98 1220.500 M 1630.224 956.330 L 1569.948 976.500 1570.257 1150 L 1570.566 1323.500 1572.332 1334 L 1574.098 1344.500 1576.687 1355.500 L 1579.275 1366.500 1583.665 1379.345 L 1588.055 1392.191 1594.336 1405.345 L 1600.617 1418.500 1607.485 1429.500 L 1614.353 1440.500 1618.869 1446.500 L 1623.385 1452.500 1631.422 1461.917 L 1639.460 1471.334 1651.285 1482.097 L 1663.111 1492.860 1672.627 1500.044 L 1682.143 1507.228 1692.467 1513.549 L 1702.790 1519.869 1709.645 1523.311 L 1716.500 1526.753 1730.512 1532.349 L 1744.524 1537.946 1756.012 1540.971 L 1767.500 1543.996 1778 1545.933 L 1788.500 1547.870 1798.789 1548.935 L 1809.078 1550 1816.539 1550 L 1824 1550 1824 1488.625 L 1824 1427.250 1820.875 1426.625 L 1817.750 1426 1813.410 1426 L 1809.071 1426 1799.285 1424.082 L 1789.500 1422.165 1780.500 1418.970 L 1771.500 1415.776 1767.500 1413.773 L 1763.500 1411.770 1757.500 1408.212 L 1751.500 1404.654 1743.500 1398.451 L 1735.500 1392.249 1729.963 1386.374 L 1724.426 1380.500 1719.860 1374.500 L 1715.295 1368.500 1710.690 1360.500 L 1706.084 1352.500 1702.943 1344.585 L 1699.801 1336.670 1697.425 1327.302 L 1695.048 1317.934 1694.024 1305.322 L 1693 1292.710 1693 1246.937 L 1693 1201.164 1693.607 1199.582 L 1694.214 1198 1759.107 1198 L 1824 1198 1824 1140.507 L 1824 1083.014 1758.750 1082.757 L 1693.500 1082.500 1693.244 1009.250 L 1692.987 936 1691.744 936.080 L 1690.500 936.161 1630.224 956.330 M 3068 1072.085 L 3058.500 1072.935 3048 1074.541 L 3037.500 1076.148 3027.500 1078.616 L 3017.500 1081.083 3008 1084.168 L 2998.500 1087.253 2989 1091.235 L 2979.500 1095.216 2969 1100.593 L 2958.500 1105.969 2948.397 1112.318 L 2938.294 1118.666 2930.620 1124.442 L 2922.945 1130.218 2913.676 1138.471 L 2904.407 1146.723 2895.135 1156.747 L 2885.863 1166.771 2879.790 1174.636 L 2873.717 1182.500 2865.738 1194.500 L 2857.760 1206.500 2850.459 1221.500 L 2843.159 1236.500 2839.522 1246.360 L 2835.885 1256.220 2832.413 1268.860 L 2828.942 1281.500 2827 1292.500 L 2825.058 1303.500 2824.029 1313.856 L 2823 1324.212 2823 1433.106 L 2823 1542 2884.459 1542 L 2945.918 1542 2946.283 1431.750 L 2946.649 1321.500 2948.369 1313 L 2950.089 1304.500 2953.479 1294.361 L 2956.870 1284.223 2961.824 1274.361 L 2966.779 1264.500 2972.518 1256.500 L 2978.257 1248.500 2984.289 1242 L 2990.322 1235.500 2996.411 1230.145 L 3002.500 1224.790 3009.515 1220.023 L 3016.530 1215.256 3025.515 1210.744 L 3034.500 1206.232 3043.235 1203.150 L 3051.969 1200.067 3059.992 1198.442 L 3068.014 1196.816 3079.257 1195.643 L 3090.500 1194.470 3090.500 1132.985 L 3090.500 1071.500 3084 1071.368 L 3077.500 1071.235 3068 1072.085 M 1267 1077.686 L 1262.500 1078.022 1248.477 1079.996 L 1234.454 1081.969 1221.706 1085.463 L 1208.957 1088.957 1197.688 1093.363 L 1186.419 1097.770 1176.959 1102.520 L 1167.500 1107.270 1158.505 1112.749 L 1149.511 1118.228 1140.007 1125.364 L 1130.503 1132.500 1119.614 1143 L 1108.725 1153.500 1100.500 1163.500 L 1092.276 1173.500 1085 1184.500 L 1077.724 1195.500 1070.922 1209.365 L 1064.120 1223.230 1059.649 1236.865 L 1055.179 1250.500 1052.666 1262.500 L 1050.154 1274.500 1048.957 1284.500 L 1047.761 1294.500 1047.829 1313 L 1047.896 1331.500 1049.486 1343.431 L 1051.076 1355.362 1053.010 1363.931 L 1054.945 1372.500 1056.846 1379 L 1058.747 1385.500 1062.473 1395.500 L 1066.199 1405.500 1071.373 1416 L 1076.547 1426.500 1081.523 1434.851 L 1086.500 1443.202 1094.425 1453.758 L 1102.349 1464.313 1111.925 1474.294 L 1121.500 1484.276 1131 1492.210 L 1140.500 1500.145 1150.500 1506.935 L 1160.500 1513.726 1171 1519.298 L 1181.500 1524.870 1192.500 1529.342 L 1203.500 1533.815 1213.500 1536.898 L 1223.500 1539.981 1233 1541.947 L 1242.500 1543.914 1252 1545.150 L 1261.500 1546.385 1283 1546.397 L 1304.500 1546.408 1316.058 1544.696 L 1327.617 1542.984 1339.558 1540.066 L 1351.500 1537.148 1361 1533.673 L 1370.500 1530.197 1377.920 1527.003 L 1385.339 1523.809 1394.420 1518.777 L 1403.500 1513.745 1411 1508.738 L 1418.500 1503.731 1427 1497.143 L 1435.500 1490.556 1447.085 1479.028 L 1458.671 1467.500 1465.001 1459.500 L 1471.330 1451.500 1478.001 1441.404 L 1484.672 1431.307 1490.247 1420.404 L 1495.821 1409.500 1499.793 1399.500 L 1503.765 1389.500 1506.873 1379.767 L 1509.982 1370.033 1512.436 1357.767 L 1514.891 1345.500 1515.945 1335.789 L 1517 1326.079 1517 1312.500 L 1517 1298.921 1515.967 1289.211 L 1514.935 1279.500 1513.928 1274 L 1512.922 1268.500 1511.364 1261.500 L 1509.806 1254.500 1506.382 1243.293 L 1502.958 1232.086 1498.442 1221.307 L 1493.926 1210.528 1488.910 1201.141 L 1483.895 1191.753 1478.798 1184.127 L 1473.702 1176.500 1466.125 1167 L 1458.548 1157.500 1450.524 1149.118 L 1442.500 1140.737 1432.500 1132.342 L 1422.500 1123.947 1413 1117.590 L 1403.500 1111.234 1392.500 1105.219 L 1381.500 1099.203 1369.663 1094.554 L 1357.825 1089.904 1345.881 1086.466 L 1333.937 1083.028 1322.219 1080.988 L 1310.500 1078.948 1299 1077.990 L 1287.500 1077.032 1279.500 1077.191 L 1271.500 1077.349 1267 1077.686 M 2034.500 1077.621 L 2029.500 1078.026 2015.782 1080.051 L 2002.065 1082.076 1989.511 1085.516 L 1976.957 1088.957 1965.697 1093.360 L 1954.437 1097.763 1944.084 1102.958 L 1933.731 1108.153 1924.798 1113.679 L 1915.866 1119.204 1906.183 1126.704 L 1896.500 1134.203 1885.178 1145.352 L 1873.856 1156.500 1866.601 1165.500 L 1859.346 1174.500 1854.353 1182 L 1849.360 1189.500 1844.260 1198.500 L 1839.159 1207.500 1835.212 1216.500 L 1831.264 1225.500 1827.108 1238.282 L 1822.952 1251.063 1820.560 1262.282 L 1818.169 1273.500 1816.863 1283 L 1815.558 1292.500 1815.666 1313 L 1815.774 1333.500 1817.882 1347.562 L 1819.990 1361.624 1823.535 1374.562 L 1827.080 1387.500 1831.667 1399 L 1836.254 1410.500 1839.762 1417.500 L 1843.270 1424.500 1849.297 1434.500 L 1855.325 1444.500 1862.829 1454.500 L 1870.332 1464.500 1883.916 1478.046 L 1897.500 1491.592 1905.500 1497.623 L 1913.500 1503.653 1921.242 1508.851 L 1928.983 1514.050 1939.242 1519.460 L 1949.500 1524.870 1960.500 1529.342 L 1971.500 1533.815 1981.500 1536.898 L 1991.500 1539.981 2001 1541.947 L 2010.500 1543.914 2020 1545.150 L 2029.500 1546.385 2051 1546.397 L 2072.500 1546.408 2084.353 1544.655 L 2096.205 1542.902 2109.353 1539.585 L 2122.500 1536.268 2134.314 1531.642 L 2146.129 1527.016 2157.159 1521.374 L 2168.189 1515.732 2177.344 1509.746 L 2186.500 1503.759 2196 1496.165 L 2205.500 1488.571 2215.516 1478.536 L 2225.533 1468.500 2231.701 1460.908 L 2237.870 1453.317 2244.247 1443.908 L 2250.625 1434.500 2255.479 1425.593 L 2260.334 1416.685 2264.553 1407.093 L 2268.772 1397.500 2271.950 1388.500 L 2275.129 1379.500 2277.604 1370 L 2280.078 1360.500 2282.078 1348.500 L 2284.078 1336.500 2284.673 1320.500 L 2285.268 1304.500 2284.079 1292 L 2282.891 1279.500 2280.411 1267 L 2277.930 1254.500 2272.395 1238 L 2266.860 1221.500 2260.468 1208.427 L 2254.077 1195.353 2246.094 1183.427 L 2238.111 1171.500 2228.205 1160 L 2218.300 1148.500 2211.400 1142.050 L 2204.500 1135.600 2194.335 1127.550 L 2184.170 1119.500 2174.292 1113.357 L 2164.415 1107.214 2154.207 1102.056 L 2144 1096.898 2133.415 1092.922 L 2122.830 1088.946 2112.165 1085.940 L 2101.500 1082.934 2086.635 1080.483 L 2071.771 1078.033 2055.635 1077.625 L 2039.500 1077.216 2034.500 1077.621 M 2513.055 1078.054 L 2501.611 1078.930 2487.764 1081.474 L 2473.917 1084.018 2459.208 1088.875 L 2444.500 1093.732 2431.979 1099.686 L 2419.457 1105.640 2409.804 1111.707 L 2400.151 1117.774 2392.825 1123.310 L 2385.500 1128.846 2376.284 1137.173 L 2367.068 1145.500 2359.923 1153.500 L 2352.778 1161.500 2346.033 1170.500 L 2339.288 1179.500 2333.561 1189 L 2327.835 1198.500 2323.423 1207.650 L 2319.011 1216.801 2315.442 1226.150 L 2311.872 1235.500 2308.976 1246 L 2306.079 1256.500 2303.928 1268 L 2301.778 1279.500 2301.265 1300.217 L 2300.753 1320.933 2301.918 1332.217 L 2303.084 1343.500 2305.578 1355.902 L 2308.073 1368.303 2312.607 1381.902 L 2317.142 1395.500 2323.403 1408.540 L 2329.664 1421.580 2335.856 1431.434 L 2342.049 1441.287 2350.135 1451.613 L 2358.221 1461.939 2369.861 1473.231 L 2381.500 1484.524 2393 1493.136 L 2404.500 1501.747 2411.272 1505.876 L 2418.044 1510.005 2428.772 1515.376 L 2439.500 1520.747 2449.360 1524.431 L 2459.220 1528.115 2471.482 1531.476 L 2483.745 1534.837 2494.622 1536.668 L 2505.500 1538.500 2532.500 1538.433 L 2559.500 1538.365 2573.466 1535.637 L 2587.432 1532.909 2603.696 1527.479 L 2619.959 1522.049 2625.951 1519.025 L 2631.943 1516 2633.463 1516 L 2634.983 1516 2632.444 1522.750 L 2629.905 1529.500 2626.365 1535.943 L 2622.826 1542.386 2618.396 1548.593 L 2613.967 1554.801 2606.733 1561.968 L 2599.500 1569.136 2591.389 1574.567 L 2583.278 1579.999 2576.889 1582.895 L 2570.500 1585.791 2564.297 1587.826 L 2558.093 1589.861 2547.880 1591.569 L 2537.666 1593.277 2525.583 1592.713 L 2513.500 1592.150 2504 1589.681 L 2494.500 1587.212 2486.865 1583.715 L 2479.230 1580.219 2471.326 1575.148 L 2463.422 1570.078 2461.037 1567.539 L 2458.651 1565 2457.509 1565 L 2456.368 1565 2432.434 1590.227 L 2408.500 1615.454 2396.954 1627.477 L 2385.409 1639.500 2379.106 1646.187 L 2372.804 1652.874 2373.481 1653.970 L 2374.158 1655.065 2382.829 1662.652 L 2391.500 1670.239 2404 1678.533 L 2416.500 1686.826 2426 1691.819 L 2435.500 1696.811 2447 1701.365 L 2458.500 1705.920 2471.438 1709.465 L 2484.376 1713.010 2497.938 1714.989 L 2511.500 1716.967 2523 1717.582 L 2534.500 1718.197 2549.687 1716.636 L 2564.874 1715.076 2577.468 1712.526 L 2590.062 1709.976 2603.781 1705.465 L 2617.500 1700.954 2632.500 1693.581 L 2647.500 1686.207 2658 1679.168 L 2668.500 1672.128 2678.500 1663.717 L 2688.500 1655.307 2698.816 1644.571 L 2709.132 1633.835 2716.439 1624.017 L 2723.745 1614.200 2728.762 1605.850 L 2733.778 1597.500 2738.253 1588.500 L 2742.728 1579.500 2746.447 1570.046 L 2750.167 1560.592 2753.514 1548.379 L 2756.861 1536.166 2759.181 1523.333 L 2761.500 1510.500 2761.500 1398.500 L 2761.500 1286.500 2759.697 1275 L 2757.895 1263.500 2755.336 1253 L 2752.777 1242.500 2748.783 1231 L 2744.790 1219.500 2738.451 1206.500 L 2732.111 1193.500 2725.066 1182.710 L 2718.021 1171.920 2712.292 1164.710 L 2706.563 1157.500 2697.032 1147.622 L 2687.500 1137.744 2677.500 1129.498 L 2667.500 1121.252 2656.500 1114.076 L 2645.500 1106.900 2633.500 1101.034 L 2621.500 1095.167 2610.500 1091.178 L 2599.500 1087.190 2587 1084.131 L 2574.500 1081.071 2563 1079.614 L 2551.500 1078.156 2538 1077.667 L 2524.500 1077.179 2513.055 1078.054 M 3291.500 1078.685 L 3287.500 1079.034 3276.500 1080.579 L 3265.500 1082.123 3259 1083.672 L 3252.500 1085.221 3242.500 1088.210 L 3232.500 1091.199 3221.851 1095.539 L 3211.202 1099.879 3201.851 1104.558 L 3192.500 1109.237 3180 1117.512 L 3167.500 1125.787 3157.968 1133.778 L 3148.436 1141.770 3140.291 1150.374 L 3132.145 1158.979 3125.948 1166.564 L 3119.750 1174.149 3112.391 1185.163 L 3105.032 1196.178 3099.112 1208.339 L 3093.191 1220.500 3089.507 1230.500 L 3085.822 1240.500 3082.477 1253.536 L 3079.132 1266.571 3077.327 1278.036 L 3075.522 1289.500 3075.516 1312.500 L 3075.511 1335.500 3076.808 1344.500 L 3078.106 1353.500 3080.063 1363 L 3082.019 1372.500 3085.092 1382.500 L 3088.165 1392.500 3092.761 1403.500 L 3097.358 1414.500 3103.326 1425.500 L 3109.294 1436.500 3113.330 1442.500 L 3117.365 1448.500 3122.247 1455 L 3127.129 1461.500 3135.814 1471.348 L 3144.500 1481.197 3155.807 1490.848 L 3167.115 1500.500 3178.613 1508.212 L 3190.111 1515.923 3204.806 1523.269 L 3219.500 1530.615 3235 1535.763 L 3250.500 1540.911 3263 1543.378 L 3275.500 1545.845 3291.500 1547.049 L 3307.500 1548.253 3320 1547.577 L 3332.500 1546.901 3342.322 1545.439 L 3352.143 1543.976 3361.822 1541.899 L 3371.500 1539.821 3384.511 1535.494 L 3397.521 1531.168 3405.386 1527.584 L 3413.250 1524 3414.125 1524 L 3415 1524 3415 1533 L 3415 1542 3477 1542 L 3539 1542 3539 1309.992 L 3539 1077.985 3477.250 1078.242 L 3415.500 1078.500 3415.219 1090.750 L 3414.938 1103 3414.594 1103 L 3414.250 1103 3404.841 1098.633 L 3395.432 1094.266 3384.861 1090.691 L 3374.291 1087.117 3366.395 1085.138 L 3358.500 1083.158 3349 1081.597 L 3339.500 1080.036 3330.500 1079.026 L 3321.500 1078.016 3308.500 1078.176 L 3295.500 1078.336 3291.500 1078.685 M 3808.761 1079.014 L 3801.022 1079.903 3791.269 1081.565 L 3781.515 1083.226 3769.252 1086.587 L 3756.989 1089.948 3746.245 1094.198 L 3735.500 1098.449 3723 1104.783 L 3710.500 1111.117 3701 1117.514 L 3691.500 1123.911 3683.116 1130.633 L 3674.733 1137.355 3665.567 1146.427 L 3656.402 1155.500 3649.310 1164 L 3642.218 1172.500 3634.615 1183.757 L 3627.013 1195.013 3620.570 1208.257 L 3614.128 1221.500 3610.544 1231.259 L 3606.960 1241.018 3604.038 1252.351 L 3601.116 1263.684 3599.605 1272.592 L 3598.094 1281.500 3597.050 1293 L 3596.007 1304.500 3596.003 1484.250 L 3596 1664 3596.250 1664 L 3596.500 1664 3657.976 1684.500 L 3719.451 1705 3719.725 1705 L 3720 1705 3720 1612.458 L 3720 1519.916 3724.250 1522.375 L 3728.500 1524.834 3739.102 1529.335 L 3749.703 1533.835 3760.779 1537.342 L 3771.855 1540.849 3781.677 1542.873 L 3791.500 1544.897 3799.500 1545.888 L 3807.500 1546.879 3822.500 1547.572 L 3837.500 1548.266 3851.344 1547.054 L 3865.187 1545.842 3879.022 1542.996 L 3892.856 1540.149 3906.678 1535.544 L 3920.500 1530.939 3933.694 1524.444 L 3946.888 1517.948 3957.694 1510.852 L 3968.500 1503.756 3977.870 1496.250 L 3987.240 1488.744 3996.544 1479.378 L 4005.849 1470.013 4012.502 1461.757 L 4019.155 1453.500 4026.516 1442.500 L 4033.877 1431.500 4040.348 1418.500 L 4046.819 1405.500 4050.874 1394.500 L 4054.928 1383.500 4057.438 1374.727 L 4059.948 1365.955 4061.955 1355.227 L 4063.963 1344.500 4064.981 1334.144 L 4066 1323.788 4066 1313.568 L 4066 1303.347 4064.937 1292.424 L 4063.874 1281.500 4061.421 1269 L 4058.968 1256.500 4054.920 1243.645 L 4050.872 1230.790 4046.522 1220.645 L 4042.172 1210.500 4036.927 1201 L 4031.682 1191.500 4025.960 1182.965 L 4020.237 1174.430 4013.945 1166.465 L 4007.653 1158.500 3996.077 1146.954 L 3984.500 1135.409 3977 1129.345 L 3969.500 1123.281 3959.500 1116.732 L 3949.500 1110.183 3942 1106.150 L 3934.500 1102.118 3926 1098.488 L 3917.500 1094.858 3907.552 1091.394 L 3897.604 1087.930 3886.052 1085.029 L 3874.500 1082.129 3864 1080.513 L 3853.500 1078.898 3835 1078.512 L 3816.500 1078.125 3808.761 1079.014 M 4505.287 1084.750 L 4505.807 1086.500 4595.528 1289 L 4685.249 1491.500 4686.679 1495.003 L 4688.109 1498.505 4647.410 1599.503 L 4606.711 1700.500 4606.237 1702.757 L 4605.764 1705.014 4671.457 1704.757 L 4737.151 1704.500 4767.924 1628 L 4798.696 1551.500 4856.497 1408 L 4914.298 1264.500 4950.649 1174.188 L 4987 1083.875 4987 1083.438 L 4987 1083 4920.914 1083 L 4854.828 1083 4852.838 1087.750 L 4850.849 1092.500 4801.674 1216.912 L 4752.500 1341.324 4751.666 1341.412 L 4750.832 1341.500 4696.586 1214.500 L 4642.341 1087.500 4641.136 1085.250 L 4639.930 1083 4572.348 1083 L 4504.767 1083 4505.287 1084.750 M 1260.785 1202.978 L 1252.070 1204.816 1246.785 1206.524 L 1241.500 1208.232 1233.740 1212.063 L 1225.980 1215.894 1218.441 1221.106 L 1210.902 1226.318 1203.447 1233.846 L 1195.992 1241.374 1190.925 1248.703 L 1185.858 1256.033 1181.378 1265.489 L 1176.899 1274.945 1174.409 1284.723 L 1171.918 1294.500 1171.326 1305.500 L 1170.733 1316.500 1171.891 1325.156 L 1173.050 1333.812 1175.055 1341.656 L 1177.061 1349.500 1182.988 1361.500 L 1188.914 1373.500 1195.554 1381.783 L 1202.194 1390.066 1209.347 1396.104 L 1216.500 1402.142 1223.677 1406.629 L 1230.853 1411.115 1239.346 1414.578 L 1247.840 1418.041 1255.670 1420.196 L 1263.500 1422.351 1282 1422.421 L 1300.500 1422.492 1310.370 1419.738 L 1320.241 1416.983 1328.528 1413.100 L 1336.816 1409.216 1343.780 1404.711 L 1350.745 1400.206 1357.914 1393.443 L 1365.082 1386.680 1369.868 1380.590 L 1374.653 1374.500 1378.209 1368.500 L 1381.764 1362.500 1385.347 1353.464 L 1388.929 1344.428 1390.462 1337.821 L 1391.994 1331.213 1392.961 1321.865 L 1393.929 1312.516 1392.925 1302.508 L 1391.922 1292.500 1389.452 1283.130 L 1386.983 1273.759 1383.067 1265.402 L 1379.151 1257.045 1373.825 1249.340 L 1368.500 1241.634 1360.946 1234.007 L 1353.391 1226.380 1346.879 1221.733 L 1340.366 1217.086 1332.506 1213.066 L 1324.646 1209.046 1317.048 1206.516 L 1309.450 1203.986 1300.975 1202.494 L 1292.500 1201.003 1281 1201.072 L 1269.500 1201.141 1260.785 1202.978 M 2030.334 1202.481 L 2023.168 1203.781 2016.334 1206.050 L 2009.500 1208.319 2003.500 1211.034 L 1997.500 1213.748 1988.250 1219.856 L 1978.999 1225.964 1972.742 1232.232 L 1966.484 1238.500 1961.699 1244.730 L 1956.914 1250.959 1953.344 1257.230 L 1949.774 1263.500 1946.292 1272.458 L 1942.810 1281.417 1940.905 1291.244 L 1939 1301.071 1939 1310.463 L 1939 1319.855 1940.072 1327.566 L 1941.145 1335.276 1943.634 1343.888 L 1946.124 1352.500 1950.628 1361.588 L 1955.132 1370.677 1961.520 1379.188 L 1967.908 1387.699 1974.043 1393.379 L 1980.178 1399.059 1987.751 1404.170 L 1995.325 1409.280 2002.413 1412.535 L 2009.500 1415.790 2017.524 1418.307 L 2025.547 1420.824 2033.919 1422.048 L 2042.290 1423.273 2055.395 1422.714 L 2068.500 1422.155 2077 1419.952 L 2085.500 1417.750 2094.024 1414.085 L 2102.547 1410.421 2111.074 1404.863 L 2119.600 1399.305 2126.357 1392.985 L 2133.114 1386.664 2139.153 1378.582 L 2145.193 1370.500 2149.095 1362.774 L 2152.998 1355.049 2155.617 1347.274 L 2158.236 1339.500 2159.583 1332 L 2160.930 1324.500 2160.952 1312 L 2160.974 1299.500 2159.088 1290.500 L 2157.203 1281.500 2153.999 1272.729 L 2150.796 1263.958 2145.648 1255.502 L 2140.500 1247.046 2135 1240.421 L 2129.500 1233.795 2121.857 1227.400 L 2114.214 1221.006 2107.857 1217.146 L 2101.500 1213.287 2094.500 1210.264 L 2087.500 1207.240 2082.500 1205.666 L 2077.500 1204.092 2069.140 1202.546 L 2060.779 1201 2049.140 1201.090 L 2037.500 1201.180 2030.334 1202.481 M 2517.500 1201.626 L 2515.500 1202.020 2510 1203.076 L 2504.500 1204.133 2498 1206.193 L 2491.500 1208.252 2482.651 1212.778 L 2473.802 1217.305 2465.118 1224.016 L 2456.433 1230.728 2451.383 1236.614 L 2446.333 1242.500 2442.040 1248.881 L 2437.747 1255.262 2433.805 1263.675 L 2429.862 1272.088 2427.387 1281.794 L 2424.911 1291.500 2424.336 1301 L 2423.760 1310.500 2424.875 1319.544 L 2425.991 1328.588 2428.070 1336.544 L 2430.149 1344.500 2433.966 1352.658 L 2437.784 1360.816 2442.211 1367.658 L 2446.639 1374.500 2452.569 1380.922 L 2458.500 1387.345 2465.676 1393.062 L 2472.852 1398.778 2480.176 1402.795 L 2487.500 1406.812 2496.387 1409.926 L 2505.275 1413.041 2514.887 1414.624 L 2524.500 1416.208 2536 1415.651 L 2547.500 1415.094 2557.477 1412.547 L 2567.453 1410 2577.477 1405.104 L 2587.500 1400.208 2593.500 1395.776 L 2599.500 1391.344 2605.208 1386.110 L 2610.916 1380.876 2616.322 1373.688 L 2621.727 1366.500 2626.264 1358 L 2630.802 1349.500 2633.332 1342 L 2635.862 1334.500 2637.551 1325.500 L 2639.240 1316.500 2638.675 1303.500 L 2638.110 1290.500 2636.086 1282.749 L 2634.063 1274.998 2631.428 1268.412 L 2628.793 1261.827 2625.325 1255.663 L 2621.857 1249.500 2616.316 1242.242 L 2610.776 1234.984 2605.638 1230.333 L 2600.500 1225.682 2594.500 1221.231 L 2588.500 1216.781 2581 1213.017 L 2573.500 1209.252 2566.162 1206.616 L 2558.824 1203.980 2550.281 1202.490 L 2541.738 1201 2530.619 1201.116 L 2519.500 1201.232 2517.500 1201.626 M 3288.625 1203.498 L 3281.751 1204.920 3275.125 1207.077 L 3268.500 1209.234 3260.740 1213.064 L 3252.980 1216.894 3245.475 1222.082 L 3237.970 1227.271 3229.627 1236.037 L 3221.285 1244.803 3217.101 1251.152 L 3212.916 1257.500 3209.528 1264.575 L 3206.139 1271.649 3203.974 1278.075 L 3201.809 1284.500 3200.319 1292 L 3198.829 1299.500 3198.885 1312.417 L 3198.942 1325.334 3200.470 1333.488 L 3201.997 1341.642 3204.357 1348.571 L 3206.717 1355.500 3210.494 1363 L 3214.271 1370.500 3218.259 1376.377 L 3222.247 1382.254 3229.249 1389.626 L 3236.252 1396.997 3242.876 1401.906 L 3249.500 1406.816 3257.037 1410.880 L 3264.573 1414.944 3275.037 1418.369 L 3285.500 1421.795 3295.397 1423.040 L 3305.295 1424.284 3315.897 1423.703 L 3326.500 1423.122 3333.837 1421.557 L 3341.174 1419.991 3351.438 1415.978 L 3361.702 1411.965 3370.601 1406.080 L 3379.500 1400.195 3387.275 1392.465 L 3395.050 1384.734 3400.525 1376.506 L 3406 1368.278 3410.069 1359.595 L 3414.138 1350.912 3416.746 1341.206 L 3419.354 1331.500 3419.409 1313.500 L 3419.465 1295.500 3417.261 1286.793 L 3415.058 1278.085 3412.017 1270.200 L 3408.976 1262.315 3403.107 1253.407 L 3397.239 1244.500 3390.521 1237.245 L 3383.803 1229.989 3375.651 1223.904 L 3367.500 1217.818 3357.500 1212.940 L 3347.500 1208.062 3338 1205.414 L 3328.500 1202.766 3312 1202.421 L 3295.500 1202.077 3288.625 1203.498 M 3809.625 1203.499 L 3802.751 1204.920 3796.125 1207.100 L 3789.500 1209.281 3782.500 1212.779 L 3775.500 1216.277 3768 1221.284 L 3760.500 1226.291 3752 1234.935 L 3743.500 1243.579 3738.874 1250.539 L 3734.248 1257.500 3731.254 1263.500 L 3728.260 1269.500 3725.699 1277 L 3723.138 1284.500 3721.450 1293.500 L 3719.763 1302.500 3720.287 1316.500 L 3720.811 1330.500 3723.303 1340.074 L 3725.795 1349.648 3729.028 1357.413 L 3732.261 1365.179 3737.986 1373.839 L 3743.710 1382.500 3749.938 1389.243 L 3756.165 1395.987 3764.175 1401.950 L 3772.185 1407.913 3781.342 1412.392 L 3790.500 1416.872 3799.219 1419.395 L 3807.938 1421.917 3816.719 1423.091 L 3825.500 1424.264 3836 1423.693 L 3846.500 1423.122 3853.500 1421.608 L 3860.500 1420.093 3867.866 1417.567 L 3875.232 1415.040 3883.609 1410.584 L 3891.986 1406.127 3898.243 1401.373 L 3904.500 1396.619 3911.350 1389.559 L 3918.201 1382.500 3923.751 1374.161 L 3929.302 1365.823 3933.026 1357.161 L 3936.750 1348.500 3938.976 1340 L 3941.201 1331.500 3941.728 1318.336 L 3942.255 1305.171 3941.060 1296.836 L 3939.864 1288.500 3936.381 1278 L 3932.898 1267.500 3929.362 1261.057 L 3925.826 1254.614 3921.163 1248.066 L 3916.500 1241.518 3908.943 1233.952 L 3901.386 1226.386 3892.443 1220.412 L 3883.500 1214.439 3875 1210.796 L 3866.500 1207.154 3858.500 1204.947 L 3850.500 1202.739 3833.500 1202.409 L 3816.500 1202.078 3809.625 1203.499" stroke="none" fill="#bc987e" fill-rule="evenodd"/></svg>