<svg xmlns="http://www.w3.org/2000/svg" width="4434" height="458" viewBox="0 0 4434 458" version="1.1"><path d="M 0 229 L 0 458 2217.250 457.750 L 4434.500 457.500 4434.752 228.750 L 4435.004 0 2217.502 0 L 0 0 0 229 M 0.491 229.500 L 0.491 458.500 0.750 343.670 L 1.008 228.840 0.750 114.670 L 0.491 0.500 0.491 229.500 M 2383.410 33.915 L 2382.500 34.750 2354.750 43.958 L 2327 53.166 2327 201.083 L 2327 349 2356.472 349 L 2385.944 349 2386.222 284.750 L 2386.500 220.500 2389.442 214.500 L 2392.383 208.500 2397.442 203.435 L 2402.500 198.371 2409.436 194.957 L 2416.372 191.542 2425.936 191.596 L 2435.500 191.649 2440 193.352 L 2444.500 195.055 2449.513 198.486 L 2454.526 201.917 2458.179 206.708 L 2461.833 211.500 2464.166 217 L 2466.500 222.500 2466.785 285.750 L 2467.071 349 2496.535 349 L 2526 349 2525.983 290.250 L 2525.965 231.500 2524.970 222 L 2523.974 212.500 2521.926 205.018 L 2519.879 197.536 2515.960 189.175 L 2512.042 180.813 2507.623 174.620 L 2503.204 168.427 2497.752 162.887 L 2492.300 157.348 2486.330 152.754 L 2480.360 148.160 2473.930 144.628 L 2467.500 141.095 2460.615 138.506 L 2453.731 135.916 2446.615 134.297 L 2439.500 132.678 2426.500 132.724 L 2413.500 132.769 2406.500 134.335 L 2399.500 135.900 2393.593 137.950 L 2387.687 140 2386.843 140 L 2386 140 2386 87.059 L 2386 34.118 2385.160 33.599 L 2384.320 33.080 2383.410 33.915 M 4050.410 33.915 L 4049.500 34.750 4021.750 43.958 L 3994 53.166 3994 201.083 L 3994 349 4023.479 349 L 4052.957 349 4053.229 284.750 L 4053.500 220.500 4056.203 214.732 L 4058.906 208.964 4064.429 203.440 L 4069.952 197.917 4076.726 194.738 L 4083.500 191.558 4093 191.586 L 4102.500 191.614 4108.317 193.904 L 4114.134 196.194 4120.367 202.024 L 4126.599 207.855 4129.285 213.177 L 4131.970 218.500 4132.985 223.886 L 4134 229.273 4134 289.136 L 4134 349 4163.576 349 L 4193.152 349 4192.728 283.750 L 4192.303 218.500 4190.563 211 L 4188.822 203.500 4185.933 196 L 4183.043 188.500 4178.557 180.967 L 4174.071 173.433 4168.718 167.252 L 4163.365 161.070 4155.534 154.559 L 4147.702 148.049 4139.040 143.575 L 4130.377 139.100 4121.531 136.537 L 4112.686 133.974 4103.190 132.915 L 4093.695 131.856 4083.167 132.990 L 4072.639 134.123 4063.466 137.062 L 4054.293 140 4053.647 140 L 4053 140 4053 87.059 L 4053 34.118 4052.160 33.599 L 4051.320 33.080 4050.410 33.915 M 21 196.500 L 21 349 85.250 348.982 L 149.500 348.963 159.500 347.497 L 169.500 346.031 175.616 344.558 L 181.732 343.086 189.616 339.971 L 197.500 336.855 204.988 332.208 L 212.475 327.562 218.543 321.494 L 224.610 315.427 227.857 310.707 L 231.104 305.988 234.536 298.744 L 237.968 291.500 240.135 283.500 L 242.302 275.500 242.302 260 L 242.302 244.500 240.141 236.500 L 237.980 228.500 234.133 220.500 L 230.286 212.500 225.583 206.283 L 220.880 200.066 213.589 194.283 L 206.298 188.500 204.416 187.401 L 202.533 186.303 209.193 179.109 L 215.853 171.915 220.375 162.708 L 224.897 153.500 226.678 147 L 228.458 140.500 228.472 125 L 228.486 109.500 226.710 103 L 224.933 96.500 221.952 90.107 L 218.971 83.713 214.443 77.367 L 209.914 71.021 203.712 66.003 L 197.510 60.984 188.505 56.497 L 179.500 52.010 170.794 49.550 L 162.088 47.090 151.010 45.545 L 139.931 44 80.466 44 L 21 44 21 196.500 M 308 51.088 L 286.500 58.018 278.250 60.570 L 270 63.121 270 206.061 L 270 349 369.500 349 L 469 349 469 320.007 L 469 291.014 400.250 290.757 L 331.500 290.500 331.246 167.250 L 330.992 44 330.246 44.078 L 329.500 44.157 308 51.088 M 477.004 142.250 L 477.008 240.500 478.544 249.973 L 480.080 259.445 483.008 268.184 L 485.936 276.923 489.606 284.211 L 493.277 291.500 498.009 298.500 L 502.741 305.500 509.475 312.762 L 516.209 320.023 524.650 326.358 L 533.091 332.694 541.796 337.283 L 550.500 341.872 559.500 344.871 L 568.500 347.870 577.500 349.546 L 586.500 351.222 601.500 350.719 L 616.500 350.215 627 347.573 L 637.500 344.932 649.500 339.097 L 661.500 333.263 669.650 327.138 L 677.800 321.013 686.150 312.100 L 694.500 303.188 699.773 294.745 L 705.046 286.303 708.893 276.886 L 712.739 267.469 715.102 258.984 L 717.464 250.500 717.763 147.250 L 718.062 44 687.531 44 L 657 44 656.983 139.750 L 656.965 235.500 655.496 242.500 L 654.026 249.500 650.354 257 L 646.682 264.500 639.091 272.103 L 631.500 279.706 624 283.286 L 616.500 286.866 608.094 288.555 L 599.688 290.244 593.367 289.597 L 587.045 288.949 580.273 286.879 L 573.500 284.808 568.251 281.831 L 563.002 278.854 557.532 273.856 L 552.063 268.857 548.009 262.679 L 543.955 256.500 541.231 248.500 L 538.506 240.500 538.212 142.250 L 537.917 44 507.459 44 L 477 44 477.004 142.250 M 756 72.995 L 756 102 855.015 102 L 954.031 102 953.765 73.250 L 953.500 44.500 854.750 44.245 L 756 43.990 756 72.995 M 1095 196.500 L 1095 349 1158.750 348.982 L 1222.500 348.963 1232.500 347.523 L 1242.500 346.083 1250.146 344.109 L 1257.793 342.135 1264.741 339.178 L 1271.689 336.222 1276.094 333.487 L 1280.500 330.752 1285.820 326.700 L 1291.140 322.649 1296.575 316.101 L 1302.009 309.554 1305.951 301.978 L 1309.892 294.401 1312.483 285.461 L 1315.074 276.520 1315.679 265.945 L 1316.284 255.371 1315.071 246.936 L 1313.858 238.500 1310.982 229.852 L 1308.107 221.204 1303.803 213.974 L 1299.500 206.744 1293.634 200.816 L 1287.768 194.889 1282.134 190.735 L 1276.500 186.581 1276.121 186.328 L 1275.743 186.076 1282.121 179.173 L 1288.500 172.270 1292.796 164.179 L 1297.093 156.089 1299.546 146.416 L 1302 136.744 1302 125.437 L 1302 114.131 1300.549 107.235 L 1299.099 100.339 1296.907 94.420 L 1294.716 88.500 1290.538 82 L 1286.361 75.500 1281.321 70.327 L 1276.280 65.154 1270.447 61.423 L 1264.613 57.691 1257.556 54.431 L 1250.499 51.170 1242.221 49.056 L 1233.943 46.943 1223.721 45.490 L 1213.500 44.037 1154.250 44.018 L 1095 44 1095 196.500 M 1383 51.098 L 1361.500 58.012 1353.250 60.566 L 1345 63.121 1345 206.061 L 1345 349 1375.500 349 L 1406 349 1406 196.500 L 1406 44 1405.250 44.092 L 1404.500 44.185 1383 51.098 M 1450 196.443 L 1450 349 1480.496 349 L 1510.992 349 1511.246 225.750 L 1511.500 102.500 1542 102.535 L 1572.500 102.570 1579.854 105.221 L 1587.207 107.872 1591.252 110.675 L 1595.297 113.478 1598.580 118.489 L 1601.864 123.500 1603.555 129.429 L 1605.246 135.359 1604.797 145.460 L 1604.348 155.561 1601.789 161.150 L 1599.230 166.740 1595.668 170.682 L 1592.107 174.624 1587.128 177.334 L 1582.149 180.044 1574.394 182.027 L 1566.639 184.010 1553.820 184.659 L 1541 185.308 1541 214.663 L 1541 244.018 1572.722 289.759 L 1604.443 335.500 1608.972 342.213 L 1613.500 348.925 1650.835 348.963 L 1688.170 349 1684.732 344.250 L 1681.294 339.500 1644.647 287.277 L 1608 235.054 1608 234.557 L 1608 234.061 1615.442 230.622 L 1622.885 227.183 1628.612 223.382 L 1634.339 219.580 1640.247 214.111 L 1646.155 208.641 1650.460 202.570 L 1654.764 196.500 1657.767 190.500 L 1660.770 184.500 1662.939 177.500 L 1665.107 170.500 1666.548 161 L 1667.988 151.500 1667.994 144.474 L 1668 137.448 1666.969 128.974 L 1665.938 120.500 1663.899 112.500 L 1661.859 104.500 1657.951 96.156 L 1654.042 87.813 1649.558 81.529 L 1645.073 75.244 1638.287 69.023 L 1631.500 62.801 1625 59.011 L 1618.500 55.221 1612.235 52.591 L 1605.969 49.962 1595.735 47.287 L 1585.500 44.612 1517.750 44.249 L 1450 43.885 1450 196.443 M 1701.723 44.611 L 1701 45.333 1701 197.060 L 1701 348.786 1702.582 349.393 L 1704.164 350 1749.832 349.990 L 1795.500 349.980 1809.816 348.954 L 1824.132 347.928 1833.582 345.983 L 1843.032 344.039 1850.766 341.459 L 1858.500 338.879 1868.759 333.997 L 1879.019 329.114 1887.259 323.699 L 1895.500 318.284 1903.668 311.161 L 1911.835 304.038 1920.007 294.269 L 1928.178 284.500 1933.601 275.436 L 1939.024 266.372 1942.955 257.436 L 1946.886 248.500 1949.479 239.513 L 1952.072 230.527 1953.454 222.513 L 1954.835 214.500 1955.522 204.500 L 1956.208 194.500 1955.052 183.004 L 1953.895 171.508 1951.989 162.952 L 1950.083 154.396 1946.948 145.448 L 1943.814 136.500 1938.370 126 L 1932.926 115.500 1926.294 106.500 L 1919.662 97.500 1910.032 88 L 1900.402 78.500 1892.253 72.688 L 1884.104 66.877 1873.790 61.490 L 1863.477 56.104 1852.814 52.536 L 1842.152 48.968 1832.826 46.805 L 1823.500 44.642 1762.973 44.265 L 1702.445 43.888 1701.723 44.611 M 2092 196.442 L 2092 349 2122.496 349 L 2152.992 349 2153.246 225.750 L 2153.500 102.500 2178 102.209 L 2202.500 101.918 2210.425 102.961 L 2218.350 104.004 2225.191 107.157 L 2232.032 110.311 2236.105 114.730 L 2240.178 119.149 2242.075 123.436 L 2243.971 127.723 2245.119 135.441 L 2246.267 143.159 2245.087 150.330 L 2243.907 157.500 2241.609 162.500 L 2239.311 167.500 2235.070 171.718 L 2230.829 175.936 2225.421 178.494 L 2220.013 181.052 2213.256 182.544 L 2206.500 184.035 2195 184.768 L 2183.500 185.500 2183.500 214 L 2183.500 242.500 2192.500 242.804 L 2201.500 243.108 2213.127 242.058 L 2224.754 241.008 2236.127 238.116 L 2247.500 235.223 2255.345 231.625 L 2263.190 228.027 2269.982 223.512 L 2276.774 218.997 2283.029 212.310 L 2289.284 205.623 2293.526 199.061 L 2297.768 192.500 2300.403 186.237 L 2303.037 179.973 2305.099 171.737 L 2307.161 163.500 2307.707 148.481 L 2308.254 133.463 2306.664 123.481 L 2305.074 113.500 2302.964 107 L 2300.853 100.500 2297.429 93.500 L 2294.004 86.500 2288.752 79.509 L 2283.500 72.518 2275.288 65.938 L 2267.075 59.357 2259.788 55.824 L 2252.500 52.290 2245.987 50.143 L 2239.474 47.995 2232.487 46.322 L 2225.500 44.649 2158.750 44.266 L 2092 43.884 2092 196.442 M 2819.750 70.876 L 2791 80.474 2791.006 160.987 L 2791.012 241.500 2792.489 251.303 L 2793.967 261.107 2797.016 270.208 L 2800.065 279.309 2804.528 287.904 L 2808.991 296.500 2814.177 303.500 L 2819.364 310.500 2827.799 318.765 L 2836.235 327.030 2844.368 332.404 L 2852.500 337.778 2857.500 340.275 L 2862.500 342.773 2871.186 345.836 L 2879.873 348.899 2887.686 350.370 L 2895.500 351.841 2903.765 352.551 L 2912.031 353.261 2911.765 323.880 L 2911.500 294.500 2908.500 294.244 L 2905.500 293.988 2899.500 292.901 L 2893.500 291.814 2886.314 288.502 L 2879.128 285.189 2874.314 281.582 L 2869.500 277.974 2864.387 271.943 L 2859.275 265.911 2856.125 259.450 L 2852.974 252.989 2851.502 246.745 L 2850.030 240.500 2850.015 213.264 L 2850 186.029 2880.750 185.764 L 2911.500 185.500 2911.766 158.250 L 2912.032 131 2881.016 131 L 2850 131 2850 96.559 L 2850 62.118 2849.250 61.697 L 2848.500 61.277 2819.750 70.876 M 83 132.567 L 83 163.134 112.750 162.794 L 142.500 162.455 148.500 160.096 L 154.500 157.738 159.209 152.915 L 163.917 148.092 165.588 142.346 L 167.258 136.599 166.716 129.430 L 166.174 122.261 164.086 118.169 L 161.998 114.076 159.749 111.949 L 157.500 109.823 153 107.536 L 148.500 105.249 141.303 103.625 L 134.105 102 108.553 102 L 83 102 83 132.567 M 1156 132.567 L 1156 163.134 1185.750 162.794 L 1215.500 162.455 1221.500 160.083 L 1227.500 157.712 1232.139 153.106 L 1236.778 148.500 1238.389 143.068 L 1240 137.637 1240 132 L 1240 126.363 1238.532 121.432 L 1237.063 116.500 1234.165 113.335 L 1231.267 110.169 1226.384 107.709 L 1221.500 105.249 1214.303 103.625 L 1207.105 102 1181.553 102 L 1156 102 1156 132.567 M 1763 196.471 L 1763 288.210 1790.250 287.761 L 1817.500 287.311 1826.500 284.638 L 1835.500 281.964 1843.738 277.940 L 1851.976 273.915 1859.238 268.139 L 1866.500 262.363 1871.238 257.087 L 1875.976 251.810 1880.426 244.655 L 1884.876 237.500 1887.864 230 L 1890.851 222.500 1892.550 214.081 L 1894.249 205.663 1893.721 192.581 L 1893.193 179.500 1891.041 172 L 1888.889 164.500 1884.999 156.422 L 1881.110 148.345 1875.453 141.115 L 1869.795 133.885 1862.287 127.478 L 1854.779 121.072 1844.837 115.965 L 1834.895 110.858 1825.197 108.323 L 1815.500 105.789 1789.250 105.261 L 1763 104.733 1763 196.471 M 3487.500 128.033 L 3478.500 129.925 3471 132.558 L 3463.500 135.190 3453.972 140.143 L 3444.444 145.095 3438.472 149.539 L 3432.500 153.982 3424.684 161.741 L 3416.869 169.500 3411.600 176.500 L 3406.331 183.500 3402.668 189.800 L 3399.004 196.101 3396.039 203.068 L 3393.074 210.035 3391.078 216.767 L 3389.081 223.500 3387.541 232.381 L 3386 241.262 3386 295.131 L 3386 349 3415.500 349 L 3445 349 3445 296.049 L 3445 243.098 3446.113 237.799 L 3447.226 232.500 3450.513 225.325 L 3453.800 218.151 3456.931 213.600 L 3460.062 209.050 3465.204 203.988 L 3470.347 198.926 3477.423 194.539 L 3484.500 190.152 3490.500 188.151 L 3496.500 186.151 3504.750 184.855 L 3513 183.558 3513 154.779 L 3513 126 3504.750 126.070 L 3496.500 126.141 3487.500 128.033 M 2641.512 129.048 L 2633.525 129.947 2624.568 132.517 L 2615.612 135.086 2607.473 138.900 L 2599.334 142.714 2591.756 147.827 L 2584.178 152.941 2578.043 158.621 L 2571.908 164.301 2565.443 172.901 L 2558.979 181.500 2555.048 189.041 L 2551.116 196.582 2548.526 204.518 L 2545.935 212.455 2544.471 221.477 L 2543.008 230.500 2543.004 240.119 L 2543 249.738 2544.526 258.619 L 2546.052 267.500 2548.186 274 L 2550.319 280.500 2553.133 286.783 L 2555.946 293.067 2560.595 300.283 L 2565.244 307.500 2570.867 313.932 L 2576.490 320.365 2583.782 326.160 L 2591.074 331.955 2598.011 336.076 L 2604.949 340.197 2612.112 343.113 L 2619.275 346.028 2627.388 348.153 L 2635.500 350.278 2649.176 350.765 L 2662.852 351.252 2671.176 350.058 L 2679.500 348.864 2690 345.397 L 2700.500 341.930 2708.500 337.317 L 2716.500 332.705 2722 328.482 L 2727.500 324.258 2735.291 316.098 L 2743.081 307.937 2747.756 300.719 L 2752.432 293.500 2756.094 285 L 2759.756 276.500 2761.878 269 L 2763.999 261.500 2765.200 250.750 L 2766.401 240 2765.184 229.055 L 2763.967 218.109 2761.444 209.404 L 2758.922 200.699 2755.499 193.292 L 2752.077 185.884 2747.311 178.692 L 2742.544 171.500 2734.025 162.642 L 2725.507 153.784 2715.398 147.024 L 2705.289 140.265 2694.894 136.226 L 2684.500 132.188 2676.500 130.627 L 2668.500 129.065 2659 128.607 L 2649.500 128.148 2641.512 129.048 M 3006.500 129.019 L 2999.500 129.766 2992.538 131.520 L 2985.576 133.273 2976.038 137.240 L 2966.500 141.207 2958 146.743 L 2949.500 152.280 2942.113 159.390 L 2934.725 166.500 2929.403 173.642 L 2924.081 180.785 2920.606 187.142 L 2917.132 193.500 2915.058 198.807 L 2912.984 204.114 2910.950 211.961 L 2908.916 219.807 2908.111 229.347 L 2907.307 238.888 2908.130 249.435 L 2908.953 259.982 2910.940 267.765 L 2912.927 275.549 2915.933 282.836 L 2918.938 290.124 2923.719 298.225 L 2928.500 306.326 2936.500 314.835 L 2944.500 323.345 2952.036 328.950 L 2959.573 334.555 2967.677 338.771 L 2975.781 342.987 2984.751 345.919 L 2993.720 348.850 3001.934 350.051 L 3010.148 351.252 3023.824 350.765 L 3037.500 350.278 3045.868 348.087 L 3054.236 345.897 3060.868 343.261 L 3067.500 340.626 3075 336.217 L 3082.500 331.809 3089.263 326.280 L 3096.027 320.751 3101.184 315.126 L 3106.341 309.500 3112.040 300.839 L 3117.739 292.179 3120.847 284.714 L 3123.954 277.249 3126.470 268.375 L 3128.987 259.500 3129.815 250 L 3130.643 240.500 3129.827 230.573 L 3129.010 220.646 3126.477 211.073 L 3123.944 201.500 3119.076 191.500 L 3114.208 181.500 3109.787 175.500 L 3105.365 169.500 3099.555 163.228 L 3093.744 156.956 3085.764 150.943 L 3077.784 144.930 3067.642 140.007 L 3057.500 135.083 3048.876 132.611 L 3040.252 130.138 3030.666 129.069 L 3021.079 128 3017.289 128.136 L 3013.500 128.272 3006.500 129.019 M 3234.740 129.087 L 3226.980 129.907 3218.740 132.054 L 3210.500 134.200 3200.434 139.028 L 3190.367 143.856 3182.434 149.761 L 3174.500 155.666 3167.647 162.960 L 3160.794 170.255 3156.289 177.220 L 3151.784 184.184 3147.823 192.636 L 3143.862 201.088 3141.251 210.794 L 3138.640 220.500 3138.640 238 L 3138.640 255.500 3141.316 265.500 L 3143.992 275.500 3148.439 284.720 L 3152.885 293.940 3157.066 300.097 L 3161.247 306.254 3168.302 313.681 L 3175.357 321.108 3181.928 326.103 L 3188.500 331.099 3199.500 336.533 L 3210.500 341.968 3218.773 344.015 L 3227.045 346.062 3235.273 347.122 L 3243.500 348.181 3252.615 347.540 L 3261.731 346.899 3270.637 345.074 L 3279.543 343.250 3287.412 340.099 L 3295.281 336.948 3295.871 337.537 L 3296.460 338.127 3292.757 345.321 L 3289.053 352.516 3283.776 357.699 L 3278.500 362.883 3272.729 366.339 L 3266.959 369.795 3259.877 371.530 L 3252.795 373.266 3244.147 372.744 L 3235.500 372.223 3229.764 370.045 L 3224.029 367.867 3218.013 363.850 L 3211.997 359.832 3199.255 373.166 L 3186.513 386.500 3179.756 393.576 L 3173 400.651 3173 401.722 L 3173 402.793 3176.734 406.072 L 3180.468 409.350 3188.622 414.665 L 3196.776 419.980 3204.698 423.371 L 3212.620 426.762 3221.060 428.981 L 3229.500 431.201 3242.590 431.726 L 3255.681 432.250 3265.340 430.604 L 3275 428.957 3282.250 426.353 L 3289.500 423.749 3296.500 420.239 L 3303.500 416.729 3309.500 412.666 L 3315.500 408.604 3324.565 399.552 L 3333.631 390.500 3337.921 384.107 L 3342.211 377.714 3346.080 369.960 L 3349.949 362.206 3352.433 353.634 L 3354.917 345.062 3356.023 336.756 L 3357.128 328.450 3356.768 274.975 L 3356.407 221.500 3353.745 211.687 L 3351.083 201.874 3347.724 194.104 L 3344.365 186.334 3339.432 178.509 L 3334.500 170.683 3327.326 163.033 L 3320.152 155.383 3311.326 149.101 L 3302.500 142.820 3294.500 138.963 L 3286.500 135.106 3277.775 132.592 L 3269.050 130.079 3258.919 129.040 L 3248.788 128 3245.644 128.133 L 3242.500 128.266 3234.740 129.087 M 3597 130.508 L 3589.500 131.926 3583 134.098 L 3576.500 136.271 3567.485 140.646 L 3558.471 145.021 3549.823 151.512 L 3541.176 158.002 3534.988 164.751 L 3528.800 171.500 3523.319 179.732 L 3517.839 187.965 3514.399 196.402 L 3510.959 204.840 3508.849 212.670 L 3506.739 220.500 3506.279 237 L 3505.818 253.500 3507.803 263.122 L 3509.788 272.744 3513.185 281.203 L 3516.581 289.662 3520.884 297.182 L 3525.186 304.702 3531.376 312.101 L 3537.566 319.500 3546.533 326.760 L 3555.500 334.019 3567.500 340.009 L 3579.500 346 3587.387 347.994 L 3595.274 349.988 3606.671 351.101 L 3618.068 352.214 3627.784 351.088 L 3637.500 349.962 3646 347.865 L 3654.500 345.768 3660.750 342.947 L 3667 340.125 3667 344.563 L 3667 349 3696.500 349 L 3726 349 3726 239 L 3726 129 3696.500 129 L 3667 129 3667 134.500 L 3667 140 3666.124 140 L 3665.249 140 3659.442 137.432 L 3653.634 134.864 3644.567 132.342 L 3635.500 129.821 3620 129.456 L 3604.500 129.090 3597 130.508 M 3844.951 130.547 L 3837.403 131.914 3828.451 135.070 L 3819.500 138.227 3814.500 140.725 L 3809.500 143.222 3801.500 148.522 L 3793.500 153.821 3784.881 162.661 L 3776.263 171.500 3770.585 180.224 L 3764.908 188.947 3761.997 196.008 L 3759.085 203.068 3757.111 210.284 L 3755.136 217.500 3754.068 224.692 L 3753 231.883 3753 319.358 L 3753 406.834 3781.750 416.417 L 3810.501 426 3811.250 426 L 3812 426 3812 382.555 L 3812 339.110 3817.750 341.677 L 3823.500 344.244 3830.500 346.654 L 3837.500 349.065 3850.500 350.708 L 3863.500 352.351 3875.069 351.196 L 3886.638 350.040 3895.569 347.484 L 3904.500 344.927 3913.607 340.383 L 3922.715 335.839 3931.182 329.485 L 3939.649 323.130 3945.779 316.577 L 3951.909 310.024 3955.898 304.150 L 3959.887 298.276 3963.832 290.388 L 3967.776 282.500 3970.420 274.541 L 3973.064 266.583 3974.636 257.041 L 3976.208 247.500 3975.657 235.500 L 3975.105 223.500 3972.655 213.926 L 3970.205 204.352 3967.099 196.892 L 3963.993 189.431 3958.152 180.399 L 3952.311 171.367 3945.405 164.023 L 3938.500 156.679 3931.240 151.293 L 3923.979 145.906 3916.740 142.038 L 3909.500 138.169 3900.621 135.067 L 3891.742 131.965 3883.240 130.483 L 3874.738 129 3863.619 129.090 L 3852.500 129.179 3844.951 130.547 M 4185 131.884 L 4185 132.767 4228.071 230.125 L 4271.141 327.482 4270.716 329.491 L 4270.291 331.500 4251.575 377.847 L 4232.860 424.193 4233.399 425.597 L 4233.937 427 4263.219 426.985 L 4292.500 426.969 4293.746 426.178 L 4294.992 425.387 4328.094 343.443 L 4361.196 261.500 4363.475 255.500 L 4365.754 249.500 4389.004 192 L 4412.255 134.500 4412.744 132.750 L 4413.233 131 4381.867 131.008 L 4350.500 131.016 4326.491 191.758 L 4302.482 252.500 4301.576 252.500 L 4300.671 252.500 4274.738 191.750 L 4248.805 131 4216.902 131 L 4185 131 4185 131.884 M 756 197 L 756 226.010 854.750 225.755 L 953.500 225.500 953.500 197 L 953.500 168.500 854.750 168.245 L 756 167.990 756 197 M 2642 188.583 L 2636.500 190.034 2630.500 192.989 L 2624.500 195.944 2619.713 200.082 L 2614.926 204.219 2610.846 210.227 L 2606.766 216.235 2604.724 221.867 L 2602.682 227.500 2602.230 236.558 L 2601.778 245.615 2602.963 251.320 L 2604.147 257.025 2607.716 264.160 L 2611.286 271.294 2617.060 276.980 L 2622.835 282.665 2629.667 286.211 L 2636.500 289.756 2642 291.055 L 2647.500 292.354 2655.500 292.254 L 2663.500 292.153 2670.072 290.091 L 2676.644 288.030 2682.572 284.190 L 2688.500 280.351 2693.677 274.675 L 2698.853 269 2701.401 263.750 L 2703.949 258.500 2705.598 252 L 2707.246 245.500 2706.712 237 L 2706.178 228.500 2704.060 222.500 L 2701.942 216.500 2698.507 211.319 L 2695.071 206.138 2690.307 201.573 L 2685.543 197.007 2678.929 193.532 L 2672.316 190.057 2666.448 188.528 L 2660.580 187 2654.040 187.066 L 2647.500 187.132 2642 188.583 M 3006.645 188.584 L 3000.790 190.001 2993.893 193.626 L 2986.995 197.250 2980.882 203.786 L 2974.768 210.321 2971.466 217.212 L 2968.163 224.103 2966.962 231.227 L 2965.760 238.352 2966.397 244.568 L 2967.034 250.785 2969.021 256.562 L 2971.009 262.340 2973.570 266.710 L 2976.131 271.079 2979.315 274.718 L 2982.500 278.357 2988.275 282.616 L 2994.050 286.875 2999.628 288.962 L 3005.205 291.049 3012.362 292.044 L 3019.518 293.039 3027.509 291.636 L 3035.500 290.232 3041.116 287.562 L 3046.733 284.892 3052.556 280.196 L 3058.380 275.500 3062.723 269.012 L 3067.067 262.523 3069.087 256.012 L 3071.106 249.500 3071.647 243.500 L 3072.188 237.500 3070.601 230 L 3069.015 222.500 3065.837 216 L 3062.659 209.500 3055.901 202.718 L 3049.143 195.936 3041.821 192.581 L 3034.500 189.226 3029.201 188.113 L 3023.902 187 3018.201 187.083 L 3012.500 187.167 3006.645 188.584 M 3237.056 188.024 L 3232.613 188.962 3225.556 192.342 L 3218.500 195.723 3213.813 199.891 L 3209.126 204.059 3205.072 210.130 L 3201.019 216.200 3199.009 222.705 L 3197 229.211 3197 237.395 L 3197 245.580 3198.533 251.465 L 3200.066 257.350 3202.783 262.396 L 3205.500 267.443 3211.619 273.708 L 3217.738 279.974 3225.392 283.609 L 3233.046 287.244 3240.451 288.311 L 3247.856 289.378 3254.928 288.283 L 3262.001 287.188 3268.250 284.245 L 3274.500 281.302 3279.823 277.070 L 3285.146 272.838 3289.905 265.548 L 3294.664 258.258 3296.501 251.879 L 3298.337 245.500 3298.247 237 L 3298.157 228.500 3296.074 222.580 L 3293.991 216.660 3291.380 212.205 L 3288.770 207.751 3285.268 203.875 L 3281.766 199.999 3276.996 196.497 L 3272.226 192.995 3265.377 190.417 L 3258.528 187.840 3250.014 187.463 L 3241.500 187.086 3237.056 188.024 M 3607 188.086 L 3602.500 188.954 3594.201 193.049 L 3585.903 197.145 3580.124 202.823 L 3574.346 208.500 3571.678 213.080 L 3569.009 217.660 3567.021 223.438 L 3565.034 229.215 3564.397 235.432 L 3563.760 241.648 3564.987 248.922 L 3566.214 256.195 3570.095 263.950 L 3573.976 271.704 3578.808 276.602 L 3583.639 281.500 3587.716 284.314 L 3591.793 287.128 3598.884 289.595 L 3605.976 292.061 3613.738 292.635 L 3621.500 293.210 3628.312 291.605 L 3635.124 290 3640.812 287.330 L 3646.500 284.659 3653.592 277.580 L 3660.685 270.500 3663.820 263.904 L 3666.955 257.308 3668.089 252.023 L 3669.222 246.737 3668.775 237.119 L 3668.329 227.500 3666.269 221.832 L 3664.209 216.164 3660.892 211.332 L 3657.575 206.500 3652.569 201.690 L 3647.563 196.880 3639.532 192.956 L 3631.500 189.032 3625 188.024 L 3618.500 187.015 3615 187.117 L 3611.500 187.219 3607 188.086 M 3856.763 187.973 L 3852.027 188.830 3847.077 190.475 L 3842.126 192.119 3836.313 195.884 L 3830.500 199.649 3825.323 205.325 L 3820.147 211 3817.514 216.381 L 3814.882 221.762 3813.453 227.131 L 3812.024 232.500 3812.012 240.040 L 3812 247.580 3813.489 253.297 L 3814.978 259.014 3818.113 265.223 L 3821.247 271.432 3827.407 277.593 L 3833.568 283.753 3839.774 286.886 L 3845.979 290.018 3852.240 291.494 L 3858.500 292.970 3864.500 292.970 L 3870.500 292.970 3876.907 291.460 L 3883.314 289.950 3889.136 286.847 L 3894.959 283.743 3900.475 278.622 L 3905.992 273.500 3909.532 267.500 L 3913.073 261.500 3915.036 255.145 L 3917 248.789 3917 241.444 L 3917 234.098 3915.895 228.799 L 3914.790 223.500 3911.810 217.178 L 3908.829 210.857 3902.474 204.119 L 3896.118 197.382 3891.102 194.652 L 3886.085 191.922 3880.356 189.950 L 3874.627 187.979 3868.063 187.547 L 3861.500 187.115 3856.763 187.973 M 83 256.026 L 83 291.222 115.250 290.743 L 147.500 290.265 153.267 288.641 L 159.034 287.017 163.807 284.598 L 168.580 282.179 172.658 277.755 L 176.735 273.332 178.118 269.416 L 179.500 265.500 179.477 256.500 L 179.453 247.500 176.883 242 L 174.313 236.500 170.927 233.211 L 167.541 229.923 162.390 227.402 L 157.238 224.882 151.869 223.290 L 146.500 221.698 114.750 221.265 L 83 220.831 83 256.026 M 1156 256.026 L 1156 291.222 1188.250 290.722 L 1220.500 290.222 1226 288.779 L 1231.500 287.337 1236.547 284.754 L 1241.595 282.172 1244.923 278.836 L 1248.252 275.500 1250.375 271 L 1252.499 266.500 1252.499 257 L 1252.500 247.500 1249.917 241.994 L 1247.334 236.488 1244.160 233.314 L 1240.987 230.141 1235.612 227.511 L 1230.238 224.882 1224.869 223.290 L 1219.500 221.698 1187.750 221.265 L 1156 220.831 1156 256.026 M 756 320.500 L 756 349 855 349 L 954 349 954 320.500 L 954 292 855 292 L 756 292 756 320.500" stroke="none" fill="#ffffff" fill-rule="evenodd"/><path d="M 2383.410 33.915 L 2382.500 34.750 2354.750 43.958 L 2327 53.166 2327 201.083 L 2327 349 2356.472 349 L 2385.944 349 2386.222 284.750 L 2386.500 220.500 2389.442 214.500 L 2392.383 208.500 2397.442 203.435 L 2402.500 198.371 2409.436 194.957 L 2416.372 191.542 2425.936 191.596 L 2435.500 191.649 2440 193.352 L 2444.500 195.055 2449.513 198.486 L 2454.526 201.917 2458.179 206.708 L 2461.833 211.500 2464.166 217 L 2466.500 222.500 2466.785 285.750 L 2467.071 349 2496.535 349 L 2526 349 2525.983 290.250 L 2525.965 231.500 2524.970 222 L 2523.974 212.500 2521.926 205.018 L 2519.879 197.536 2515.960 189.175 L 2512.042 180.813 2507.623 174.620 L 2503.204 168.427 2497.752 162.887 L 2492.300 157.348 2486.330 152.754 L 2480.360 148.160 2473.930 144.628 L 2467.500 141.095 2460.615 138.506 L 2453.731 135.916 2446.615 134.297 L 2439.500 132.678 2426.500 132.724 L 2413.500 132.769 2406.500 134.335 L 2399.500 135.900 2393.593 137.950 L 2387.687 140 2386.843 140 L 2386 140 2386 87.059 L 2386 34.118 2385.160 33.599 L 2384.320 33.080 2383.410 33.915 M 4050.410 33.915 L 4049.500 34.750 4021.750 43.958 L 3994 53.166 3994 201.083 L 3994 349 4023.479 349 L 4052.957 349 4053.229 284.750 L 4053.500 220.500 4056.203 214.732 L 4058.906 208.964 4064.429 203.440 L 4069.952 197.917 4076.726 194.738 L 4083.500 191.558 4093 191.586 L 4102.500 191.614 4108.317 193.904 L 4114.134 196.194 4120.367 202.024 L 4126.599 207.855 4129.285 213.177 L 4131.970 218.500 4132.985 223.886 L 4134 229.273 4134 289.136 L 4134 349 4163.576 349 L 4193.152 349 4192.728 283.750 L 4192.303 218.500 4190.563 211 L 4188.822 203.500 4185.933 196 L 4183.043 188.500 4178.557 180.967 L 4174.071 173.433 4168.718 167.252 L 4163.365 161.070 4155.534 154.559 L 4147.702 148.049 4139.040 143.575 L 4130.377 139.100 4121.531 136.537 L 4112.686 133.974 4103.190 132.915 L 4093.695 131.856 4083.167 132.990 L 4072.639 134.123 4063.466 137.062 L 4054.293 140 4053.647 140 L 4053 140 4053 87.059 L 4053 34.118 4052.160 33.599 L 4051.320 33.080 4050.410 33.915 M 21 196.500 L 21 349 85.250 348.982 L 149.500 348.963 159.500 347.497 L 169.500 346.031 175.616 344.558 L 181.732 343.086 189.616 339.971 L 197.500 336.855 204.988 332.208 L 212.475 327.562 218.543 321.494 L 224.610 315.427 227.857 310.707 L 231.104 305.988 234.536 298.744 L 237.968 291.500 240.135 283.500 L 242.302 275.500 242.302 260 L 242.302 244.500 240.141 236.500 L 237.980 228.500 234.133 220.500 L 230.286 212.500 225.583 206.283 L 220.880 200.066 213.589 194.283 L 206.298 188.500 204.416 187.401 L 202.533 186.303 209.193 179.109 L 215.853 171.915 220.375 162.708 L 224.897 153.500 226.678 147 L 228.458 140.500 228.472 125 L 228.486 109.500 226.710 103 L 224.933 96.500 221.952 90.107 L 218.971 83.713 214.443 77.367 L 209.914 71.021 203.712 66.003 L 197.510 60.984 188.505 56.497 L 179.500 52.010 170.794 49.550 L 162.088 47.090 151.010 45.545 L 139.931 44 80.466 44 L 21 44 21 196.500 M 308 51.088 L 286.500 58.018 278.250 60.570 L 270 63.121 270 206.061 L 270 349 369.500 349 L 469 349 469 320.007 L 469 291.014 400.250 290.757 L 331.500 290.500 331.246 167.250 L 330.992 44 330.246 44.078 L 329.500 44.157 308 51.088 M 477.004 142.250 L 477.008 240.500 478.544 249.973 L 480.080 259.445 483.008 268.184 L 485.936 276.923 489.606 284.211 L 493.277 291.500 498.009 298.500 L 502.741 305.500 509.475 312.762 L 516.209 320.023 524.650 326.358 L 533.091 332.694 541.796 337.283 L 550.500 341.872 559.500 344.871 L 568.500 347.870 577.500 349.546 L 586.500 351.222 601.500 350.719 L 616.500 350.215 627 347.573 L 637.500 344.932 649.500 339.097 L 661.500 333.263 669.650 327.138 L 677.800 321.013 686.150 312.100 L 694.500 303.188 699.773 294.745 L 705.046 286.303 708.893 276.886 L 712.739 267.469 715.102 258.984 L 717.464 250.500 717.763 147.250 L 718.062 44 687.531 44 L 657 44 656.983 139.750 L 656.965 235.500 655.496 242.500 L 654.026 249.500 650.354 257 L 646.682 264.500 639.091 272.103 L 631.500 279.706 624 283.286 L 616.500 286.866 608.094 288.555 L 599.688 290.244 593.367 289.597 L 587.045 288.949 580.273 286.879 L 573.500 284.808 568.251 281.831 L 563.002 278.854 557.532 273.856 L 552.063 268.857 548.009 262.679 L 543.955 256.500 541.231 248.500 L 538.506 240.500 538.212 142.250 L 537.917 44 507.459 44 L 477 44 477.004 142.250 M 756 72.995 L 756 102 855.015 102 L 954.031 102 953.765 73.250 L 953.500 44.500 854.750 44.245 L 756 43.990 756 72.995 M 1095 196.500 L 1095 349 1158.750 348.982 L 1222.500 348.963 1232.500 347.523 L 1242.500 346.083 1250.146 344.109 L 1257.793 342.135 1264.741 339.178 L 1271.689 336.222 1276.094 333.487 L 1280.500 330.752 1285.820 326.700 L 1291.140 322.649 1296.575 316.101 L 1302.009 309.554 1305.951 301.978 L 1309.892 294.401 1312.483 285.461 L 1315.074 276.520 1315.679 265.945 L 1316.284 255.371 1315.071 246.936 L 1313.858 238.500 1310.982 229.852 L 1308.107 221.204 1303.803 213.974 L 1299.500 206.744 1293.634 200.816 L 1287.768 194.889 1282.134 190.735 L 1276.500 186.581 1276.121 186.328 L 1275.743 186.076 1282.121 179.173 L 1288.500 172.270 1292.796 164.179 L 1297.093 156.089 1299.546 146.416 L 1302 136.744 1302 125.437 L 1302 114.131 1300.549 107.235 L 1299.099 100.339 1296.907 94.420 L 1294.716 88.500 1290.538 82 L 1286.361 75.500 1281.321 70.327 L 1276.280 65.154 1270.447 61.423 L 1264.613 57.691 1257.556 54.431 L 1250.499 51.170 1242.221 49.056 L 1233.943 46.943 1223.721 45.490 L 1213.500 44.037 1154.250 44.018 L 1095 44 1095 196.500 M 1383 51.098 L 1361.500 58.012 1353.250 60.566 L 1345 63.121 1345 206.061 L 1345 349 1375.500 349 L 1406 349 1406 196.500 L 1406 44 1405.250 44.092 L 1404.500 44.185 1383 51.098 M 1450 196.443 L 1450 349 1480.496 349 L 1510.992 349 1511.246 225.750 L 1511.500 102.500 1542 102.535 L 1572.500 102.570 1579.854 105.221 L 1587.207 107.872 1591.252 110.675 L 1595.297 113.478 1598.580 118.489 L 1601.864 123.500 1603.555 129.429 L 1605.246 135.359 1604.797 145.460 L 1604.348 155.561 1601.789 161.150 L 1599.230 166.740 1595.668 170.682 L 1592.107 174.624 1587.128 177.334 L 1582.149 180.044 1574.394 182.027 L 1566.639 184.010 1553.820 184.659 L 1541 185.308 1541 214.663 L 1541 244.018 1572.722 289.759 L 1604.443 335.500 1608.972 342.213 L 1613.500 348.925 1650.835 348.963 L 1688.170 349 1684.732 344.250 L 1681.294 339.500 1644.647 287.277 L 1608 235.054 1608 234.557 L 1608 234.061 1615.442 230.622 L 1622.885 227.183 1628.612 223.382 L 1634.339 219.580 1640.247 214.111 L 1646.155 208.641 1650.460 202.570 L 1654.764 196.500 1657.767 190.500 L 1660.770 184.500 1662.939 177.500 L 1665.107 170.500 1666.548 161 L 1667.988 151.500 1667.994 144.474 L 1668 137.448 1666.969 128.974 L 1665.938 120.500 1663.899 112.500 L 1661.859 104.500 1657.951 96.156 L 1654.042 87.813 1649.558 81.529 L 1645.073 75.244 1638.287 69.023 L 1631.500 62.801 1625 59.011 L 1618.500 55.221 1612.235 52.591 L 1605.969 49.962 1595.735 47.287 L 1585.500 44.612 1517.750 44.249 L 1450 43.885 1450 196.443 M 1701.723 44.611 L 1701 45.333 1701 197.060 L 1701 348.786 1702.582 349.393 L 1704.164 350 1749.832 349.990 L 1795.500 349.980 1809.816 348.954 L 1824.132 347.928 1833.582 345.983 L 1843.032 344.039 1850.766 341.459 L 1858.500 338.879 1868.759 333.997 L 1879.019 329.114 1887.259 323.699 L 1895.500 318.284 1903.668 311.161 L 1911.835 304.038 1920.007 294.269 L 1928.178 284.500 1933.601 275.436 L 1939.024 266.372 1942.955 257.436 L 1946.886 248.500 1949.479 239.513 L 1952.072 230.527 1953.454 222.513 L 1954.835 214.500 1955.522 204.500 L 1956.208 194.500 1955.052 183.004 L 1953.895 171.508 1951.989 162.952 L 1950.083 154.396 1946.948 145.448 L 1943.814 136.500 1938.370 126 L 1932.926 115.500 1926.294 106.500 L 1919.662 97.500 1910.032 88 L 1900.402 78.500 1892.253 72.688 L 1884.104 66.877 1873.790 61.490 L 1863.477 56.104 1852.814 52.536 L 1842.152 48.968 1832.826 46.805 L 1823.500 44.642 1762.973 44.265 L 1702.445 43.888 1701.723 44.611 M 2092 196.442 L 2092 349 2122.496 349 L 2152.992 349 2153.246 225.750 L 2153.500 102.500 2178 102.209 L 2202.500 101.918 2210.425 102.961 L 2218.350 104.004 2225.191 107.157 L 2232.032 110.311 2236.105 114.730 L 2240.178 119.149 2242.075 123.436 L 2243.971 127.723 2245.119 135.441 L 2246.267 143.159 2245.087 150.330 L 2243.907 157.500 2241.609 162.500 L 2239.311 167.500 2235.070 171.718 L 2230.829 175.936 2225.421 178.494 L 2220.013 181.052 2213.256 182.544 L 2206.500 184.035 2195 184.768 L 2183.500 185.500 2183.500 214 L 2183.500 242.500 2192.500 242.804 L 2201.500 243.108 2213.127 242.058 L 2224.754 241.008 2236.127 238.116 L 2247.500 235.223 2255.345 231.625 L 2263.190 228.027 2269.982 223.512 L 2276.774 218.997 2283.029 212.310 L 2289.284 205.623 2293.526 199.061 L 2297.768 192.500 2300.403 186.237 L 2303.037 179.973 2305.099 171.737 L 2307.161 163.500 2307.707 148.481 L 2308.254 133.463 2306.664 123.481 L 2305.074 113.500 2302.964 107 L 2300.853 100.500 2297.429 93.500 L 2294.004 86.500 2288.752 79.509 L 2283.500 72.518 2275.288 65.938 L 2267.075 59.357 2259.788 55.824 L 2252.500 52.290 2245.987 50.143 L 2239.474 47.995 2232.487 46.322 L 2225.500 44.649 2158.750 44.266 L 2092 43.884 2092 196.442 M 2819.750 70.876 L 2791 80.474 2791.006 160.987 L 2791.012 241.500 2792.489 251.303 L 2793.967 261.107 2797.016 270.208 L 2800.065 279.309 2804.528 287.904 L 2808.991 296.500 2814.177 303.500 L 2819.364 310.500 2827.799 318.765 L 2836.235 327.030 2844.368 332.404 L 2852.500 337.778 2857.500 340.275 L 2862.500 342.773 2871.186 345.836 L 2879.873 348.899 2887.686 350.370 L 2895.500 351.841 2903.765 352.551 L 2912.031 353.261 2911.765 323.880 L 2911.500 294.500 2908.500 294.244 L 2905.500 293.988 2899.500 292.901 L 2893.500 291.814 2886.314 288.502 L 2879.128 285.189 2874.314 281.582 L 2869.500 277.974 2864.387 271.943 L 2859.275 265.911 2856.125 259.450 L 2852.974 252.989 2851.502 246.745 L 2850.030 240.500 2850.015 213.264 L 2850 186.029 2880.750 185.764 L 2911.500 185.500 2911.766 158.250 L 2912.032 131 2881.016 131 L 2850 131 2850 96.559 L 2850 62.118 2849.250 61.697 L 2848.500 61.277 2819.750 70.876 M 83 132.567 L 83 163.134 112.750 162.794 L 142.500 162.455 148.500 160.096 L 154.500 157.738 159.209 152.915 L 163.917 148.092 165.588 142.346 L 167.258 136.599 166.716 129.430 L 166.174 122.261 164.086 118.169 L 161.998 114.076 159.749 111.949 L 157.500 109.823 153 107.536 L 148.500 105.249 141.303 103.625 L 134.105 102 108.553 102 L 83 102 83 132.567 M 1156 132.567 L 1156 163.134 1185.750 162.794 L 1215.500 162.455 1221.500 160.083 L 1227.500 157.712 1232.139 153.106 L 1236.778 148.500 1238.389 143.068 L 1240 137.637 1240 132 L 1240 126.363 1238.532 121.432 L 1237.063 116.500 1234.165 113.335 L 1231.267 110.169 1226.384 107.709 L 1221.500 105.249 1214.303 103.625 L 1207.105 102 1181.553 102 L 1156 102 1156 132.567 M 1763 196.471 L 1763 288.210 1790.250 287.761 L 1817.500 287.311 1826.500 284.638 L 1835.500 281.964 1843.738 277.940 L 1851.976 273.915 1859.238 268.139 L 1866.500 262.363 1871.238 257.087 L 1875.976 251.810 1880.426 244.655 L 1884.876 237.500 1887.864 230 L 1890.851 222.500 1892.550 214.081 L 1894.249 205.663 1893.721 192.581 L 1893.193 179.500 1891.041 172 L 1888.889 164.500 1884.999 156.422 L 1881.110 148.345 1875.453 141.115 L 1869.795 133.885 1862.287 127.478 L 1854.779 121.072 1844.837 115.965 L 1834.895 110.858 1825.197 108.323 L 1815.500 105.789 1789.250 105.261 L 1763 104.733 1763 196.471 M 3487.500 128.033 L 3478.500 129.925 3471 132.558 L 3463.500 135.190 3453.972 140.143 L 3444.444 145.095 3438.472 149.539 L 3432.500 153.982 3424.684 161.741 L 3416.869 169.500 3411.600 176.500 L 3406.331 183.500 3402.668 189.800 L 3399.004 196.101 3396.039 203.068 L 3393.074 210.035 3391.078 216.767 L 3389.081 223.500 3387.541 232.381 L 3386 241.262 3386 295.131 L 3386 349 3415.500 349 L 3445 349 3445 296.049 L 3445 243.098 3446.113 237.799 L 3447.226 232.500 3450.513 225.325 L 3453.800 218.151 3456.931 213.600 L 3460.062 209.050 3465.204 203.988 L 3470.347 198.926 3477.423 194.539 L 3484.500 190.152 3490.500 188.151 L 3496.500 186.151 3504.750 184.855 L 3513 183.558 3513 154.779 L 3513 126 3504.750 126.070 L 3496.500 126.141 3487.500 128.033 M 2641.512 129.048 L 2633.525 129.947 2624.568 132.517 L 2615.612 135.086 2607.473 138.900 L 2599.334 142.714 2591.756 147.827 L 2584.178 152.941 2578.043 158.621 L 2571.908 164.301 2565.443 172.901 L 2558.979 181.500 2555.048 189.041 L 2551.116 196.582 2548.526 204.518 L 2545.935 212.455 2544.471 221.477 L 2543.008 230.500 2543.004 240.119 L 2543 249.738 2544.526 258.619 L 2546.052 267.500 2548.186 274 L 2550.319 280.500 2553.133 286.783 L 2555.946 293.067 2560.595 300.283 L 2565.244 307.500 2570.867 313.932 L 2576.490 320.365 2583.782 326.160 L 2591.074 331.955 2598.011 336.076 L 2604.949 340.197 2612.112 343.113 L 2619.275 346.028 2627.388 348.153 L 2635.500 350.278 2649.176 350.765 L 2662.852 351.252 2671.176 350.058 L 2679.500 348.864 2690 345.397 L 2700.500 341.930 2708.500 337.317 L 2716.500 332.705 2722 328.482 L 2727.500 324.258 2735.291 316.098 L 2743.081 307.937 2747.756 300.719 L 2752.432 293.500 2756.094 285 L 2759.756 276.500 2761.878 269 L 2763.999 261.500 2765.200 250.750 L 2766.401 240 2765.184 229.055 L 2763.967 218.109 2761.444 209.404 L 2758.922 200.699 2755.499 193.292 L 2752.077 185.884 2747.311 178.692 L 2742.544 171.500 2734.025 162.642 L 2725.507 153.784 2715.398 147.024 L 2705.289 140.265 2694.894 136.226 L 2684.500 132.188 2676.500 130.627 L 2668.500 129.065 2659 128.607 L 2649.500 128.148 2641.512 129.048 M 3006.500 129.019 L 2999.500 129.766 2992.538 131.520 L 2985.576 133.273 2976.038 137.240 L 2966.500 141.207 2958 146.743 L 2949.500 152.280 2942.113 159.390 L 2934.725 166.500 2929.403 173.642 L 2924.081 180.785 2920.606 187.142 L 2917.132 193.500 2915.058 198.807 L 2912.984 204.114 2910.950 211.961 L 2908.916 219.807 2908.111 229.347 L 2907.307 238.888 2908.130 249.435 L 2908.953 259.982 2910.940 267.765 L 2912.927 275.549 2915.933 282.836 L 2918.938 290.124 2923.719 298.225 L 2928.500 306.326 2936.500 314.835 L 2944.500 323.345 2952.036 328.950 L 2959.573 334.555 2967.677 338.771 L 2975.781 342.987 2984.751 345.919 L 2993.720 348.850 3001.934 350.051 L 3010.148 351.252 3023.824 350.765 L 3037.500 350.278 3045.868 348.087 L 3054.236 345.897 3060.868 343.261 L 3067.500 340.626 3075 336.217 L 3082.500 331.809 3089.263 326.280 L 3096.027 320.751 3101.184 315.126 L 3106.341 309.500 3112.040 300.839 L 3117.739 292.179 3120.847 284.714 L 3123.954 277.249 3126.470 268.375 L 3128.987 259.500 3129.815 250 L 3130.643 240.500 3129.827 230.573 L 3129.010 220.646 3126.477 211.073 L 3123.944 201.500 3119.076 191.500 L 3114.208 181.500 3109.787 175.500 L 3105.365 169.500 3099.555 163.228 L 3093.744 156.956 3085.764 150.943 L 3077.784 144.930 3067.642 140.007 L 3057.500 135.083 3048.876 132.611 L 3040.252 130.138 3030.666 129.069 L 3021.079 128 3017.289 128.136 L 3013.500 128.272 3006.500 129.019 M 3234.740 129.087 L 3226.980 129.907 3218.740 132.054 L 3210.500 134.200 3200.434 139.028 L 3190.367 143.856 3182.434 149.761 L 3174.500 155.666 3167.647 162.960 L 3160.794 170.255 3156.289 177.220 L 3151.784 184.184 3147.823 192.636 L 3143.862 201.088 3141.251 210.794 L 3138.640 220.500 3138.640 238 L 3138.640 255.500 3141.316 265.500 L 3143.992 275.500 3148.439 284.720 L 3152.885 293.940 3157.066 300.097 L 3161.247 306.254 3168.302 313.681 L 3175.357 321.108 3181.928 326.103 L 3188.500 331.099 3199.500 336.533 L 3210.500 341.968 3218.773 344.015 L 3227.045 346.062 3235.273 347.122 L 3243.500 348.181 3252.615 347.540 L 3261.731 346.899 3270.637 345.074 L 3279.543 343.250 3287.412 340.099 L 3295.281 336.948 3295.871 337.537 L 3296.460 338.127 3292.757 345.321 L 3289.053 352.516 3283.776 357.699 L 3278.500 362.883 3272.729 366.339 L 3266.959 369.795 3259.877 371.530 L 3252.795 373.266 3244.147 372.744 L 3235.500 372.223 3229.764 370.045 L 3224.029 367.867 3218.013 363.850 L 3211.997 359.832 3199.255 373.166 L 3186.513 386.500 3179.756 393.576 L 3173 400.651 3173 401.722 L 3173 402.793 3176.734 406.072 L 3180.468 409.350 3188.622 414.665 L 3196.776 419.980 3204.698 423.371 L 3212.620 426.762 3221.060 428.981 L 3229.500 431.201 3242.590 431.726 L 3255.681 432.250 3265.340 430.604 L 3275 428.957 3282.250 426.353 L 3289.500 423.749 3296.500 420.239 L 3303.500 416.729 3309.500 412.666 L 3315.500 408.604 3324.565 399.552 L 3333.631 390.500 3337.921 384.107 L 3342.211 377.714 3346.080 369.960 L 3349.949 362.206 3352.433 353.634 L 3354.917 345.062 3356.023 336.756 L 3357.128 328.450 3356.768 274.975 L 3356.407 221.500 3353.745 211.687 L 3351.083 201.874 3347.724 194.104 L 3344.365 186.334 3339.432 178.509 L 3334.500 170.683 3327.326 163.033 L 3320.152 155.383 3311.326 149.101 L 3302.500 142.820 3294.500 138.963 L 3286.500 135.106 3277.775 132.592 L 3269.050 130.079 3258.919 129.040 L 3248.788 128 3245.644 128.133 L 3242.500 128.266 3234.740 129.087 M 3597 130.508 L 3589.500 131.926 3583 134.098 L 3576.500 136.271 3567.485 140.646 L 3558.471 145.021 3549.823 151.512 L 3541.176 158.002 3534.988 164.751 L 3528.800 171.500 3523.319 179.732 L 3517.839 187.965 3514.399 196.402 L 3510.959 204.840 3508.849 212.670 L 3506.739 220.500 3506.279 237 L 3505.818 253.500 3507.803 263.122 L 3509.788 272.744 3513.185 281.203 L 3516.581 289.662 3520.884 297.182 L 3525.186 304.702 3531.376 312.101 L 3537.566 319.500 3546.533 326.760 L 3555.500 334.019 3567.500 340.009 L 3579.500 346 3587.387 347.994 L 3595.274 349.988 3606.671 351.101 L 3618.068 352.214 3627.784 351.088 L 3637.500 349.962 3646 347.865 L 3654.500 345.768 3660.750 342.947 L 3667 340.125 3667 344.563 L 3667 349 3696.500 349 L 3726 349 3726 239 L 3726 129 3696.500 129 L 3667 129 3667 134.500 L 3667 140 3666.124 140 L 3665.249 140 3659.442 137.432 L 3653.634 134.864 3644.567 132.342 L 3635.500 129.821 3620 129.456 L 3604.500 129.090 3597 130.508 M 3844.951 130.547 L 3837.403 131.914 3828.451 135.070 L 3819.500 138.227 3814.500 140.725 L 3809.500 143.222 3801.500 148.522 L 3793.500 153.821 3784.881 162.661 L 3776.263 171.500 3770.585 180.224 L 3764.908 188.947 3761.997 196.008 L 3759.085 203.068 3757.111 210.284 L 3755.136 217.500 3754.068 224.692 L 3753 231.883 3753 319.358 L 3753 406.834 3781.750 416.417 L 3810.501 426 3811.250 426 L 3812 426 3812 382.555 L 3812 339.110 3817.750 341.677 L 3823.500 344.244 3830.500 346.654 L 3837.500 349.065 3850.500 350.708 L 3863.500 352.351 3875.069 351.196 L 3886.638 350.040 3895.569 347.484 L 3904.500 344.927 3913.607 340.383 L 3922.715 335.839 3931.182 329.485 L 3939.649 323.130 3945.779 316.577 L 3951.909 310.024 3955.898 304.150 L 3959.887 298.276 3963.832 290.388 L 3967.776 282.500 3970.420 274.541 L 3973.064 266.583 3974.636 257.041 L 3976.208 247.500 3975.657 235.500 L 3975.105 223.500 3972.655 213.926 L 3970.205 204.352 3967.099 196.892 L 3963.993 189.431 3958.152 180.399 L 3952.311 171.367 3945.405 164.023 L 3938.500 156.679 3931.240 151.293 L 3923.979 145.906 3916.740 142.038 L 3909.500 138.169 3900.621 135.067 L 3891.742 131.965 3883.240 130.483 L 3874.738 129 3863.619 129.090 L 3852.500 129.179 3844.951 130.547 M 4185 131.884 L 4185 132.767 4228.071 230.125 L 4271.141 327.482 4270.716 329.491 L 4270.291 331.500 4251.575 377.847 L 4232.860 424.193 4233.399 425.597 L 4233.937 427 4263.219 426.985 L 4292.500 426.969 4293.746 426.178 L 4294.992 425.387 4328.094 343.443 L 4361.196 261.500 4363.475 255.500 L 4365.754 249.500 4389.004 192 L 4412.255 134.500 4412.744 132.750 L 4413.233 131 4381.867 131.008 L 4350.500 131.016 4326.491 191.758 L 4302.482 252.500 4301.576 252.500 L 4300.671 252.500 4274.738 191.750 L 4248.805 131 4216.902 131 L 4185 131 4185 131.884 M 756 197 L 756 226.010 854.750 225.755 L 953.500 225.500 953.500 197 L 953.500 168.500 854.750 168.245 L 756 167.990 756 197 M 2642 188.583 L 2636.500 190.034 2630.500 192.989 L 2624.500 195.944 2619.713 200.082 L 2614.926 204.219 2610.846 210.227 L 2606.766 216.235 2604.724 221.867 L 2602.682 227.500 2602.230 236.558 L 2601.778 245.615 2602.963 251.320 L 2604.147 257.025 2607.716 264.160 L 2611.286 271.294 2617.060 276.980 L 2622.835 282.665 2629.667 286.211 L 2636.500 289.756 2642 291.055 L 2647.500 292.354 2655.500 292.254 L 2663.500 292.153 2670.072 290.091 L 2676.644 288.030 2682.572 284.190 L 2688.500 280.351 2693.677 274.675 L 2698.853 269 2701.401 263.750 L 2703.949 258.500 2705.598 252 L 2707.246 245.500 2706.712 237 L 2706.178 228.500 2704.060 222.500 L 2701.942 216.500 2698.507 211.319 L 2695.071 206.138 2690.307 201.573 L 2685.543 197.007 2678.929 193.532 L 2672.316 190.057 2666.448 188.528 L 2660.580 187 2654.040 187.066 L 2647.500 187.132 2642 188.583 M 3006.645 188.584 L 3000.790 190.001 2993.893 193.626 L 2986.995 197.250 2980.882 203.786 L 2974.768 210.321 2971.466 217.212 L 2968.163 224.103 2966.962 231.227 L 2965.760 238.352 2966.397 244.568 L 2967.034 250.785 2969.021 256.562 L 2971.009 262.340 2973.570 266.710 L 2976.131 271.079 2979.315 274.718 L 2982.500 278.357 2988.275 282.616 L 2994.050 286.875 2999.628 288.962 L 3005.205 291.049 3012.362 292.044 L 3019.518 293.039 3027.509 291.636 L 3035.500 290.232 3041.116 287.562 L 3046.733 284.892 3052.556 280.196 L 3058.380 275.500 3062.723 269.012 L 3067.067 262.523 3069.087 256.012 L 3071.106 249.500 3071.647 243.500 L 3072.188 237.500 3070.601 230 L 3069.015 222.500 3065.837 216 L 3062.659 209.500 3055.901 202.718 L 3049.143 195.936 3041.821 192.581 L 3034.500 189.226 3029.201 188.113 L 3023.902 187 3018.201 187.083 L 3012.500 187.167 3006.645 188.584 M 3237.056 188.024 L 3232.613 188.962 3225.556 192.342 L 3218.500 195.723 3213.813 199.891 L 3209.126 204.059 3205.072 210.130 L 3201.019 216.200 3199.009 222.705 L 3197 229.211 3197 237.395 L 3197 245.580 3198.533 251.465 L 3200.066 257.350 3202.783 262.396 L 3205.500 267.443 3211.619 273.708 L 3217.738 279.974 3225.392 283.609 L 3233.046 287.244 3240.451 288.311 L 3247.856 289.378 3254.928 288.283 L 3262.001 287.188 3268.250 284.245 L 3274.500 281.302 3279.823 277.070 L 3285.146 272.838 3289.905 265.548 L 3294.664 258.258 3296.501 251.879 L 3298.337 245.500 3298.247 237 L 3298.157 228.500 3296.074 222.580 L 3293.991 216.660 3291.380 212.205 L 3288.770 207.751 3285.268 203.875 L 3281.766 199.999 3276.996 196.497 L 3272.226 192.995 3265.377 190.417 L 3258.528 187.840 3250.014 187.463 L 3241.500 187.086 3237.056 188.024 M 3607 188.086 L 3602.500 188.954 3594.201 193.049 L 3585.903 197.145 3580.124 202.823 L 3574.346 208.500 3571.678 213.080 L 3569.009 217.660 3567.021 223.438 L 3565.034 229.215 3564.397 235.432 L 3563.760 241.648 3564.987 248.922 L 3566.214 256.195 3570.095 263.950 L 3573.976 271.704 3578.808 276.602 L 3583.639 281.500 3587.716 284.314 L 3591.793 287.128 3598.884 289.595 L 3605.976 292.061 3613.738 292.635 L 3621.500 293.210 3628.312 291.605 L 3635.124 290 3640.812 287.330 L 3646.500 284.659 3653.592 277.580 L 3660.685 270.500 3663.820 263.904 L 3666.955 257.308 3668.089 252.023 L 3669.222 246.737 3668.775 237.119 L 3668.329 227.500 3666.269 221.832 L 3664.209 216.164 3660.892 211.332 L 3657.575 206.500 3652.569 201.690 L 3647.563 196.880 3639.532 192.956 L 3631.500 189.032 3625 188.024 L 3618.500 187.015 3615 187.117 L 3611.500 187.219 3607 188.086 M 3856.763 187.973 L 3852.027 188.830 3847.077 190.475 L 3842.126 192.119 3836.313 195.884 L 3830.500 199.649 3825.323 205.325 L 3820.147 211 3817.514 216.381 L 3814.882 221.762 3813.453 227.131 L 3812.024 232.500 3812.012 240.040 L 3812 247.580 3813.489 253.297 L 3814.978 259.014 3818.113 265.223 L 3821.247 271.432 3827.407 277.593 L 3833.568 283.753 3839.774 286.886 L 3845.979 290.018 3852.240 291.494 L 3858.500 292.970 3864.500 292.970 L 3870.500 292.970 3876.907 291.460 L 3883.314 289.950 3889.136 286.847 L 3894.959 283.743 3900.475 278.622 L 3905.992 273.500 3909.532 267.500 L 3913.073 261.500 3915.036 255.145 L 3917 248.789 3917 241.444 L 3917 234.098 3915.895 228.799 L 3914.790 223.500 3911.810 217.178 L 3908.829 210.857 3902.474 204.119 L 3896.118 197.382 3891.102 194.652 L 3886.085 191.922 3880.356 189.950 L 3874.627 187.979 3868.063 187.547 L 3861.500 187.115 3856.763 187.973 M 83 256.026 L 83 291.222 115.250 290.743 L 147.500 290.265 153.267 288.641 L 159.034 287.017 163.807 284.598 L 168.580 282.179 172.658 277.755 L 176.735 273.332 178.118 269.416 L 179.500 265.500 179.477 256.500 L 179.453 247.500 176.883 242 L 174.313 236.500 170.927 233.211 L 167.541 229.923 162.390 227.402 L 157.238 224.882 151.869 223.290 L 146.500 221.698 114.750 221.265 L 83 220.831 83 256.026 M 1156 256.026 L 1156 291.222 1188.250 290.722 L 1220.500 290.222 1226 288.779 L 1231.500 287.337 1236.547 284.754 L 1241.595 282.172 1244.923 278.836 L 1248.252 275.500 1250.375 271 L 1252.499 266.500 1252.499 257 L 1252.500 247.500 1249.917 241.994 L 1247.334 236.488 1244.160 233.314 L 1240.987 230.141 1235.612 227.511 L 1230.238 224.882 1224.869 223.290 L 1219.500 221.698 1187.750 221.265 L 1156 220.831 1156 256.026 M 756 320.500 L 756 349 855 349 L 954 349 954 320.500 L 954 292 855 292 L 756 292 756 320.500" stroke="none" fill="#bc987e" fill-rule="evenodd"/></svg>